<svg width="120" height="120" viewBox="0 0 120 120" fill="none" xmlns="http://www.w3.org/2000/svg">
<path opacity="0.2" d="M20 18.75C20 8.39465 28.3947 0 38.75 0H101.25C111.605 0 120 8.39466 120 18.75V81.25C120 91.6053 111.605 100 101.25 100H38.75C28.3946 100 20 91.6053 20 81.25V18.75Z" fill="#FFA800"/>
<path d="M57.0629 20.2185L53.4375 21.1534L8.77114 32.672L5.14568 33.6069C3.38593 34.0628 1.87888 35.1982 0.955173 36.7638C0.0314627 38.3295 -0.233474 40.1977 0.218486 41.9585L15.9393 102.92C16.3952 104.68 17.5305 106.187 19.0962 107.111C20.6619 108.034 22.53 108.299 24.2908 107.847L24.3002 107.845L76.1987 94.4613L76.2081 94.4589C77.9678 94.003 79.4749 92.8676 80.3986 91.3019C81.3223 89.7363 81.5872 87.8681 81.1353 86.1073L65.4145 25.1457C64.9586 23.386 63.8232 21.8789 62.2575 20.9552C60.6919 20.0315 58.8237 19.7665 57.0629 20.2185Z" fill="#F2F2F2"/>
<path d="M57.5557 22.1293L53.2616 23.2367L9.9324 34.4104L5.63837 35.5178C4.3852 35.8424 3.31199 36.6509 2.65419 37.7659C1.99639 38.8808 1.80772 40.2112 2.12958 41.4651L17.8504 102.427C18.175 103.68 18.9835 104.753 20.0985 105.411C21.2134 106.069 22.5438 106.257 23.7977 105.935L23.807 105.933L75.7056 92.5495L75.715 92.547C76.9681 92.2223 78.0413 91.4138 78.6991 90.2989C79.3569 89.1839 79.5456 87.8536 79.2237 86.5997L63.5029 25.6381C63.1783 24.385 62.3698 23.3118 61.2548 22.654C60.1399 21.9962 58.8096 21.8075 57.5557 22.1293Z" fill="white"/>
<path d="M54.313 41.8702L28.0588 48.6407C27.7655 48.7163 27.4543 48.6723 27.1935 48.5185C26.9326 48.3646 26.7436 48.1134 26.668 47.8202C26.5924 47.5269 26.6364 47.2157 26.7902 46.9548C26.9441 46.694 27.1953 46.505 27.4885 46.4294L53.7427 39.659C54.0359 39.5837 54.3469 39.6278 54.6075 39.7817C54.8681 39.9356 55.0569 40.1867 55.1325 40.4797C55.2081 40.7728 55.1642 41.0839 55.0105 41.3446C54.8569 41.6053 54.606 41.7944 54.313 41.8702Z" fill="#F2F2F2"/>
<path d="M59.8361 44.4259L29.0212 52.3725C28.7279 52.4481 28.4167 52.4041 28.1559 52.2502C27.895 52.0964 27.706 51.8452 27.6304 51.552C27.5548 51.2587 27.5988 50.9475 27.7526 50.6866C27.9065 50.4258 28.1577 50.2368 28.4509 50.1612L59.2659 42.2146C59.5591 42.139 59.8704 42.183 60.1312 42.3369C60.392 42.4907 60.581 42.7419 60.6566 43.0352C60.7323 43.3284 60.6883 43.6396 60.5344 43.9005C60.3805 44.1613 60.1294 44.3503 59.8361 44.4259Z" fill="#F2F2F2"/>
<path d="M58.6255 58.5931L32.3713 65.3636C32.2261 65.401 32.0749 65.4095 31.9265 65.3885C31.778 65.3676 31.6351 65.3175 31.506 65.2414C31.3768 65.1652 31.2639 65.0643 31.1738 64.9445C31.0836 64.8247 31.0179 64.6883 30.9805 64.5431C30.9431 64.3979 30.9346 64.2467 30.9556 64.0983C30.9765 63.9498 31.0265 63.8069 31.1027 63.6778C31.1789 63.5486 31.2798 63.4357 31.3996 63.3456C31.5194 63.2554 31.6558 63.1898 31.801 63.1523L58.0552 56.3819C58.2004 56.3444 58.3516 56.336 58.5 56.3569C58.6485 56.3779 58.7914 56.4279 58.9205 56.5041C59.0497 56.5803 59.1625 56.6812 59.2527 56.801C59.3429 56.9208 59.4085 57.0572 59.446 57.2024C59.4834 57.3476 59.4919 57.4987 59.4709 57.6472C59.45 57.7957 59.4 57.9386 59.3238 58.0677C59.2476 58.1968 59.1467 58.3097 59.0269 58.3999C58.9071 58.49 58.7707 58.5557 58.6255 58.5931Z" fill="#F2F2F2"/>
<path d="M64.1486 61.1483L33.3337 69.0949C33.1885 69.1323 33.0373 69.1408 32.8889 69.1198C32.7404 69.0989 32.5975 69.0489 32.4684 68.9727C32.3392 68.8965 32.2263 68.7956 32.1362 68.6758C32.046 68.556 31.9804 68.4196 31.9429 68.2744C31.9055 68.1292 31.897 67.978 31.918 67.8296C31.9389 67.6811 31.9889 67.5382 32.0651 67.4091C32.1413 67.2799 32.2422 67.167 32.362 67.0769C32.4818 66.9867 32.6182 66.9211 32.7634 66.8836L63.5784 58.9371C63.8716 58.8614 64.1829 58.9054 64.4437 59.0593C64.7045 59.2132 64.8935 59.4643 64.9691 59.7576C65.0448 60.0508 65.0008 60.3621 64.8469 60.6229C64.693 60.8837 64.4418 61.0727 64.1486 61.1483Z" fill="#F2F2F2"/>
<path d="M62.9382 75.3158L36.684 82.0862C36.3908 82.1616 36.0797 82.1175 35.8191 81.9636C35.5584 81.8097 35.3696 81.5586 35.294 81.2655C35.2184 80.9724 35.2623 80.6613 35.416 80.4006C35.5697 80.1398 35.8207 79.9508 36.1137 79.875L62.3679 73.1045C62.6612 73.0289 62.9724 73.0729 63.2333 73.2268C63.4941 73.3806 63.6831 73.6318 63.7587 73.925C63.8343 74.2183 63.7903 74.5295 63.6365 74.7904C63.4826 75.0512 63.2314 75.2402 62.9382 75.3158Z" fill="#F2F2F2"/>
<path d="M68.4611 77.871L37.6462 85.8175C37.5009 85.8551 37.3497 85.8637 37.2011 85.8429C37.0526 85.822 36.9096 85.772 36.7803 85.6958C36.6511 85.6197 36.5381 85.5188 36.4479 85.3989C36.3576 85.279 36.2919 85.1426 36.2544 84.9973C36.217 84.852 36.2085 84.7008 36.2295 84.5522C36.2505 84.4037 36.3006 84.2607 36.3769 84.1315C36.4532 84.0023 36.5542 83.8895 36.6742 83.7993C36.7941 83.7092 36.9306 83.6436 37.0759 83.6063L67.8909 75.6597C68.1841 75.5841 68.4954 75.6281 68.7562 75.7819C69.017 75.9358 69.206 76.187 69.2816 76.4802C69.3573 76.7735 69.3133 77.0847 69.1594 77.3455C69.0055 77.6064 68.7544 77.7954 68.4611 77.871Z" fill="#F2F2F2"/>
<path d="M23.5767 55.583L14.2856 57.979C14.145 58.0151 13.9958 57.9939 13.8708 57.9202C13.7458 57.8464 13.6551 57.7261 13.6187 57.5856L11.486 49.3152C11.4499 49.1746 11.471 49.0254 11.5448 48.9004C11.6185 48.7754 11.7389 48.6847 11.8794 48.6483L21.1705 46.2523C21.3111 46.2162 21.4603 46.2374 21.5853 46.3111C21.7103 46.3849 21.801 46.5052 21.8374 46.6458L23.9701 54.9161C24.0062 55.0567 23.9851 55.2059 23.9113 55.3309C23.8376 55.456 23.7172 55.5466 23.5767 55.583Z" fill="#E6E6E6"/>
<path d="M27.8892 72.3054L18.5981 74.7014C18.4575 74.7375 18.3083 74.7164 18.1833 74.6426C18.0583 74.5688 17.9676 74.4485 17.9312 74.308L15.7985 66.0376C15.7624 65.897 15.7835 65.7478 15.8573 65.6228C15.931 65.4978 16.0514 65.4071 16.1919 65.3707L25.483 62.9747C25.6236 62.9386 25.7728 62.9598 25.8978 63.0336C26.0228 63.1073 26.1135 63.2277 26.1499 63.3682L28.2826 71.6386C28.3187 71.7792 28.2976 71.9283 28.2238 72.0533C28.1501 72.1784 28.0297 72.269 27.8892 72.3054Z" fill="#E6E6E6"/>
<path d="M32.2017 89.0281L22.9106 91.4241C22.77 91.4602 22.6208 91.439 22.4958 91.3653C22.3708 91.2915 22.2801 91.1712 22.2437 91.0306L20.111 82.7603C20.0749 82.6197 20.096 82.4705 20.1698 82.3455C20.2435 82.2204 20.3639 82.1298 20.5044 82.0934L29.7955 79.6974C29.9361 79.6613 30.0853 79.6825 30.2103 79.7562C30.3353 79.83 30.426 79.9503 30.4624 80.0908L32.5951 88.3612C32.6312 88.5018 32.6101 88.651 32.5363 88.776C32.4626 88.901 32.3422 88.9917 32.2017 89.0281Z" fill="#E6E6E6"/>
<path d="M93.2722 35.6714H39.6564C37.8385 35.6734 36.0957 36.3965 34.8103 37.6819C33.5249 38.9673 32.8018 40.7101 32.7998 42.528V105.484C32.8018 107.302 33.5249 109.045 34.8103 110.33C36.0957 111.616 37.8385 112.339 39.6564 112.341H93.2722C95.09 112.339 96.8328 111.616 98.1182 110.33C99.4036 109.045 100.127 107.302 100.129 105.484V42.528C100.127 40.7101 99.4036 38.9673 98.1182 37.6819C96.8328 36.3965 95.09 35.6734 93.2722 35.6714Z" fill="#E6E6E6"/>
<path d="M93.2725 37.6448H39.6567C38.3621 37.6462 37.121 38.1611 36.2057 39.0765C35.2903 39.9919 34.7754 41.233 34.7739 42.5275V105.484C34.7754 106.778 35.2903 108.019 36.2057 108.935C37.121 109.85 38.3621 110.365 39.6567 110.366H93.2725C94.567 110.365 95.8081 109.85 96.7235 108.935C97.6388 108.019 98.1537 106.778 98.1552 105.484V42.5275C98.1537 41.233 97.6388 39.9919 96.7235 39.0765C95.8081 38.1611 94.567 37.6462 93.2725 37.6448Z" fill="white"/>
<path d="M85.203 72.2392H58.0899C57.9398 72.2393 57.7912 72.2099 57.6525 72.1526C57.5138 72.0953 57.3878 72.0112 57.2817 71.9052C57.1755 71.7992 57.0913 71.6732 57.0338 71.5346C56.9764 71.396 56.9468 71.2474 56.9468 71.0974C56.9468 70.9473 56.9764 70.7987 57.0338 70.6601C57.0913 70.5215 57.1755 70.3956 57.2817 70.2895C57.3878 70.1835 57.5138 70.0994 57.6525 70.0421C57.7912 69.9848 57.9398 69.9554 58.0899 69.9556H85.203C85.5056 69.9559 85.7957 70.0764 86.0096 70.2904C86.2234 70.5045 86.3435 70.7948 86.3435 71.0974C86.3435 71.4 86.2234 71.6902 86.0096 71.9043C85.7957 72.1184 85.5056 72.2388 85.203 72.2392Z" fill="#E6E6E6"/>
<path d="M89.913 76.0925H58.0899C57.9398 76.0926 57.7912 76.0632 57.6525 76.0059C57.5138 75.9486 57.3878 75.8645 57.2817 75.7585C57.1755 75.6524 57.0913 75.5265 57.0338 75.3879C56.9764 75.2493 56.9468 75.1007 56.9468 74.9506C56.9468 74.8006 56.9764 74.652 57.0338 74.5134C57.0913 74.3748 57.1755 74.2489 57.2817 74.1428C57.3878 74.0368 57.5138 73.9527 57.6525 73.8954C57.7912 73.8381 57.9398 73.8087 58.0899 73.8088H89.913C90.2158 73.8088 90.5062 73.9291 90.7203 74.1433C90.9345 74.3574 91.0548 74.6478 91.0548 74.9506C91.0548 75.2535 90.9345 75.5439 90.7203 75.758C90.5062 75.9722 90.2158 76.0925 89.913 76.0925Z" fill="#E6E6E6"/>
<path d="M85.203 89.5092H58.0899C57.9398 89.5094 57.7912 89.48 57.6525 89.4227C57.5138 89.3653 57.3878 89.2813 57.2817 89.1752C57.1755 89.0692 57.0913 88.9433 57.0338 88.8046C56.9764 88.666 56.9468 88.5174 56.9468 88.3674C56.9468 88.2173 56.9764 88.0688 57.0338 87.9302C57.0913 87.7915 57.1755 87.6656 57.2817 87.5596C57.3878 87.4535 57.5138 87.3694 57.6525 87.3121C57.7912 87.2548 57.9398 87.2254 58.0899 87.2256H85.203C85.5058 87.2256 85.7963 87.3459 86.0104 87.56C86.2245 87.7741 86.3448 88.0646 86.3448 88.3674C86.3448 88.6702 86.2245 88.9606 86.0104 89.1748C85.7963 89.3889 85.5058 89.5092 85.203 89.5092Z" fill="#E6E6E6"/>
<path d="M89.913 93.3627H58.0899C57.9398 93.3629 57.7912 93.3335 57.6525 93.2762C57.5138 93.2189 57.3878 93.1348 57.2817 93.0287C57.1755 92.9227 57.0913 92.7968 57.0338 92.6582C56.9764 92.5195 56.9468 92.371 56.9468 92.2209C56.9468 92.0709 56.9764 91.9223 57.0338 91.7837C57.0913 91.6451 57.1755 91.5191 57.2817 91.4131C57.3878 91.307 57.5138 91.223 57.6525 91.1657C57.7912 91.1083 57.9398 91.0789 58.0899 91.0791H89.913C90.063 91.0789 90.2116 91.1083 90.3503 91.1657C90.489 91.223 90.615 91.307 90.7212 91.4131C90.8273 91.5191 90.9115 91.6451 90.969 91.7837C91.0265 91.9223 91.056 92.0709 91.056 92.2209C91.056 92.371 91.0265 92.5195 90.969 92.6582C90.9115 92.7968 90.8273 92.9227 90.7212 93.0287C90.615 93.1348 90.489 93.2189 90.3503 93.2762C90.2116 93.3335 90.063 93.3629 89.913 93.3627Z" fill="#E6E6E6"/>
<path d="M52.0166 77.8418H42.4215C42.2764 77.8416 42.1372 77.7839 42.0346 77.6812C41.9319 77.5786 41.8742 77.4394 41.874 77.2943V68.7533C41.8742 68.6082 41.9319 68.469 42.0346 68.3663C42.1372 68.2637 42.2764 68.206 42.4215 68.2058H52.0166C52.1618 68.206 52.3009 68.2637 52.4036 68.3663C52.5062 68.469 52.5639 68.6082 52.5641 68.7533V77.2943C52.5639 77.4394 52.5062 77.5786 52.4036 77.6812C52.3009 77.7839 52.1618 77.8416 52.0166 77.8418Z" fill="#E6E6E6"/>
<path d="M85.9375 116.875C98.8817 116.875 109.375 106.382 109.375 93.4375C109.375 80.4933 98.8817 70 85.9375 70C72.9933 70 62.5 80.4933 62.5 93.4375C62.5 106.382 72.9933 116.875 85.9375 116.875Z" fill="#FFA800"/>
<path d="M97.447 90.2985H89.0764V81.928C89.0764 81.0955 88.7457 80.2971 88.1571 79.7084C87.5684 79.1198 86.77 78.7891 85.9375 78.7891C85.105 78.7891 84.3066 79.1198 83.7179 79.7084C83.1293 80.2971 82.7986 81.0955 82.7986 81.928V90.2985H74.428C73.5955 90.2985 72.7971 90.6293 72.2084 91.2179C71.6198 91.8066 71.2891 92.605 71.2891 93.4375C71.2891 94.27 71.6198 95.0684 72.2084 95.6571C72.7971 96.2458 73.5955 96.5765 74.428 96.5765H82.7986V104.947C82.7986 105.779 83.1293 106.578 83.7179 107.167C84.3066 107.755 85.105 108.086 85.9375 108.086C86.77 108.086 87.5684 107.755 88.1571 107.167C88.7457 106.578 89.0764 105.779 89.0764 104.947V96.5765H97.447C98.2795 96.5765 99.0779 96.2458 99.6666 95.6571C100.255 95.0684 100.586 94.27 100.586 93.4375C100.586 92.605 100.255 91.8066 99.6666 91.2179C99.0779 90.6293 98.2795 90.2985 97.447 90.2985Z" fill="white"/>
<path d="M52.0166 95.112H42.4215C42.2764 95.1119 42.1372 95.0541 42.0346 94.9515C41.9319 94.8489 41.8742 94.7097 41.874 94.5645V86.0236C41.8742 85.8784 41.9319 85.7393 42.0346 85.6366C42.1372 85.534 42.2764 85.4762 42.4215 85.4761H52.0166C52.1618 85.4762 52.3009 85.534 52.4036 85.6366C52.5062 85.7393 52.5639 85.8784 52.5641 86.0236V94.5645C52.5639 94.7097 52.5062 94.8489 52.4036 94.9515C52.3009 95.0541 52.1618 95.1119 52.0166 95.112Z" fill="#E6E6E6"/>
<path d="M85.2333 53.0143H65.2439C64.941 53.0143 64.6506 52.894 64.4365 52.6799C64.2223 52.4658 64.1021 52.1753 64.1021 51.8725C64.1021 51.5697 64.2223 51.2793 64.4365 51.0651C64.6506 50.851 64.941 50.7307 65.2439 50.7307H85.2333C85.5361 50.7307 85.8265 50.851 86.0406 51.0651C86.2548 51.2793 86.3751 51.5697 86.3751 51.8725C86.3751 52.1753 86.2548 52.4658 86.0406 52.6799C85.8265 52.894 85.5361 53.0143 85.2333 53.0143Z" fill="#CCCCCC"/>
<path d="M89.9432 56.8678H65.2439C65.0939 56.8678 64.9454 56.8383 64.8069 56.7809C64.6684 56.7235 64.5425 56.6394 64.4365 56.5334C64.3305 56.4274 64.2463 56.3015 64.189 56.163C64.1316 56.0245 64.1021 55.876 64.1021 55.726C64.1021 55.5761 64.1316 55.4276 64.189 55.2891C64.2463 55.1506 64.3305 55.0247 64.4365 54.9187C64.5425 54.8126 64.6684 54.7285 64.8069 54.6711C64.9454 54.6138 65.0939 54.5842 65.2439 54.5842H89.9432C90.246 54.5842 90.5365 54.7045 90.7506 54.9187C90.9647 55.1328 91.085 55.4232 91.085 55.726C91.085 56.0289 90.9647 56.3193 90.7506 56.5334C90.5365 56.7475 90.246 56.8678 89.9432 56.8678Z" fill="#CCCCCC"/>
<path d="M60.8197 61.5379H42.3912C42.2461 61.5378 42.1069 61.4801 42.0043 61.3774C41.9016 61.2748 41.8439 61.1356 41.8438 60.9905V46.608C41.8439 46.4629 41.9016 46.3237 42.0043 46.2211C42.1069 46.1184 42.2461 46.0607 42.3912 46.0605H60.8197C60.9649 46.0607 61.1041 46.1184 61.2067 46.2211C61.3094 46.3237 61.3671 46.4629 61.3672 46.608V60.9905C61.3671 61.1356 61.3094 61.2748 61.2067 61.3774C61.1041 61.4801 60.9649 61.5378 60.8197 61.5379Z" fill="#FFA800"/>
</svg>
