<svg width="120" height="120" viewBox="0 0 120 120" fill="none" xmlns="http://www.w3.org/2000/svg">
<path opacity="0.2" d="M20 18.75C20 8.39465 28.3947 0 38.75 0H101.25C111.605 0 120 8.39467 120 18.75V81.2501C120 91.6054 111.605 100 101.25 100H38.75C28.3947 100 20 91.6054 20 81.2501V18.75Z" fill="#67BFFE"/>
<path d="M16.9396 49.2915H12.8057C11.2836 49.2915 10.0498 50.5253 10.0498 52.0474V68.5829C10.0498 70.1051 11.2836 71.3388 12.8057 71.3388H16.9396V49.2915Z" fill="#299AEB"/>
<path d="M10.0498 60.3149V68.5826C10.0498 70.1048 11.2836 71.3385 12.8057 71.3385H16.9396V63.0709H12.8057C11.2836 63.0709 10.0498 61.8368 10.0498 60.3149Z" fill="#2988CD"/>
<path d="M87.7553 66.2698L83.0811 67.2048V53.4253L87.7554 54.3603C89.0437 54.6179 89.9709 55.7489 89.9709 57.0626V63.5676C89.9707 64.8811 89.0434 66.0123 87.7553 66.2698Z" fill="#999B9C"/>
<path d="M45.8765 45.1574V75.4724C55.5221 75.4724 72.0575 79.6063 83.0811 89.2519V31.3779C72.0575 41.0235 55.5221 45.1574 45.8765 45.1574Z" fill="white"/>
<path d="M45.9196 109.921H45.8765C45.8993 110.035 45.9112 110.018 45.9196 109.921Z" fill="#FF6464"/>
<path d="M22.4512 75.4724L29.3408 108.543H45.8763L39.8297 79.5194C39.3949 77.4321 40.9882 75.4724 43.1205 75.4724H22.4512Z" fill="#67BFFE"/>
<path d="M43.1207 75.4724H21.0734C18.0293 75.4724 15.5615 73.0046 15.5615 69.9606V50.6693C15.5615 47.6253 18.0293 45.1575 21.0734 45.1575H43.1205V75.4724H43.1207Z" fill="#67BFFE"/>
<path d="M45.8765 45.1575H43.1206V75.4724H45.8765V45.1575Z" fill="#299AEB"/>
<path d="M45.8765 75.4725C55.5221 75.4725 72.0575 79.6064 83.0811 89.252V71.3386C72.0575 67.664 55.5221 64.4487 45.8765 64.4487V75.4725Z" fill="#E4E4E4"/>
<path d="M83.77 90.6299C82.6286 90.6299 81.7031 89.7044 81.7031 88.563V32.0669C81.7031 30.9255 82.6286 30 83.77 30C84.9114 30 85.8369 30.9255 85.8369 32.0669V88.5629C85.837 89.7045 84.9116 90.6299 83.77 90.6299Z" fill="#AEB1B2"/>
<path d="M83.77 72.7165C82.6286 72.7165 81.7031 71.7911 81.7031 70.6497V88.5631C81.7031 89.7045 82.6286 90.6299 83.77 90.6299C84.9114 90.6299 85.8369 89.7045 85.8369 88.5631V70.6497C85.837 71.7911 84.9116 72.7165 83.77 72.7165Z" fill="#999B9C"/>
<path d="M45.8765 64.449H43.1206V75.4726H45.8765V64.449Z" fill="#2988CD"/>
<path d="M18.3175 64.4488C16.7953 64.4488 15.5615 63.2151 15.5615 61.6929V69.9605C15.5615 73.0046 18.0293 75.4724 21.0734 75.4724H43.1206V64.4488H18.3175Z" fill="#49ABF1"/>
<path d="M45.8763 109.921H29.3409C28.5799 109.921 27.9629 109.304 27.9629 108.543C27.9629 107.782 28.5799 107.165 29.3409 107.165H45.8763C46.6372 107.165 47.2543 107.782 47.2543 108.543C47.2541 109.304 46.6372 109.921 45.8763 109.921Z" fill="#49ABF1"/>
</svg>
