<svg width="120" height="120" viewBox="0 0 120 120" fill="none" xmlns="http://www.w3.org/2000/svg">
<path opacity="0.2" d="M20 18.75C20 8.39464 28.3947 0 38.75 0H101.25C111.605 0 120 8.39465 120 18.75V81.2499C120 91.6053 111.605 99.9999 101.25 99.9999H38.75C28.3946 99.9999 20 91.6053 20 81.2499V18.75Z" fill="#FFA800"/>
<path opacity="0.5" d="M13.3722 40.6554C15.0029 40.6554 16.3249 39.3335 16.3249 37.7027C16.3249 36.072 15.0029 34.75 13.3722 34.75C11.7414 34.75 10.4194 36.072 10.4194 37.7027C10.4194 39.3335 11.7414 40.6554 13.3722 40.6554Z" fill="#F0F0F0"/>
<path opacity="0.5" d="M81.4024 38.1752C83.0332 38.1752 84.3552 36.8532 84.3552 35.2225C84.3552 33.5918 83.0332 32.2698 81.4024 32.2698C79.7717 32.2698 78.4497 33.5918 78.4497 35.2225C78.4497 36.8532 79.7717 38.1752 81.4024 38.1752Z" fill="#F0F0F0"/>
<path opacity="0.5" d="M47.6235 45.6162C48.7977 45.6162 49.7495 44.6644 49.7495 43.4902C49.7495 42.3161 48.7977 41.3643 47.6235 41.3643C46.4494 41.3643 45.4976 42.3161 45.4976 43.4902C45.4976 44.6644 46.4494 45.6162 47.6235 45.6162Z" fill="#F0F0F0"/>
<path d="M9.14879 105.785H11.1572L12.1127 98.0383L9.14844 98.0384L9.14879 105.785Z" fill="#9F616A"/>
<path d="M8.63623 105.129L12.5916 105.129H12.5917C13.2602 105.129 13.9014 105.395 14.3741 105.867C14.8468 106.34 15.1123 106.981 15.1124 107.65V107.732L8.63635 107.732L8.63623 105.129Z" fill="#2F2E41"/>
<path d="M7.88649 78.1152C7.88649 78.1152 7.01604 79.0992 8.45736 82.9347L8.20349 103.965L12.8744 103.874L13.9011 93.6157L15.7704 78.6454L7.88649 78.1152Z" fill="#2F2E41"/>
<path d="M17.3718 81.0231L17.3206 81.0153C11.3453 80.104 6.83622 79.2303 6.79137 79.2216L6.73535 79.2107L8.30174 75.4009C8.28937 75.0028 7.9503 63.8235 8.59938 60.6115C9.22774 57.5022 12.1896 56.9926 12.5271 56.9447L12.866 55.8218L17.1476 58.0497L17.8944 60.6198L18.0461 67.6637L17.3718 81.0231Z" fill="#3F3D56"/>
<path d="M19.9506 66.5249C19.7578 66.5249 19.567 66.5647 19.3904 66.642C19.2137 66.7192 19.055 66.8322 18.9241 66.9738H11.7274L9.09131 67.5349L9.52412 70.8732L18.9015 68.8564C19.0568 69.0318 19.2535 69.1654 19.4737 69.2452C19.6938 69.3249 19.9305 69.3483 20.162 69.3131C20.3936 69.2778 20.6126 69.1852 20.7991 69.0436C20.9856 68.9019 21.1337 68.7158 21.2298 68.5023C21.3259 68.2887 21.3669 68.0544 21.3492 67.8209C21.3315 67.5874 21.2556 67.362 21.1284 67.1654C21.0012 66.9688 20.8267 66.8071 20.621 66.6952C20.4153 66.5834 20.1848 66.5248 19.9506 66.5249H19.9506Z" fill="#FFDAB9"/>
<path d="M20.0131 54.5596C20.9319 52.8788 20.3142 50.7714 18.6334 49.8525C16.9526 48.9337 14.8452 49.5514 13.9264 51.2323C13.0075 52.9131 13.6253 55.0205 15.3061 55.9393C16.9869 56.8581 19.0943 56.2404 20.0131 54.5596Z" fill="#FFDAB9"/>
<path d="M13.7076 50.1231L13.5394 49.7847L14.3855 49.3643C14.3855 49.3643 15.3188 47.8456 17.0078 48.2724C18.6967 48.6992 19.4566 48.9546 19.4566 48.9546L20.3005 49.3792L19.877 49.8007L20.6368 50.0561L20.1292 50.3083L20.7198 50.6478L20.4019 52.3882C20.4019 52.3882 19.8738 51.0682 18.8585 51.5726C17.8432 52.0771 15.9861 51.3119 15.9861 51.3119L14.3727 54.4343C14.3727 54.4343 14.0398 53.3398 13.4464 53.6316C13.4464 53.6316 11.9303 51.2171 13.7076 50.1231Z" fill="#2F2E41"/>
<path d="M9.57042 71.4989L8.74742 69.0508L8.54834 60.8903L8.899 59.7325C9.02522 59.3157 9.23427 58.9288 9.51363 58.5948C9.79298 58.2608 10.1369 57.9866 10.5247 57.7887C10.9126 57.5908 11.3364 57.4733 11.7708 57.4431C12.2052 57.4129 12.6412 57.4707 13.0526 57.6131C13.4641 57.7555 13.8427 57.9794 14.1655 58.2716C14.4884 58.5638 14.7489 58.9181 14.9315 59.3134C15.1142 59.7086 15.2151 60.1367 15.2284 60.5719C15.2416 61.0071 15.1668 61.4405 15.0085 61.8462L13.129 66.6625L13.2245 66.848L17.2965 66.815L18.743 69.4186L9.57042 71.4989Z" fill="#3F3D56"/>
<path d="M50.3116 70.4931C50.4636 70.3907 50.5912 70.2563 50.6856 70.0992C50.78 69.9422 50.8388 69.7664 50.8579 69.5842C50.877 69.4019 50.8559 69.2177 50.7961 69.0446C50.7363 68.8714 50.6393 68.7134 50.5118 68.5818L52.519 64.606L50.22 64.8726L48.6664 68.6072C48.4595 68.836 48.3436 69.1327 48.3409 69.4412C48.3381 69.7497 48.4486 70.0484 48.6514 70.2809C48.8542 70.5133 49.1352 70.6633 49.4412 70.7024C49.7471 70.7415 50.0569 70.667 50.3116 70.4931Z" fill="#FCB99D"/>
<path d="M66.4092 98.6559L64.6003 98.6557L63.7397 91.6785L66.4094 91.6787L66.4092 98.6559Z" fill="#FCB99D"/>
<path d="M66.8703 100.409L61.0376 100.409V100.335C61.0376 99.733 61.2768 99.1556 61.7026 98.7299C62.1283 98.3042 62.7057 98.065 63.3078 98.0649H63.308L66.8704 98.0651L66.8703 100.409Z" fill="#2F2E41"/>
<path d="M56.523 98.6559L54.7141 98.6557L53.8535 91.6785L56.5234 91.6787L56.523 98.6559Z" fill="#FCB99D"/>
<path d="M56.5416 100.409L50.709 100.409V100.335C50.709 99.733 50.9482 99.1556 51.374 98.7299C51.7997 98.3042 52.3771 98.065 52.9792 98.0649H52.9793L56.5417 98.0651L56.5416 100.409Z" fill="#2F2E41"/>
<path d="M56.3747 69.1873L54.6041 73.2663L53.1436 96.7116L56.8322 96.5641L57.8397 85.3875L60.9475 75.4331L62.7341 86.5307L63.4719 96.2689L66.5241 96.4011L67.7404 69.1873H56.3747Z" fill="#2F2E41"/>
<path d="M65.2255 49.0596L60.0938 49.1879L57.081 50.7346L56.9157 62.1455L55.0366 70.0238C55.0366 70.0238 66.7771 70.8319 68.4001 69.6515L66.482 60.6511L69.0546 50.9243L65.2255 49.0596Z" fill="#FFA800"/>
<path d="M57.8735 50.9237L57.3958 50.6011C57.3958 50.6011 55.4167 51.1943 54.8317 53.8333C54.8317 53.8333 54.3841 55.1573 54.1876 56.0676C53.9624 57.1117 48.9878 66.7023 48.9878 66.7023L51.9661 67.5567L57.4265 58.7262L57.8735 50.9237Z" fill="#FFA800"/>
<path d="M68.9744 71.9563C68.8566 71.816 68.771 71.6516 68.7235 71.4746C68.6761 71.2976 68.668 71.1124 68.6999 70.932C68.7318 70.7516 68.8029 70.5803 68.9082 70.4303C69.0134 70.2804 69.1502 70.1553 69.309 70.0639L68.4761 65.6887L70.6123 66.579L71.0758 70.5973C71.2116 70.8742 71.2411 71.1914 71.1587 71.4887C71.0763 71.7859 70.8878 72.0427 70.6288 72.2102C70.3697 72.3777 70.0583 72.4444 69.7534 72.3976C69.4485 72.3508 69.1713 72.1938 68.9744 71.9563Z" fill="#FCB99D"/>
<path d="M68.2824 51.0605L68.8306 50.8821C68.8306 50.8821 70.5694 51.998 70.404 54.696C70.404 54.696 70.4691 56.0922 70.4069 57.0213C70.3355 58.0871 71.2922 68.6776 71.2922 68.6776H68.1937L66.8657 59.087L68.2824 51.0605Z" fill="#FFA800"/>
<path d="M66.4849 44.272C66.4849 44.9756 66.2762 45.6633 65.8853 46.2483C65.4944 46.8333 64.9389 47.2893 64.2888 47.5586C63.6388 47.8278 62.9235 47.8982 62.2335 47.761C61.5434 47.6237 60.9096 47.2849 60.412 46.7874C59.9145 46.2899 59.5757 45.656 59.4385 44.966C59.3012 44.2759 59.3717 43.5607 59.6409 42.9106C59.9102 42.2606 60.3661 41.705 60.9511 41.3141C61.5361 40.9232 62.2239 40.7146 62.9275 40.7146C63.8686 40.7123 64.7721 41.0839 65.4392 41.7477C66.1064 42.4115 66.4825 43.3131 66.4848 44.2543C66.4849 44.2602 66.4849 44.2661 66.4849 44.272Z" fill="#FCB99D"/>
<path d="M59.3822 39.4939C59.7989 38.5978 60.6053 38.775 61.3106 39.0787C62.2038 38.8806 63.0532 38.2875 64.0155 38.6383C64.9634 40.017 68.146 39.6113 67.469 41.8558C67.4681 42.3937 68.481 42.0806 68.3042 42.9615C68.8407 44.6567 66.3673 47.8671 64.9474 47.1911C65.2986 46.5475 66.1008 45.0856 64.884 44.9406C62.2667 47.376 64.614 40.3032 61.3253 42.36C60.2365 43.3566 58.7457 40.4907 59.3822 39.4939Z" fill="#2F2E41"/>
<path d="M69.5966 72.3114C69.7661 72.3454 69.9409 72.3419 70.1088 72.3011C70.2768 72.2603 70.4337 72.1831 70.5686 72.0751C70.7035 71.9671 70.8131 71.8308 70.8896 71.6758C70.9662 71.5208 71.0078 71.351 71.0116 71.1782L79.9438 62.7709L77.934 61.1677L69.7707 69.9572C69.48 69.9701 69.2041 70.0891 68.9954 70.2918C68.7866 70.4945 68.6595 70.7668 68.638 71.0569C68.6165 71.3471 68.7023 71.6351 68.879 71.8663C69.0556 72.0975 69.311 72.2558 69.5966 72.3114Z" fill="#9F616A"/>
<path d="M78.678 64.1297L76.9403 62.0932C76.8909 62.0353 76.8545 61.9673 76.8337 61.8941C76.8128 61.8208 76.8081 61.7439 76.8196 61.6686C76.8312 61.5933 76.8589 61.5214 76.9007 61.4578C76.9426 61.3941 76.9977 61.3403 77.0623 61.2999L79.3246 59.8836C79.6224 59.6323 80.0079 59.5093 80.3963 59.5417C80.7847 59.5741 81.1444 59.7592 81.3965 60.0565C81.6486 60.3537 81.7726 60.7388 81.7412 61.1273C81.7098 61.5158 81.5256 61.876 81.2291 62.1289L79.4807 64.1341C79.4306 64.1915 79.3688 64.2375 79.2993 64.2688C79.2299 64.3001 79.1545 64.3161 79.0784 64.3157C79.0022 64.3153 78.927 64.2985 78.8579 64.2664C78.7888 64.2343 78.7275 64.1877 78.678 64.1297V64.1297Z" fill="#CBCBCB"/>
<path d="M74.0052 105.615L71.8212 105.615L70.7822 97.1912L74.0055 97.1913L74.0052 105.615Z" fill="#9F616A"/>
<path d="M74.5624 107.732L67.5205 107.732V107.643C67.5206 106.916 67.8093 106.219 68.3234 105.705C68.8374 105.191 69.5345 104.902 70.2614 104.902H70.2616L74.5625 104.902L74.5624 107.732Z" fill="#2F2E41"/>
<path d="M91.4626 105.615L89.2787 105.615L88.2397 97.1912L91.4631 97.1913L91.4626 105.615Z" fill="#9F616A"/>
<path d="M92.0199 107.732L84.978 107.732V107.643C84.9781 106.916 85.2669 106.219 85.7809 105.705C86.2949 105.191 86.992 104.902 87.7189 104.902H87.7191L92.02 104.902L92.0199 107.732Z" fill="#2F2E41"/>
<path d="M85.5884 68.595L87.7898 60.4617L84.934 58.8564H80.9477L79.3972 60.5152C79.3972 60.5152 76.8069 62.3175 77.4338 64.3143L78.4453 68.8626L76.8984 76.0862L69.1043 86.895L67.2593 97.5121L74.522 99.416L82.3756 83.952L86.1834 101.075L93.2673 100.719L90.8263 79.9571C90.8263 79.9571 90.1304 73.6325 86.483 69.6835L85.5884 68.595Z" fill="#2F2E41"/>
<path d="M90.1349 75.7912C90.2577 75.6696 90.3523 75.5225 90.412 75.3604C90.4718 75.1982 90.4953 75.0249 90.4809 74.8527C90.4664 74.6805 90.4144 74.5135 90.3285 74.3636C90.2425 74.2136 90.1247 74.0843 89.9834 73.9848L88.2753 62.4617L85.8237 63.2358L88.2779 74.3338C88.1264 74.5823 88.0714 74.8777 88.1232 75.164C88.1751 75.4503 88.3301 75.7077 88.559 75.8874C88.7879 76.067 89.0748 76.1564 89.3652 76.1387C89.6557 76.121 89.9295 75.9974 90.1349 75.7912Z" fill="#9F616A"/>
<path d="M88.6971 64.2702L86.0376 64.5769C85.9619 64.5856 85.8852 64.5779 85.8128 64.5543C85.7404 64.5308 85.6739 64.4918 85.6178 64.4403C85.5618 64.3887 85.5175 64.3256 85.4881 64.2554C85.4586 64.1851 85.4446 64.1093 85.4471 64.0332L85.5332 61.3655C85.4908 60.9781 85.6037 60.5897 85.8472 60.2854C86.0907 59.9812 86.445 59.7859 86.8322 59.7424C87.2195 59.6989 87.6082 59.8107 87.9132 60.0534C88.2181 60.296 88.4144 60.6497 88.459 61.0368L89.1484 63.6064C89.1681 63.68 89.1717 63.757 89.159 63.8321C89.1463 63.9072 89.1176 63.9787 89.0747 64.0417C89.0319 64.1047 88.976 64.1577 88.9109 64.1971C88.8457 64.2366 88.7728 64.2615 88.6971 64.2702V64.2702Z" fill="#CBCBCB"/>
<path d="M78.4829 56.5436V53.1167C78.4829 51.8988 78.9667 50.7308 79.8279 49.8696C80.6891 49.0085 81.8571 48.5247 83.075 48.5247C84.2929 48.5247 85.4609 49.0085 86.322 49.8696C87.1832 50.7308 87.667 51.8988 87.667 53.1167V56.5436C87.6668 56.7071 87.6018 56.8639 87.4861 56.9796C87.3705 57.0952 87.2137 57.1603 87.0502 57.1604H79.0998C78.9362 57.1603 78.7794 57.0952 78.6638 56.9796C78.5481 56.8639 78.4831 56.7071 78.4829 56.5436Z" fill="#2F2E41"/>
<path d="M83.7465 56.6679C85.378 55.7761 85.9776 53.7304 85.0858 52.0989C84.1939 50.4674 82.1482 49.8677 80.5167 50.7596C78.8851 51.6515 78.2855 53.6971 79.1774 55.3287C80.0693 56.9602 82.1149 57.5598 83.7465 56.6679Z" fill="#9F616A"/>
<path d="M77.3965 53.3906C77.3976 52.4275 77.7806 51.5042 78.4616 50.8232C79.1426 50.1422 80.0659 49.7591 81.029 49.7581H81.7144C82.6775 49.7591 83.6008 50.1422 84.2818 50.8232C84.9628 51.5042 85.3458 52.4275 85.3469 53.3906V53.4591H83.8985L83.4044 52.0758L83.3057 53.4591H82.5571L82.3078 52.7611L82.258 53.4591H77.3965V53.3906Z" fill="#2F2E41"/>
<path d="M81.8 57.5455C81.732 57.4534 81.6914 57.344 81.6828 57.2298C81.6743 57.1157 81.6982 57.0015 81.7517 56.9003C82.478 55.5188 83.4949 52.9662 82.1451 51.3919L82.0481 51.2788H85.9668V57.1621L82.407 57.7902C82.3709 57.7966 82.3344 57.7998 82.2978 57.7998C82.2006 57.7998 82.1048 57.7768 82.0183 57.7326C81.9318 57.6884 81.8569 57.6242 81.8 57.5455Z" fill="#2F2E41"/>
<path d="M45.7821 60.6785C45.7324 60.7296 45.6868 60.7845 45.6458 60.8428L39.2609 60.6865L38.516 59.3254L36.3149 60.1811L37.3994 62.7188C37.487 62.9238 37.6388 63.0949 37.8319 63.2063C38.025 63.3177 38.249 63.3635 38.4704 63.3368L45.6841 62.4653C45.8543 62.6808 46.086 62.8393 46.3484 62.9198C46.6109 63.0003 46.8916 62.999 47.1533 62.9161C47.415 62.8332 47.6453 62.6725 47.8135 62.4555C47.9816 62.2386 48.0797 61.9755 48.0948 61.7014C48.1098 61.4273 48.041 61.1551 47.8976 60.921C47.7542 60.687 47.5428 60.5021 47.2918 60.3911C47.0407 60.28 46.7618 60.2481 46.4921 60.2994C46.2224 60.3507 45.9748 60.483 45.7821 60.6785H45.7821Z" fill="#FFB7B7"/>
<path d="M24.9686 99.4544H27.068L28.0667 91.3567L24.9683 91.3568L24.9686 99.4544Z" fill="#FFB7B7"/>
<path d="M24.4331 98.769L28.5676 98.7688H28.5677C29.2665 98.7688 29.9367 99.0464 30.4308 99.5405C30.9249 100.035 31.2025 100.705 31.2025 101.404V101.489L24.4332 101.489L24.4331 98.769Z" fill="#2F2E41"/>
<path d="M44.0318 99.4078L45.9625 98.583L43.6998 90.7439L40.8506 91.9612L44.0318 99.4078Z" fill="#FFB7B7"/>
<path d="M43.27 98.9877L47.0721 97.3634L47.0722 97.3634C47.7148 97.0889 48.4401 97.0809 49.0886 97.3412C49.7371 97.6015 50.2557 98.1087 50.5302 98.7513L50.5638 98.83L44.3388 101.489L43.27 98.9877Z" fill="#2F2E41"/>
<path d="M35.1732 62.4323L35.3249 64.8924L30.8875 65.3673L26.2441 65.8642L27.6108 62.1287L35.1732 62.4323Z" fill="#E4E4E4"/>
<path d="M35.329 63.3152C35.2787 63.2955 30.2665 61.3458 27.1878 62.94L27.1121 62.9792L26.4979 59.9562L26.1479 53.4567L28.4252 52.3806L29.0522 50.9761L33.3229 50.7234L34.2005 51.927L37.1886 52.9062L35.4027 63.3444L35.329 63.3152Z" fill="#E4E4E4"/>
<path d="M35.4858 57.4486L36.0141 53.298L37.2169 52.9319L37.2372 52.9394C37.2649 52.9496 37.9186 53.1998 38.0975 54.1048C38.2693 54.9734 39.5629 60.3791 39.5759 60.4336L39.5888 60.4877L36.5496 61.7037L35.4858 57.4486Z" fill="#E4E4E4"/>
<path d="M42.4679 97.9845L46.5137 97.1546L40.0474 79.3116L37.8343 73.2257C37.8343 73.2257 36.4306 68.346 35.7965 66.4576L35.4138 63.9238L26.354 64.9266C26.354 64.9266 23.8236 68.6427 24.5923 74.6997L24.2446 97.4658L28.2904 97.6733L31.6792 74.7126L37.6268 87.2995C37.6268 87.2995 39.5015 92.6707 40.8427 93.835L42.4679 97.9845Z" fill="#2F2E41"/>
<path d="M29.987 65.7716C29.9157 65.7699 29.8445 65.7738 29.7738 65.7833L25.5473 60.9951L26.0389 59.5235L23.915 58.4912L22.7914 61.0119C22.7006 61.2155 22.6784 61.4431 22.728 61.6604C22.7775 61.8778 22.8963 62.0732 23.0664 62.2173L28.6101 66.9146C28.5678 67.1859 28.6091 67.4636 28.7285 67.7108C28.8479 67.958 29.0397 68.163 29.2785 68.2985C29.5172 68.434 29.7915 68.4936 30.065 68.4694C30.3385 68.4452 30.5981 68.3383 30.8093 68.163C31.0205 67.9876 31.1733 67.7521 31.2474 67.4878C31.3216 67.2235 31.3134 66.9428 31.2242 66.6832C31.1349 66.4236 30.9687 66.1974 30.7477 66.0345C30.5267 65.8717 30.2614 65.78 29.987 65.7716Z" fill="#FFB7B7"/>
<path d="M23.5327 59.2005L25.1851 54.494C25.3707 53.9392 25.6034 53.6021 25.8767 53.4922C25.9305 53.4679 25.9888 53.4552 26.0478 53.4546C26.1068 53.4541 26.1653 53.4658 26.2196 53.489L26.9605 54.425L27.6482 57.3138L25.8851 61.461L23.5327 59.2005Z" fill="#E4E4E4"/>
<path d="M34.4694 49.7495H27.2156C27.0664 49.7493 26.9234 49.69 26.8179 49.5844C26.7123 49.4789 26.653 49.3359 26.6528 49.1867V46.06C26.6528 44.9489 27.0942 43.8832 27.88 43.0975C28.6657 42.3118 29.7313 41.8704 30.8425 41.8704C31.9537 41.8704 33.0193 42.3118 33.8051 43.0975C34.5908 43.8832 35.0322 44.9489 35.0322 46.06V49.1867C35.032 49.3359 34.9727 49.4789 34.8672 49.5844C34.7617 49.69 34.6186 49.7493 34.4694 49.7495Z" fill="#2F2E41"/>
<path d="M31.7036 49.6767C33.4001 49.6767 34.7753 48.3014 34.7753 46.6049C34.7753 44.9085 33.4001 43.5332 31.7036 43.5332C30.0071 43.5332 28.6318 44.9085 28.6318 46.6049C28.6318 48.3014 30.0071 49.6767 31.7036 49.6767Z" fill="#FFB7B7"/>
<path d="M36.0233 46.3728H31.5878L31.5423 45.736L31.3149 46.3728H30.6319L30.5418 45.1107L30.091 46.3728H28.7695V46.3103C28.7705 45.4316 29.12 44.5892 29.7413 43.9679C30.3626 43.3466 31.205 42.9971 32.0837 42.9961H32.7091C33.5877 42.9971 34.4302 43.3466 35.0515 43.9679C35.6728 44.5892 36.0223 45.4316 36.0233 46.3103L36.0233 46.3728Z" fill="#2F2E41"/>
<path d="M31.5516 50.3332C31.5182 50.3332 31.4848 50.3302 31.452 50.3244L28.2041 49.7513V44.3835H31.7794L31.6909 44.4867C30.4593 45.923 31.3871 48.252 32.0498 49.5124C32.0986 49.6048 32.1204 49.709 32.1126 49.8131C32.1048 49.9173 32.0678 50.0171 32.0057 50.1011C31.9538 50.173 31.8855 50.2315 31.8066 50.2718C31.7276 50.3121 31.6402 50.3332 31.5516 50.3332Z" fill="#2F2E41"/>
</svg>
