<svg width="120" height="120" viewBox="0 0 120 120" fill="none" xmlns="http://www.w3.org/2000/svg">
<rect opacity="0.2" x="20" width="99.9999" height="99.9999" rx="10" fill="#6E03A1"/>
<path d="M73.012 35.9353H29.5787C28.4183 35.9353 27.4775 36.8761 27.4775 38.0365V112.765C27.4775 113.926 28.4183 114.866 29.5787 114.866H73.012C74.171 114.866 75.1132 113.926 75.1132 112.765V38.0365C75.1132 36.8761 74.171 35.9353 73.012 35.9353Z" fill="#DADDDF"/>
<path d="M29.8336 35.9353H73.2635C73.8211 35.9353 74.1132 36.1566 74.5052 36.5508C74.8996 36.9447 75.1212 37.4792 75.1212 38.0365V51.8194H27.7275V38.0365C27.7275 37.7601 27.7818 37.4865 27.8877 37.2313C27.9937 36.9761 28.149 36.7441 28.3445 36.5491C28.5402 36.3538 28.7725 36.1992 29.0279 36.0938C29.2833 35.9886 29.5572 35.9348 29.8336 35.9353Z" fill="#6E03A1"/>
<path d="M75.1186 47.8923H27.6416V48.8662H75.1186V47.8923Z" fill="white"/>
<path d="M72.9665 35.9353H27.0992C25.9386 35.9353 24.998 36.8761 24.998 38.0365V112.765C24.998 113.926 25.9386 114.866 27.0992 114.866H72.9665C74.1279 114.866 75.0677 113.926 75.0677 112.765V38.0365C75.0677 36.8761 74.1279 35.9353 72.9665 35.9353Z" fill="#DADDDF"/>
<path d="M26.9742 35.8113H72.9638C73.5213 35.8113 74.0545 36.0326 74.4489 36.4268C74.8433 36.8207 75.0649 37.3551 75.0649 37.9124V51.8195H24.873V37.91C24.8738 37.3532 25.0953 36.8192 25.4893 36.4258C25.8832 36.0323 26.4174 35.8113 26.9742 35.8113Z" fill="#6E03A1"/>
<path opacity="0.2" d="M71.2666 36.0598H73.0688C73.6061 36.0598 74.12 36.2811 74.5002 36.6753C74.8803 37.0692 75.0939 37.6037 75.0939 38.161V112.899C75.0939 113.175 75.0422 113.45 74.939 113.703C74.8381 113.959 74.6879 114.19 74.5002 114.385C74.3124 114.579 74.0895 114.735 73.8431 114.84C73.5991 114.947 73.3339 115.001 73.0688 115.001H71.2666V36.0598Z" fill="black"/>
<path d="M26.9742 35.8113H69.3117C69.8692 35.8113 70.4024 36.0326 70.7969 36.4268C71.1913 36.8207 71.4128 37.3551 71.4128 37.9124V51.8195H24.873V37.91C24.8738 37.3532 25.0953 36.8192 25.4893 36.4258C25.8832 36.0323 26.4174 35.8113 26.9742 35.8113Z" fill="#6E03A1"/>
<path opacity="0.3" d="M57.0341 41.5623H43.0422C42.6031 41.5623 42.2471 41.9027 42.2471 42.3225V43.4802C42.2471 43.9 42.6031 44.2404 43.0422 44.2404H57.0341C57.4738 44.2404 57.8293 43.9 57.8293 43.4802V42.3225C57.8293 41.9027 57.4738 41.5623 57.0341 41.5623Z" fill="black"/>
<path d="M55.2941 43.5099H45.513C45.2557 43.5101 45.0011 43.4539 44.7666 43.3449C44.5322 43.2359 44.3233 43.0769 44.1538 42.8783C43.9843 42.68 43.8585 42.4465 43.7843 42.194C43.7103 41.9415 43.6898 41.6757 43.7243 41.4145L45.0151 31.5798H55.792L57.0829 41.4145C57.117 41.6757 57.0965 41.9415 57.0215 42.1938C56.9481 42.4461 56.822 42.6794 56.6531 42.8778C56.4826 43.0762 56.2746 43.2353 56.0393 43.3444C55.8057 43.4534 55.5516 43.5098 55.2941 43.5099Z" fill="#B2B6BB"/>
<path d="M56.6118 25.0061H43.9512V34.745H56.6118V25.0061Z" fill="#6E03A1"/>
<path opacity="0.2" d="M56.6118 25.0061H43.9512V34.745H56.6118V25.0061Z" fill="black"/>
<path d="M54.525 43.2664H44.566C44.3043 43.2656 44.0458 43.2096 43.8079 43.1025C43.5699 42.9955 43.3579 42.8395 43.186 42.6451C43.0141 42.451 42.8863 42.2228 42.8111 41.9758C42.7358 41.729 42.7149 41.4691 42.7498 41.2137L44.0642 31.5798H55.0372L56.3516 41.2137C56.3863 41.4702 56.3654 41.7308 56.2908 41.9785C56.2144 42.2264 56.0859 42.4551 55.9123 42.6496C55.7387 42.8442 55.5268 42.9999 55.2872 43.1063C55.0476 43.2127 54.7872 43.2673 54.525 43.2664Z" fill="#DADDDF"/>
<path d="M55.3947 25.0061H42.9775V34.745H55.3947V25.0061Z" fill="#6E03A1"/>
<path d="M60.7272 61.3782H35.5352V92.0313H60.7272V61.3782Z" fill="white"/>
<path d="M36.7132 96.7571H35.8174V103.194H36.7132V96.7571Z" fill="#61656D"/>
<path d="M38.4498 96.7571H37.0742V103.194H38.4498V96.7571Z" fill="#61656D"/>
<path d="M39.1668 96.7571H38.7529V103.194H39.1668V96.7571Z" fill="#61656D"/>
<path d="M40.0614 96.7571H39.6475V103.194H40.0614V96.7571Z" fill="#61656D"/>
<path d="M41.4076 96.7571H40.5117V103.194H41.4076V96.7571Z" fill="#61656D"/>
<path d="M43.1442 96.7571H41.7686V103.194H43.1442V96.7571Z" fill="#61656D"/>
<path d="M43.8621 96.7571H43.4482V103.194H43.8621V96.7571Z" fill="#61656D"/>
<path d="M44.7557 96.7571H44.3418V103.194H44.7557V96.7571Z" fill="#61656D"/>
<path d="M48.6123 103.194H49.5083V96.7571H48.6123V103.194Z" fill="#61656D"/>
<path d="M46.876 103.194H48.2516V96.7571H46.876V103.194Z" fill="#61656D"/>
<path d="M46.1582 103.194H46.5721V96.7571H46.1582V103.194Z" fill="#61656D"/>
<path d="M45.2646 103.194H45.6786V96.7571H45.2646V103.194Z" fill="#61656D"/>
<path d="M50.8687 96.7571H49.9727V103.194H50.8687V96.7571Z" fill="#61656D"/>
<path d="M52.6049 96.7571H51.2295V103.194H52.6049V96.7571Z" fill="#61656D"/>
<path d="M53.323 96.7571H52.9092V103.194H53.323V96.7571Z" fill="#61656D"/>
<path d="M54.2175 96.7571H53.8037V103.194H54.2175V96.7571Z" fill="#61656D"/>
<path d="M55.5632 96.7571H54.667V103.194H55.5632V96.7571Z" fill="#61656D"/>
<path d="M57.2983 96.7571H55.9229V103.194H57.2983V96.7571Z" fill="#61656D"/>
<path d="M58.0174 96.7571H57.6035V103.194H58.0174V96.7571Z" fill="#61656D"/>
<path d="M58.9111 96.7571H58.4971V103.194H58.9111V96.7571Z" fill="#61656D"/>
<path d="M60.3154 103.194H60.7292V96.7571H60.3154V103.194Z" fill="#61656D"/>
<path d="M59.4199 103.194H59.8338V96.7571H59.4199V103.194Z" fill="#61656D"/>
<path d="M48.237 81.3428L47.772 82.1706L45.3056 79.6288L45.2569 79.585L39.2189 80.6392C38.4045 80.7809 37.6504 81.1602 37.0512 81.7295C36.4523 82.2987 36.0348 83.0325 35.8517 83.8384L35.5352 85.2286V92.0312H39.3114L40.3266 86.3827C40.3279 86.3454 40.3435 86.3101 40.3702 86.2843C40.397 86.2583 40.433 86.2439 40.4703 86.2439C40.5078 86.2439 40.5438 86.2583 40.5711 86.2841C40.5981 86.3099 40.6144 86.3452 40.6164 86.3827L40.5165 92.0312H47.8158L48.4391 81.54C48.367 81.4792 48.2996 81.4132 48.237 81.3428Z" fill="#F1F1F1"/>
<path d="M58.3918 80.6051L52.6848 79.5046L52.6021 79.5874L50.4376 82.1707L49.919 81.3429C49.863 81.4086 49.8094 81.467 49.7559 81.5206L49.7705 81.7494L50.6177 92.0313H56.948L57.1696 86.244L58.1435 88.7712V88.7322L59.3438 92.0313H60.7194V81.9369C60.1098 81.2508 59.2922 80.7831 58.3918 80.6051Z" fill="#F1F1F1"/>
<path d="M48.7903 77.109C48.4623 77.1362 48.1319 77.1024 47.8164 77.0091C48.1305 77.1104 48.4613 77.1491 48.7903 77.1236L49.0678 77.0846C50.3412 76.8777 51.0789 75.8527 51.4416 74.6111C51.0521 75.9233 50.2754 77.0091 48.7903 77.109Z" fill="#FFDAB9"/>
<path d="M47.6357 76.9529L47.7818 77.0089C47.7307 76.9919 47.6844 76.9724 47.6357 76.9529Z" fill="#FFDAB9"/>
<path d="M49.0335 79.7871H49.0505L51.9162 78.1802V78.1972L51.6947 76.566C51.0631 77.0485 50.2723 77.274 49.4815 77.1966C49.2628 77.2684 49.0364 77.3125 48.8071 77.328C47.709 77.4084 46.796 76.9044 46.1069 75.8185C46.1006 75.8093 46.0965 75.7986 46.0945 75.7876C46.0923 75.7767 46.0928 75.7652 46.0952 75.7543C46.0977 75.7435 46.1023 75.7331 46.1091 75.7241C46.1157 75.7151 46.124 75.7073 46.1337 75.7017C46.1461 75.6973 46.16 75.6973 46.1727 75.7017C46.0112 75.4492 45.8695 75.1845 45.749 74.9104L45.7734 78.2776L49.0335 79.7871Z" fill="#FFDAB9"/>
<path d="M46.2599 75.7167C46.5779 76.2628 47.059 76.6954 47.6355 76.9535C47.6842 76.973 47.7305 76.9924 47.7816 77.0095H47.8157C48.1315 77.1027 48.4616 77.1366 48.7896 77.1093C50.2796 76.9997 51.0562 75.9139 51.4434 74.6015C51.569 74.1657 51.6578 73.7204 51.7087 73.2697H51.6747L51.6089 71.8089C51.5753 71.786 51.5519 71.7512 51.5432 71.7115L51.4482 71.059C51.326 71.0595 51.2079 71.014 51.1178 70.9314C51.0275 70.8486 50.9718 70.7352 50.9613 70.6134L50.786 68.7168C50.5683 68.8264 50.3324 68.8948 50.0897 68.9189L46.1942 69.25C46.0413 69.2636 45.8993 69.3357 45.7983 69.4513C45.697 69.5672 45.6444 69.7175 45.6513 69.8709L45.717 71.1174C45.7241 71.1995 45.699 71.2808 45.6474 71.3448C45.5955 71.4089 45.521 71.4503 45.4394 71.4607H45.3786L45.4005 72.1303C45.4034 72.1729 45.3905 72.215 45.3637 72.2484C45.3372 72.2817 45.299 72.3039 45.2568 72.3104L45.4029 73.7299H45.364C45.4752 74.1151 45.6118 74.4925 45.773 74.8596C45.8937 75.1338 46.0355 75.3984 46.1966 75.6509C46.2122 75.6553 46.2261 75.6636 46.2373 75.6752C46.2485 75.6867 46.2563 75.7011 46.2599 75.7167ZM49.5662 74.7428C49.5141 74.9312 49.4053 75.0992 49.2543 75.2238C49.1034 75.3485 48.9181 75.4237 48.7231 75.4393C48.5281 75.4552 48.3328 75.4104 48.1641 75.3115C47.9951 75.2127 47.861 75.0641 47.7792 74.8864V74.8742C47.7733 74.8662 47.7694 74.8565 47.7682 74.8465C47.767 74.8365 47.7685 74.8263 47.7724 74.817C47.7765 74.8075 47.7826 74.7995 47.7906 74.7931C47.7987 74.7871 47.8081 74.7832 47.8181 74.7817L49.5005 74.6624C49.51 74.6624 49.5195 74.6644 49.5282 74.6682C49.5368 74.6721 49.5446 74.6778 49.5509 74.6851C49.5572 74.6921 49.5618 74.7006 49.5643 74.7096C49.567 74.7189 49.5677 74.7284 49.5662 74.7379V74.7428ZM48.6532 74.0416L48.9308 74.0148C48.9566 74.0145 48.9817 74.024 49.0009 74.0411C49.0201 74.0581 49.0325 74.0817 49.0355 74.1073C49.0369 74.1336 49.0282 74.1594 49.0109 74.1794C48.9936 74.1993 48.9692 74.212 48.9429 74.2144L48.6654 74.2412C48.6121 74.2463 48.5585 74.2402 48.5076 74.2232C48.4567 74.2064 48.41 74.1791 48.3703 74.1431C48.3309 74.107 48.299 74.0632 48.2773 74.0143C48.2556 73.9653 48.2444 73.9125 48.2442 73.8589C48.2381 73.8059 48.243 73.7518 48.2586 73.7007C48.2739 73.6496 48.2997 73.6018 48.334 73.5609C48.3684 73.5198 48.4107 73.4862 48.4584 73.4623C48.5064 73.4382 48.5585 73.4239 48.6118 73.4207C48.6381 73.42 48.6637 73.429 48.6834 73.446C48.7034 73.4633 48.716 73.4872 48.719 73.5132C48.7204 73.5395 48.7116 73.5653 48.6944 73.5853C48.6771 73.6052 48.6527 73.6179 48.6264 73.6203C48.5972 73.6196 48.568 73.6252 48.5407 73.6364C48.5137 73.6476 48.4891 73.6642 48.4689 73.6853C48.4485 73.7065 48.4329 73.7319 48.4227 73.7594C48.4127 73.7869 48.4083 73.8163 48.4102 73.8455C48.4122 73.8748 48.42 73.9035 48.4336 73.9296C48.447 73.9556 48.4658 73.9785 48.4886 73.997C48.5115 74.0155 48.5381 74.0289 48.5663 74.0367C48.5945 74.0442 48.6242 74.0459 48.6532 74.0416ZM45.6245 72.6708L45.6001 72.2885C45.5943 72.223 45.6016 72.1568 45.6218 72.0942C45.642 72.0317 45.6749 71.974 45.718 71.9243C45.7613 71.8746 45.8141 71.8342 45.8733 71.8057C45.9327 71.777 45.997 71.7607 46.0627 71.7578L47.7426 71.6653H47.7573L49.0671 71.5873L49.2668 71.5727L50.7617 71.4948C50.8289 71.4904 50.8963 71.4999 50.9596 71.5223C51.0231 71.5447 51.0813 71.5795 51.131 71.6251C51.1804 71.6706 51.2203 71.7256 51.2481 71.787C51.2759 71.8483 51.291 71.9146 51.2924 71.9818L51.3192 72.3665C51.3073 72.7025 51.1699 73.0219 50.9343 73.2617C50.6986 73.5018 50.3816 73.6447 50.0459 73.6627C49.7101 73.6807 49.3797 73.5724 49.1197 73.3591C48.8597 73.1458 48.689 72.8429 48.641 72.5101L48.6143 72.1278C48.6067 72.0202 48.635 71.9133 48.6946 71.8235L48.1785 71.8503C48.2483 71.9314 48.2892 72.0331 48.2953 72.14L48.3221 72.5247C48.3102 72.8607 48.1729 73.1801 47.9372 73.42C47.7015 73.66 47.3845 73.8029 47.0488 73.821C46.713 73.839 46.3826 73.7306 46.1226 73.5174C45.8626 73.3041 45.6919 73.0012 45.644 72.6684L45.6245 72.6708Z" fill="#FFDAB9"/>
<path d="M48.8243 72.1031L48.8511 72.4854C48.8686 72.7873 49.0052 73.0699 49.2309 73.271C49.4569 73.4722 49.7532 73.5754 50.0551 73.5579C50.357 73.5403 50.6397 73.4037 50.8408 73.178C51.042 72.9523 51.1452 72.6558 51.1277 72.3539L51.1131 71.9716C51.1058 71.8937 51.0688 71.8216 51.0098 71.77C50.9512 71.7184 50.8747 71.6911 50.7965 71.6941L49.2991 71.7744H49.1019C49.0216 71.7812 48.947 71.8197 48.8952 71.8813C48.8431 71.9429 48.8175 72.0228 48.8243 72.1031ZM49.8177 72.7532C49.7498 72.7532 49.6836 72.733 49.6271 72.6952C49.5706 72.6577 49.5265 72.6039 49.5005 72.5413C49.4747 72.4785 49.4679 72.4096 49.481 72.3429C49.4944 72.2764 49.527 72.2151 49.575 72.1671C49.623 72.1192 49.6843 72.0865 49.7508 72.0732C49.8175 72.06 49.8864 72.0668 49.9492 72.0926C50.0118 72.1187 50.0656 72.1627 50.1031 72.2192C50.1408 72.2757 50.161 72.3419 50.161 72.4099C50.1613 72.4552 50.1528 72.5 50.1355 72.5416C50.1184 72.5835 50.0931 72.6215 50.0612 72.6534C50.0293 72.6852 49.9913 72.7106 49.9495 72.7276C49.9078 72.7449 49.863 72.7534 49.8177 72.7532Z" fill="#FFDAB9"/>
<path d="M47.0516 73.7293C47.2013 73.7215 47.3479 73.6843 47.4828 73.6193C47.6179 73.5545 47.7389 73.4637 47.8385 73.3517C47.9381 73.24 48.0145 73.1092 48.0635 72.9678C48.1121 72.8261 48.1324 72.6761 48.1229 72.5266L48.0961 72.1419C48.0963 72.1032 48.0883 72.065 48.0727 72.0294C48.0571 71.9939 48.0342 71.9622 48.0055 71.9362C47.9768 71.9104 47.9429 71.8907 47.9059 71.8787C47.8692 71.8668 47.8302 71.8627 47.7917 71.8668H47.7771L46.0972 71.9593C46.019 71.9661 45.9465 72.0029 45.8949 72.0618C45.8432 72.1207 45.8162 72.1974 45.8196 72.2758L45.8464 72.6581C45.8545 72.8078 45.8922 72.9544 45.9572 73.0895C46.0224 73.2246 46.1135 73.3454 46.2255 73.445C46.3377 73.5448 46.4685 73.621 46.6102 73.6699C46.7519 73.7186 46.9018 73.7388 47.0516 73.7293ZM47.1709 72.9502C47.103 72.9502 47.0367 72.93 46.9803 72.8923C46.9238 72.8546 46.8797 72.801 46.8536 72.7384C46.8278 72.6756 46.821 72.6065 46.8342 72.54C46.8476 72.4733 46.8802 72.4122 46.9282 72.3642C46.9761 72.3162 47.0375 72.2836 47.1039 72.2702C47.1706 72.2571 47.2396 72.2639 47.3024 72.2897C47.3649 72.3157 47.4188 72.3598 47.4562 72.4163C47.494 72.4728 47.5142 72.539 47.5142 72.6069C47.5142 72.698 47.4781 72.7854 47.4136 72.8497C47.3493 72.914 47.262 72.9502 47.1709 72.9502Z" fill="#FFDAB9"/>
<path opacity="0.15" d="M51.7502 76.5246L51.458 74.5525C51.4528 74.5756 51.4463 74.5983 51.4385 74.6207L51.7015 76.5684L51.7502 76.5246Z" fill="black"/>
<path d="M49.0657 77.0942L48.7881 77.1332C48.4592 77.1587 48.1283 77.12 47.8142 77.0187H47.7801L47.6341 76.9627C47.0573 76.7047 46.5762 76.272 46.2584 75.7259C46.2492 75.7135 46.237 75.7035 46.2229 75.6972C46.209 75.6909 46.1934 75.6882 46.1781 75.6894C46.1654 75.685 46.1516 75.685 46.1391 75.6894C46.1294 75.695 46.1211 75.7028 46.1145 75.7118C46.1077 75.7208 46.1031 75.7313 46.1007 75.742C46.0982 75.7529 46.098 75.7644 46.0999 75.7753C46.1019 75.7863 46.106 75.797 46.1124 75.8063C46.8014 76.8921 47.7144 77.3961 48.8125 77.3158C49.0418 77.3002 49.2683 77.2561 49.4869 77.1843C50.2777 77.2617 51.0687 77.0363 51.7001 76.5537L51.4371 74.606C51.0768 75.8623 50.3391 76.8873 49.0657 77.0942Z" fill="#FFDAB9"/>
<path opacity="0.15" d="M49.0657 77.0942L48.7881 77.1332C48.4592 77.1587 48.1283 77.12 47.8142 77.0187H47.7801L47.6341 76.9627C47.0573 76.7047 46.5762 76.272 46.2584 75.7259C46.2492 75.7135 46.237 75.7035 46.2229 75.6972C46.209 75.6909 46.1934 75.6882 46.1781 75.6894C46.1654 75.685 46.1516 75.685 46.1391 75.6894C46.1294 75.695 46.1211 75.7028 46.1145 75.7118C46.1077 75.7208 46.1031 75.7313 46.1007 75.742C46.0982 75.7529 46.098 75.7644 46.0999 75.7753C46.1019 75.7863 46.106 75.797 46.1124 75.8063C46.8014 76.8921 47.7144 77.3961 48.8125 77.3158C49.0418 77.3002 49.2683 77.2561 49.4869 77.1843C50.2777 77.2617 51.0687 77.0363 51.7001 76.5537L51.4371 74.606C51.0768 75.8623 50.3391 76.8873 49.0657 77.0942Z" fill="black"/>
<path d="M50.7793 68.7384L50.9546 70.635C50.9651 70.7567 51.0208 70.8704 51.1112 70.953C51.2013 71.0355 51.3194 71.081 51.4416 71.0805L51.3637 70.5571H51.8507L51.8653 70.9686C51.9373 70.9162 52.0199 70.8799 52.1073 70.8622C52.1947 70.8446 52.2848 70.8461 52.3717 70.8663C52.5884 70.4183 52.922 69.5004 52.5616 68.6386C52.3011 68.0104 51.9115 67.8181 51.556 67.801C51.5025 68.0043 51.4053 68.1935 51.2711 68.3554C51.137 68.5173 50.969 68.648 50.7793 68.7384Z" fill="#21252B"/>
<path d="M44.9189 71.4674L44.8556 71.0316L45.3426 71.0462L45.3572 71.4869H45.418C45.4996 71.4764 45.5739 71.435 45.6257 71.371C45.6774 71.3069 45.7024 71.2256 45.6956 71.1436L45.6299 69.897C45.6228 69.7436 45.6754 69.5934 45.7767 69.4775C45.8777 69.3619 46.0197 69.2898 46.1728 69.2762L50.0684 68.945C50.3109 68.9209 50.5468 68.8525 50.7647 68.743C50.9544 68.6546 51.1229 68.5263 51.2583 68.3666C51.3936 68.2068 51.4927 68.0196 51.5487 67.8178C51.604 67.6116 51.6223 67.3973 51.6023 67.1848C51.5536 66.486 50.9839 65.8895 50.0927 65.8262L49.3989 65.7751C47.7311 65.6363 46.801 65.7921 45.5568 66.245C43.4264 67.0192 43.3364 70.2111 44.2835 71.409C44.3847 71.361 44.4972 71.3413 44.609 71.3515C44.7207 71.3617 44.8279 71.4019 44.9189 71.4674Z" fill="#21252B"/>
<path d="M45.2397 72.3368H45.2251C45.1817 72.3429 45.1379 72.3329 45.1014 72.3088C45.0651 72.2844 45.0388 72.2477 45.0278 72.2053L44.9183 71.4749C44.8294 71.4111 44.7252 71.3719 44.6164 71.3607C44.5076 71.3495 44.3975 71.367 44.2974 71.4116C44.2461 71.4357 44.1979 71.4659 44.1538 71.5017H44.1416C43.4721 72.0811 43.8982 73.8755 45.359 73.7538H45.3809L45.2397 72.3368ZM44.8282 72.8846C44.8027 72.8834 44.7781 72.8736 44.7588 72.8568C44.7393 72.84 44.726 72.8174 44.7211 72.7921L44.6943 72.5803C44.6894 72.4096 44.6249 72.2457 44.5117 72.1177C44.4903 72.0979 44.4647 72.0831 44.4372 72.0738C44.4094 72.0646 44.3802 72.0614 44.351 72.0641C44.325 72.0685 44.2982 72.0624 44.2765 72.0475C44.2546 72.0324 44.2395 72.0096 44.2342 71.9838C44.2315 71.9709 44.2312 71.9577 44.2337 71.9448C44.2361 71.9319 44.241 71.9197 44.2483 71.9088C44.2556 71.8978 44.2651 71.8886 44.276 71.8812C44.287 71.8742 44.2991 71.8693 44.3121 71.8669C44.4236 71.854 44.5358 71.8817 44.6286 71.9448C44.7118 72.0205 44.7783 72.1125 44.8241 72.2153C44.8696 72.3178 44.8935 72.4288 44.8939 72.5413L44.9207 72.7531C44.9217 72.7821 44.9132 72.8106 44.8964 72.8342C44.8798 72.858 44.856 72.8756 44.8282 72.8846Z" fill="#FFDAB9"/>
<path d="M51.8723 70.9807L51.8942 71.6819C51.8969 71.7272 51.8818 71.772 51.8523 71.8063C51.8229 71.8409 51.781 71.8625 51.736 71.8669C51.689 71.871 51.6425 71.8582 51.6045 71.8304L51.6702 73.2912H51.7116C53.1723 73.2108 53.3135 71.4506 52.5783 70.9783H52.5637C52.5084 70.9447 52.4485 70.9191 52.386 70.9028C52.2998 70.878 52.2092 70.8719 52.1206 70.8855C52.0317 70.8989 51.947 70.9315 51.8723 70.9807ZM52.5807 71.3751C52.5766 71.4004 52.5639 71.4233 52.5449 71.4401C52.526 71.4572 52.5014 71.4669 52.476 71.4676C52.4451 71.4684 52.4149 71.4759 52.3877 71.4898C52.3602 71.5037 52.3363 71.5236 52.3178 71.548C52.2647 71.6161 52.2265 71.6948 52.2061 71.7788C52.1856 71.8625 52.1829 71.9499 52.1985 72.0349V72.2394C52.1997 72.2657 52.191 72.2915 52.1737 72.3115C52.1564 72.3314 52.1321 72.3441 52.106 72.3465C52.0403 72.3465 52.0013 72.3076 52.0281 72.254V72.0422C52.0103 71.9302 52.0164 71.8158 52.0459 71.7065C52.0753 71.5969 52.1272 71.4949 52.1985 71.4068C52.2355 71.3666 52.2803 71.3342 52.33 71.3118C52.3796 71.2892 52.4334 71.2768 52.4882 71.2753C52.5126 71.2792 52.535 71.2909 52.5518 71.3091C52.5686 71.3272 52.5788 71.3505 52.5807 71.3751Z" fill="#FFDAB9"/>
<path d="M44.8555 71.0222L44.9188 71.458L45.0284 72.1884C45.0393 72.2307 45.0654 72.2675 45.1019 72.2918C45.1382 72.3159 45.1823 72.3259 45.2256 72.3198H45.2402C45.2824 72.3133 45.3206 72.2911 45.3471 72.2578C45.3737 72.2244 45.3868 72.1823 45.3839 72.1397L45.362 71.4702L45.3474 71.0295L44.8555 71.0222Z" fill="#21252B"/>
<path d="M51.8947 71.6819L51.8727 70.9806L51.8581 70.5691H51.3711L51.449 71.0926L51.544 71.7452C51.5525 71.7849 51.5761 71.8197 51.6097 71.8426C51.6477 71.8704 51.6942 71.8833 51.7412 71.8792C51.7641 71.8765 51.7865 71.8692 51.8067 71.8577C51.8272 71.8463 51.845 71.8309 51.8591 71.8127C51.8735 71.7944 51.8839 71.7732 51.89 71.7508C51.8961 71.7284 51.8976 71.7051 51.8947 71.6819Z" fill="#21252B"/>
<path d="M47.1713 72.2637C47.1036 72.2637 47.0371 72.2839 46.9807 72.3216C46.9242 72.3593 46.8801 72.4129 46.8543 72.4757C46.8282 72.5382 46.8214 72.6074 46.8348 72.6738C46.848 72.7405 46.8806 72.8016 46.9286 72.8496C46.9768 72.8975 47.0379 72.9304 47.1043 72.9435C47.1711 72.9567 47.24 72.9501 47.3028 72.924C47.3656 72.898 47.4192 72.8539 47.4569 72.7975C47.4946 72.7412 47.5146 72.6748 47.5146 72.6069C47.5146 72.5158 47.4786 72.4287 47.414 72.3642C47.3498 72.2999 47.2624 72.2637 47.1713 72.2637ZM47.013 72.6458C47.0028 72.6461 46.9923 72.6444 46.9826 72.6407C46.9729 72.6368 46.9639 72.6312 46.9566 72.6239C46.949 72.6166 46.9429 72.6078 46.939 72.5984C46.9349 72.5886 46.9327 72.5784 46.9327 72.5679C46.9327 72.5468 46.9412 72.5263 46.9563 72.5112C46.9714 72.4961 46.9919 72.4876 47.013 72.4876C47.0235 72.4876 47.034 72.4898 47.0435 72.4937C47.0532 72.4978 47.0617 72.5039 47.069 72.5112C47.0764 72.5188 47.0822 72.5278 47.0858 72.5375C47.0895 72.5472 47.0914 72.5575 47.091 72.5679C47.091 72.5886 47.0829 72.6083 47.0683 72.6229C47.0537 72.6375 47.0337 72.6458 47.013 72.6458Z" fill="#21252B"/>
<path d="M47.0129 72.4829C46.9917 72.4829 46.9713 72.4914 46.9562 72.5065C46.9411 72.5216 46.9326 72.5418 46.9326 72.5632C46.9326 72.5737 46.9348 72.5839 46.9387 72.5936C46.9428 72.6031 46.9489 72.6119 46.9562 72.6192C46.9638 72.6265 46.9728 72.6321 46.9825 72.6359C46.9922 72.6396 47.0024 72.6413 47.0129 72.6411C47.0336 72.6411 47.0533 72.6328 47.0679 72.6182C47.0825 72.6036 47.0908 72.5839 47.0908 72.5632C47.091 72.5527 47.0893 72.5423 47.0857 72.5325C47.0818 72.5228 47.0762 72.514 47.0689 72.5065C47.0616 72.499 47.0528 72.4931 47.0433 72.489C47.0336 72.4851 47.0234 72.4829 47.0129 72.4829Z" fill="white"/>
<path d="M49.817 72.0667C49.749 72.0667 49.6826 72.0869 49.6261 72.1246C49.5697 72.1623 49.5258 72.2159 49.4998 72.2785C49.4738 72.3413 49.4669 72.4104 49.4803 72.4769C49.4935 72.5436 49.5261 72.6047 49.5743 72.6526C49.6222 72.7006 49.6833 72.7335 49.75 72.7466C49.8165 72.7598 49.8856 72.7532 49.9482 72.7271C50.011 72.7011 50.0645 72.657 50.1022 72.6005C50.14 72.5443 50.1602 72.4778 50.1602 72.4099C50.1604 72.3649 50.1517 72.3201 50.1346 72.2782C50.1176 72.2363 50.0923 72.1984 50.0604 72.1665C50.0282 72.1346 49.9903 72.1093 49.9487 72.0922C49.9068 72.0749 49.862 72.0664 49.817 72.0667ZM49.6587 72.461C49.6373 72.461 49.6169 72.4525 49.6018 72.4374C49.5867 72.4226 49.5784 72.4021 49.5784 72.3807C49.5816 72.3622 49.5913 72.3452 49.6057 72.3332C49.6203 72.3211 49.6385 72.3142 49.6575 72.3142C49.6763 72.3142 49.6945 72.3211 49.7091 72.3332C49.7235 72.3452 49.7332 72.3622 49.7366 72.3807C49.7366 72.4016 49.7284 72.4216 49.714 72.4367C49.6994 72.4518 49.6794 72.4603 49.6587 72.461Z" fill="#21252B"/>
<path d="M49.6586 72.3028C49.6484 72.3025 49.6379 72.3042 49.6282 72.3079C49.6185 72.3118 49.6095 72.3173 49.6022 72.3246C49.5946 72.3319 49.5885 72.3407 49.5846 72.3502C49.5805 72.3599 49.5783 72.3702 49.5783 72.3806C49.5764 72.3921 49.5768 72.404 49.58 72.4154C49.5829 72.4266 49.5885 72.4371 49.5961 72.4461C49.6036 72.4551 49.6129 72.4624 49.6236 72.4672C49.6343 72.4723 49.6457 72.4748 49.6574 72.4748C49.6694 72.4748 49.6808 72.4723 49.6915 72.4672C49.7022 72.4624 49.7115 72.4551 49.719 72.4461C49.7266 72.4371 49.7322 72.4266 49.7351 72.4154C49.7382 72.404 49.7387 72.3921 49.7365 72.3806C49.7365 72.3599 49.7285 72.3402 49.7139 72.3256C49.6993 72.311 49.6793 72.3028 49.6586 72.3028Z" fill="white"/>
<path d="M48.6268 73.615C48.6531 73.6125 48.6775 73.5999 48.6948 73.5799C48.712 73.5599 48.7208 73.5341 48.7193 73.5078C48.7164 73.4818 48.7038 73.4579 48.6838 73.4406C48.6641 73.4236 48.6385 73.4146 48.6122 73.4153C48.5589 73.4187 48.5068 73.4329 48.4589 73.4567C48.4111 73.4808 48.3688 73.5144 48.3345 73.5556C48.3001 73.5965 48.2743 73.6442 48.259 73.6953C48.2434 73.7464 48.2388 73.8005 48.2446 73.8536C48.2449 73.9071 48.2561 73.96 48.2777 74.0089C48.2996 74.0579 48.3313 74.1017 48.371 74.1377C48.4104 74.1737 48.4571 74.201 48.508 74.2178C48.5589 74.2349 48.6125 74.241 48.6658 74.2358L48.9433 74.2091C48.9696 74.2066 48.9939 74.194 49.0112 74.174C49.0285 74.154 49.0373 74.1282 49.0358 74.1019C49.0329 74.0764 49.0205 74.0527 49.0012 74.0357C48.982 74.0187 48.9569 74.0092 48.9311 74.0094L48.6536 74.0362C48.6246 74.0406 48.5949 74.0389 48.5667 74.0313C48.5385 74.0235 48.5119 74.0101 48.489 73.9916C48.4662 73.9731 48.4474 73.9502 48.434 73.9242C48.4204 73.8981 48.4126 73.8694 48.4107 73.8402C48.4087 73.811 48.4131 73.7815 48.4231 73.754C48.4333 73.7265 48.4489 73.7012 48.4693 73.68C48.4895 73.6588 48.5141 73.6422 48.5414 73.631C48.5684 73.6198 48.5976 73.6142 48.6268 73.615Z" fill="#FFDAB9"/>
<path opacity="0.3" d="M48.6268 73.615C48.6531 73.6125 48.6775 73.5999 48.6948 73.5799C48.712 73.5599 48.7208 73.5341 48.7193 73.5078C48.7164 73.4818 48.7038 73.4579 48.6838 73.4406C48.6641 73.4236 48.6385 73.4146 48.6122 73.4153C48.5589 73.4187 48.5068 73.4329 48.4589 73.4567C48.4111 73.4808 48.3688 73.5144 48.3345 73.5556C48.3001 73.5965 48.2743 73.6442 48.259 73.6953C48.2434 73.7464 48.2388 73.8005 48.2446 73.8536C48.2449 73.9071 48.2561 73.96 48.2777 74.0089C48.2996 74.0579 48.3313 74.1017 48.371 74.1377C48.4104 74.1737 48.4571 74.201 48.508 74.2178C48.5589 74.2349 48.6125 74.241 48.6658 74.2358L48.9433 74.2091C48.9696 74.2066 48.9939 74.194 49.0112 74.174C49.0285 74.154 49.0373 74.1282 49.0358 74.1019C49.0329 74.0764 49.0205 74.0527 49.0012 74.0357C48.982 74.0187 48.9569 74.0092 48.9311 74.0094L48.6536 74.0362C48.6246 74.0406 48.5949 74.0389 48.5667 74.0313C48.5385 74.0235 48.5119 74.0101 48.489 73.9916C48.4662 73.9731 48.4474 73.9502 48.434 73.9242C48.4204 73.8981 48.4126 73.8694 48.4107 73.8402C48.4087 73.811 48.4131 73.7815 48.4231 73.754C48.4333 73.7265 48.4489 73.7012 48.4693 73.68C48.4895 73.6588 48.5141 73.6422 48.5414 73.631C48.5684 73.6198 48.5976 73.6142 48.6268 73.615Z" fill="black"/>
<path d="M47.0488 73.9437C47.2253 73.9345 47.3979 73.8904 47.5574 73.8142C47.7166 73.738 47.8595 73.6311 47.9774 73.4999C48.0955 73.3684 48.1865 73.215 48.2452 73.0485C48.3039 72.882 48.3292 72.7055 48.3197 72.5292L48.3027 72.1421C48.2966 72.0352 48.2557 71.9334 48.1858 71.8523L48.702 71.8256C48.6423 71.9154 48.6141 72.0223 48.6216 72.1299L48.6484 72.5121C48.6964 72.845 48.867 73.1478 49.1271 73.3611C49.3871 73.5744 49.7175 73.6827 50.0532 73.6647C50.389 73.6467 50.706 73.5038 50.9417 73.2637C51.1771 73.0239 51.3147 72.7045 51.3266 72.3685L51.2998 71.9838C51.2984 71.9166 51.2833 71.8504 51.2555 71.7891C51.2278 71.7277 51.1878 71.6727 51.1384 71.6271C51.0887 71.5816 51.0305 71.5468 50.967 71.5244C50.9035 71.502 50.8363 71.4925 50.7691 71.4969L49.2741 71.5748L49.0745 71.5894L47.7646 71.6673H47.75L46.07 71.7598C46.0043 71.7628 45.94 71.7791 45.8806 71.8078C45.8214 71.8363 45.7686 71.8767 45.7253 71.9264C45.6822 71.976 45.6493 72.0337 45.6291 72.0963C45.6089 72.1589 45.6016 72.2251 45.6074 72.2906L45.6318 72.6728C45.6513 73.0293 45.8114 73.3633 46.0773 73.6017C46.343 73.84 46.6923 73.963 47.0488 73.9437ZM49.1013 71.7891H49.2985L50.7958 71.7087C50.874 71.7058 50.9504 71.7331 51.0094 71.7847C51.068 71.8363 51.105 71.9084 51.1123 71.9863L51.127 72.3685C51.1445 72.6704 51.0413 72.9667 50.8401 73.1926C50.639 73.4183 50.3564 73.5549 50.0545 73.5724C49.7526 73.59 49.4562 73.4868 49.2303 73.2856C49.0046 73.0843 48.868 72.8019 48.8505 72.5L48.8237 72.1177C48.8201 72.0778 48.8244 72.0374 48.8364 71.9992C48.8483 71.9607 48.8678 71.9252 48.8936 71.8945C48.9194 71.8636 48.951 71.8382 48.9866 71.8197C49.0224 71.8012 49.0613 71.79 49.1013 71.7866V71.7891ZM45.8192 72.276C45.8158 72.1976 45.8429 72.1209 45.8945 72.062C45.9463 72.0031 46.0186 71.9663 46.0968 71.9595L47.7768 71.867H47.7914C47.8299 71.8628 47.8688 71.867 47.9058 71.8789C47.9426 71.8908 47.9764 71.9105 48.0052 71.9363C48.0339 71.9624 48.0568 71.9941 48.0723 72.0296C48.0879 72.0649 48.096 72.1034 48.0957 72.1421L48.1225 72.5268C48.14 72.8287 48.0368 73.125 47.8357 73.3509C47.6346 73.5766 47.3519 73.7132 47.05 73.7307C46.7481 73.7482 46.4518 73.645 46.2258 73.4439C46.0001 73.2428 45.8635 72.9601 45.846 72.6582L45.8192 72.276Z" fill="#21252B"/>
<path d="M49.5013 74.657L47.8189 74.7763C47.8089 74.7778 47.7994 74.7817 47.7914 74.7877C47.7833 74.7941 47.7772 74.8021 47.7733 74.8116C47.7692 74.8209 47.7678 74.8311 47.769 74.8411C47.7702 74.851 47.7741 74.8608 47.7799 74.8688V74.881C47.8617 75.0587 47.9961 75.2072 48.1649 75.3061C48.3336 75.4049 48.5289 75.4497 48.7239 75.4339C48.9189 75.4183 49.1044 75.3431 49.2552 75.2185C49.4061 75.0938 49.515 74.9258 49.5671 74.7374C49.5695 74.7276 49.5692 74.7174 49.5671 74.7076C49.5649 74.6979 49.5602 74.6889 49.5539 74.6811C49.5476 74.6733 49.5396 74.6672 49.5305 74.6628C49.5213 74.6587 49.5116 74.6568 49.5013 74.657Z" fill="white"/>
<path d="M50.0417 81.1944C50.0003 81.2479 49.9613 81.2942 49.9199 81.3429L50.4385 82.1707L52.603 79.5874L50.4385 81.7495L50.0417 81.1944Z" fill="#6E03A1"/>
<path d="M50.0417 81.1944C50.0003 81.2479 49.9613 81.2942 49.9199 81.3429L50.4385 82.1707L52.603 79.5874L50.4385 81.7495L50.0417 81.1944Z" fill="#D6D5D3"/>
<path d="M48.1299 81.1947L47.772 81.7498L45.3057 79.6292L47.772 82.171L48.2371 81.3432C48.1984 81.296 48.1626 81.2463 48.1299 81.1947Z" fill="#6E03A1"/>
<path d="M48.1299 81.1947L47.772 81.7498L45.3057 79.6292L47.772 82.171L48.2371 81.3432C48.1984 81.296 48.1626 81.2463 48.1299 81.1947Z" fill="#D6D5D3"/>
<path d="M44.6292 71.9448C44.5365 71.8817 44.424 71.854 44.3127 71.8669C44.2998 71.8691 44.2874 71.8742 44.2764 71.8812C44.2655 71.8885 44.256 71.8978 44.2487 71.9088C44.2416 71.9197 44.2365 71.9319 44.2341 71.9448C44.2316 71.9577 44.2319 71.9708 44.2348 71.9837C44.2399 72.0096 44.2553 72.0324 44.2769 72.0475C44.2988 72.0624 44.3256 72.0685 44.3517 72.0641C44.3806 72.0614 44.4099 72.0646 44.4376 72.0738C44.4654 72.0831 44.4907 72.0979 44.5124 72.1177C44.6253 72.2457 44.6901 72.4094 44.695 72.5803L44.7218 72.7921C44.7266 72.8172 44.7398 72.8401 44.7593 72.8569C44.7787 72.8737 44.8031 72.8834 44.8289 72.8846C44.8564 72.8756 44.8803 72.8581 44.8971 72.8342C44.9136 72.8106 44.9221 72.7821 44.9214 72.7531L44.8946 72.5413C44.8941 72.4288 44.8703 72.3178 44.8245 72.2151C44.779 72.1125 44.7123 72.0203 44.6292 71.9448Z" fill="#FFDAB9"/>
<path opacity="0.3" d="M44.6292 71.9448C44.5365 71.8817 44.424 71.854 44.3127 71.8669C44.2998 71.8691 44.2874 71.8742 44.2764 71.8812C44.2655 71.8885 44.256 71.8978 44.2487 71.9088C44.2416 71.9197 44.2365 71.9319 44.2341 71.9448C44.2316 71.9577 44.2319 71.9708 44.2348 71.9837C44.2399 72.0096 44.2553 72.0324 44.2769 72.0475C44.2988 72.0624 44.3256 72.0685 44.3517 72.0641C44.3806 72.0614 44.4099 72.0646 44.4376 72.0738C44.4654 72.0831 44.4907 72.0979 44.5124 72.1177C44.6253 72.2457 44.6901 72.4094 44.695 72.5803L44.7218 72.7921C44.7266 72.8172 44.7398 72.8401 44.7593 72.8569C44.7787 72.8737 44.8031 72.8834 44.8289 72.8846C44.8564 72.8756 44.8803 72.8581 44.8971 72.8342C44.9136 72.8106 44.9221 72.7821 44.9214 72.7531L44.8946 72.5413C44.8941 72.4288 44.8703 72.3178 44.8245 72.2151C44.779 72.1125 44.7123 72.0203 44.6292 71.9448Z" fill="black"/>
<path d="M49.7641 81.7494L49.0337 82.1706L48.4153 81.7494L48.4421 81.5546L48.4275 81.54L47.8164 92.0313H50.6283L49.7641 81.7494Z" fill="#2F2E41"/>
<path d="M49.7636 81.7493L49.749 81.5205L49.7636 81.7493Z" fill="#6E03A1"/>
<path opacity="0.2" d="M49.7636 81.7493L49.749 81.5205L49.7636 81.7493Z" fill="black"/>
<path d="M49.106 81.9612C48.8625 81.8667 48.6383 81.7289 48.4438 81.5546L48.417 81.7494L49.0354 82.1705L49.7658 81.7494L49.7463 81.5254C49.5679 81.7165 49.349 81.8652 49.106 81.9612Z" fill="#161527"/>
<path opacity="0.2" d="M49.106 81.9612C48.8625 81.8667 48.6383 81.7289 48.4438 81.5546L48.417 81.7494L49.0354 82.1705L49.7658 81.7494L49.7463 81.5254C49.5679 81.7165 49.349 81.8652 49.106 81.9612Z" fill="#2F2E41"/>
<path d="M49.0303 79.7847H49.0352L49.0474 79.7773L49.0303 79.7847Z" fill="#F4F4F4"/>
<path d="M49.0337 79.7871L48.1279 81.1968C48.1606 81.2484 48.1963 81.2981 48.2351 81.3453C48.2947 81.4154 48.359 81.4812 48.4274 81.5425L48.442 81.5571C48.6365 81.7315 48.8608 81.8693 49.1043 81.9637C49.3492 81.8685 49.5698 81.7195 49.7495 81.5279C49.803 81.4744 49.8566 81.4159 49.9126 81.3502C49.9686 81.2844 49.993 81.2552 50.0343 81.2017L49.0337 79.7871Z" fill="#2F2E41"/>
<path d="M52.029 72.0373V72.2394C52.0023 72.293 52.0412 72.332 52.1069 72.332C52.1308 72.3298 52.153 72.3193 52.17 72.3025C52.1868 72.2855 52.1973 72.2633 52.1995 72.2394V72.03C52.1839 71.9451 52.1866 71.8577 52.207 71.7739C52.2277 71.6899 52.2657 71.6112 52.3188 71.5431C52.3373 71.5187 52.3614 71.4988 52.3887 71.4849C52.4162 71.471 52.4464 71.4634 52.4771 71.4627C52.491 71.4656 52.5056 71.4654 52.5195 71.4622C52.5336 71.4591 52.5465 71.453 52.5579 71.4442C52.5694 71.4357 52.5786 71.4245 52.5855 71.4121C52.5923 71.3994 52.5962 71.3855 52.5971 71.3712C52.5979 71.3568 52.5957 71.3424 52.5906 71.329C52.5855 71.3159 52.5774 71.3037 52.5672 71.2937C52.557 71.2838 52.5448 71.276 52.5314 71.2711C52.5178 71.2662 52.5034 71.2643 52.4893 71.2655C52.4345 71.267 52.3809 71.2794 52.331 71.3018C52.2813 71.3244 52.2365 71.3568 52.1995 71.397C52.1274 71.4856 52.0753 71.5886 52.0458 71.6989C52.0164 71.8092 52.0108 71.9246 52.029 72.0373Z" fill="#FFDAB9"/>
<path opacity="0.3" d="M52.029 72.0373V72.2394C52.0023 72.293 52.0412 72.332 52.1069 72.332C52.1308 72.3298 52.153 72.3193 52.17 72.3025C52.1868 72.2855 52.1973 72.2633 52.1995 72.2394V72.03C52.1839 71.9451 52.1866 71.8577 52.207 71.7739C52.2277 71.6899 52.2657 71.6112 52.3188 71.5431C52.3373 71.5187 52.3614 71.4988 52.3887 71.4849C52.4162 71.471 52.4464 71.4634 52.4771 71.4627C52.491 71.4656 52.5056 71.4654 52.5195 71.4622C52.5336 71.4591 52.5465 71.453 52.5579 71.4442C52.5694 71.4357 52.5786 71.4245 52.5855 71.4121C52.5923 71.3994 52.5962 71.3855 52.5971 71.3712C52.5979 71.3568 52.5957 71.3424 52.5906 71.329C52.5855 71.3159 52.5774 71.3037 52.5672 71.2937C52.557 71.2838 52.5448 71.276 52.5314 71.2711C52.5178 71.2662 52.5034 71.2643 52.4893 71.2655C52.4345 71.267 52.3809 71.2794 52.331 71.3018C52.2813 71.3244 52.2365 71.3568 52.1995 71.397C52.1274 71.4856 52.0753 71.5886 52.0458 71.6989C52.0164 71.8092 52.0108 71.9246 52.029 72.0373Z" fill="black"/>
<path d="M47.7723 81.7494L48.1302 81.1919L49.0359 79.7846H49.0311L45.7808 78.2556L45.7491 78.241L45.2451 79.5752L45.2573 79.5849L45.306 79.6288L47.7723 81.7494Z" fill="#F1F1F1"/>
<path d="M40.4704 86.2439C40.4332 86.2439 40.3974 86.2583 40.3706 86.2843C40.3438 86.3101 40.328 86.3454 40.3268 86.3827L39.3115 92.0312H40.5118L40.6116 86.3827C40.6099 86.3462 40.5944 86.3113 40.5683 86.2858C40.542 86.26 40.5072 86.2451 40.4704 86.2439Z" fill="#D6D5D3"/>
<path d="M57.1776 86.2439L56.9561 92.0312H58.1612V88.7711L57.1776 86.2439Z" fill="#D6D5D3"/>
<path d="M49.0483 79.7773L49.0361 79.7846L50.0417 81.1919L50.4385 81.7494L52.603 79.5874L52.6858 79.5046L51.9238 78.1875L51.914 78.1704L49.0483 79.7773Z" fill="#F1F1F1"/>
<path d="M75.1188 47.8923H24.9639V48.8662H75.1188V47.8923Z" fill="white"/>
</svg>
