<svg width="121" height="120" viewBox="0 0 121 120" fill="none" xmlns="http://www.w3.org/2000/svg">
<g clip-path="url(#clip0_266_2596)">
<path opacity="0.2" d="M20.5063 18.75C20.5063 8.39468 28.901 0 39.2563 0H101.75C112.105 0 120.5 8.39466 120.5 18.75V81.2437C120.5 91.5991 112.105 99.9938 101.75 99.9938H39.2564C28.901 99.9938 20.5063 91.5991 20.5063 81.2438V18.75Z" fill="#42A351"/>
<path d="M54.8181 54.9324H18.7557C18.2475 54.9324 17.8354 55.3444 17.8354 55.8526V70.893C17.8354 71.4013 18.2475 71.8133 18.7557 71.8133H54.8181C55.3264 71.8133 55.7384 71.4013 55.7384 70.893V55.8526C55.7384 55.3444 55.3264 54.9324 54.8181 54.9324Z" fill="#42A351"/>
<path d="M41.7043 52.2455H31.865C31.1189 52.2444 30.4038 51.9476 29.8762 51.42C29.3487 50.8925 29.0519 50.1774 29.0508 49.4313V46.9047C29.0519 46.1587 29.3487 45.4436 29.8762 44.916C30.4038 44.3885 31.1189 44.0917 31.865 44.0906H41.7043C42.4506 44.0906 43.1664 44.3871 43.6942 44.9148C44.2219 45.4426 44.5184 46.1584 44.5184 46.9047V49.419C44.5201 49.7896 44.4485 50.1569 44.3078 50.4997C44.1671 50.8426 43.96 51.1543 43.6986 51.4169C43.4371 51.6795 43.1263 51.8879 42.7841 52.0301C42.4418 52.1723 42.0749 52.2455 41.7043 52.2455ZM31.865 46.157C31.6669 46.1592 31.4775 46.2385 31.3371 46.3781C31.1967 46.5178 31.1163 46.7067 31.1131 46.9047V49.419C31.1131 49.6206 31.1932 49.8139 31.3357 49.9564C31.4783 50.099 31.6716 50.179 31.8732 50.179H41.7125C41.9141 50.179 42.1074 50.099 42.2499 49.9564C42.3924 49.8139 42.4725 49.6206 42.4725 49.419V46.9047C42.4725 46.7032 42.3924 46.5099 42.2499 46.3673C42.1074 46.2248 41.9141 46.1447 41.7125 46.1447L31.865 46.157Z" fill="#42A351"/>
<path opacity="0.2" d="M54.814 54.9324H18.7598C18.6386 54.9318 18.5185 54.9552 18.4064 55.0013C18.2943 55.0473 18.1923 55.115 18.1064 55.2005C18.0206 55.286 17.9524 55.3876 17.9059 55.4995C17.8594 55.6114 17.8354 55.7314 17.8354 55.8526V60.6799L36.6103 64.3773C36.7253 64.4023 36.8444 64.4023 36.9595 64.3773L55.7384 60.6799V55.8526C55.7384 55.7314 55.7144 55.6114 55.6679 55.4995C55.6214 55.3876 55.5533 55.286 55.4674 55.2005C55.3815 55.115 55.2796 55.0473 55.1674 55.0013C55.0553 54.9552 54.9352 54.9318 54.814 54.9324Z" fill="black"/>
<path d="M55.763 59.6404L36.9513 63.3379C36.8344 63.3584 36.7148 63.3584 36.5979 63.3379L17.7862 59.6404C17.5795 59.5996 17.3933 59.4885 17.2592 59.326C17.1252 59.1635 17.0515 58.9596 17.0508 58.7489V49.6696C17.0508 49.5504 17.0743 49.4323 17.1199 49.3222C17.1655 49.212 17.2324 49.112 17.3167 49.0276C17.401 48.9433 17.5011 48.8765 17.6113 48.8308C17.7214 48.7852 17.8395 48.7617 17.9587 48.7617H55.5987C55.7179 48.7617 55.836 48.7852 55.9462 48.8308C56.0563 48.8765 56.1564 48.9433 56.2407 49.0276C56.325 49.112 56.3919 49.212 56.4375 49.3222C56.4832 49.4323 56.5066 49.5504 56.5066 49.6696V58.7654C56.5025 58.9746 56.4263 59.1759 56.2908 59.3354C56.1553 59.4948 55.9688 59.6026 55.763 59.6404Z" fill="#42A351"/>
<path d="M38.7341 60.877H34.8436C34.3626 60.877 33.9727 61.2669 33.9727 61.7479V64.2088C33.9727 64.6898 34.3626 65.0797 34.8436 65.0797H38.7341C39.2152 65.0797 39.6051 64.6898 39.6051 64.2088V61.7479C39.6051 61.2669 39.2152 60.877 38.7341 60.877Z" fill="#42A351"/>
<path opacity="0.4" d="M38.7341 60.877H34.8436C34.3626 60.877 33.9727 61.2669 33.9727 61.7479V64.2088C33.9727 64.6898 34.3626 65.0797 34.8436 65.0797H38.7341C39.2152 65.0797 39.6051 64.6898 39.6051 64.2088V61.7479C39.6051 61.2669 39.2152 60.877 38.7341 60.877Z" fill="black"/>
<path opacity="0.2" d="M40.0736 89.1421C45.887 88.491 51.3768 86.1308 55.8489 82.36C60.321 78.5891 63.5747 73.5769 65.1984 67.957C66.8222 62.3371 66.7432 56.362 64.9714 50.7871C63.1996 45.2121 59.8145 40.2877 55.2442 36.6364C50.6739 32.9851 45.1236 30.7709 39.2951 30.2738C33.4665 29.7766 27.6214 31.0189 22.4988 33.8434C17.3761 36.668 13.206 40.948 10.5156 46.1423C7.82528 51.3367 6.73548 57.2121 7.38404 63.0258C7.81483 66.8874 9.0022 70.6263 10.8783 74.0288C12.7545 77.4314 15.2826 80.431 18.3183 82.8563C21.354 85.2815 24.8377 87.085 28.5706 88.1635C32.3034 89.2421 36.2122 89.5746 40.0736 89.1421Z" fill="#42A351"/>
<path opacity="0.1" d="M18.5503 36.4453L63.5359 72.3763C63.729 71.9654 63.9097 71.5546 64.0864 71.1438C65.2138 68.4613 65.9339 65.6254 66.2227 62.73L27.3667 31.7043C24.1779 32.7678 21.1957 34.3714 18.5503 36.4453Z" fill="white"/>
<path opacity="0.1" d="M8.17285 52.1921L50.4634 85.9827C54.4818 83.8869 57.9648 80.8958 60.6437 77.2403L14.4585 40.3315C11.4821 43.7511 9.33148 47.8091 8.17285 52.1921Z" fill="white"/>
<path d="M98.4153 110.5C98.5566 109.764 98.507 109.004 98.2711 108.292C98.1011 107.77 97.7924 107.303 97.378 106.943L95.0238 104.887C93.4615 103.512 91.8808 102.157 90.3002 100.802C88.7196 99.4466 87.1227 98.1043 85.536 96.7562C83.9493 95.4081 82.3403 94.0795 80.7231 92.7658C77.5015 90.1219 74.2441 87.5166 70.9509 84.9499C69.3064 83.6586 67.6494 82.398 65.9723 81.1491C65.4821 80.7864 65.1481 80.251 65.038 79.6513C64.9278 79.0516 65.0497 78.4324 65.3789 77.9192C70.0139 70.671 71.7403 61.9396 70.2124 53.4729C68.6845 45.0061 64.0151 37.4289 57.139 32.2579C50.2629 27.087 41.6874 24.704 33.1292 25.5859C24.571 26.4678 16.6617 30.5495 10.9846 37.0141C5.30746 43.4786 2.28145 51.8488 2.5123 60.4492C2.74315 69.0496 6.21383 77.2455 12.2296 83.3962C18.2453 89.5468 26.3622 93.1984 34.9554 93.62C43.5485 94.0415 51.9838 91.2018 58.5727 85.6695C59.0396 85.2759 59.6387 85.0745 60.2486 85.106C60.8585 85.1375 61.4336 85.3997 61.8574 85.8393C63.3164 87.3361 64.788 88.8178 66.2721 90.2844C69.2376 93.217 72.2431 96.1064 75.2885 98.9526C76.805 100.388 78.3549 101.794 79.8688 103.208C81.3826 104.622 82.9426 106.022 84.4935 107.425C86.0445 108.827 87.5769 110.203 89.1602 111.58L91.5032 113.645C91.914 114.011 92.4172 114.258 92.9581 114.358C93.693 114.501 94.4521 114.45 95.1619 114.213C95.9993 113.964 96.7491 113.483 97.3248 112.826C97.9005 112.169 98.2786 111.363 98.4153 110.5ZM18.8738 79.7788C14.8707 76.2664 11.999 71.6457 10.622 66.5012C9.24503 61.3567 9.42457 55.9193 11.1379 50.8769C12.8513 45.8344 16.0215 41.4132 20.2476 38.1725C24.4738 34.9319 29.566 33.0172 34.8803 32.6708C40.1947 32.3243 45.4924 33.5615 50.1035 36.2261C54.7147 38.8906 58.4321 42.8627 60.7856 47.64C63.1392 52.4174 64.0232 57.7854 63.3258 63.0651C62.6285 68.3449 60.3811 73.2993 56.8678 77.3017C54.5359 79.9592 51.7033 82.1314 48.5318 83.6941C45.3603 85.2569 41.912 86.1796 38.3839 86.4096C34.8558 86.6396 31.3169 86.1724 27.9693 85.0347C24.6218 83.897 21.5311 82.111 18.8738 79.7788Z" fill="#42A351"/>
</g>
<defs>
<clipPath id="clip0_266_2596">
<rect width="120" height="120" fill="white" transform="translate(0.5)"/>
</clipPath>
</defs>
</svg>
