<svg width="113" height="118" viewBox="0 0 113 118" fill="none" xmlns="http://www.w3.org/2000/svg">
<path opacity="0.2" d="M12.5063 18.75C12.5063 8.39468 20.901 0 31.2563 0H93.7501C104.105 0 112.5 8.39466 112.5 18.75V81.2437C112.5 91.5991 104.105 99.9938 93.7501 99.9938H31.2564C20.901 99.9938 12.5063 91.5991 12.5063 81.2438V18.75Z" fill="#FF3D00"/>
<path d="M70.1491 100.829C67.345 95.9262 63.2766 91.8175 58.2932 88.9689C55.7962 87.5415 52.6448 87.9947 50.6095 90.03C50.5409 90.0986 49.8105 91.2802 48.5298 92.4317C36.1148 103.654 11.6448 77.7204 27.4505 66.8964C29.5332 64.8137 29.931 61.6608 28.5243 59.2C25.6757 54.2166 21.567 50.1482 16.6641 47.3441C14.165 45.9145 11.0454 46.4228 8.98257 48.4285C-21.9838 78.4738 38.9188 139.496 69.0648 108.511C71.0704 106.448 71.5787 103.328 70.1491 100.829Z" fill="#DA3400"/>
<path d="M53.1961 98.9001C50.2103 99.8777 46.9132 99.4372 43.7868 98.0612C42.3043 97.4089 42.4674 95.2586 44.038 94.8625C45.6355 94.4597 47.1566 93.6731 48.53 92.4316C48.6003 92.502 50.7705 93.6914 53.6898 95.9469C54.7638 96.7769 54.4861 98.4776 53.1961 98.9001Z" fill="#DF5E36"/>
<path d="M17.3403 102.558C2.19304 88.1979 -6.06967 66.1777 6.80959 50.7688C9.04946 52.0967 11.1589 53.5712 13.1325 55.1757C13.8094 55.7259 13.9494 56.7042 13.4642 57.4289C4.78935 70.3846 9.41353 87.1703 19.8377 100.28C21.1476 101.928 18.868 104.006 17.3403 102.558Z" fill="#DF5E36"/>
<path d="M70.1491 100.829C71.5787 103.328 71.0704 106.448 69.0648 108.511C68.3045 109.292 67.5251 110.017 66.7266 110.684C59.2323 98.0497 48.8534 92.7567 48.5298 92.4318C49.2647 91.771 49.9572 90.9768 50.5968 90.0429C52.6796 87.9601 55.8325 87.5624 58.2932 88.9691C63.2766 91.8176 67.3451 95.9263 70.1491 100.829Z" fill="#A62800"/>
<path d="M59.1027 94.2447C58.9815 94.3641 58.2718 95.5442 56.9221 96.7391C56.3024 97.2878 55.3722 97.2944 54.7312 96.7706C51.1096 93.8109 48.7054 92.6073 48.5298 92.432C49.2647 91.7712 49.9572 90.977 50.5968 90.043C52.5493 88.0905 55.6383 87.4308 58.4885 89.0815C60.3628 90.1667 60.6451 92.724 59.1027 94.2447Z" fill="#BA2D00"/>
<path d="M28.5247 59.2C29.9295 61.6576 29.5366 64.8107 27.4509 66.8964C26.517 67.536 25.7227 68.2264 25.0598 68.9613C20.7076 61.6737 14.5255 55.3434 6.81006 50.7687C7.47719 49.9703 8.19939 49.1888 8.98301 48.4285C11.0458 46.4228 14.1655 45.9145 16.6646 47.3441C21.5675 50.1482 25.6762 54.2166 28.5247 59.2Z" fill="#A62800"/>
<path d="M17.3018 47.7186C19.0122 48.7498 19.1625 51.133 17.6715 52.462C17.274 52.8163 16.292 53.8087 15.3963 54.8675C14.7967 55.5763 13.7475 55.6727 13.0256 55.0888C11.0826 53.518 9.0092 52.0725 6.80957 50.7687C7.4767 49.9703 8.1989 49.1888 8.98252 48.4285C11.0453 46.4228 14.165 45.9145 16.6641 47.3441C16.8784 47.4665 17.0908 47.5915 17.3018 47.7186Z" fill="#BA2D00"/>
<path d="M60.0279 22.9589C46.7763 23.0521 35.9455 33.8596 35.8248 47.1112C35.7528 55.0321 39.459 62.091 45.2493 66.5936C44.7749 68.1418 44.0951 69.6455 43.2119 71.0581C42.1318 72.7842 43.2522 75.0503 45.2769 75.2494C59.4773 76.6429 84.5826 72.3373 84.5826 47.3378C84.5826 33.8151 73.5718 22.8636 60.0279 22.9589Z" fill="white"/>
<path d="M50.0616 39.2609V55.2709H45.7151V43.2634H45.6213L42.1191 45.3584V41.6686L46.0591 39.2609H50.0616Z" fill="#DA3400"/>
<path d="M61.4616 39.2609V55.2709H57.1152V43.2634H57.0214L53.5192 45.3584V41.6686L57.4591 39.2609H61.4616Z" fill="#DA3400"/>
<path d="M71.9861 55.7087C70.5321 55.7035 69.2761 55.3673 68.2181 54.7002C67.1602 54.0331 66.3446 53.0716 65.7713 51.8156C65.198 50.5596 64.914 49.0535 64.9192 47.2972C64.9244 45.5356 65.2111 44.0399 65.7791 42.81C66.3524 41.58 67.1654 40.6446 68.2181 40.0035C69.2761 39.3625 70.5321 39.042 71.9861 39.042C73.4402 39.042 74.6961 39.3651 75.7541 40.0113C76.8121 40.6524 77.6277 41.5879 78.2009 42.8178C78.7742 44.0477 79.0583 45.5408 79.053 47.2972C79.053 49.0639 78.7664 50.5752 78.1931 51.8312C77.6199 53.0872 76.8042 54.0488 75.7463 54.7159C74.6935 55.3777 73.4402 55.7087 71.9861 55.7087ZM71.9861 52.1752C72.7366 52.1752 73.3516 51.7843 73.831 51.0026C74.3157 50.2156 74.5554 48.9805 74.5502 47.2972C74.5502 46.1975 74.4408 45.2985 74.2219 44.6002C74.003 43.9018 73.7007 43.3859 73.3151 43.0523C72.9294 42.7136 72.4864 42.5442 71.9861 42.5442C71.2357 42.5442 70.6233 42.9246 70.149 43.6855C69.6748 44.4464 69.4324 45.6503 69.422 47.2972C69.4168 48.4176 69.5236 49.3401 69.7425 50.0645C69.9614 50.7837 70.2637 51.3153 70.6493 51.6593C71.0402 52.0032 71.4858 52.1752 71.9861 52.1752Z" fill="#DA3400"/>
</svg>
