<svg width="121" height="103" viewBox="0 0 121 103" fill="none" xmlns="http://www.w3.org/2000/svg">
<path opacity="0.2" d="M19.8955 18.8633C19.8955 8.44539 28.3409 0 38.7588 0H101.637C112.055 0 120.5 8.4454 120.5 18.8633V81.7411C120.5 92.159 112.055 100.604 101.637 100.604H38.7588C28.3409 100.604 19.8955 92.159 19.8955 81.7411V18.8633Z" fill="#FF3D00"/>
<path d="M99.227 38.9067H4.25821C3.33125 38.9067 2.58008 39.6581 2.58008 40.5849V100.268C2.58008 101.196 3.33125 101.947 4.25821 101.947H99.227C100.155 101.947 100.905 101.196 100.905 100.268V40.5849C100.905 39.6581 100.155 38.9067 99.227 38.9067Z" fill="#DADDDF"/>
<path d="M4.45645 38.9067H99.4235C99.8688 38.9067 100.295 39.0837 100.61 39.3983C100.925 39.7131 101.102 40.14 101.102 40.5849V51.5929H2.77832V40.5868C2.77813 40.3663 2.82131 40.1479 2.9055 39.9441C2.9897 39.7404 3.11337 39.555 3.26913 39.3991C3.42508 39.2429 3.61019 39.1193 3.81378 39.0347C4.01757 38.9503 4.23594 38.9067 4.45645 38.9067Z" fill="#DA3400"/>
<path d="M101.104 48.4238H2.77832V49.2172H101.104V48.4238Z" fill="white"/>
<path opacity="0.2" d="M97.8276 39.0061H99.3211C99.7664 39.0061 100.192 39.1829 100.507 39.4977C100.822 39.8123 100.999 40.2391 100.999 40.6842V100.366C100.999 100.811 100.822 101.237 100.507 101.552C100.192 101.867 99.7664 102.044 99.3211 102.044H97.8276V39.0061Z" fill="black"/>
<path d="M97.2459 38.9067H2.27676C1.35 38.9067 0.598633 39.6581 0.598633 40.5849V100.268C0.598633 101.196 1.35 101.947 2.27676 101.947H97.2459C98.1715 101.947 98.9241 101.196 98.9241 100.268V40.5849C98.9241 39.6581 98.1715 38.9067 97.2459 38.9067Z" fill="#DADDDF"/>
<path d="M2.17813 38.8079H97.2441C97.6894 38.8079 98.1153 38.9846 98.4303 39.2993C98.7453 39.6141 98.9223 40.0409 98.9223 40.486V51.5931H0.500001V40.4879C0.499806 40.2672 0.54298 40.0489 0.627373 39.8451C0.711571 39.6413 0.835048 39.456 0.990999 39.3C1.14676 39.1439 1.33188 39.0202 1.53567 38.9358C1.73926 38.8512 1.95762 38.8079 2.17813 38.8079Z" fill="#DA3400"/>
<path d="M2.17813 38.8079H97.2441C97.6894 38.8079 98.1153 38.9846 98.4303 39.2993C98.7453 39.6141 98.9223 40.0409 98.9223 40.486V51.5931H0.500001V40.4879C0.499806 40.2672 0.54298 40.0489 0.627373 39.8451C0.711571 39.6413 0.835048 39.456 0.990999 39.3C1.14676 39.1439 1.33188 39.0202 1.53567 38.9358C1.73926 38.8512 1.95762 38.8079 2.17813 38.8079Z" fill="#DA3400"/>
<path d="M30.1353 59.2273H10.0146V83.7089H30.1353V59.2273Z" fill="white"/>
<path opacity="0.3" d="M55.0056 42.376H39.1635C38.6663 42.376 38.2632 42.7791 38.2632 43.2763V44.6472C38.2632 45.1444 38.6663 45.5475 39.1635 45.5475H55.0056C55.5034 45.5475 55.9059 45.1444 55.9059 44.6472V43.2763C55.9059 42.7791 55.5034 42.376 55.0056 42.376Z" fill="black"/>
<path d="M89.3085 58.6326H40.1475V60.2193H89.3085V58.6326Z" fill="#B2B6BB"/>
<path opacity="0.3" d="M53.4281 64.5789H40.1475V66.1659H53.4281V64.5789Z" fill="black"/>
<path d="M89.3085 67.552H40.1475V69.1387H89.3085V67.552Z" fill="#B2B6BB"/>
<path opacity="0.3" d="M57.7894 85.1965H40.3452V86.7833H57.7894V85.1965Z" fill="black"/>
<path opacity="0.3" d="M89.3086 93.9177H71.8643V95.5045H89.3086V93.9177Z" fill="black"/>
<path d="M86.7318 96.6926H74.4404V98.2794H86.7318V96.6926Z" fill="#B2B6BB"/>
<path d="M89.5066 88.1694H40.3452V89.7564H89.5066V88.1694Z" fill="#B2B6BB"/>
<path opacity="0.3" d="M53.4281 73.3018H40.1475V74.8885H53.4281V73.3018Z" fill="black"/>
<path d="M89.3085 76.2749H40.1475V77.8617H89.3085V76.2749Z" fill="#B2B6BB"/>
<path d="M89.3085 79.2483H40.1475V80.835H89.3085V79.2483Z" fill="#B2B6BB"/>
<path d="M10.9555 87.4829H10.2402V92.6242H10.9555V87.4829Z" fill="#61656D"/>
<path d="M12.3424 87.4829H11.2432V92.6242H12.3424V87.4829Z" fill="#61656D"/>
<path d="M12.9157 87.4829H12.5854V92.6242H12.9157V87.4829Z" fill="#61656D"/>
<path d="M13.6297 87.4829H13.2988V92.6242H13.6297V87.4829Z" fill="#61656D"/>
<path d="M14.7051 87.4829H13.9893V92.6242H14.7051V87.4829Z" fill="#61656D"/>
<path d="M16.0916 87.4829H14.9927V92.6242H16.0916V87.4829Z" fill="#61656D"/>
<path d="M16.6646 87.4829H16.334V92.6242H16.6646V87.4829Z" fill="#61656D"/>
<path d="M17.3789 87.4829H17.0483V92.6242H17.3789V87.4829Z" fill="#61656D"/>
<path d="M20.459 92.6244H21.1749V87.4832H20.459V92.6244Z" fill="#61656D"/>
<path d="M19.0728 92.6244H20.1714V87.4832H19.0728V92.6244Z" fill="#61656D"/>
<path d="M18.5005 92.6244H18.831V87.4832H18.5005V92.6244Z" fill="#61656D"/>
<path d="M17.7847 92.6244H18.1149V87.4832H17.7847V92.6244Z" fill="#61656D"/>
<path d="M22.2618 87.4829H21.5459V92.6242H22.2618V87.4829Z" fill="#61656D"/>
<path d="M23.6475 87.4829H22.5488V92.6242H23.6475V87.4829Z" fill="#61656D"/>
<path d="M24.221 87.4829H23.8906V92.6242H24.221V87.4829Z" fill="#61656D"/>
<path d="M24.9346 87.4829H24.604V92.6242H24.9346V87.4829Z" fill="#61656D"/>
<path d="M26.0108 87.4829H25.2949V92.6242H26.0108V87.4829Z" fill="#61656D"/>
<path d="M27.3963 87.4829H26.2974V92.6242H27.3963V87.4829Z" fill="#61656D"/>
<path d="M27.9702 87.4829H27.6396V92.6242H27.9702V87.4829Z" fill="#61656D"/>
<path d="M28.6831 87.4829H28.3525V92.6242H28.6831V87.4829Z" fill="#61656D"/>
<path d="M29.8066 92.6244H30.1372V87.4832H29.8066V92.6244Z" fill="#61656D"/>
<path d="M29.0898 92.6244H29.4204V87.4832H29.0898V92.6244Z" fill="#61656D"/>
<path d="M98.9241 48.4238H0.598633V49.2172H98.9241V48.4238Z" fill="white"/>
<path d="M29.2564 80.1348C29.0872 79.425 29.2778 78.6336 28.9472 77.9841C28.6886 77.4727 28.1693 77.1577 27.8096 76.7085C27.3837 76.166 27.2476 75.4835 27.2145 74.7834C27.0609 75.3337 26.7789 75.8646 26.8645 76.4227C26.9211 76.6936 27.0146 76.9553 27.1426 77.2005C27.5185 77.52 27.7963 77.9394 27.9438 78.41C28.0383 78.7207 28.1163 79.0361 28.1771 79.355L29.0347 83.7166H30.1374V82.054C30.1179 82.0035 30.1023 81.9529 30.0809 81.9043C29.8281 81.2957 29.4042 80.7668 29.2564 80.1348Z" fill="black"/>
<path d="M11.0805 78.9272C10.7265 79.3687 10.3434 79.8023 10.0146 80.2593V83.7088H10.7129L11.0922 79.2364C11.0823 79.1338 11.0784 79.0305 11.0805 78.9272Z" fill="black"/>
<path d="M12.6866 73.8503C12.7663 73.2047 12.8169 72.5513 12.9374 71.9058C12.4027 72.5727 11.9243 73.2669 11.8679 74.0934C11.8193 74.7778 12.076 75.4545 12.1518 76.1312C12.3179 75.7909 12.4346 75.4289 12.498 75.0559C12.5757 74.6651 12.6418 74.2567 12.6866 73.8503Z" fill="black"/>
<path d="M13.0852 76.3799L13.2175 76.343C13.2369 76.306 13.2583 76.271 13.2797 76.2341C13.6375 75.6293 14.0575 74.9934 14.003 74.2895C13.9447 73.4902 13.2777 72.7746 13.4391 71.9909C13.5402 71.5048 13.9408 71.145 14.1897 70.7153C14.4439 70.2305 14.5773 69.6914 14.5786 69.144C14.5222 69.2277 14.4639 69.3113 14.4036 69.3929L14.3667 69.4435L13.5189 71.182C13.3827 71.3531 13.2408 71.5242 13.1008 71.6973C12.9491 72.4051 12.8947 73.1383 12.8072 73.8655C12.7838 74.06 12.7566 74.272 12.7255 74.4761C12.6971 74.6801 12.6563 74.8822 12.603 75.0809C12.5067 75.4572 12.3541 75.8164 12.1499 76.1466C12.1676 76.2918 12.1748 76.4381 12.1713 76.5841C12.1713 76.6658 12.1596 76.7455 12.1499 76.8233C12.3842 76.643 12.6471 76.503 12.9277 76.4091L13.0852 76.3799Z" fill="black"/>
<path d="M15.1069 67.7037C15.161 67.5075 15.1775 67.3029 15.1555 67.1009C15.208 67.302 15.218 67.512 15.1847 67.7173C15.1592 67.9244 15.1056 68.1272 15.0252 68.3201C14.9035 68.6081 14.7552 68.884 14.5819 69.1446C14.5807 69.692 14.4473 70.231 14.193 70.7158C13.9441 71.1455 13.5435 71.5052 13.4424 71.9914C13.281 72.7692 13.948 73.4906 14.0063 74.2898C14.0588 74.9937 13.6407 75.6296 13.2829 76.2343C13.2615 76.2713 13.2401 76.3063 13.2207 76.3432L13.3024 76.3199L14.5683 76.0613L17.2479 75.2835L17.6368 74.6029L17.6971 72.4328L17.7185 71.6433C17.5999 71.6394 17.4818 71.6231 17.3665 71.5947C17.2883 71.7016 17.1977 71.7989 17.0962 71.8844C16.9809 71.9945 16.8351 72.0674 16.6775 72.0938C16.5202 72.1201 16.3584 72.0987 16.2134 72.0322C16.017 71.8718 15.8896 71.6419 15.8575 71.3905C15.6294 70.4787 15.4927 69.5467 15.4492 68.6079C15.3811 68.2647 15.4305 67.9086 15.5898 67.5971C15.7488 67.2856 16.0082 67.0367 16.3262 66.8909L16.4837 66.7956C16.4399 66.7365 16.4057 66.671 16.3826 66.6011C17.4482 65.8914 18.6227 65.2964 19.8925 65.1914C21.1623 65.0864 22.5371 65.5531 23.2566 66.605C23.9761 67.657 23.9275 68.9696 23.8691 70.2121L23.7388 70.358C23.7762 70.0099 23.6968 69.6595 23.5131 69.3616C23.3291 69.0637 23.0516 68.8356 22.7238 68.7129L22.7627 69.6521C22.801 69.6935 22.836 69.7377 22.8677 69.7843C22.9719 69.9372 23.0335 70.1149 23.0466 70.2996C23.0639 70.5662 22.9838 70.8303 22.821 71.0424L22.8307 71.2913C22.8426 71.7147 22.745 72.1339 22.5474 72.5086C22.3498 72.8833 22.0589 73.2007 21.7029 73.4303L21.7982 74.2548C21.7632 74.2645 21.7243 74.2684 21.6873 74.2762L21.7554 74.8926C21.7602 74.9321 21.7686 74.9712 21.7807 75.0093L21.8001 74.9723L22.2687 75.441L22.4243 75.4721V75.509L23.8361 75.931L23.8244 75.964L24.7033 76.2304C24.7733 76.2538 24.8394 76.2771 24.8978 76.3043L26.1229 76.6446C26.496 76.75 26.8414 76.9367 27.134 77.191C27.0063 76.9456 26.9127 76.6839 26.856 76.4132C26.7704 75.8551 27.0504 75.3243 27.206 74.774C27.2565 74.605 27.2873 74.4308 27.2974 74.2548C27.3246 73.6034 26.9726 73.0006 26.5604 72.5047C26.1481 72.0089 25.662 71.5539 25.3314 70.9919C24.8006 70.076 24.7481 68.9676 24.5342 67.9234C24.3689 67.0581 24.1452 65.7844 23.4685 65.2614C23.0102 64.7927 22.4554 64.4293 21.8429 64.1958C20.9912 63.8166 19.9255 63.9741 19.0466 64.2891C18.6382 64.4427 18.2513 64.678 17.839 64.8219C17.0398 65.0883 16.1375 65.0514 15.4414 65.6211C14.7452 66.1909 14.6052 67.1767 14.5916 68.0829C14.5916 68.3493 14.5916 68.6215 14.5916 68.8918C14.713 68.6931 14.8195 68.4856 14.9105 68.2715C14.9747 68.0829 15.0603 67.9001 15.1069 67.7037Z" fill="black"/>
<path d="M22.93 70.3015C22.9189 70.1407 22.8653 69.9857 22.7744 69.8523L22.8153 70.8246C22.9018 70.6643 22.9415 70.4831 22.93 70.3015Z" fill="black"/>
<path d="M18.4907 67.198C18.4907 67.2116 18.4907 67.2272 18.4907 67.2408L18.7496 67.2291C18.6644 67.2116 18.5777 67.2013 18.4907 67.198Z" fill="black"/>
<path d="M17.6413 69.0122C17.5434 69.3138 17.5287 69.6364 17.5986 69.9456C17.6448 70.0008 17.6851 70.0609 17.7189 70.1245L17.6704 68.9578L17.6413 69.0122Z" fill="black"/>
<path d="M27.6544 80.6013C27.569 80.6013 27.4856 80.6266 27.4146 80.674C27.3436 80.7215 27.2882 80.789 27.2555 80.8679C27.2228 80.9467 27.2143 81.0336 27.231 81.1172C27.2475 81.201 27.2888 81.278 27.3491 81.3383C27.4096 81.3988 27.4864 81.4398 27.5702 81.4565C27.654 81.4731 27.7408 81.4645 27.8198 81.4318C27.8985 81.3992 27.966 81.3439 28.0135 81.273C28.0609 81.202 28.0862 81.1184 28.0862 81.033C28.0862 80.9185 28.0407 80.8088 27.9598 80.7279C27.8789 80.6468 27.769 80.6013 27.6544 80.6013ZM27.6544 81.348C27.6463 81.348 27.6383 81.3447 27.6325 81.3389C27.6266 81.3331 27.6233 81.3253 27.6233 81.3169C27.6239 81.3089 27.6272 81.3012 27.633 81.2955C27.6387 81.2897 27.6465 81.2864 27.6544 81.2858C27.705 81.2862 27.7546 81.2716 27.7968 81.2438C27.839 81.2158 27.8719 81.1761 27.8915 81.1295C27.911 81.0828 27.9162 81.0315 27.9063 80.9819C27.8966 80.9323 27.8723 80.8868 27.8365 80.851C27.8009 80.8152 27.7552 80.7909 27.7056 80.7812C27.656 80.7715 27.6046 80.7767 27.558 80.7962C27.5113 80.8156 27.4716 80.8487 27.4438 80.8909C27.416 80.9331 27.4012 80.9825 27.4016 81.033C27.4016 81.0414 27.3983 81.0492 27.3924 81.055C27.3866 81.0608 27.3788 81.0641 27.3705 81.0641C27.3623 81.0641 27.3543 81.0608 27.3485 81.055C27.3426 81.0492 27.3393 81.0414 27.3393 81.033C27.339 80.9702 27.3572 80.9088 27.392 80.8563C27.4267 80.8038 27.4763 80.7629 27.5342 80.7386C27.5922 80.7145 27.6562 80.7081 27.7178 80.7201C27.7795 80.7324 27.8361 80.7625 27.8806 80.807C27.925 80.8514 27.9553 80.9082 27.9674 80.9698C27.9796 81.0315 27.9732 81.0952 27.9489 81.1534C27.9248 81.2113 27.8838 81.2607 27.8312 81.2955C27.7789 81.3301 27.7173 81.3484 27.6544 81.348Z" fill="#21252B"/>
<path d="M26.2938 80.4053L26.251 80.8428L26.8132 82.5929C26.918 82.9563 26.9466 83.3376 26.8968 83.7129H27.4104C27.4357 82.3887 26.607 80.9128 26.2938 80.4053Z" fill="#21252B"/>
<path opacity="0.3" d="M26.2938 80.4053L26.251 80.8428L26.8132 82.5929C26.918 82.9563 26.9466 83.3376 26.8968 83.7129H27.4104C27.4357 82.3887 26.607 80.9128 26.2938 80.4053Z" fill="black"/>
<path d="M23.955 81.7449C23.8696 81.7449 23.7862 81.7702 23.7153 81.8176C23.6441 81.8651 23.5889 81.9326 23.5563 82.0115C23.5236 82.0903 23.5151 82.1772 23.5318 82.2609C23.5483 82.3447 23.5895 82.4217 23.6498 82.482C23.7102 82.5423 23.787 82.5835 23.8708 82.6003C23.9544 82.6168 24.0413 82.6082 24.12 82.5756C24.1989 82.5429 24.2664 82.4877 24.3138 82.4167C24.3612 82.3455 24.3865 82.262 24.3865 82.1767C24.3867 82.1199 24.3758 82.0637 24.3542 82.0111C24.3325 81.9586 24.3008 81.911 24.2607 81.8707C24.2205 81.8307 24.1729 81.7989 24.1204 81.7772C24.0679 81.7556 24.0117 81.7447 23.955 81.7449ZM23.955 82.4917C23.9466 82.4917 23.9388 82.4884 23.933 82.4826C23.9272 82.4768 23.9239 82.469 23.9239 82.4606C23.9239 82.4525 23.9272 82.4445 23.933 82.4386C23.9388 82.4328 23.9466 82.4295 23.955 82.4295C24.0055 82.4299 24.0549 82.4153 24.0971 82.3875C24.1392 82.3595 24.1723 82.3198 24.1917 82.2731C24.2114 82.2264 24.2164 82.1751 24.2067 82.1255C24.197 82.0759 24.1727 82.0304 24.1369 81.9946C24.1011 81.9588 24.0557 81.9345 24.0061 81.9248C23.9565 81.9151 23.9052 81.9203 23.8585 81.9398C23.8119 81.9592 23.7722 81.9923 23.7442 82.0345C23.7164 82.0767 23.7019 82.1261 23.7023 82.1767C23.7023 82.185 23.699 82.1928 23.6931 82.1986C23.6873 82.2045 23.6793 82.2078 23.6711 82.2078C23.6628 82.2078 23.655 82.2045 23.6492 82.1986C23.6434 82.1928 23.6401 82.185 23.6401 82.1767C23.6397 82.1138 23.6579 82.0522 23.6925 81.9999C23.7273 81.9474 23.7767 81.9065 23.8346 81.8822C23.8928 81.8581 23.9565 81.8517 24.0181 81.8637C24.08 81.876 24.1365 81.9061 24.1808 81.9507C24.2253 81.995 24.2555 82.0518 24.2677 82.1134C24.28 82.1751 24.2734 82.2389 24.2493 82.2971C24.225 82.355 24.1841 82.4044 24.1317 82.4392C24.0794 82.4738 24.0177 82.4921 23.955 82.4917Z" fill="#21252B"/>
<path d="M18.0806 82.2957C18.1659 82.2957 18.2494 82.2704 18.3203 82.2229C18.3913 82.1755 18.4467 82.108 18.4794 82.029C18.512 81.9503 18.5206 81.8633 18.5039 81.7797C18.4873 81.6959 18.4461 81.6189 18.3858 81.5586C18.3254 81.4983 18.2486 81.4571 18.1648 81.4403C18.081 81.4238 17.9942 81.4324 17.9153 81.465C17.8366 81.4977 17.7691 81.5529 17.7217 81.6239C17.6742 81.6949 17.6489 81.7785 17.6489 81.8639C17.6489 81.9205 17.66 81.9767 17.6818 82.029C17.7034 82.0815 17.7353 82.129 17.7753 82.1692C17.8154 82.2093 17.863 82.241 17.9153 82.2628C17.9678 82.2844 18.0238 82.2957 18.0806 82.2957ZM17.7636 81.86C17.7636 81.7972 17.7823 81.7359 17.8171 81.6838C17.8519 81.6317 17.9013 81.5911 17.9593 81.5671C18.0172 81.543 18.081 81.5368 18.1424 81.549C18.2039 81.5613 18.2604 81.5914 18.3046 81.6358C18.3489 81.6801 18.3792 81.7367 18.3915 81.7982C18.4035 81.8596 18.3973 81.9234 18.3734 81.9814C18.3493 82.0391 18.3088 82.0887 18.2565 82.1235C18.2044 82.1584 18.1432 82.177 18.0806 82.177C18.0722 82.177 18.0644 82.1737 18.0586 82.1679C18.0528 82.162 18.0495 82.1541 18.0495 82.1459C18.0495 82.1375 18.0528 82.1298 18.0586 82.1239C18.0644 82.1181 18.0722 82.1148 18.0806 82.1148C18.1309 82.1148 18.1801 82.0998 18.2221 82.0718C18.2639 82.0438 18.2966 82.0039 18.3158 81.9575C18.3351 81.911 18.3402 81.8596 18.3304 81.8102C18.3205 81.7608 18.2962 81.7155 18.2606 81.6797C18.225 81.6441 18.1797 81.6198 18.1302 81.6101C18.0808 81.6002 18.0296 81.6053 17.9832 81.6247C17.9365 81.644 17.8968 81.6766 17.8688 81.7184C17.8408 81.7603 17.8259 81.8096 17.8259 81.86C17.8259 81.8682 17.8226 81.8762 17.8167 81.882C17.8109 81.8878 17.8029 81.8911 17.7948 81.8911C17.7864 81.8911 17.7786 81.8878 17.7728 81.882C17.767 81.8762 17.7636 81.8682 17.7636 81.86Z" fill="#21252B"/>
<path d="M14.5645 76.061L13.2988 76.3197L13.2172 76.343L13.085 76.3799L14.5897 76.098L14.5645 76.061Z" fill="#21252B"/>
<path d="M25.005 78.4237C25.0906 78.4241 25.1742 78.399 25.2454 78.3518C25.3168 78.3048 25.3724 78.2375 25.4053 78.1586C25.4383 78.0798 25.4471 77.9929 25.4307 77.9091C25.4142 77.8252 25.3732 77.7482 25.3129 77.6875C25.2526 77.6271 25.1758 77.5857 25.0919 77.5689C25.0081 77.5522 24.9212 77.5606 24.8422 77.5932C24.7633 77.6257 24.6956 77.6811 24.6481 77.7521C24.6007 77.8232 24.5752 77.9066 24.5752 77.9922C24.5758 78.1061 24.6211 78.2153 24.7016 78.296C24.7819 78.3767 24.891 78.4226 25.005 78.4237ZM25.005 77.6772C25.0486 77.6737 25.0925 77.6794 25.1338 77.6937C25.175 77.7079 25.2129 77.7307 25.245 77.7604C25.2771 77.79 25.3028 77.8259 25.3203 77.866C25.3378 77.906 25.3469 77.9494 25.3469 77.9931C25.3469 78.0367 25.3378 78.08 25.3203 78.1201C25.3028 78.1601 25.2771 78.1961 25.245 78.2256C25.2129 78.2554 25.175 78.2781 25.1338 78.2925C25.0925 78.3067 25.0486 78.3123 25.005 78.309C24.9968 78.309 24.9889 78.3057 24.983 78.2999C24.9772 78.2941 24.9739 78.2861 24.9739 78.2779C24.9739 78.2696 24.9772 78.2616 24.983 78.2558C24.9889 78.2499 24.9968 78.2468 25.005 78.2468C25.0402 78.2497 25.0756 78.2457 25.1091 78.2342C25.1425 78.2229 25.1732 78.2046 25.1993 78.1807C25.2253 78.157 25.2462 78.128 25.2604 78.0956C25.2748 78.0633 25.2819 78.0283 25.2819 77.9931C25.2819 77.9577 25.2748 77.9228 25.2604 77.8905C25.2462 77.8582 25.2253 77.8291 25.1993 77.8053C25.1732 77.7814 25.1425 77.7631 25.1091 77.7519C25.0756 77.7406 25.0402 77.7363 25.005 77.7394C24.9379 77.7394 24.8737 77.7661 24.8263 77.8133C24.7788 77.8607 24.7522 77.9251 24.7522 77.9922C24.7522 78.0003 24.7489 78.0083 24.743 78.0141C24.7372 78.02 24.7292 78.0233 24.7211 78.0233C24.7129 78.0233 24.7049 78.02 24.6991 78.0141C24.6933 78.0083 24.6899 78.0003 24.6899 77.9922C24.6905 77.9088 24.7238 77.8289 24.7827 77.7699C24.8418 77.711 24.9216 77.6776 25.005 77.6772Z" fill="#21252B"/>
<path d="M20.6961 77.0661L21.7852 75.011C21.7729 74.9729 21.7645 74.9338 21.7599 74.8942L21.6918 74.2778C21.5477 74.3066 21.4011 74.3215 21.2543 74.3225C20.7903 74.3178 20.3403 74.1638 19.9708 73.8831C19.5758 73.844 19.1939 73.7205 18.8507 73.5214C18.8347 73.5111 18.8234 73.495 18.8194 73.4763C18.8155 73.4578 18.819 73.4384 18.8293 73.4222L18.8429 73.4106C18.374 73.0956 18.03 72.6264 17.8706 72.0845L17.6955 72.4327L17.6353 74.6025L20.6961 77.0661Z" fill="#FCBA9D"/>
<path d="M22.2435 69.4477C22.0458 69.3859 21.8337 69.3888 21.6379 69.4559C21.4421 69.5231 21.2727 69.6511 21.1547 69.821L21.1294 69.8579L21.0867 69.8424C20.8936 69.7738 20.6828 69.7738 20.4898 69.8424L20.4412 69.8618L20.4159 69.8171C20.3486 69.7078 20.2603 69.6128 20.1563 69.5377C20.0521 69.4627 19.9343 69.409 19.8093 69.3796C19.7766 69.3719 19.7433 69.366 19.7101 69.3621C19.6453 69.3565 19.5802 69.3565 19.5157 69.3621C19.3152 69.3781 19.1251 69.4578 18.9732 69.5896C18.8548 69.6886 18.7617 69.8142 18.7016 69.9561C18.6413 70.0983 18.6158 70.2525 18.6271 70.4062C18.632 70.4786 18.6464 70.5497 18.6699 70.6182C18.7257 70.7959 18.8315 70.9538 18.9746 71.073C19.1177 71.1923 19.2919 71.268 19.4768 71.2909C19.5413 71.2991 19.6067 71.2991 19.6712 71.2909C19.9271 71.2701 20.1645 71.1488 20.3313 70.9536C20.4981 70.7584 20.581 70.505 20.5617 70.2488V70.2332C20.5483 70.1319 20.5222 70.0326 20.4839 69.9377L20.4606 69.8793L20.5209 69.8579C20.6177 69.8272 20.7186 69.8115 20.8203 69.8113C20.9039 69.8103 20.9871 69.8222 21.0672 69.8463L21.1392 69.8657L21.1042 69.9318C21.0235 70.0897 20.9885 70.2666 21.0031 70.4432C21.0239 70.6993 21.1452 70.9367 21.3404 71.1035C21.5356 71.2703 21.7891 71.3531 22.0452 71.3337C22.1415 71.3265 22.2358 71.3041 22.3252 71.2676C22.5396 71.1807 22.7162 71.0201 22.8229 70.8146L22.7821 69.8424C22.6547 69.6515 22.464 69.5117 22.2435 69.4477ZM19.7334 70.6007C19.6811 70.6007 19.63 70.5853 19.5864 70.5562C19.5429 70.5272 19.509 70.4858 19.489 70.4376C19.469 70.3891 19.4638 70.3361 19.4741 70.2847C19.4842 70.2334 19.5094 70.1863 19.5464 70.1494C19.5833 70.1123 19.6306 70.0872 19.6817 70.0769C19.733 70.0668 19.7863 70.072 19.8345 70.092C19.8829 70.1121 19.9242 70.1459 19.9533 70.1895C19.9823 70.2328 19.9978 70.284 19.9978 70.3363C19.9978 70.3711 19.991 70.4055 19.9776 70.4376C19.9644 70.4696 19.945 70.4988 19.9203 70.5233C19.8958 70.5478 19.8666 70.5672 19.8345 70.5807C19.8025 70.5939 19.768 70.6007 19.7334 70.6007ZM21.7866 70.6007C21.7341 70.6011 21.6828 70.5859 21.639 70.5571C21.5953 70.5284 21.5613 70.4871 21.5409 70.4389C21.5206 70.3905 21.515 70.3374 21.5251 70.2859C21.535 70.2346 21.5601 70.1871 21.597 70.15C21.6338 70.1128 21.681 70.0876 21.7324 70.0771C21.7837 70.0668 21.837 70.0718 21.8854 70.0918C21.9338 70.1119 21.9752 70.1457 22.0044 70.1893C22.0335 70.2328 22.0491 70.284 22.0491 70.3363C22.0491 70.4045 22.0229 70.47 21.9758 70.5192C21.9287 70.5686 21.8644 70.5978 21.7963 70.6007H21.7866Z" fill="#FCBA9D"/>
<path d="M19.7331 70.0742C19.6808 70.0742 19.6297 70.0898 19.5861 70.119C19.5426 70.1479 19.5086 70.1894 19.4887 70.238C19.4687 70.2864 19.4636 70.3397 19.474 70.391C19.4843 70.4424 19.5097 70.4894 19.5469 70.5264C19.584 70.5633 19.6314 70.5882 19.6828 70.5983C19.7343 70.6083 19.7874 70.6028 19.8358 70.5824C19.884 70.5622 19.9252 70.528 19.954 70.4842C19.9828 70.4404 19.998 70.3891 19.9976 70.3368C19.9976 70.3022 19.9908 70.2677 19.9775 70.2358C19.9641 70.2038 19.9447 70.1748 19.92 70.1505C19.8955 70.126 19.8663 70.1067 19.8342 70.0937C19.8022 70.0805 19.7677 70.0738 19.7331 70.0742ZM19.844 70.2279C19.8585 70.2279 19.8724 70.2335 19.8825 70.2438C19.8928 70.2539 19.8984 70.2677 19.8984 70.2823C19.898 70.2965 19.892 70.3101 19.8819 70.3202C19.8718 70.3304 19.8584 70.3362 19.844 70.3368C19.8296 70.3368 19.8158 70.3309 19.8055 70.3208C19.7954 70.3105 19.7895 70.2967 19.7895 70.2823C19.7891 70.2744 19.7905 70.2664 19.7936 70.259C19.7967 70.2516 19.8014 70.2452 19.8074 70.2399C19.8134 70.2347 19.8204 70.2308 19.8282 70.2286C19.8358 70.2267 19.844 70.2263 19.8517 70.2279H19.844Z" fill="black"/>
<path d="M19.844 70.3365C19.8739 70.3365 19.8984 70.3119 19.8984 70.2819C19.8984 70.2517 19.8739 70.2273 19.844 70.2273C19.8139 70.2273 19.7896 70.2517 19.7896 70.2819C19.7896 70.3119 19.8139 70.3365 19.844 70.3365Z" fill="white"/>
<path d="M21.796 70.0742C21.7436 70.0738 21.6923 70.089 21.6485 70.118C21.6046 70.1468 21.5706 70.1882 21.5502 70.2366C21.53 70.2848 21.5246 70.3383 21.5349 70.3897C21.545 70.4412 21.57 70.4884 21.6072 70.5256C21.6443 70.5627 21.6915 70.588 21.743 70.5981C21.7945 70.6083 21.8477 70.6028 21.8961 70.5826C21.9445 70.5624 21.9857 70.5281 22.0146 70.4844C22.0436 70.4406 22.0588 70.3891 22.0584 70.3368C22.0584 70.2671 22.0308 70.2002 21.9814 70.151C21.9323 70.1018 21.8656 70.0742 21.796 70.0742ZM21.9049 70.3251C21.8905 70.3251 21.8765 70.3193 21.8664 70.3091C21.8561 70.2988 21.8504 70.285 21.8504 70.2706C21.8508 70.2563 21.8569 70.2426 21.867 70.2325C21.8771 70.2224 21.8905 70.2166 21.9049 70.2162C21.9192 70.2162 21.933 70.2218 21.9433 70.2321C21.9534 70.2423 21.9593 70.2561 21.9593 70.2706C21.9598 70.2788 21.9583 70.287 21.9552 70.2944C21.9519 70.302 21.947 70.3086 21.9408 70.3138C21.9346 70.3193 21.9272 70.323 21.9192 70.3249C21.9113 70.3268 21.9031 70.3269 21.8951 70.3251H21.9049Z" fill="black"/>
<path d="M21.8961 70.2156C21.8818 70.2162 21.8681 70.222 21.8579 70.2321C21.8478 70.2422 21.8419 70.2559 21.8413 70.2701C21.8413 70.2845 21.8472 70.2985 21.8573 70.3086C21.8677 70.319 21.8816 70.3246 21.8961 70.3246C21.9035 70.325 21.9107 70.3236 21.9174 70.3211C21.9242 70.3184 21.9303 70.3145 21.9356 70.3092C21.9406 70.3042 21.9446 70.2981 21.9473 70.2913C21.95 70.2845 21.9512 70.2773 21.9508 70.2701C21.9508 70.2557 21.9451 70.2419 21.9348 70.2315C21.9246 70.2214 21.9107 70.2156 21.8961 70.2156Z" fill="white"/>
<path d="M16.4583 70.7019C16.1725 69.7529 17.1117 69.3737 17.5978 69.9454C17.5278 69.636 17.5425 69.3136 17.6405 69.012L17.6697 68.9634C17.8027 68.7232 17.9639 68.5 18.15 68.2983C18.3671 67.9878 18.4863 67.6193 18.4922 67.2405C18.4922 67.2269 18.4922 67.2113 18.4922 67.1977C18.1966 67.1821 17.8875 67.2269 17.588 67.2347C17.1739 67.2444 16.7072 67.118 16.4856 66.7971L16.3281 66.8924C16.0102 67.0382 15.7508 67.2872 15.5915 67.5987C15.4325 67.9102 15.3831 68.2665 15.4512 68.6095C15.4945 69.5483 15.6314 70.4806 15.8595 71.3922C15.8916 71.6438 16.0189 71.8735 16.2153 72.0339C16.3603 72.1004 16.5221 72.122 16.6794 72.0956C16.8367 72.0693 16.9827 71.9964 17.0981 71.8861C17.1995 71.8008 17.2902 71.7035 17.3683 71.5964C17.1494 71.5447 16.9489 71.434 16.7885 71.2763C16.6281 71.1186 16.5138 70.9199 16.4583 70.7019Z" fill="black"/>
<path d="M17.7206 71.6453L17.6992 72.4347V72.4328L17.7225 71.6453H17.7206Z" fill="black"/>
<path opacity="0.15" d="M17.7206 71.6453L17.6992 72.4347V72.4328L17.7225 71.6453H17.7206Z" fill="black"/>
<path d="M18.1021 71.6453H17.7304L17.707 72.4231L17.8822 72.075L18.1021 71.6453Z" fill="#FCBA9D"/>
<path opacity="0.15" d="M18.1021 71.6453H17.7304L17.707 72.4231L17.8822 72.075L18.1021 71.6453Z" fill="black"/>
<path d="M22.8248 71.0342C22.7066 71.1921 22.5471 71.3146 22.3639 71.3881C22.263 71.4297 22.1561 71.4554 22.047 71.464H21.9634C21.6888 71.463 21.4245 71.359 21.2229 71.1723C21.0212 70.9858 20.897 70.7305 20.8744 70.4567C20.8614 70.284 20.8894 70.1108 20.9561 69.9511C20.8419 69.9305 20.7249 69.9338 20.6119 69.9608C20.6434 70.0468 20.6642 70.1362 20.6741 70.2272C20.6749 70.235 20.6749 70.2428 20.6741 70.2506C20.6941 70.5376 20.6002 70.8209 20.4128 71.0393C20.2253 71.2576 19.9595 71.3934 19.6729 71.4173C19.5997 71.4262 19.526 71.4262 19.4529 71.4173C19.2454 71.392 19.0494 71.3074 18.8888 71.1736C18.728 71.0399 18.6094 70.8625 18.5468 70.6628C18.5221 70.5844 18.5063 70.5036 18.5001 70.4217C18.4875 70.249 18.516 70.0759 18.5837 69.9167C18.6514 69.7574 18.756 69.6165 18.889 69.5058C19.0607 69.3573 19.2754 69.2674 19.5015 69.2491C19.5754 69.2431 19.6495 69.2431 19.7234 69.2491C19.7613 69.254 19.7989 69.2612 19.836 69.2705C20.1032 69.3326 20.3367 69.494 20.4896 69.7217C20.6796 69.6631 20.8828 69.6631 21.0729 69.7217C21.1902 69.5651 21.3473 69.4428 21.5278 69.3678C21.633 69.3246 21.7436 69.2964 21.8564 69.2841C21.9968 69.2758 22.1374 69.2943 22.2706 69.3386C22.4577 69.3969 22.6257 69.5043 22.7567 69.6497L22.7178 68.7105C22.6646 68.6905 22.6099 68.6736 22.5547 68.66C21.8235 68.4966 20.9989 68.8777 20.3358 68.5258C19.8049 68.2594 19.5696 67.5885 19.0368 67.3299C18.9427 67.286 18.8435 67.2539 18.7412 67.2346L18.4828 67.2463C18.4768 67.6251 18.3575 67.9936 18.1403 68.3041C17.9542 68.5058 17.793 68.729 17.66 68.9691L17.7087 70.1358C17.675 70.0723 17.6346 70.0122 17.5881 69.9569C17.1019 69.3853 16.1627 69.7625 16.4486 70.7134C16.5044 70.9317 16.6187 71.1305 16.7795 71.2882C16.9404 71.4459 17.1414 71.5565 17.3606 71.6078C17.4759 71.6362 17.5939 71.6526 17.7125 71.6565H18.1015L17.8817 72.0959C18.0414 72.6379 18.3854 73.1069 18.854 73.4221C18.8663 73.4124 18.8812 73.4069 18.897 73.4069C18.9125 73.4069 18.9275 73.4124 18.9396 73.4221C19.204 73.5753 19.4938 73.6795 19.7954 73.7293C19.8168 73.7293 19.8399 73.741 19.8613 73.741C19.9274 73.7507 19.9818 73.7507 20.0363 73.7624H20.046C20.0822 73.7721 20.1197 73.776 20.1569 73.774H20.4526C20.8913 73.7632 21.3209 73.6465 21.7049 73.4338V73.4532C22.0608 73.2237 22.3517 72.9062 22.5493 72.5317C22.7468 72.157 22.8444 71.7377 22.8328 71.3142L22.8248 71.0342ZM17.4249 70.7231L17.4016 70.5909C17.3878 70.4616 17.3431 70.3375 17.2711 70.2292C17.2274 70.1582 17.1576 70.1073 17.0767 70.0872C17.0347 70.0857 16.9927 70.0927 16.9532 70.1077C16.9137 70.1228 16.8777 70.1456 16.8472 70.1747C16.8303 70.186 16.8101 70.1911 16.7899 70.1889C16.7696 70.1868 16.7508 70.1777 16.7364 70.1631C16.7309 70.1452 16.7311 70.1259 16.737 70.1082C16.743 70.0903 16.7543 70.075 16.7696 70.0639C16.8153 70.0221 16.869 69.9898 16.9275 69.969C16.9859 69.9484 17.0479 69.9396 17.1099 69.9433C17.17 69.9529 17.2276 69.9752 17.2785 70.0087C17.3295 70.0423 17.3728 70.0863 17.4053 70.1378C17.5 70.2661 17.5572 70.4184 17.5708 70.5773L17.5825 70.6978C17.5883 70.7892 17.4347 70.832 17.4249 70.7231ZM21.3141 72.2301C21.2526 72.3584 21.156 72.4669 21.0356 72.5428C20.9152 72.6186 20.7758 72.6589 20.6335 72.6589C20.4909 72.6589 20.3515 72.6186 20.2311 72.5428C20.1108 72.4669 20.0141 72.3584 19.9529 72.2301C19.9412 72.197 19.9527 72.164 19.9955 72.164H21.2691C21.2779 72.162 21.2868 72.1624 21.2952 72.1653C21.3036 72.1683 21.311 72.1735 21.3164 72.1805C21.322 72.1873 21.3253 72.1957 21.3263 72.2044C21.3273 72.2134 21.3257 72.2221 21.3217 72.2301H21.3141Z" fill="#FCBA9D"/>
<path opacity="0.15" d="M20.4795 71.781L20.8236 71.748C20.8658 71.7464 20.907 71.7353 20.9441 71.7157C20.9815 71.6963 21.0139 71.6685 21.039 71.6349C21.0643 71.6011 21.0816 71.5622 21.0897 71.5208C21.0977 71.4796 21.0966 71.4369 21.0861 71.3963C21.0777 71.3139 21.0375 71.2381 20.9739 71.1851C20.9103 71.132 20.8285 71.106 20.7459 71.1126C20.727 71.1182 20.7105 71.1299 20.6986 71.1454C20.6868 71.1612 20.6802 71.1802 20.6798 71.2C20.686 71.2185 20.6978 71.2348 20.7134 71.2465C20.729 71.2583 20.7478 71.2651 20.7672 71.2661C20.8104 71.2661 20.852 71.2816 20.8845 71.3098C20.9169 71.338 20.9381 71.377 20.9441 71.4196C20.948 71.4618 20.935 71.5037 20.9082 71.5364C20.8812 71.5692 20.8425 71.59 20.8003 71.5945L20.4504 71.6275C20.4317 71.6335 20.4154 71.645 20.4035 71.6607C20.3917 71.6763 20.3851 71.6953 20.3843 71.7149C20.3911 71.7346 20.4039 71.7519 20.421 71.7637C20.4381 71.7756 20.4587 71.7816 20.4795 71.781Z" fill="black"/>
<path d="M17.4244 70.7237C17.4341 70.8326 17.5876 70.7898 17.5779 70.7023L17.5662 70.5818C17.5528 70.4228 17.4957 70.2708 17.401 70.1425C17.3684 70.091 17.3252 70.0469 17.2743 70.0135C17.2234 69.98 17.1659 69.9577 17.1056 69.9482C17.0438 69.9443 16.9818 69.953 16.9233 69.9738C16.865 69.9944 16.8114 70.0267 16.7655 70.0687C16.7503 70.0796 16.7391 70.0951 16.733 70.1128C16.7272 70.1307 16.727 70.1499 16.7325 70.1678C16.7468 70.1822 16.7657 70.1913 16.7859 70.1935C16.8061 70.1956 16.8263 70.1906 16.8432 70.1795C16.8738 70.1501 16.9097 70.1274 16.9492 70.1124C16.9884 70.0974 17.0306 70.0904 17.0726 70.092C17.1534 70.112 17.2232 70.1629 17.2669 70.2339C17.3389 70.3422 17.3836 70.4662 17.3972 70.5954L17.4244 70.7237Z" fill="#FCBA9D"/>
<path opacity="0.15" d="M17.4244 70.7237C17.4341 70.8326 17.5876 70.7898 17.5779 70.7023L17.5662 70.5818C17.5528 70.4228 17.4957 70.2708 17.401 70.1425C17.3684 70.091 17.3252 70.0469 17.2743 70.0135C17.2234 69.98 17.1659 69.9577 17.1056 69.9482C17.0438 69.9443 16.9818 69.953 16.9233 69.9738C16.865 69.9944 16.8114 70.0267 16.7655 70.0687C16.7503 70.0796 16.7391 70.0951 16.733 70.1128C16.7272 70.1307 16.727 70.1499 16.7325 70.1678C16.7468 70.1822 16.7657 70.1913 16.7859 70.1935C16.8061 70.1956 16.8263 70.1906 16.8432 70.1795C16.8738 70.1501 16.9097 70.1274 16.9492 70.1124C16.9884 70.0974 17.0306 70.0904 17.0726 70.092C17.1534 70.112 17.2232 70.1629 17.2669 70.2339C17.3389 70.3422 17.3836 70.4662 17.3972 70.5954L17.4244 70.7237Z" fill="black"/>
<path d="M22.2811 69.3332C22.1477 69.2889 22.0073 69.2704 21.8669 69.2788C21.754 69.291 21.6433 69.319 21.5383 69.3624C21.3577 69.4375 21.2006 69.5598 21.0833 69.7163C20.8933 69.6578 20.6901 69.6578 20.5 69.7163C20.3473 69.4884 20.1138 69.3272 19.8466 69.2652C19.8095 69.2558 19.7719 69.2486 19.7338 69.2438C19.6601 69.2378 19.586 69.2378 19.5121 69.2438C19.286 69.2621 19.0713 69.3519 18.8996 69.5005C18.7666 69.6111 18.6618 69.7519 18.5943 69.9113C18.5267 70.0706 18.4981 70.2437 18.5107 70.4163C18.5169 70.4982 18.5325 70.5791 18.5574 70.6574C18.6198 70.857 18.7386 71.0343 18.8992 71.1683C19.06 71.3021 19.256 71.3866 19.4635 71.4119C19.5364 71.4209 19.6103 71.4209 19.6833 71.4119C19.9701 71.388 20.2359 71.2523 20.4233 71.0339C20.6108 70.8155 20.7047 70.5322 20.6847 70.2452C20.6855 70.2374 20.6855 70.2297 20.6847 70.2219C20.6748 70.1309 20.654 70.0414 20.6225 69.9555C20.7352 69.9284 20.8525 69.9251 20.9666 69.9458C20.8999 70.1054 20.8719 70.2787 20.885 70.4513C20.9073 70.7251 21.0318 70.9804 21.2334 71.1669C21.4351 71.3534 21.6993 71.4576 21.9739 71.4586H22.0575C22.1666 71.4498 22.2733 71.4244 22.3745 71.3827C22.5576 71.309 22.7169 71.1867 22.8353 71.0289C22.9979 70.8167 23.078 70.5528 23.0609 70.286C23.0478 70.1015 22.9862 69.9236 22.882 69.7707C22.8503 69.7243 22.8151 69.6799 22.777 69.6385C22.6424 69.4938 22.4711 69.3883 22.2811 69.3332ZM22.9306 70.3055C22.9413 70.5108 22.888 70.7146 22.7783 70.8887C22.6688 71.0627 22.508 71.1986 22.3181 71.2777C22.2288 71.3143 22.1343 71.3365 22.0381 71.3439C21.782 71.3631 21.5286 71.2805 21.3334 71.1134C21.1379 70.9466 21.0166 70.7094 20.9958 70.4533C20.9814 70.2767 21.0164 70.0996 21.0969 69.9419L21.1319 69.8757L21.06 69.8563C20.9799 69.8322 20.8966 69.8203 20.813 69.8213C20.7115 69.8213 20.6104 69.8371 20.5136 69.868L20.4533 69.8894L20.4766 69.9477C20.5149 70.0426 20.5412 70.1418 20.5544 70.2433V70.2588C20.5737 70.5159 20.49 70.77 20.322 70.9655C20.1538 71.1611 19.915 71.2816 19.658 71.3011C19.5934 71.3092 19.5281 71.3092 19.4635 71.3011C19.2788 71.2779 19.1044 71.2023 18.9615 71.0831C18.8183 70.9637 18.7126 70.806 18.6566 70.6283C18.633 70.5598 18.6186 70.4885 18.6138 70.4163C18.6025 70.2625 18.6282 70.1081 18.6883 69.9662C18.7485 69.8242 18.8417 69.6986 18.9599 69.5996C19.1118 69.4678 19.3019 69.3881 19.5024 69.3721C19.5672 69.3663 19.6323 69.3663 19.6969 69.3721C19.7303 69.3758 19.7634 69.3816 19.796 69.3896C19.9211 69.4188 20.0391 69.4727 20.1431 69.5477C20.2474 69.6228 20.3354 69.7177 20.4027 69.8271L20.428 69.8719L20.4766 69.8524C20.6697 69.7838 20.8805 69.7838 21.0736 69.8524L21.1164 69.868L21.1416 69.831C21.2558 69.6566 21.4248 69.5252 21.6221 69.4575C21.8193 69.3898 22.0334 69.3898 22.2306 69.4577C22.446 69.5224 22.6321 69.6599 22.7575 69.8466C22.8555 69.9798 22.9154 70.1371 22.9306 70.3016V70.3055Z" fill="white"/>
<path d="M21.6915 74.276C21.7285 74.276 21.7674 74.2644 21.8024 74.2547L21.7069 73.4302C21.6738 73.4516 21.641 73.4729 21.606 73.4924L21.6915 74.276Z" fill="black"/>
<path opacity="0.15" d="M21.6915 74.276C21.7285 74.276 21.7674 74.2644 21.8024 74.2547L21.7069 73.4302C21.6738 73.4516 21.641 73.4729 21.606 73.4924L21.6915 74.276Z" fill="black"/>
<path d="M20.4528 73.7529H20.1573C20.1199 73.7546 20.0826 73.7507 20.0465 73.7412H20.0251C19.9706 73.7295 19.9162 73.7295 19.8501 73.7198C19.8287 73.7198 19.8053 73.7081 19.784 73.7081C19.4826 73.6582 19.1927 73.5541 18.9284 73.4009C18.9164 73.391 18.9012 73.3857 18.8857 73.3857C18.8701 73.3857 18.8549 73.391 18.8429 73.4009L18.8293 73.4126C18.819 73.4285 18.8155 73.448 18.8195 73.4664C18.8236 73.4851 18.8347 73.5012 18.8507 73.5117C19.1938 73.7109 19.5757 73.8341 19.9706 73.8734C20.3401 74.154 20.7902 74.308 21.2539 74.3129C21.4009 74.3117 21.5473 74.2968 21.6914 74.2682L21.6059 73.4904C21.6409 73.4709 21.6739 73.4495 21.707 73.4281V73.4087C21.323 73.623 20.8927 73.741 20.4528 73.7529Z" fill="#FCBA9D"/>
<path opacity="0.15" d="M20.4528 73.7529H20.1573C20.1199 73.7546 20.0826 73.7507 20.0465 73.7412H20.0251C19.9706 73.7295 19.9162 73.7295 19.8501 73.7198C19.8287 73.7198 19.8053 73.7081 19.784 73.7081C19.4826 73.6582 19.1927 73.5541 18.9284 73.4009C18.9164 73.391 18.9012 73.3857 18.8857 73.3857C18.8701 73.3857 18.8549 73.391 18.8429 73.4009L18.8293 73.4126C18.819 73.4285 18.8155 73.448 18.8195 73.4664C18.8236 73.4851 18.8347 73.5012 18.8507 73.5117C19.1938 73.7109 19.5757 73.8341 19.9706 73.8734C20.3401 74.154 20.7902 74.308 21.2539 74.3129C21.4009 74.3117 21.5473 74.2968 21.6914 74.2682L21.6059 73.4904C21.6409 73.4709 21.6739 73.4495 21.707 73.4281V73.4087C21.323 73.623 20.8927 73.741 20.4528 73.7529Z" fill="black"/>
<path d="M20.6414 72.6583C20.783 72.6556 20.9212 72.6146 21.0412 72.5391C21.1612 72.4636 21.2582 72.3567 21.322 72.2302C21.3253 72.223 21.3267 72.2153 21.3261 72.2073C21.3255 72.1995 21.323 72.1919 21.3187 72.1853C21.3144 72.1787 21.3086 72.1734 21.3016 72.1695C21.2948 72.1658 21.287 72.1639 21.2792 72.1641H20.0055C19.9628 72.1641 19.9511 72.1972 19.9628 72.2302C20.0252 72.3573 20.1218 72.4647 20.2416 72.5402C20.3614 72.6157 20.4998 72.6566 20.6414 72.6583Z" fill="white"/>
<path d="M17.5904 67.2349C17.8898 67.2349 18.199 67.1824 18.4946 67.198C18.5807 67.2015 18.6667 67.2118 18.7512 67.2291C18.8533 67.2483 18.9525 67.2804 19.0468 67.3244C19.5796 67.583 19.8149 68.2539 20.3457 68.5202C21.0088 68.8722 21.8333 68.4911 22.5644 68.6544C22.6198 68.668 22.6743 68.6849 22.7278 68.705C23.0554 68.8277 23.3331 69.056 23.5168 69.3539C23.7006 69.6516 23.7801 70.0022 23.7428 70.35L23.8731 70.2042C23.9314 68.9617 23.9781 67.6491 23.2606 66.5971C22.543 65.5451 21.1663 65.0804 19.8966 65.1834C18.6268 65.2865 17.4523 65.8835 16.3867 66.5932C16.4099 66.663 16.4439 66.7288 16.4878 66.7877C16.7095 67.1182 17.1762 67.2446 17.5904 67.2349Z" fill="black"/>
<path d="M14.8335 81.9009L14.6392 83.7093H15.1425L14.8335 81.9009Z" fill="#21252B"/>
<path opacity="0.3" d="M14.8335 81.9009L14.6392 83.7093H15.1425L14.8335 81.9009Z" fill="black"/>
<path d="M12.2397 82.054C12.2397 82.1394 12.265 82.223 12.3125 82.294C12.3599 82.3649 12.4272 82.4202 12.5061 82.4528C12.585 82.4855 12.6718 82.4941 12.7556 82.4775C12.8392 82.4608 12.9161 82.4198 12.9764 82.3593C13.0369 82.299 13.0779 82.222 13.0946 82.1382C13.1113 82.0546 13.1028 81.9677 13.0701 81.8889C13.0375 81.81 12.9821 81.7425 12.9111 81.695C12.8401 81.6476 12.7567 81.6223 12.6714 81.6223C12.5569 81.6223 12.447 81.6678 12.3661 81.7489C12.2852 81.8298 12.2397 81.9395 12.2397 82.054ZM12.9863 82.054C12.9857 82.1374 12.9523 82.2174 12.8934 82.2763C12.8345 82.3352 12.7546 82.3686 12.6714 82.369C12.663 82.369 12.655 82.3657 12.6492 82.3599C12.6434 82.3541 12.6403 82.3463 12.6403 82.3379C12.6403 82.3297 12.6434 82.3218 12.6492 82.3159C12.655 82.3101 12.663 82.3068 12.6714 82.3068C12.7348 82.3014 12.7938 82.2722 12.8368 82.2251C12.8798 82.1783 12.9037 82.1168 12.9037 82.053C12.9037 81.9895 12.8798 81.928 12.8368 81.8809C12.7938 81.8341 12.7348 81.8049 12.6714 81.7993C12.6037 81.7993 12.539 81.8261 12.4911 81.8739C12.4435 81.9218 12.4167 81.9865 12.4167 82.054C12.4167 82.0624 12.4134 82.0701 12.4075 82.076C12.4017 82.0818 12.3937 82.0851 12.3856 82.0851C12.3772 82.0851 12.3692 82.0818 12.3634 82.076C12.3576 82.0701 12.3545 82.0624 12.3545 82.054C12.351 82.0105 12.3566 81.9667 12.371 81.9253C12.3852 81.884 12.4079 81.8461 12.4377 81.8141C12.4672 81.782 12.5032 81.7563 12.5432 81.7388C12.5833 81.7213 12.6267 81.7124 12.6704 81.7124C12.7139 81.7124 12.7573 81.7213 12.7973 81.7388C12.8374 81.7563 12.8734 81.782 12.9029 81.8141C12.9327 81.8461 12.9554 81.884 12.9698 81.9253C12.984 81.9667 12.9896 82.0105 12.9863 82.054Z" fill="#21252B"/>
<path d="M12.148 77.7042C12.1483 77.7891 12.1738 77.872 12.2212 77.9424C12.2687 78.0127 12.336 78.0676 12.4145 78.0999C12.4931 78.1321 12.5794 78.1403 12.6626 78.1234C12.7458 78.1067 12.8223 78.0656 12.8821 78.0054C12.942 77.9453 12.9829 77.8687 12.9992 77.7854C13.0157 77.702 13.007 77.6157 12.9745 77.5373C12.9418 77.4589 12.8868 77.3919 12.8162 77.3448C12.7454 77.2977 12.6626 77.2725 12.5776 77.2725C12.5211 77.2725 12.4651 77.2837 12.4128 77.3053C12.3605 77.3271 12.313 77.359 12.2732 77.3991C12.2331 77.4391 12.2016 77.4868 12.18 77.5391C12.1586 77.5916 12.1478 77.6476 12.148 77.7042ZM12.8926 77.7042C12.8926 77.7878 12.8594 77.8679 12.8003 77.927C12.7414 77.9861 12.6613 78.0192 12.5776 78.0192C12.5695 78.0192 12.5615 78.0159 12.5557 78.01C12.5498 78.0042 12.5465 77.9964 12.5465 77.9881C12.5465 77.9799 12.5498 77.9719 12.5557 77.9661C12.5615 77.9602 12.5695 77.9569 12.5776 77.9569C12.641 77.9515 12.7001 77.9223 12.7431 77.8753C12.7863 77.8284 12.8102 77.767 12.8102 77.7032C12.8102 77.6396 12.7863 77.5781 12.7431 77.5311C12.7001 77.4842 12.641 77.4551 12.5776 77.4494C12.5102 77.4494 12.4452 77.4762 12.3976 77.5241C12.3498 77.5719 12.3229 77.6367 12.3229 77.7042C12.3229 77.7125 12.3196 77.7203 12.3138 77.7261C12.308 77.732 12.3 77.7353 12.2918 77.7353C12.2835 77.7353 12.2757 77.732 12.2699 77.7261C12.264 77.7203 12.2607 77.7125 12.2607 77.7042C12.2572 77.6606 12.2629 77.6168 12.2772 77.5754C12.2916 77.5342 12.3142 77.4963 12.3439 77.4642C12.3737 77.4321 12.4097 77.4064 12.4497 77.3889C12.4898 77.3714 12.5329 77.3625 12.5767 77.3625C12.6204 77.3625 12.6636 77.3714 12.7036 77.3889C12.7437 77.4064 12.7797 77.4321 12.8094 77.4642C12.839 77.4963 12.8617 77.5342 12.8761 77.5754C12.8905 77.6168 12.8961 77.6606 12.8926 77.7042Z" fill="#21252B"/>
<path d="M12.7296 74.4706C12.7607 74.2761 12.7879 74.0622 12.8112 73.86C12.8987 73.1327 12.9532 72.3996 13.1048 71.6917C13.1217 71.6062 13.1412 71.5226 13.1632 71.4409C13.253 71.0483 13.4122 70.6747 13.6337 70.3383C13.6939 70.2568 13.7589 70.179 13.8281 70.105L14.0225 69.8716C14.0925 69.7958 14.1567 69.7141 14.217 69.6344C14.2772 69.5546 14.32 69.5041 14.3686 69.4399L14.4055 69.3893C14.4658 69.3077 14.5241 69.2241 14.5805 69.1404C14.7538 68.8801 14.9021 68.6039 15.0238 68.3159C15.1041 68.1232 15.1578 67.9204 15.1833 67.7131C15.2165 67.5078 15.2066 67.2979 15.1541 67.0967C15.1761 67.2989 15.1595 67.5035 15.1055 67.6995C15.0588 67.894 14.9733 68.0787 14.9111 68.2693C14.8201 68.4836 14.7135 68.6908 14.5922 68.8896C14.5028 69.0354 14.4094 69.1793 14.3064 69.3174C14.25 69.401 14.182 69.4769 14.112 69.5585C14.042 69.6402 13.9875 69.718 13.9175 69.7938L13.7231 70.0233C13.6541 70.1015 13.5891 70.1833 13.5287 70.2683C13.2981 70.617 13.1321 71.0043 13.0387 71.4117C12.9973 71.5737 12.9623 71.737 12.9337 71.9018C12.8132 72.5474 12.7626 73.2007 12.6829 73.8463C12.6382 74.2528 12.5721 74.6533 12.4885 75.052C12.4249 75.4252 12.3085 75.7872 12.1424 76.1273C12.1307 76.1546 12.1191 76.1798 12.1055 76.2051C12.121 76.1857 12.1307 76.1623 12.1444 76.1429C12.3485 75.8127 12.5013 75.4534 12.5974 75.0773C12.6541 74.8779 12.6983 74.6753 12.7296 74.4706Z" fill="black"/>
<path d="M16.6624 77.2156C16.5769 77.2156 16.4935 77.2411 16.4226 77.2885C16.3515 77.336 16.2963 77.4037 16.2636 77.4826C16.231 77.5616 16.2226 77.6485 16.2393 77.7324C16.2563 77.8162 16.2975 77.893 16.3581 77.9533C16.4185 78.0138 16.4957 78.0546 16.5794 78.0712C16.6632 78.0875 16.7501 78.0788 16.8288 78.0457C16.9077 78.0128 16.9749 77.9572 17.0222 77.8858C17.0692 77.8146 17.0942 77.731 17.0939 77.6454C17.0939 77.5888 17.0826 77.5328 17.061 77.4805C17.0393 77.4282 17.0074 77.3807 16.9674 77.3408C16.9273 77.301 16.8797 77.2693 16.8274 77.2479C16.7749 77.2263 16.719 77.2154 16.6624 77.2156ZM16.6624 77.9624C16.6541 77.9624 16.6463 77.9591 16.6405 77.9533C16.6346 77.9475 16.6313 77.9397 16.6313 77.9313C16.6313 77.9232 16.6346 77.9152 16.6405 77.9093C16.6463 77.9035 16.6541 77.9002 16.6624 77.9002C16.6976 77.9033 16.733 77.899 16.7664 77.8878C16.7998 77.8763 16.8305 77.8582 16.8566 77.8343C16.8826 77.8103 16.9034 77.7814 16.9176 77.7491C16.9318 77.7166 16.9392 77.6818 16.9392 77.6464C16.9392 77.6112 16.9318 77.5762 16.9176 77.5439C16.9034 77.5114 16.8826 77.4824 16.8566 77.4585C16.8305 77.4348 16.7998 77.4165 16.7664 77.4052C16.733 77.3937 16.6976 77.3895 16.6624 77.3926C16.5954 77.3926 16.531 77.4192 16.4838 77.4667C16.4364 77.5141 16.4098 77.5783 16.4098 77.6454C16.4098 77.6538 16.4065 77.6616 16.4007 77.6674C16.3948 77.6732 16.3868 77.6765 16.3787 77.6765C16.3703 77.6765 16.3626 77.6732 16.3567 77.6674C16.3509 77.6616 16.3476 77.6538 16.3476 77.6454C16.3491 77.583 16.369 77.5225 16.4049 77.4713C16.4407 77.4202 16.4908 77.3807 16.5489 77.358C16.607 77.3352 16.6706 77.3301 16.7314 77.3434C16.7924 77.3566 16.8482 77.3877 16.8916 77.4324C16.9351 77.4774 16.9642 77.534 16.9757 77.5954C16.9872 77.6567 16.9802 77.7201 16.9557 77.7777C16.9312 77.835 16.8902 77.8841 16.8381 77.9183C16.7858 77.9525 16.7248 77.9706 16.6624 77.9702V77.9624Z" fill="#21252B"/>
<path d="M20.8053 77.2239H20.8028L20.8003 77.2339L20.8053 77.2239Z" fill="#21252B"/>
<path d="M20.725 77.1443L20.7095 77.1735L20.8025 77.224L20.725 77.1443Z" fill="#21252B"/>
<path d="M24.519 77.992C24.5187 78.0898 24.5474 78.1857 24.6015 78.2671C24.6556 78.3486 24.7328 78.4122 24.823 78.4499C24.9134 78.4875 25.0128 78.4974 25.1088 78.4785C25.2049 78.4595 25.293 78.4124 25.3622 78.3432C25.4315 78.274 25.4785 78.1859 25.4976 78.0898C25.5164 77.9937 25.5065 77.8944 25.469 77.8039C25.4313 77.7137 25.3677 77.6365 25.2862 77.5825C25.2047 77.5284 25.1088 77.4996 25.011 77.5C24.8807 77.5006 24.7559 77.5525 24.6637 77.6447C24.5716 77.7368 24.5196 77.8617 24.519 77.992ZM25.011 77.5622C25.0966 77.5618 25.1804 77.5869 25.2516 77.6342C25.3229 77.6814 25.3786 77.7489 25.4114 77.8279C25.4443 77.9068 25.453 77.9937 25.4365 78.0777C25.42 78.1616 25.3788 78.2388 25.3183 78.2992C25.2578 78.3597 25.1806 78.4009 25.0968 78.4175C25.0128 78.434 24.9259 78.4252 24.8469 78.3924C24.768 78.3595 24.7005 78.3039 24.6532 78.2325C24.606 78.1614 24.5809 78.0775 24.5813 77.992C24.5819 77.8792 24.6264 77.7711 24.7057 77.6908C24.7849 77.6104 24.8924 77.5644 25.0052 77.5622H25.011Z" fill="white"/>
<path d="M24.7132 78.0232C24.7214 78.0232 24.7294 78.0201 24.7352 78.0142C24.741 78.0084 24.7443 78.0004 24.7443 77.9921C24.7498 77.9287 24.7789 77.8696 24.826 77.8266C24.8729 77.7836 24.9343 77.7597 24.9981 77.7597C25.0616 77.7597 25.1231 77.7836 25.1701 77.8266C25.217 77.8696 25.2461 77.9287 25.2518 77.9921C25.2518 78.0597 25.2249 78.1245 25.1771 78.1723C25.1293 78.2199 25.0645 78.2468 24.9971 78.2468C24.9887 78.2468 24.9809 78.2501 24.9751 78.2559C24.9693 78.2617 24.966 78.2697 24.966 78.2779C24.966 78.2862 24.9693 78.2942 24.9751 78.3C24.9809 78.3059 24.9887 78.309 24.9971 78.309C25.0599 78.3094 25.1213 78.2911 25.1736 78.2567C25.2259 78.2221 25.2669 78.1727 25.2912 78.1148C25.3155 78.057 25.322 77.993 25.3101 77.9316C25.298 77.87 25.2679 77.8132 25.2238 77.7687C25.1794 77.7241 25.1231 77.6938 25.0616 77.6816C25 77.6691 24.9362 77.6753 24.8781 77.6992C24.8202 77.7232 24.7706 77.7638 24.7356 77.8159C24.7008 77.868 24.6821 77.9295 24.6821 77.9921C24.6821 78.0004 24.6854 78.0084 24.6913 78.0142C24.6971 78.0201 24.7049 78.0232 24.7132 78.0232Z" fill="white"/>
<path d="M16.6625 77.1541C16.5647 77.1541 16.469 77.183 16.3877 77.2375C16.3064 77.2917 16.2432 77.3689 16.2059 77.4593C16.1686 77.5497 16.1588 77.649 16.1781 77.7449C16.1974 77.8407 16.2446 77.9288 16.3138 77.9976C16.3831 78.0666 16.4713 78.1135 16.5672 78.1323C16.6632 78.1512 16.7626 78.1411 16.8528 78.1035C16.9431 78.0658 17.0199 78.0023 17.0739 77.9208C17.128 77.8393 17.1567 77.7437 17.1564 77.6459C17.1564 77.5812 17.1435 77.517 17.1186 77.4571C17.0937 77.3975 17.0574 77.343 17.0115 77.2973C16.9656 77.2517 16.9112 77.2155 16.8513 77.1908C16.7914 77.1663 16.7272 77.1537 16.6625 77.1541ZM16.6625 78.0775C16.5769 78.0775 16.4935 78.0522 16.4225 78.0048C16.3515 77.9574 16.2963 77.8899 16.2637 77.811C16.231 77.7322 16.2224 77.6453 16.239 77.5617C16.2557 77.4779 16.2967 77.401 16.3572 77.3407C16.4175 77.2804 16.4945 77.2392 16.5781 77.2225C16.6619 77.206 16.7488 77.2145 16.8276 77.2472C16.9065 77.2798 16.974 77.335 17.0212 77.406C17.0687 77.4772 17.0941 77.5606 17.0941 77.6459C17.0941 77.7604 17.0486 77.8701 16.9676 77.9511C16.8867 78.032 16.7768 78.0775 16.6625 78.0775Z" fill="white"/>
<path d="M16.663 77.3308C16.5798 77.3314 16.5 77.3647 16.4411 77.4236C16.3822 77.4827 16.3487 77.5624 16.3481 77.6458C16.3481 77.6542 16.3514 77.662 16.3573 77.6678C16.3631 77.6736 16.3711 77.6769 16.3794 77.6769C16.3876 77.6769 16.3956 77.6736 16.4014 77.6678C16.4072 77.662 16.4103 77.6542 16.4103 77.6458C16.416 77.5824 16.4451 77.5233 16.4922 77.4804C16.539 77.4372 16.6004 77.4133 16.664 77.4133C16.7277 77.4133 16.7892 77.4372 16.836 77.4804C16.883 77.5233 16.9122 77.5824 16.9176 77.6458C16.9176 77.7135 16.8908 77.7782 16.8432 77.8259C16.7954 77.8737 16.7307 77.9005 16.663 77.9005C16.6549 77.9005 16.6469 77.9039 16.6411 77.9097C16.6352 77.9155 16.6319 77.9235 16.6319 77.9317C16.6319 77.9398 16.6352 77.9478 16.6411 77.9536C16.6469 77.9595 16.6549 77.9628 16.663 77.9628C16.7068 77.9663 16.7505 77.9606 16.7917 77.9462C16.8331 77.9318 16.871 77.9093 16.9031 77.8795C16.9351 77.8498 16.9606 77.8138 16.9781 77.7738C16.9958 77.7337 17.0047 77.6906 17.0047 77.6468C17.0047 77.6031 16.9958 77.5599 16.9781 77.5198C16.9606 77.4798 16.9351 77.4438 16.9031 77.4141C16.871 77.3845 16.8331 77.3618 16.7917 77.3474C16.7505 77.333 16.7068 77.3273 16.663 77.3308Z" fill="white"/>
<path d="M12.084 77.7044C12.084 77.8021 12.113 77.8976 12.1672 77.9789C12.2214 78.0602 12.2986 78.1234 12.3888 78.1607C12.4791 78.1983 12.5784 78.208 12.6741 78.1889C12.7699 78.1699 12.858 78.1228 12.927 78.0538C12.9961 77.9847 13.0431 77.8966 13.0621 77.8007C13.0812 77.705 13.0715 77.6056 13.034 77.5154C12.9966 77.4252 12.9334 77.3479 12.8522 77.2937C12.7709 77.2394 12.6754 77.2104 12.5778 77.2104C12.4468 77.2104 12.3212 77.2624 12.2286 77.3551C12.1359 77.4477 12.084 77.5734 12.084 77.7044ZM13.0075 77.7044C13.0071 77.7892 12.9815 77.8723 12.934 77.9427C12.8866 78.0131 12.8195 78.0679 12.741 78.1C12.6624 78.1323 12.5761 78.1407 12.4929 78.1238C12.4096 78.107 12.3332 78.0658 12.2734 78.0057C12.2135 77.9456 12.1726 77.869 12.1563 77.7855C12.1398 77.7023 12.1483 77.6159 12.181 77.5376C12.2137 77.4592 12.2687 77.3921 12.3393 77.345C12.4098 77.2978 12.4929 77.2727 12.5778 77.2727C12.6344 77.2727 12.6904 77.2838 12.7427 77.3055C12.795 77.3273 12.8424 77.359 12.8823 77.3993C12.9222 77.4394 12.9539 77.487 12.9752 77.5393C12.9968 77.5916 13.0077 77.6479 13.0075 77.7044Z" fill="white"/>
<path d="M18.0808 82.3573C18.1784 82.3573 18.2739 82.3285 18.3551 82.2741C18.4362 82.2198 18.4996 82.1428 18.5369 82.0524C18.5743 81.9621 18.5842 81.8629 18.5651 81.7671C18.5461 81.6712 18.499 81.5833 18.43 81.514C18.3608 81.445 18.2729 81.3979 18.177 81.3788C18.0812 81.3598 17.982 81.3697 17.8918 81.407C17.8014 81.4444 17.7244 81.5078 17.6701 81.5889C17.6159 81.6702 17.5869 81.7657 17.5869 81.8633C17.5869 81.9944 17.6388 82.1201 17.7316 82.2128C17.8241 82.3054 17.9497 82.3573 18.0808 82.3573ZM18.0808 81.4335C18.1662 81.4335 18.2498 81.459 18.3207 81.5064C18.3917 81.5541 18.4471 81.6216 18.4798 81.7005C18.5122 81.7795 18.5208 81.8664 18.5039 81.9503C18.4872 82.0341 18.4458 82.1111 18.3853 82.1714C18.3246 82.2317 18.2476 82.2725 18.1638 82.2891C18.0798 82.3056 17.9931 82.2966 17.9142 82.2638C17.8354 82.2307 17.7681 82.1751 17.7209 82.1039C17.6736 82.0325 17.6487 81.9489 17.6491 81.8633C17.6491 81.8067 17.6602 81.7507 17.682 81.6984C17.7036 81.6463 17.7355 81.5988 17.7755 81.5587C17.8158 81.5189 17.8634 81.4872 17.9157 81.4658C17.968 81.4442 18.0242 81.4333 18.0808 81.4335Z" fill="white"/>
<path d="M17.8259 81.8597C17.8259 81.8093 17.8409 81.7602 17.8688 81.7182C17.8968 81.6764 17.9367 81.6438 17.9832 81.6245C18.0299 81.6053 18.0811 81.6002 18.1305 81.61C18.18 81.6199 18.2255 81.6442 18.2611 81.6797C18.2967 81.7153 18.3211 81.7606 18.331 81.8101C18.3407 81.8595 18.3357 81.9106 18.3164 81.957C18.2971 82.0036 18.2644 82.0433 18.2226 82.0713C18.1805 82.0992 18.1313 82.1142 18.0809 82.1142C18.0725 82.1142 18.0647 82.1175 18.0589 82.1233C18.0531 82.1292 18.0498 82.1371 18.0498 82.1453C18.0498 82.1536 18.0531 82.1614 18.0589 82.1672C18.0647 82.1731 18.0725 82.1764 18.0809 82.1764C18.1436 82.1764 18.2049 82.1579 18.257 82.1229C18.3092 82.0882 18.3499 82.0388 18.374 81.9809C18.3979 81.923 18.4042 81.8593 18.3919 81.7979C18.3798 81.7365 18.3495 81.6801 18.3051 81.6358C18.2607 81.5915 18.2043 81.5612 18.1428 81.549C18.0813 81.5369 18.0175 81.5431 17.9595 81.567C17.9015 81.5911 17.852 81.6317 17.817 81.6838C17.7822 81.7359 17.7637 81.7971 17.7637 81.8597C17.7637 81.868 17.767 81.8758 17.7728 81.8816C17.7787 81.8874 17.7864 81.8907 17.7948 81.8907C17.803 81.8907 17.811 81.8874 17.8168 81.8816C17.8226 81.8758 17.8259 81.868 17.8259 81.8597Z" fill="white"/>
<path d="M24.4483 82.1766C24.4487 82.0788 24.42 81.9832 24.3659 81.9017C24.3118 81.8202 24.235 81.7567 24.1448 81.7189C24.0546 81.6814 23.9552 81.6713 23.8592 81.6902C23.7633 81.709 23.675 81.7559 23.6058 81.8249C23.5366 81.8937 23.4893 81.9818 23.4701 82.0777C23.4508 82.1735 23.4606 82.2729 23.4979 82.3633C23.5352 82.4537 23.5984 82.5309 23.6797 82.5851C23.761 82.6396 23.8567 82.6685 23.9545 82.6685C24.0849 82.6685 24.2103 82.6168 24.3029 82.5247C24.3955 82.4325 24.4478 82.3073 24.4483 82.1766ZM23.9545 82.6063C23.8689 82.6063 23.7853 82.581 23.7143 82.5334C23.6433 82.486 23.5879 82.4185 23.5555 82.3394C23.5228 82.2604 23.5144 82.1735 23.5312 82.0897C23.5479 82.0059 23.5893 81.9291 23.6498 81.8689C23.7104 81.8086 23.7874 81.7676 23.8714 81.7512C23.9552 81.7347 24.0422 81.7434 24.1209 81.7765C24.1998 81.8096 24.2671 81.8652 24.3142 81.9363C24.3614 82.0075 24.3865 82.0913 24.3861 82.1766C24.3861 82.2332 24.3748 82.2892 24.3531 82.3415C24.3315 82.3938 24.2996 82.4412 24.2595 82.4811C24.2193 82.5212 24.1718 82.5527 24.1193 82.5742C24.067 82.5956 24.011 82.6065 23.9545 82.6063Z" fill="white"/>
<path d="M23.955 81.8596C23.8714 81.8602 23.7914 81.8938 23.7323 81.9531C23.6734 82.0124 23.6401 82.0929 23.6401 82.1765C23.6401 82.1849 23.6434 82.1926 23.6493 82.1985C23.6551 82.2043 23.6631 82.2076 23.6714 82.2076C23.6796 82.2076 23.6876 82.2043 23.6934 82.1985C23.6992 82.1926 23.7023 82.1849 23.7023 82.1765C23.7019 82.126 23.7167 82.0766 23.7445 82.0344C23.7723 81.9922 23.8122 81.9591 23.8588 81.9397C23.9053 81.92 23.9568 81.915 24.0063 81.9247C24.0559 81.9344 24.1014 81.9587 24.1371 81.9945C24.1729 82.0303 24.1972 82.0758 24.2069 82.1254C24.2166 82.175 24.2114 82.2263 24.1919 82.2729C24.1723 82.3196 24.1395 82.3593 24.0973 82.3873C24.0551 82.4151 24.0055 82.4297 23.955 82.4293C23.9468 82.4293 23.9389 82.4326 23.9331 82.4384C23.9272 82.4443 23.9239 82.4522 23.9239 82.4604C23.9239 82.4687 23.9272 82.4765 23.9331 82.4824C23.9389 82.4882 23.9468 82.4915 23.955 82.4915C23.9987 82.495 24.0425 82.4894 24.0837 82.475C24.1251 82.4606 24.163 82.438 24.1951 82.4083C24.2271 82.3785 24.2526 82.3426 24.2701 82.3025C24.2878 82.2624 24.2967 82.2193 24.2967 82.1755C24.2967 82.1318 24.2878 82.0886 24.2701 82.0486C24.2526 82.0085 24.2271 81.9725 24.1951 81.9428C24.163 81.9132 24.1251 81.8905 24.0837 81.8761C24.0425 81.8617 23.9987 81.8563 23.955 81.8596Z" fill="white"/>
<path d="M12.1768 82.0545C12.1768 82.1521 12.2057 82.2476 12.26 82.3289C12.3142 82.4101 12.3914 82.4733 12.4816 82.5109C12.5718 82.5482 12.6711 82.5579 12.767 82.5389C12.8626 82.5198 12.9507 82.4728 13.0197 82.4037C13.0887 82.3347 13.1357 82.2466 13.1548 82.1507C13.1738 82.0551 13.1641 81.9557 13.1268 81.8655C13.0895 81.7752 13.0261 81.698 12.9448 81.6438C12.8638 81.5895 12.7683 81.5605 12.6705 81.5605C12.5397 81.5605 12.4139 81.6125 12.3214 81.7052C12.2289 81.7978 12.1768 81.9234 12.1768 82.0545ZM13.1002 82.0545C13.1002 82.1398 13.0749 82.2235 13.0273 82.2944C12.9798 82.3656 12.9124 82.4208 12.8332 82.4535C12.7543 82.4862 12.6674 82.4945 12.5836 82.4776C12.5 82.4609 12.4231 82.4197 12.3628 82.359C12.3025 82.2985 12.2615 82.2213 12.2452 82.1375C12.2287 82.0537 12.2376 81.9668 12.2705 81.8878C12.3035 81.8091 12.3591 81.7418 12.4303 81.6945C12.5016 81.6473 12.5852 81.6224 12.6705 81.6228C12.7271 81.6228 12.7831 81.6339 12.8354 81.6556C12.8877 81.6774 12.9351 81.7091 12.975 81.7494C13.015 81.7894 13.0465 81.8371 13.0681 81.8894C13.0895 81.9417 13.1005 81.9979 13.1002 82.0545Z" fill="white"/>
<path d="M12.354 82.0538C12.354 82.0622 12.3573 82.0701 12.3632 82.076C12.369 82.0818 12.377 82.0849 12.3851 82.0849C12.3935 82.0849 12.4015 82.0818 12.4073 82.076C12.4132 82.0701 12.4163 82.0622 12.4163 82.0538C12.4133 82.0186 12.4176 81.9832 12.4289 81.9497C12.4402 81.9163 12.4585 81.8855 12.4824 81.8595C12.5061 81.8334 12.5353 81.8126 12.5676 81.7984C12.5999 81.7842 12.6349 81.7768 12.6701 81.7768C12.7055 81.7768 12.7405 81.7842 12.7728 81.7984C12.8051 81.8126 12.8343 81.8334 12.858 81.8595C12.882 81.8855 12.9003 81.9163 12.9115 81.9497C12.9228 81.9832 12.9271 82.0186 12.924 82.0538C12.924 82.1209 12.8973 82.1853 12.8501 82.2327C12.8026 82.28 12.7382 82.3066 12.6711 82.3066C12.6629 82.3066 12.655 82.3099 12.6491 82.3158C12.6433 82.3216 12.64 82.3296 12.64 82.3377C12.64 82.3461 12.6433 82.3539 12.6491 82.3597C12.655 82.3656 12.6629 82.3689 12.6711 82.3689C12.7339 82.3689 12.7954 82.3504 12.8475 82.3154C12.8997 82.2804 12.9403 82.2308 12.9643 82.1728C12.9882 82.1147 12.9944 82.0509 12.982 81.9894C12.9697 81.9278 12.9392 81.8714 12.8946 81.827C12.8501 81.7829 12.7935 81.7527 12.7318 81.7406C12.6701 81.7288 12.6063 81.7352 12.5485 81.7595C12.4906 81.7838 12.4412 81.8249 12.4065 81.8772C12.3719 81.9295 12.3536 81.9912 12.354 82.0538Z" fill="white"/>
<path d="M27.6553 80.5396C27.5576 80.5396 27.4621 80.5685 27.3811 80.6228C27.2998 80.677 27.2364 80.7542 27.1991 80.8445C27.1618 80.9347 27.1521 81.034 27.1711 81.1297C27.1902 81.2256 27.2372 81.3137 27.3062 81.3827C27.3752 81.4517 27.4633 81.4988 27.5589 81.5179C27.6548 81.5369 27.7541 81.5272 27.8443 81.4899C27.9345 81.4523 28.0117 81.3891 28.0659 81.3078C28.1201 81.2266 28.1491 81.1311 28.1491 81.0335C28.1491 80.9024 28.097 80.7768 28.0045 80.6842C27.9119 80.5915 27.7864 80.5396 27.6553 80.5396ZM27.6553 81.4632C27.5698 81.4632 27.4864 81.4377 27.4153 81.3903C27.3443 81.3429 27.2891 81.2752 27.2565 81.1962C27.2238 81.1173 27.2154 81.0304 27.2322 80.9466C27.2491 80.8627 27.2903 80.7859 27.3509 80.7257C27.4114 80.6654 27.4886 80.6243 27.5723 80.6078C27.6561 80.5915 27.743 80.6002 27.8217 80.6333C27.9007 80.6661 27.9679 80.7218 28.0152 80.7931C28.0622 80.8643 28.0873 80.9479 28.0869 81.0335C28.0878 81.0906 28.0776 81.1476 28.0562 81.2007C28.035 81.254 28.0033 81.3024 27.9631 81.3431C27.923 81.3839 27.875 81.4162 27.8221 81.4381C27.7692 81.4601 27.7125 81.4712 27.6553 81.471V81.4632Z" fill="white"/>
<path d="M27.6553 80.7163C27.5715 80.7168 27.4914 80.7505 27.4325 80.8098C27.3734 80.8693 27.3403 80.9496 27.3403 81.0332C27.3403 81.0416 27.3436 81.0494 27.3495 81.0552C27.3553 81.0611 27.3631 81.0644 27.3714 81.0644C27.3796 81.0644 27.3876 81.0611 27.3934 81.0552C27.3992 81.0494 27.4025 81.0416 27.4025 81.0332C27.4022 80.9827 27.4167 80.9333 27.4445 80.8911C27.4725 80.8489 27.5122 80.8158 27.5589 80.7964C27.6056 80.7769 27.6569 80.7717 27.7065 80.7814C27.7561 80.7911 27.8016 80.8154 27.8373 80.8512C27.8731 80.887 27.8974 80.9325 27.9071 80.9821C27.9169 81.0317 27.9116 81.083 27.8922 81.1297C27.8727 81.1764 27.8397 81.2161 27.7975 81.2441C27.7553 81.2719 27.7059 81.2865 27.6553 81.2861C27.6472 81.2867 27.6396 81.29 27.6338 81.2958C27.6281 81.3014 27.6246 81.3092 27.6242 81.3172C27.6242 81.3256 27.6275 81.3333 27.6334 81.3392C27.6392 81.345 27.647 81.3483 27.6553 81.3483C27.6989 81.3518 27.7426 81.3462 27.7841 81.3318C27.8253 81.3176 27.8632 81.2948 27.8953 81.2651C27.9274 81.2353 27.953 81.1993 27.9705 81.1593C27.988 81.1192 27.997 81.076 27.997 81.0323C27.997 80.9885 27.988 80.9453 27.9705 80.9053C27.953 80.8652 27.9274 80.8292 27.8953 80.7995C27.8632 80.7699 27.8253 80.7472 27.7841 80.7328C27.7426 80.7186 27.6989 80.7129 27.6553 80.7163Z" fill="white"/>
<path d="M20.8008 77.2318L20.8028 77.224L20.7095 77.1734L19.8033 78.7233L17.2987 75.3493L17.2812 75.3396L19.8033 79.3476L20.7347 77.3679L20.7308 77.362L20.8008 77.2318Z" fill="#21252B"/>
<path opacity="0.3" d="M20.8008 77.2318L20.8028 77.224L20.7095 77.1734L19.8033 78.7233L17.2987 75.3493L17.2812 75.3396L19.8033 79.3476L20.7347 77.3679L20.7308 77.362L20.8008 77.2318Z" fill="black"/>
<path d="M22.4236 75.5107L22.4275 75.4737L22.2725 75.4426L22.3035 75.4737L22.4236 75.5107Z" fill="black"/>
<path opacity="0.3" d="M22.4236 75.5107L22.4275 75.4737L22.2725 75.4426L22.3035 75.4737L22.4236 75.5107Z" fill="black"/>
<path d="M21.9279 78.3479L20.8044 77.2239L20.8005 77.2317L20.7344 77.3679L22.0523 78.9721L22.4236 75.5108L22.3031 75.4739L21.9279 78.3479Z" fill="#21252B"/>
<path opacity="0.3" d="M21.9279 78.3479L20.8044 77.2239L20.8005 77.2317L20.7344 77.3679L22.0523 78.9721L22.4236 75.5108L22.3031 75.4739L21.9279 78.3479Z" fill="black"/>
<path d="M20.731 77.3618L20.7346 77.3676L20.801 77.2314L20.731 77.3618Z" fill="#21252B"/>
<path opacity="0.3" d="M20.731 77.3618L20.7346 77.3676L20.801 77.2314L20.731 77.3618Z" fill="black"/>
<path opacity="0.3" d="M20.731 77.3618L20.7346 77.3676L20.801 77.2314L20.731 77.3618Z" fill="black"/>
<path d="M23.8362 75.9328L22.4244 75.5109L22.053 78.9721L20.7346 77.3679L19.8032 79.3474L17.2753 75.3398H17.2927L19.7973 78.7135L20.7035 77.1579L20.7191 77.1287L20.7968 77.2085L21.9208 78.3324L22.2961 75.4584L22.265 75.4273L21.7964 74.9742L21.7769 75.0111L20.688 77.0665L17.6311 74.6028L17.2422 75.2834L14.5626 76.0612L14.5879 76.0981L13.0828 76.3801L12.9331 76.4092C12.6526 76.5032 12.3897 76.6432 12.1552 76.8234C11.8299 77.071 11.5643 77.3887 11.3786 77.7529C11.1927 78.1171 11.0914 78.5185 11.0818 78.9274C11.076 79.0278 11.076 79.1283 11.0818 79.2288L10.7026 83.7012H14.6345L14.829 81.8928L15.1382 83.7012H21.1333C21.24 83.6826 21.3493 83.6826 21.4561 83.7012H26.9008C26.9506 83.3261 26.922 82.9446 26.8172 82.5812L26.2552 80.8311L26.298 80.3936C26.6111 80.9011 27.4433 82.377 27.4142 83.6993H29.0379L28.1803 79.3377C28.1195 79.0186 28.0417 78.7032 27.947 78.3927C27.8116 77.9746 27.5754 77.5964 27.2594 77.2913C26.9434 76.9862 26.557 76.7633 26.1347 76.6426L24.9096 76.3023C24.8435 76.2751 24.7773 76.2517 24.7151 76.2284L23.8362 75.9328ZM27.6553 80.5394C27.7531 80.539 27.8488 80.5676 27.9303 80.6217C28.0117 80.6757 28.0753 80.7527 28.113 80.843C28.1508 80.9332 28.1607 81.0326 28.142 81.1284C28.1232 81.2243 28.0763 81.3126 28.0073 81.3818C27.9382 81.451 27.8501 81.4983 27.7543 81.5175C27.6584 81.5368 27.559 81.5271 27.4686 81.4897C27.3784 81.4524 27.301 81.3892 27.2468 81.3079C27.1923 81.2266 27.1633 81.131 27.1633 81.0333C27.1633 80.9027 27.2151 80.7772 27.3074 80.6847C27.3996 80.5921 27.5246 80.5398 27.6553 80.5394ZM12.5772 77.2104C12.675 77.2104 12.7705 77.2394 12.8516 77.2936C12.9329 77.3479 12.9962 77.4251 13.0336 77.5153C13.0709 77.6055 13.0806 77.7049 13.0616 77.8006C13.0425 77.8964 12.9955 77.9843 12.9264 78.0536C12.8574 78.1226 12.7693 78.1696 12.6737 78.1887C12.5778 78.2077 12.4784 78.198 12.3882 78.1605C12.298 78.1232 12.2208 78.06 12.1665 77.9787C12.1123 77.8974 12.0833 77.8019 12.0833 77.7043C12.0833 77.5732 12.1354 77.4476 12.228 77.3551C12.3205 77.2623 12.4463 77.2104 12.5772 77.2104ZM12.6705 82.5462C12.5727 82.5466 12.477 82.5178 12.3954 82.4637C12.3139 82.4095 12.2503 82.3325 12.2126 82.2421C12.1751 82.1518 12.1651 82.0523 12.1842 81.9564C12.2031 81.8604 12.2501 81.7721 12.3193 81.703C12.3886 81.6338 12.4769 81.5868 12.5727 81.5677C12.6688 81.5486 12.7682 81.5586 12.8586 81.5963C12.9488 81.6338 13.026 81.6976 13.0801 81.7791C13.1343 81.8606 13.1629 81.9562 13.1625 82.0542C13.1621 82.1845 13.11 82.3093 13.0178 82.4015C12.9257 82.4937 12.8008 82.5456 12.6705 82.5462ZM16.6627 77.154C16.7605 77.1536 16.8564 77.1822 16.9379 77.2365C17.0193 77.2905 17.0829 77.3677 17.1207 77.4579C17.1582 77.5484 17.1683 77.6477 17.1492 77.7438C17.1302 77.8396 17.0831 77.9279 17.0139 77.9972C16.9447 78.0664 16.8566 78.1134 16.7605 78.1323C16.6647 78.1514 16.5651 78.1414 16.4749 78.1037C16.3844 78.0662 16.3072 78.0026 16.2532 77.9211C16.1991 77.8395 16.1703 77.7438 16.1707 77.646C16.1713 77.5157 16.2232 77.3909 16.3154 77.2987C16.4076 77.2065 16.5324 77.1544 16.6627 77.154ZM18.0803 82.3576C17.9825 82.358 17.8868 82.3292 17.8053 82.2751C17.7239 82.2213 17.6603 82.1443 17.6225 82.054C17.585 81.9638 17.5749 81.8644 17.5938 81.7684C17.6126 81.6725 17.6595 81.5842 17.7285 81.515C17.7974 81.4458 17.8855 81.3985 17.9813 81.3793C18.0772 81.36 18.1766 81.3697 18.267 81.4071C18.3574 81.4444 18.4346 81.5078 18.4888 81.5889C18.5433 81.6702 18.5723 81.7659 18.5723 81.8637C18.5723 81.9943 18.5205 82.1196 18.4284 82.2121C18.3362 82.3047 18.211 82.357 18.0803 82.3576ZM23.9548 82.6687C23.857 82.6687 23.7615 82.6395 23.6802 82.5853C23.599 82.5308 23.5358 82.4536 23.4984 82.3632C23.4611 82.273 23.4514 82.1734 23.4706 82.0776C23.4899 81.9819 23.5369 81.8938 23.6063 81.8248C23.6756 81.7557 23.7637 81.7089 23.8597 81.69C23.9556 81.6712 24.055 81.6813 24.1452 81.719C24.2354 81.7567 24.3124 81.8203 24.3665 81.9018C24.4205 81.9832 24.4491 82.0789 24.4487 82.1767C24.4483 82.3074 24.396 82.4324 24.3035 82.5246C24.2109 82.6168 24.0855 82.6687 23.9548 82.6687ZM25.0049 78.486C24.9073 78.486 24.8118 78.457 24.7305 78.4028C24.6492 78.3485 24.586 78.2713 24.5487 78.1811C24.5111 78.0909 24.5014 77.9915 24.5205 77.8957C24.5395 77.7998 24.5866 77.7119 24.6556 77.6429C24.7247 77.5736 24.8128 77.5268 24.9086 77.5077C25.0043 77.4887 25.1037 77.4984 25.1939 77.5357C25.2841 77.5731 25.3613 77.6364 25.4156 77.7177C25.4698 77.7988 25.4988 77.8943 25.4988 77.9921C25.4988 78.123 25.4469 78.2486 25.3541 78.3413C25.2615 78.4339 25.1359 78.486 25.0049 78.486Z" fill="#21252B"/>
<path d="M21.1367 83.7088H21.4595C21.3527 83.6902 21.2437 83.6902 21.1367 83.7088Z" fill="#FCBA9D"/>
<path d="M22.9183 72.5453C22.7911 72.5457 22.6671 72.507 22.5625 72.4345L22.6325 72.3314C22.7427 72.4073 22.8783 72.4366 23.0097 72.4131C23.0795 72.4051 23.1469 72.3828 23.2078 72.3478C23.2687 72.3126 23.3217 72.2655 23.3637 72.2091C23.4057 72.1527 23.4357 72.0885 23.4518 72.0201C23.4681 71.9519 23.4701 71.8809 23.4578 71.8116C23.4458 71.7424 23.4195 71.6765 23.3808 71.6178C23.3422 71.5591 23.292 71.5091 23.2333 71.4704C23.1746 71.4319 23.1084 71.4058 23.0394 71.3936C22.9702 71.3815 22.8992 71.3837 22.8308 71.4L22.8094 71.2775C22.9762 71.2481 23.1479 71.2863 23.2867 71.3835C23.4254 71.4805 23.5199 71.6289 23.5492 71.7957C23.5788 71.9625 23.5407 72.1342 23.4434 72.2731C23.3462 72.4117 23.1979 72.5062 23.0311 72.5356C22.9939 72.5418 22.9562 72.5451 22.9183 72.5453Z" fill="white"/>
<path d="M17.6162 72.5258C17.4492 72.5312 17.2868 72.4711 17.1637 72.358C17.0408 72.245 16.9669 72.0883 16.9584 71.9214C16.9496 71.7546 17.0068 71.5911 17.1174 71.4659C17.2281 71.3409 17.3834 71.2641 17.5501 71.2522L17.5617 71.3747C17.4704 71.3844 17.3831 71.4184 17.3092 71.4733C17.2353 71.5279 17.1775 71.6014 17.1416 71.6862C17.1058 71.771 17.0931 71.8635 17.1052 71.9547C17.1173 72.0459 17.1536 72.1322 17.2102 72.2047C17.267 72.2771 17.342 72.3331 17.4276 72.3667C17.5131 72.4004 17.6063 72.4105 17.6971 72.3961C17.7879 72.3815 17.8732 72.343 17.944 72.2845C18.015 72.2259 18.069 72.1495 18.1003 72.063L18.217 72.1058C18.1767 72.2182 18.1054 72.3167 18.0115 72.3902C17.9176 72.4639 17.8048 72.5096 17.6862 72.5219L17.6162 72.5258Z" fill="white"/>
</svg>
