<svg width="120" height="120" viewBox="0 0 120 120" fill="none" xmlns="http://www.w3.org/2000/svg">
<path opacity="0.2" d="M20 18.75C20 8.39465 28.3947 0 38.75 0H101.25C111.605 0 120 8.39466 120 18.75V81.25C120 91.6053 111.605 100 101.25 100H38.75C28.3946 100 20 91.6053 20 81.25V18.75Z" fill="#FFA800"/>
<path d="M100 96.4299H0V96.4799H100V96.4299Z" fill="#EBEBEB"/>
<path d="M87.1335 99.6479H83.3555V99.6979H87.1335V99.6479Z" fill="#EBEBEB"/>
<path d="M64.5039 99.2998H58.6099V99.3498H64.5039V99.2998Z" fill="#EBEBEB"/>
<path d="M83.1554 97.792H73.7334V97.842H83.1554V97.792Z" fill="#EBEBEB"/>
<path d="M12.6857 98.1279H10.4917V98.1779H12.6857V98.1279Z" fill="#EBEBEB"/>
<path d="M22.1783 98.1279H14.4663V98.1779H22.1783V98.1279Z" fill="#EBEBEB"/>
<path d="M45.0302 98.9719H34.2002V99.0219H45.0302V98.9719Z" fill="#EBEBEB"/>
<path d="M47.3996 87.5099H8.7816C8.47907 87.5094 8.18911 87.3889 7.97538 87.1747C7.76164 86.9606 7.6416 86.6705 7.6416 86.3679V32.082C7.64424 31.7812 7.76544 31.4935 7.97889 31.2816C8.19234 31.0696 8.4808 30.9505 8.7816 30.95H47.3996C47.7025 30.95 47.993 31.0703 48.2071 31.2844C48.4213 31.4986 48.5416 31.7891 48.5416 32.092V86.3679C48.5416 86.6708 48.4213 86.9613 48.2071 87.1755C47.993 87.3896 47.7025 87.5099 47.3996 87.5099ZM8.7816 30.99C8.49233 30.9905 8.21509 31.1058 8.01073 31.3105C7.80638 31.5152 7.6916 31.7927 7.6916 32.082V86.3679C7.6916 86.6572 7.80638 86.9347 8.01073 87.1394C8.21509 87.3441 8.49233 87.4594 8.7816 87.4599H47.3996C47.6891 87.4594 47.9665 87.3442 48.1712 87.1395C48.3759 86.9348 48.4911 86.6574 48.4916 86.3679V32.082C48.4911 31.7925 48.3759 31.515 48.1712 31.3104C47.9665 31.1057 47.6891 30.9905 47.3996 30.99H8.7816Z" fill="#EBEBEB"/>
<path d="M90.6614 87.5099H52.0414C51.7387 87.5094 51.4485 87.3889 51.2345 87.1749C51.0204 86.9608 50.8999 86.6707 50.8994 86.3679V32.082C50.9026 31.781 51.0242 31.4934 51.238 31.2815C51.4518 31.0696 51.7404 30.9505 52.0414 30.95H90.6614C90.9619 30.951 91.2498 31.0704 91.4628 31.2823C91.6758 31.4942 91.7968 31.7815 91.7994 32.082V86.3679C91.7994 86.6701 91.6796 86.96 91.4663 87.174C91.253 87.3881 90.9636 87.5089 90.6614 87.5099ZM52.0414 30.99C51.752 30.9905 51.4745 31.1057 51.2698 31.3104C51.0652 31.515 50.9499 31.7925 50.9494 32.082V86.3679C50.9499 86.6574 51.0652 86.9348 51.2698 87.1395C51.4745 87.3442 51.752 87.4594 52.0414 87.4599H90.6614C90.9509 87.4594 91.2283 87.3442 91.433 87.1395C91.6377 86.9348 91.7529 86.6574 91.7534 86.3679V32.082C91.7529 31.7925 91.6377 31.515 91.433 31.3104C91.2283 31.1057 90.9509 30.9905 90.6614 30.99H52.0414Z" fill="#EBEBEB"/>
<path d="M87.1335 99.6479H83.3555V99.6979H87.1335V99.6479Z" fill="#EBEBEB"/>
<path d="M64.5039 99.2998H58.6099V99.3498H64.5039V99.2998Z" fill="#EBEBEB"/>
<path d="M83.1554 97.792H73.7334V97.842H83.1554V97.792Z" fill="#EBEBEB"/>
<path d="M12.6857 98.1279H10.4917V98.1779H12.6857V98.1279Z" fill="#EBEBEB"/>
<path d="M22.1783 98.1279H14.4663V98.1779H22.1783V98.1279Z" fill="#EBEBEB"/>
<path d="M45.0302 98.9719H34.2002V99.0219H45.0302V98.9719Z" fill="#EBEBEB"/>
<path d="M76.3725 53.3479H80.9785V52.3919H76.3725V53.3479Z" fill="#E6E6E6"/>
<path d="M54.1667 99.1167H68.75L68.75 40.7834H54.1667L54.1667 99.1167Z" fill="#E8E8E8"/>
<path d="M6.25018 103.283L64.5835 103.283V99.1165H6.25018V103.283Z" fill="#E5E5E5"/>
<path d="M54.1665 40.7832H4.1665V99.1165H54.1665V40.7832Z" fill="white"/>
<path d="M20.3601 68.0498H31.0841C31.3691 68.0498 31.6001 67.8188 31.6001 67.5338V67.4138C31.6001 67.1288 31.3691 66.8978 31.0841 66.8978H20.3601C20.0751 66.8978 19.8441 67.1288 19.8441 67.4138V67.5338C19.8441 67.8188 20.0751 68.0498 20.3601 68.0498Z" fill="#F5F5F5"/>
<path d="M20.3601 83.8279H31.0841C31.3691 83.8279 31.6001 83.5969 31.6001 83.3119V83.1919C31.6001 82.9069 31.3691 82.6759 31.0841 82.6759H20.3601C20.0751 82.6759 19.8441 82.9069 19.8441 83.1919V83.3119C19.8441 83.5969 20.0751 83.8279 20.3601 83.8279Z" fill="#F5F5F5"/>
<path d="M93.739 69.8074L93.4492 69.8352L93.8262 73.758L94.116 73.7301L93.739 69.8074Z" fill="#FFA800"/>
<path d="M94.2532 75.0954L93.9634 75.1233L94.1156 76.7064L94.4054 76.6786L94.2532 75.0954Z" fill="#FFA800"/>
<path d="M24.3014 109.072L95.8325 102.197L91.7397 59.6136L20.2086 66.4887L24.3014 109.072Z" fill="#FFA800"/>
<path opacity="0.1" d="M24.3014 109.072L95.8325 102.197L91.7397 59.6136L20.2086 66.4887L24.3014 109.072Z" fill="black"/>
<path opacity="0.1" d="M58.2079 86.278L20.209 66.4879L91.7388 59.6113L58.2079 86.278Z" fill="#263238"/>
<path d="M49.5504 43.1553L20.2085 66.4878L91.7383 59.6113L58.4893 42.2973C57.0759 41.5608 55.4792 41.2499 53.8928 41.4022C52.3063 41.5545 50.7979 42.1634 49.5504 43.1553Z" fill="#FFA800"/>
<path opacity="0.2" d="M89.082 59.8687L57.4908 43.4158C56.4249 42.86 55.2207 42.6253 54.0241 42.7401C52.8275 42.8548 51.6899 43.3142 50.7491 44.0624L22.8628 66.2305L89.082 59.8687Z" fill="#263238"/>
<path d="M75.8713 59.3447L85.5519 61.9311L85.7848 64.3459L58.208 86.278L26.957 70.0028L26.4912 65.1733L75.8713 59.3447Z" fill="white"/>
<path d="M75.8716 59.3447L77.701 64.4133L85.5521 61.9311" fill="#E0E0E0"/>
<path d="M75.8716 59.3447L76.8124 63.5246L85.5521 61.9311" fill="#F0F0F0"/>
<path d="M63.9232 81.7242L95.8331 102.198L24.3032 109.071L51.7268 82.8948C53.3345 81.3611 55.4108 80.4119 57.6225 80.1997C59.8342 79.9874 62.0531 80.5243 63.9232 81.7242Z" fill="#FFA800"/>
</svg>
