<svg width="121" height="120" viewBox="0 0 121 120" fill="none" xmlns="http://www.w3.org/2000/svg">
<g clip-path="url(#clip0_266_2359)">
<path opacity="0.1" d="M20.5 18.75C20.5 8.39465 28.8947 0 39.25 0H101.75C112.105 0 120.5 8.39466 120.5 18.75V81.25C120.5 91.6053 112.105 100 101.75 100H39.25C28.8946 100 20.5 91.6053 20.5 81.25V18.75Z" fill="#42A351"/>
<g clip-path="url(#clip1_266_2359)">
<path d="M70.6494 97.6057V83.1634L89.4117 72.3298V86.7721L70.6494 97.6057Z" fill="#42A351"/>
<path opacity="0.3" d="M70.6494 97.6057V83.1634L89.4117 72.3298V86.7721L70.6494 97.6057Z" fill="black"/>
<path d="M70.6498 83.1638L47.1963 69.6211V84.0659L70.6498 97.606V83.1638Z" fill="#42A351"/>
<path opacity="0.55" d="M70.6498 83.1638L47.1963 69.6211V84.0659L70.6498 97.606V83.1638Z" fill="black"/>
<path d="M70.6494 83.1638L89.9659 72.0054L65.9582 58.1379L46.6392 69.2989L70.6494 83.1638Z" fill="#42A351"/>
<path opacity="0.15" d="M70.6494 83.1638L89.9659 72.0054L65.9582 58.1379L46.6392 69.2989L70.6494 83.1638Z" fill="black"/>
<path d="M70.6494 83.1638V86.7724L89.9659 75.6192V72.0054L70.6494 83.1638Z" fill="#42A351"/>
<path opacity="0.3" d="M70.6494 83.1638V86.7724L89.9659 75.6192V72.0054L70.6494 83.1638Z" fill="black"/>
<path opacity="0.2" d="M70.6494 86.7722L89.4117 75.9412V76.7351L70.6494 87.5687V86.7722Z" fill="black"/>
<path d="M46.6396 69.2988L70.6499 83.1637V86.7724L46.6396 72.9126V69.2988Z" fill="#42A351"/>
<path opacity="0.55" d="M46.6396 69.2988L70.6499 83.1637V86.7724L46.6396 72.9126V69.2988Z" fill="black"/>
<path opacity="0.2" d="M70.6498 86.7723L47.1963 73.2322V74.0261L70.6498 87.5688V86.7723Z" fill="black"/>
<path d="M76.8248 85.3573L83.2352 81.6584C83.511 81.4986 83.7353 81.6275 83.7353 81.9471V85.7362C83.7258 85.9097 83.6756 86.0785 83.5888 86.229C83.5019 86.3794 83.3808 86.5073 83.2352 86.6023L76.8248 90.3011C76.549 90.4609 76.3247 90.332 76.3247 90.0124V86.2182C76.3349 86.0456 76.3855 85.8778 76.4724 85.7283C76.5592 85.5788 76.6799 85.4517 76.8248 85.3573Z" fill="#37474F"/>
<path d="M77.2344 85.7879L82.8226 82.5607C83.0082 82.4551 83.1577 82.5427 83.1577 82.7541V85.5894C83.1516 85.7053 83.118 85.8181 83.0598 85.9185C83.0015 86.0189 82.9202 86.104 82.8226 86.1668L77.2344 89.3939C77.0514 89.4996 76.9019 89.4146 76.9019 89.2006V86.3653C76.9079 86.2496 76.9411 86.1371 76.9989 86.0367C77.0567 85.9364 77.1374 85.8511 77.2344 85.7879Z" fill="#F5F5F5"/>
<g opacity="0.5">
<path opacity="0.5" d="M77.3913 86.5377C77.3768 86.5376 77.3625 86.5338 77.3499 86.5265C77.3372 86.5193 77.3267 86.509 77.3192 86.4965C77.3089 86.4776 77.3063 86.4555 77.3121 86.4348C77.3179 86.4141 77.3315 86.3965 77.3501 86.3857L82.6316 83.3389C82.6505 83.3286 82.6726 83.3261 82.6933 83.3319C82.714 83.3377 82.7316 83.3513 82.7424 83.3699C82.748 83.379 82.7516 83.3891 82.7532 83.3996C82.7548 83.4102 82.7543 83.4209 82.7516 83.4313C82.749 83.4416 82.7443 83.4513 82.7378 83.4598C82.7314 83.4683 82.7233 83.4754 82.7141 83.4807L77.4326 86.5274C77.42 86.5344 77.4058 86.538 77.3913 86.5377Z" fill="#455A64"/>
<path opacity="0.5" d="M77.3913 87.2491C77.3768 87.249 77.3625 87.2451 77.3499 87.2379C77.3372 87.2307 77.3267 87.2203 77.3192 87.2078C77.3089 87.189 77.3063 87.1668 77.3121 87.1461C77.3179 87.1254 77.3315 87.1078 77.3501 87.097L82.6316 84.0374C82.6409 84.032 82.6511 84.0284 82.6618 84.027C82.6724 84.0256 82.6832 84.0264 82.6936 84.0293C82.7039 84.0322 82.7136 84.0371 82.722 84.0438C82.7304 84.0505 82.7373 84.0589 82.7424 84.0683C82.748 84.0774 82.7516 84.0876 82.7532 84.0981C82.7548 84.1086 82.7543 84.1194 82.7516 84.1297C82.749 84.1401 82.7443 84.1497 82.7378 84.1582C82.7314 84.1667 82.7233 84.1738 82.7141 84.1792L77.4326 87.2233C77.4216 87.2357 77.4073 87.2447 77.3913 87.2491Z" fill="#455A64"/>
<path opacity="0.5" d="M77.3913 87.9322C77.3767 87.9326 77.3622 87.9289 77.3495 87.9217C77.3367 87.9144 77.3263 87.9037 77.3192 87.8909C77.3089 87.872 77.3063 87.8499 77.3121 87.8292C77.3179 87.8085 77.3315 87.7909 77.3501 87.7801L82.6316 84.7359C82.6407 84.7305 82.6508 84.7269 82.6614 84.7254C82.6719 84.7239 82.6826 84.7245 82.6929 84.7271C82.7032 84.7298 82.7128 84.7344 82.7213 84.7408C82.7298 84.7471 82.737 84.7551 82.7424 84.7643C82.7478 84.7734 82.7514 84.7835 82.7529 84.794C82.7544 84.8046 82.7538 84.8153 82.7512 84.8256C82.7486 84.8358 82.7439 84.8455 82.7376 84.854C82.7312 84.8625 82.7232 84.8697 82.7141 84.8751L77.4377 87.9218C77.4236 87.9298 77.4075 87.9333 77.3913 87.9322Z" fill="#455A64"/>
<path opacity="0.5" d="M77.3913 88.6306C77.3768 88.6304 77.3625 88.6266 77.3499 88.6194C77.3372 88.6121 77.3267 88.6018 77.3192 88.5893C77.3089 88.5705 77.3063 88.5483 77.3121 88.5276C77.3179 88.5069 77.3315 88.4893 77.3501 88.4785L82.6316 85.4447C82.6505 85.4344 82.6726 85.4318 82.6933 85.4376C82.714 85.4434 82.7316 85.457 82.7424 85.4756C82.748 85.4847 82.7516 85.4948 82.7532 85.5054C82.7548 85.5159 82.7543 85.5267 82.7516 85.537C82.749 85.5473 82.7443 85.557 82.7378 85.5655C82.7314 85.574 82.7233 85.5811 82.7141 85.5864L77.4377 88.6331C77.4223 88.6367 77.4062 88.6358 77.3913 88.6306Z" fill="#455A64"/>
</g>
<path opacity="0.3" d="M47.1577 68.9999L70.7066 82.5967L89.5076 71.7373L65.9587 58.1379L47.1577 68.9999Z" fill="black"/>
<path d="M70.707 82.0454V67.6032L89.4693 56.7695V71.2144L70.707 82.0454Z" fill="#42A351"/>
<path d="M70.706 67.6033L47.2524 54.0632V68.5055L70.706 82.0456V67.6033Z" fill="#42A351"/>
<path opacity="0.15" d="M70.706 67.6033L47.2524 54.0632V68.5055L70.706 82.0456V67.6033Z" fill="black"/>
<path d="M70.7066 67.6031L90.0257 56.4447L66.0154 42.5798L46.6963 53.7382L70.7066 67.6031Z" fill="#42A351"/>
<path opacity="0.2" d="M70.7066 67.6031L90.0257 56.4447L66.0154 42.5798L46.6963 53.7382L70.7066 67.6031Z" fill="white"/>
<path d="M70.707 67.603V71.2142L90.0261 60.0609V56.4446L70.707 67.603Z" fill="#42A351"/>
<path opacity="0.2" d="M70.707 71.2145L89.4693 60.3809V61.1748L70.707 72.0084V71.2145Z" fill="black"/>
<path d="M46.6963 53.738L70.7066 67.6029V71.2141L46.6963 57.3518V53.738Z" fill="#42A351"/>
<path opacity="0.2" d="M46.6963 53.738L70.7066 67.6029V71.2141L46.6963 57.3518V53.738Z" fill="black"/>
<path opacity="0.2" d="M70.706 71.2141L47.2524 57.6714V58.4679L70.706 72.008V71.2141Z" fill="black"/>
<path d="M76.8809 69.7988L83.2914 66.0974C83.5672 65.9376 83.7914 66.0665 83.7914 66.3861V70.1752C83.782 70.3486 83.7318 70.5175 83.6449 70.6679C83.558 70.8184 83.4369 70.9463 83.2914 71.0412L76.8809 74.7427C76.6051 74.9025 76.3809 74.771 76.3809 74.454V70.6649C76.3899 70.4913 76.4399 70.3223 76.5268 70.1718C76.6138 70.0212 76.7351 69.8934 76.8809 69.7988Z" fill="#455A64"/>
<path d="M77.291 70.2375L82.8895 67.0026C83.0751 66.8943 83.2246 66.982 83.2246 67.1933V70.0287C83.2186 70.1446 83.185 70.2574 83.1267 70.3578C83.0685 70.4582 82.9872 70.5433 82.8895 70.606L77.291 73.8461C77.108 73.9518 76.9585 73.8667 76.9585 73.6528V70.8174C76.9645 70.7014 76.9977 70.5885 77.0555 70.4877C77.1133 70.387 77.1939 70.3012 77.291 70.2375Z" fill="#F5F5F5"/>
<g opacity="0.5">
<path opacity="0.5" d="M77.4486 70.9768C77.4347 70.977 77.4209 70.9735 77.4087 70.9668C77.3965 70.96 77.3862 70.9501 77.379 70.9381C77.3734 70.9288 77.3697 70.9185 77.3681 70.9078C77.3665 70.897 77.367 70.8861 77.3696 70.8755C77.3723 70.865 77.377 70.8551 77.3835 70.8464C77.3899 70.8377 77.3981 70.8303 77.4074 70.8247L82.6837 67.7806C82.7022 67.7697 82.7242 67.7665 82.745 67.7718C82.7658 67.7771 82.7836 67.7905 82.7946 67.8089C82.8055 67.8274 82.8087 67.8494 82.8033 67.8702C82.798 67.891 82.7847 67.9088 82.7662 67.9198L77.4899 70.9665C77.4773 70.9735 77.463 70.977 77.4486 70.9768Z" fill="#455A64"/>
<path opacity="0.5" d="M77.4485 71.6752C77.4343 71.6749 77.4205 71.6709 77.4083 71.6637C77.3961 71.6565 77.3859 71.6462 77.3789 71.634C77.3733 71.6248 77.3696 71.6147 77.3681 71.6042C77.3665 71.5936 77.367 71.5829 77.3697 71.5726C77.3723 71.5622 77.377 71.5525 77.3835 71.544C77.3899 71.5356 77.398 71.5284 77.4072 71.5231L82.6835 68.4764C82.7024 68.4661 82.7245 68.4636 82.7452 68.4693C82.7659 68.4751 82.7836 68.4888 82.7944 68.5073C82.7999 68.5164 82.8036 68.5266 82.8052 68.5371C82.8068 68.5476 82.8062 68.5584 82.8036 68.5687C82.8009 68.5791 82.7962 68.5887 82.7898 68.5972C82.7833 68.6057 82.7753 68.6128 82.766 68.6182L77.4897 71.6649C77.4771 71.6719 77.4629 71.6754 77.4485 71.6752Z" fill="#455A64"/>
<path opacity="0.5" d="M77.4485 72.3737C77.4343 72.3733 77.4205 72.3694 77.4083 72.3621C77.3961 72.3549 77.3859 72.3447 77.3789 72.3324C77.3733 72.3233 77.3696 72.3132 77.3681 72.3026C77.3665 72.2921 77.367 72.2813 77.3697 72.271C77.3723 72.2607 77.377 72.251 77.3835 72.2425C77.3899 72.234 77.398 72.2269 77.4072 72.2216L82.6835 69.1749C82.6928 69.1694 82.7031 69.1659 82.7137 69.1645C82.7244 69.1631 82.7352 69.1639 82.7455 69.1668C82.7559 69.1696 82.7655 69.1746 82.7739 69.1813C82.7823 69.188 82.7893 69.1963 82.7944 69.2058C82.7999 69.2149 82.8036 69.225 82.8052 69.2356C82.8068 69.2461 82.8062 69.2568 82.8036 69.2672C82.8009 69.2775 82.7962 69.2872 82.7898 69.2957C82.7833 69.3042 82.7753 69.3113 82.766 69.3166L77.4897 72.3608C77.4773 72.3685 77.4631 72.373 77.4485 72.3737Z" fill="#455A64"/>
<path opacity="0.5" d="M77.4485 73.0723C77.4342 73.0725 77.4201 73.0687 77.4078 73.0615C77.3956 73.0542 77.3855 73.0436 77.3789 73.031C77.3733 73.0219 77.3696 73.0118 77.3681 73.0012C77.3665 72.9907 77.367 72.9799 77.3697 72.9696C77.3723 72.9593 77.377 72.9496 77.3835 72.9411C77.3899 72.9326 77.398 72.9255 77.4072 72.9202L82.6835 69.876C82.6927 69.8706 82.7028 69.8671 82.7133 69.8656C82.7238 69.8641 82.7345 69.8646 82.7448 69.8673C82.7551 69.8699 82.7648 69.8745 82.7733 69.8809C82.7818 69.8873 82.789 69.8953 82.7944 69.9044C82.7998 69.9135 82.8034 69.9237 82.8049 69.9342C82.8064 69.9447 82.8058 69.9554 82.8032 69.9657C82.8005 69.976 82.7959 69.9857 82.7895 69.9942C82.7831 70.0027 82.7752 70.0098 82.766 70.0152L77.4897 73.0723C77.4762 73.0757 77.462 73.0757 77.4485 73.0723Z" fill="#455A64"/>
</g>
<path d="M33.6914 118.206L10.9751 105.091V39.6228L33.6914 52.7376V118.206Z" fill="#263238"/>
<path d="M33.6914 52.7375L64.7591 34.8V100.268L33.6914 118.206V52.7375Z" fill="#37474F"/>
<path d="M64.7592 34.8001L33.6914 52.7376L10.9751 39.6228L42.0428 21.6853L64.7592 34.8001Z" fill="#455A64"/>
<path d="M36.4321 97.7064L62.0122 82.9368V98.191L36.4321 112.961V97.7064Z" fill="#263238"/>
<path d="M72.9892 91.6337L60.8101 84.6072V98.0468L72.9892 105.076V91.6337Z" fill="#37474F"/>
<g opacity="0.1">
<path opacity="0.1" d="M72.9863 91.6335L60.8071 84.6069V98.0465L72.9863 105.076V91.6335Z" fill="black"/>
</g>
<path d="M61.6607 84.1118L60.8101 84.6041L72.9892 91.6332L73.8424 91.1435L61.6607 84.1118Z" fill="#455A64"/>
<path d="M62.1283 87.1641C62.1335 87.1095 62.1247 87.0546 62.1025 87.0045C62.0804 86.9544 62.0458 86.9108 62.002 86.8779C61.9928 86.8696 61.9823 86.8627 61.9711 86.8573L61.3138 86.4758C61.2623 86.4527 61.2056 86.4436 61.1495 86.4495C61.0933 86.4554 61.0397 86.476 60.9942 86.5093L48.7197 93.5797L48.5212 92.9044C48.492 92.7976 48.424 92.7057 48.3305 92.6466L47.6448 92.2496C47.5818 92.2117 47.5096 92.1916 47.436 92.1916C47.3625 92.1916 47.2903 92.2117 47.2272 92.2496L41.6468 95.4974C41.5148 95.5816 41.4042 95.6952 41.3237 95.8294C41.2432 95.9636 41.195 96.1147 41.1828 96.2707V112.51C41.1773 112.564 41.1857 112.619 41.2074 112.669C41.2291 112.719 41.2632 112.763 41.3065 112.796L42.0102 113.206C42.0609 113.226 42.1157 113.232 42.1698 113.226C42.2238 113.219 42.2753 113.199 42.3195 113.167L61.6824 101.996C61.8147 101.909 61.9247 101.792 62.0036 101.655C62.0824 101.518 62.1278 101.365 62.136 101.207L62.1283 87.1641Z" fill="#42A351"/>
<path d="M62.1305 87.1639V101.23C62.122 101.388 62.0762 101.541 61.9969 101.678C61.9176 101.814 61.807 101.93 61.6743 102.016L42.2675 113.218C42.2275 113.246 42.1805 113.261 42.1321 113.263C42.0836 113.265 42.0357 113.253 41.9937 113.228C41.9517 113.204 41.9174 113.169 41.8947 113.126C41.872 113.083 41.8619 113.035 41.8654 112.986V96.6778C41.8712 96.5193 41.9173 96.365 41.9995 96.2293C42.0768 96.0923 42.1865 95.9764 42.3191 95.8917L47.9125 92.6619C47.973 92.6239 48.0423 92.6022 48.1137 92.5991C48.1851 92.5959 48.2561 92.6113 48.3197 92.6439H48.3326C48.3794 92.6723 48.4202 92.7097 48.4525 92.754C48.4848 92.7982 48.508 92.8484 48.5208 92.9016L48.7218 93.5795L48.7837 93.7445C48.8662 94.0229 49.3198 94.0229 49.5725 93.8786L61.6872 86.9036C61.7296 86.8734 61.7786 86.8537 61.8301 86.8461C61.8816 86.8385 61.9342 86.8431 61.9836 86.8598H62.0042C62.0509 86.8942 62.0873 86.9407 62.1095 86.9943C62.1318 87.0479 62.139 87.1065 62.1305 87.1639Z" fill="#42A351"/>
<path opacity="0.15" d="M62.1305 87.1639V101.23C62.122 101.388 62.0762 101.541 61.9969 101.678C61.9176 101.814 61.807 101.93 61.6743 102.016L42.2675 113.218C42.2275 113.246 42.1805 113.261 42.1321 113.263C42.0836 113.265 42.0357 113.253 41.9937 113.228C41.9517 113.204 41.9174 113.169 41.8947 113.126C41.872 113.083 41.8619 113.035 41.8654 112.986V96.6778C41.8712 96.5193 41.9173 96.365 41.9995 96.2293C42.0768 96.0923 42.1865 95.9764 42.3191 95.8917L47.9125 92.6619C47.973 92.6239 48.0423 92.6022 48.1137 92.5991C48.1851 92.5959 48.2561 92.6113 48.3197 92.6439H48.3326C48.3794 92.6723 48.4202 92.7097 48.4525 92.754C48.4848 92.7982 48.508 92.8484 48.5208 92.9016L48.7218 93.5795L48.7837 93.7445C48.8662 94.0229 49.3198 94.0229 49.5725 93.8786L61.6872 86.9036C61.7296 86.8734 61.7786 86.8537 61.8301 86.8461C61.8816 86.8385 61.9342 86.8431 61.9836 86.8598H62.0042C62.0509 86.8942 62.0873 86.9407 62.1095 86.9943C62.1318 87.0479 62.139 87.1065 62.1305 87.1639Z" fill="black"/>
<path opacity="0.35" d="M42.0282 113.234H42.0102L41.3065 112.827C41.2631 112.792 41.229 112.748 41.2074 112.697C41.1858 112.646 41.1773 112.59 41.1828 112.535V96.2708C41.1885 96.1123 41.2346 95.9579 41.3168 95.8223L41.9973 96.2192C41.9158 96.3541 41.8705 96.5077 41.8658 96.6651V112.974C41.8614 113.029 41.8748 113.084 41.9041 113.131C41.9333 113.177 41.9768 113.214 42.0282 113.234Z" fill="black"/>
<path d="M64.3295 88.4426C64.3349 88.3877 64.3262 88.3323 64.3041 88.2817C64.282 88.2312 64.2472 88.1871 64.2032 88.1539C64.1942 88.1459 64.1837 88.1398 64.1723 88.1358L63.5047 87.7647C63.4532 87.7415 63.3965 87.7324 63.3404 87.7383C63.2842 87.7442 63.2306 87.7648 63.1851 87.7982L50.9131 94.8711L50.7121 94.1932C50.6843 94.0858 50.6159 93.9934 50.5214 93.9354L49.8383 93.5385C49.774 93.5027 49.7013 93.485 49.6277 93.4873C49.5542 93.4896 49.4827 93.5117 49.4207 93.5514L43.8273 96.7785C43.696 96.8643 43.5866 96.9796 43.5079 97.1152C43.4291 97.2508 43.3831 97.403 43.3737 97.5595V113.798C43.3682 113.853 43.3767 113.908 43.3983 113.959C43.42 114.009 43.4541 114.053 43.4974 114.087L44.2011 114.494C44.2515 114.515 44.3063 114.522 44.3604 114.516C44.4145 114.51 44.4661 114.49 44.5104 114.458L63.8733 103.284C64.0053 103.198 64.1151 103.082 64.1939 102.945C64.2727 102.809 64.3183 102.656 64.3269 102.498L64.3295 88.4426Z" fill="#42A351"/>
<path opacity="0.15" d="M50.5086 93.9201C50.4449 93.8876 50.374 93.8721 50.3026 93.8753C50.2312 93.8784 50.1618 93.9001 50.1013 93.9382L44.5105 97.1679C44.3765 97.2528 44.2658 97.3697 44.1883 97.5081L43.5078 97.1112C43.5829 96.9718 43.693 96.8545 43.8274 96.7709L49.4208 93.5412C49.4836 93.504 49.5553 93.4844 49.6283 93.4844C49.7013 93.4844 49.773 93.504 49.8358 93.5412L50.5086 93.9201Z" fill="white"/>
<path opacity="0.15" d="M64.1631 88.136C64.1132 88.12 64.0603 88.1156 64.0085 88.1232C63.9567 88.1308 63.9073 88.1501 63.8641 88.1798L51.7494 95.1548C51.4916 95.3017 51.0457 95.3017 50.9607 95.0207L50.9014 94.8558L63.1733 87.7829C63.2339 87.7454 63.3031 87.7241 63.3743 87.721C63.416 87.7202 63.457 87.7309 63.4929 87.7519L64.1631 88.136Z" fill="white"/>
<path d="M64.3293 88.4426V102.506C64.3209 102.664 64.2752 102.818 64.1959 102.955C64.1166 103.092 64.006 103.209 63.873 103.295L44.456 114.497C44.416 114.524 44.369 114.54 44.3206 114.541C44.2721 114.543 44.2242 114.531 44.1822 114.507C44.1402 114.483 44.1059 114.447 44.0832 114.404C44.0605 114.362 44.0504 114.313 44.0539 114.265V97.9539C44.0596 97.7962 44.1058 97.6427 44.188 97.508C44.2653 97.3703 44.375 97.2535 44.5076 97.1677L50.101 93.9509C50.161 93.912 50.2303 93.8896 50.3018 93.8859C50.3733 93.8823 50.4445 93.8976 50.5082 93.9303H50.5211C50.6153 93.9881 50.6829 94.0807 50.7093 94.188L50.9129 94.8634L50.9722 95.0309C51.0572 95.3093 51.5083 95.3093 51.7609 95.1649L63.8756 88.1874C63.9184 88.158 63.9674 88.1387 64.0187 88.1311C64.0701 88.1235 64.1226 88.1278 64.172 88.1436H64.1927C64.2396 88.1771 64.2769 88.2224 64.3009 88.2748C64.3248 88.3273 64.3346 88.3851 64.3293 88.4426Z" fill="#42A351"/>
<path opacity="0.2" d="M44.2247 114.51C44.2247 114.51 44.2092 114.51 44.204 114.51L43.5003 114.103C43.457 114.069 43.4229 114.025 43.4013 113.974C43.3796 113.924 43.3711 113.869 43.3766 113.814V97.5597C43.382 97.402 43.4282 97.2483 43.5107 97.1138L44.1911 97.5107C44.1097 97.6465 44.0644 97.8009 44.0597 97.9592V114.263C44.0583 114.316 44.0733 114.368 44.1029 114.412C44.1324 114.457 44.175 114.491 44.2247 114.51Z" fill="black"/>
<path d="M66.5106 89.7184C66.5154 89.6638 66.5066 89.6089 66.485 89.5585C66.4634 89.5081 66.4297 89.4639 66.3869 89.4297L66.3534 89.4117L65.6961 89.0276C65.6446 89.0045 65.5879 88.9954 65.5318 89.0013C65.4756 89.0071 65.4221 89.0278 65.3765 89.0611L53.1046 96.1314L52.9035 95.4561C52.8743 95.3494 52.8063 95.2575 52.7128 95.1983L52.0297 94.8014C51.9667 94.7634 51.8945 94.7434 51.8209 94.7434C51.7474 94.7434 51.6752 94.7634 51.6121 94.8014L46.0291 98.0466C45.8931 98.1332 45.78 98.2513 45.6993 98.3908C45.6185 98.5303 45.5725 98.6872 45.5651 98.8482V115.087C45.5596 115.141 45.5681 115.196 45.5897 115.246C45.6114 115.296 45.6455 115.34 45.6888 115.373L46.3925 115.783C46.4432 115.803 46.4981 115.81 46.5521 115.803C46.6062 115.796 46.6577 115.776 46.7018 115.744L66.0647 104.573C66.197 104.487 66.3071 104.37 66.3859 104.233C66.4647 104.096 66.5101 103.942 66.5184 103.784L66.5106 89.7184Z" fill="#42A351"/>
<path opacity="0.3" d="M52.699 95.1983C52.6357 95.1645 52.5646 95.1483 52.4929 95.1515C52.4212 95.1546 52.3517 95.1771 52.2917 95.2163L46.7009 98.4435C46.5681 98.5298 46.4577 98.6464 46.3787 98.7837L45.6982 98.3868C45.775 98.2478 45.8858 98.1307 46.0204 98.0466L51.6113 94.8194C51.6739 94.7817 51.7456 94.7617 51.8187 94.7617C51.8919 94.7617 51.9636 94.7817 52.0262 94.8194L52.699 95.1983Z" fill="white"/>
<path opacity="0.3" d="M66.3526 89.4117C66.3027 89.3957 66.2498 89.3913 66.198 89.3989C66.1461 89.4065 66.0967 89.4259 66.0536 89.4555L53.9389 96.4331C53.6811 96.5774 53.2352 96.5774 53.1501 96.299L53.0908 96.1315L65.3731 89.0534C65.4339 89.0167 65.5031 88.9963 65.5741 88.9941C65.6153 88.994 65.656 89.0037 65.6927 89.0225L66.3526 89.4117Z" fill="white"/>
<path d="M66.5099 89.7186V103.785C66.5013 103.942 66.4555 104.096 66.3762 104.232C66.2969 104.369 66.1864 104.485 66.0536 104.571L46.6469 115.773C46.6069 115.8 46.5599 115.816 46.5115 115.817C46.463 115.819 46.4151 115.807 46.3731 115.783C46.3311 115.759 46.2968 115.723 46.2741 115.681C46.2514 115.638 46.2413 115.589 46.2448 115.541V99.2325C46.2506 99.074 46.2967 98.9197 46.3789 98.784C46.4569 98.6476 46.5665 98.5318 46.6985 98.4464L52.2919 95.2166C52.3529 95.1786 52.4226 95.157 52.4944 95.1538C52.5662 95.1507 52.6376 95.1661 52.7017 95.1986C52.7485 95.227 52.7893 95.2644 52.8216 95.3087C52.8538 95.3529 52.8771 95.4031 52.8899 95.4563L53.0935 96.1343L53.1528 96.2992C53.2378 96.5776 53.6889 96.5776 53.9415 96.4333L66.0562 89.4583C66.0991 89.4281 66.1485 89.4084 66.2005 89.4008C66.2524 89.3931 66.3054 89.3978 66.3552 89.4145H66.3732C66.4214 89.4481 66.4595 89.4941 66.4836 89.5477C66.5076 89.6012 66.5167 89.6603 66.5099 89.7186Z" fill="#42A351"/>
<path opacity="0.15" d="M66.5099 89.7186V103.785C66.5013 103.942 66.4555 104.096 66.3762 104.232C66.2969 104.369 66.1864 104.485 66.0536 104.571L46.6469 115.773C46.6069 115.8 46.5599 115.816 46.5115 115.817C46.463 115.819 46.4151 115.807 46.3731 115.783C46.3311 115.759 46.2968 115.723 46.2741 115.681C46.2514 115.638 46.2413 115.589 46.2448 115.541V99.2325C46.2506 99.074 46.2967 98.9197 46.3789 98.784C46.4569 98.6476 46.5665 98.5318 46.6985 98.4464L52.2919 95.2166C52.3529 95.1786 52.4226 95.157 52.4944 95.1538C52.5662 95.1507 52.6376 95.1661 52.7017 95.1986C52.7485 95.227 52.7893 95.2644 52.8216 95.3087C52.8538 95.3529 52.8771 95.4031 52.8899 95.4563L53.0935 96.1343L53.1528 96.2992C53.2378 96.5776 53.6889 96.5776 53.9415 96.4333L66.0562 89.4583C66.0991 89.4281 66.1485 89.4084 66.2005 89.4008C66.2524 89.3931 66.3054 89.3978 66.3552 89.4145H66.3732C66.4214 89.4481 66.4595 89.4941 66.4836 89.5477C66.5076 89.6012 66.5167 89.6603 66.5099 89.7186Z" fill="white"/>
<path opacity="0.05" d="M46.4131 115.788H46.3925L45.6888 115.381C45.6454 115.347 45.6114 115.302 45.5897 115.251C45.5681 115.2 45.5596 115.145 45.5651 115.09V98.8482C45.5708 98.6897 45.6169 98.5353 45.6991 98.3997L46.3796 98.7966C46.2978 98.9313 46.2525 99.085 46.2481 99.2425V115.551C46.2488 115.602 46.2649 115.653 46.2943 115.695C46.3237 115.737 46.3651 115.77 46.4131 115.788Z" fill="black"/>
<path d="M68.7118 90.997C68.717 90.9423 68.7084 90.8872 68.6868 90.8368C68.6652 90.7864 68.6312 90.7422 68.588 90.7083C68.5778 90.7007 68.5665 90.6946 68.5545 90.6902L67.8973 90.3062C67.8458 90.283 67.7891 90.2739 67.7329 90.2798C67.6768 90.2857 67.6232 90.3064 67.5776 90.3397L55.3057 97.4126L55.1047 96.7347C55.0769 96.6273 55.0085 96.5349 54.9139 96.4769L54.2309 96.08C54.1666 96.0442 54.0938 96.0265 54.0203 96.0288C53.9468 96.0311 53.8752 96.0532 53.8133 96.0929L48.2225 99.32C48.0914 99.4044 47.9819 99.5183 47.9027 99.6526C47.8235 99.7868 47.7768 99.9378 47.7663 100.093V116.332C47.7608 116.387 47.7693 116.442 47.7909 116.492C47.8125 116.543 47.8466 116.587 47.89 116.621L48.5937 117.028C48.6442 117.048 48.6989 117.055 48.7529 117.049C48.8069 117.043 48.8585 117.023 48.903 116.992L68.2658 105.818C68.3961 105.733 68.5049 105.619 68.5837 105.485C68.6624 105.351 68.7089 105.2 68.7195 105.045L68.7118 90.997Z" fill="#42A351"/>
<path opacity="0.5" d="M54.8925 96.4742C54.8288 96.4417 54.7579 96.4263 54.6865 96.4294C54.6151 96.4326 54.5457 96.4542 54.4852 96.4923L48.8918 99.722C48.7579 99.807 48.6472 99.9239 48.5696 100.062L47.8892 99.6653C47.9644 99.5253 48.0756 99.4078 48.2114 99.3251L53.8022 96.0953C53.8655 96.0582 53.9375 96.0386 54.0109 96.0386C54.0843 96.0386 54.1564 96.0582 54.2197 96.0953L54.8925 96.4742Z" fill="white"/>
<path opacity="0.5" d="M68.5454 90.6904C68.4955 90.6744 68.4426 90.67 68.3908 90.6776C68.339 90.6852 68.2896 90.7045 68.2464 90.7342L56.1317 97.7092C55.874 97.8535 55.428 97.8561 55.343 97.5751L55.2837 97.4102L67.5659 90.3424C67.6265 90.305 67.6958 90.2837 67.7669 90.2806C67.8086 90.2798 67.8496 90.2905 67.8855 90.3115L68.5454 90.6904Z" fill="white"/>
<path d="M68.712 90.9969V105.06C68.7037 105.218 68.658 105.372 68.5787 105.509C68.4994 105.647 68.3887 105.763 68.2558 105.849L48.8439 117.051C48.8037 117.079 48.7565 117.094 48.7078 117.096C48.6591 117.098 48.6109 117.085 48.5688 117.061C48.5267 117.036 48.4924 117 48.47 116.957C48.4475 116.914 48.4377 116.865 48.4418 116.817V100.508C48.4465 100.351 48.4918 100.197 48.5733 100.062C48.6515 99.9244 48.7621 99.8077 48.8955 99.7221L54.4863 96.4949C54.5469 96.456 54.6166 96.4336 54.6885 96.43C54.7604 96.4264 54.8319 96.4417 54.8961 96.4743C54.9903 96.5326 55.0586 96.6249 55.0869 96.732L55.2879 97.4074L55.3472 97.5749C55.4323 97.8533 55.8833 97.8533 56.1359 97.7089L68.2506 90.7314C68.2938 90.7017 68.3432 90.6824 68.395 90.6748C68.4469 90.6672 68.4998 90.6716 68.5496 90.6876H68.5677C68.6177 90.7211 68.6575 90.7676 68.683 90.8221C68.7084 90.8766 68.7185 90.9371 68.712 90.9969Z" fill="#42A351"/>
<path opacity="0.3" d="M68.712 90.9969V105.06C68.7037 105.218 68.658 105.372 68.5787 105.509C68.4994 105.647 68.3887 105.763 68.2558 105.849L48.8439 117.051C48.8037 117.079 48.7565 117.094 48.7078 117.096C48.6591 117.098 48.6109 117.085 48.5688 117.061C48.5267 117.036 48.4924 117 48.47 116.957C48.4475 116.914 48.4377 116.865 48.4418 116.817V100.508C48.4465 100.351 48.4918 100.197 48.5733 100.062C48.6515 99.9244 48.7621 99.8077 48.8955 99.7221L54.4863 96.4949C54.5469 96.456 54.6166 96.4336 54.6885 96.43C54.7604 96.4264 54.8319 96.4417 54.8961 96.4743C54.9903 96.5326 55.0586 96.6249 55.0869 96.732L55.2879 97.4074L55.3472 97.5749C55.4323 97.8533 55.8833 97.8533 56.1359 97.7089L68.2506 90.7314C68.2938 90.7017 68.3432 90.6824 68.395 90.6748C68.4469 90.6672 68.4998 90.6716 68.5496 90.6876H68.5677C68.6177 90.7211 68.6575 90.7676 68.683 90.8221C68.7084 90.8766 68.7185 90.9371 68.712 90.9969Z" fill="white"/>
<path d="M49.1168 105.416L36.9351 98.3894V111.829L49.1142 118.858L49.1168 105.416Z" fill="#37474F"/>
<path d="M37.7882 97.8975L36.9351 98.3872L49.1168 105.416L49.9674 104.927L37.7882 97.8975Z" fill="#455A64"/>
<path d="M49.52 104.746L75.1001 89.9763V105.233L49.52 120V104.746Z" fill="#455A64"/>
<path d="M49.5184 104.746L48.2271 103.998V119.255L49.5184 120V104.746Z" fill="#263238"/>
<path d="M48.2271 103.998L73.8071 89.2285L75.0985 89.976L49.5184 104.746L48.2271 103.998Z" fill="#37474F"/>
<path d="M66.7723 98.7141L65.8728 98.1985C65.83 98.1768 65.7819 98.1675 65.7341 98.1716C65.6863 98.1757 65.6406 98.1931 65.6021 98.2217C65.4918 98.293 65.4001 98.3896 65.3346 98.5035C65.2692 98.6174 65.2318 98.7452 65.2258 98.8764C65.2174 98.9255 65.2234 98.976 65.2431 99.0217C65.2627 99.0675 65.2952 99.1065 65.3366 99.1342L66.2388 99.6497C66.3651 99.7219 66.3986 99.7863 66.4012 99.7966C66.4037 99.807 66.3548 99.9101 66.1666 100.018L61.9729 102.441C61.71 102.577 61.42 102.651 61.1244 102.658C60.8289 102.665 60.5356 102.605 60.2665 102.483L59.3695 101.967C59.3279 101.949 59.2821 101.941 59.2368 101.946C59.1915 101.951 59.1484 101.968 59.1117 101.995C59.0018 102.067 58.9102 102.164 58.8444 102.278C58.7786 102.391 58.7404 102.519 58.7328 102.65C58.7272 102.696 58.7343 102.744 58.7534 102.786C58.7725 102.829 58.8028 102.866 58.8411 102.892L59.7407 103.408C60.1472 103.624 60.6025 103.732 61.063 103.722C61.5691 103.729 62.0687 103.607 62.5142 103.367L66.7105 100.944C66.9301 100.839 67.1177 100.677 67.2537 100.476C67.3897 100.274 67.4691 100.04 67.4837 99.7966C67.4742 99.5687 67.403 99.3476 67.2778 99.157C67.1525 98.9663 66.9778 98.8132 66.7723 98.7141Z" fill="#263238"/>
<path d="M51.2429 104.924L56.112 102.112C56.2744 102.019 56.4033 102.094 56.4033 102.279V104.756C56.3981 104.857 56.3689 104.955 56.3183 105.043C56.2676 105.13 56.1969 105.204 56.112 105.259L51.2429 108.071C51.0831 108.164 50.9517 108.089 50.9517 107.903V105.426C50.9575 105.326 50.9869 105.228 51.0374 105.14C51.088 105.053 51.1584 104.979 51.2429 104.924Z" fill="#FAFAFA"/>
<path d="M51.2603 107.705V105.427C51.2655 105.38 51.2804 105.335 51.3039 105.294C51.3274 105.253 51.359 105.217 51.3969 105.189L56.0958 102.478V104.756C56.09 104.803 56.0749 104.848 56.0514 104.889C56.028 104.929 55.9966 104.965 55.9592 104.994L51.2603 107.705ZM56.0391 102.573L51.4252 105.238C51.3659 105.285 51.3263 105.352 51.3144 105.427V107.612L55.9308 104.947C55.9896 104.901 56.0284 104.833 56.0391 104.759V102.573Z" fill="#42A351"/>
<path d="M51.8615 105.952C51.8416 105.952 51.8221 105.947 51.8049 105.937C51.7877 105.927 51.7734 105.913 51.7635 105.896C51.7562 105.883 51.7514 105.869 51.7495 105.854C51.7476 105.84 51.7486 105.825 51.7524 105.811C51.7562 105.797 51.7628 105.784 51.7718 105.772C51.7808 105.76 51.792 105.751 51.8048 105.744L55.4392 103.645C55.4648 103.631 55.4952 103.627 55.5237 103.635C55.5523 103.642 55.5765 103.661 55.5912 103.687C55.6059 103.712 55.6098 103.743 55.6021 103.771C55.5944 103.8 55.5756 103.824 55.55 103.839L51.9156 105.937C51.8994 105.947 51.8806 105.952 51.8615 105.952Z" fill="#E0E0E0"/>
<path d="M51.8607 106.553C51.841 106.553 51.8216 106.549 51.8043 106.539C51.7871 106.53 51.7728 106.516 51.7627 106.499C51.7477 106.473 51.7437 106.442 51.7514 106.413C51.7591 106.384 51.778 106.359 51.8039 106.344L55.4384 104.246C55.464 104.231 55.4944 104.227 55.5229 104.235C55.5515 104.243 55.5757 104.262 55.5904 104.287C55.6051 104.313 55.609 104.343 55.6013 104.372C55.5936 104.4 55.5748 104.425 55.5492 104.439L51.9148 106.537C51.8986 106.548 51.8798 106.553 51.8607 106.553Z" fill="#E0E0E0"/>
<path d="M37.707 79.0391L63.2896 64.2695L63.2871 79.5263L37.707 94.2959V79.0391Z" fill="#455A64"/>
<path d="M37.7079 79.0394L36.4165 78.2944V93.5512L37.7079 94.2961V79.0394Z" fill="#263238"/>
<path d="M36.4165 78.2945L61.9965 63.5249L63.2905 64.2698L37.7079 79.0394L36.4165 78.2945Z" fill="#37474F"/>
<path d="M36.4165 78.2945L39.5869 76.4051L42.7677 74.5312C44.8891 73.281 47.0233 72.0541 49.1498 70.8143L55.568 67.1438C57.71 65.9297 59.8468 64.708 62.012 63.512L63.3008 64.2852L61.9862 63.5352H62.012C59.901 64.8008 57.7744 66.0406 55.6531 67.2881L49.2632 71.0102C47.1264 72.232 44.9973 73.4666 42.8528 74.6781L39.6411 76.4979L36.4165 78.2945Z" fill="#263238"/>
<path d="M54.9632 73.0103L54.0637 72.4947C54.0205 72.4725 53.972 72.4629 53.9237 72.467C53.8754 72.4711 53.8292 72.4888 53.7904 72.5179C53.6806 72.5891 53.5892 72.6853 53.5238 72.7987C53.4584 72.9121 53.4208 73.0394 53.4141 73.1701C53.406 73.2194 53.4124 73.27 53.4325 73.3158C53.4526 73.3616 53.4856 73.4005 53.5275 73.4278L54.4297 73.9433C54.556 74.0155 54.5895 74.0774 54.5921 74.0903C54.5946 74.1032 54.5457 74.2037 54.3575 74.3119L50.1534 76.7246C49.891 76.8609 49.601 76.9357 49.3053 76.9433C49.0097 76.9508 48.7162 76.891 48.4471 76.7684L47.5475 76.2529C47.5059 76.2344 47.4601 76.2273 47.4148 76.2323C47.3695 76.2373 47.3264 76.2541 47.2897 76.2812C47.1794 76.3525 47.0877 76.4491 47.0222 76.563C46.9568 76.6769 46.9195 76.8047 46.9134 76.9359C46.908 76.9817 46.9149 77.0281 46.9335 77.0702C46.9521 77.1124 46.9817 77.1488 47.0191 77.1756L47.9161 77.6912C48.3234 77.9083 48.7795 78.0174 49.241 78.0082C49.7475 78.0155 50.2473 77.8921 50.6922 77.6499L54.8859 75.2296C55.1051 75.1243 55.2922 74.9625 55.4281 74.7609C55.564 74.5593 55.6438 74.3252 55.6592 74.0825C55.6493 73.858 55.5796 73.6402 55.4572 73.4516C55.3349 73.2631 55.1643 73.1107 54.9632 73.0103Z" fill="#263238"/>
<path d="M39.4313 79.2194L44.3029 76.4073C44.4627 76.3145 44.5942 76.3892 44.5942 76.5748V79.0519C44.5884 79.1526 44.559 79.2506 44.5084 79.3379C44.4578 79.4252 44.3874 79.4994 44.3029 79.5545L39.4313 82.3667C39.2715 82.4595 39.1426 82.3847 39.1426 82.1991V79.7221C39.1479 79.6215 39.1768 79.5236 39.227 79.4363C39.2771 79.349 39.3471 79.2747 39.4313 79.2194Z" fill="#FAFAFA"/>
<path d="M39.4502 82.0007V79.7221C39.456 79.6755 39.4711 79.6305 39.4946 79.5897C39.5181 79.549 39.5494 79.5134 39.5868 79.485L44.2858 76.7708V79.0519C44.2799 79.0986 44.2648 79.1435 44.2414 79.1843C44.2179 79.225 44.1866 79.2606 44.1492 79.2891L39.4502 82.0007ZM44.2265 76.8687L39.61 79.5339C39.5512 79.5805 39.5125 79.6478 39.5017 79.7221V81.9053L44.1156 79.2401C44.175 79.1936 44.2146 79.1264 44.2265 79.0519V76.8687Z" fill="#42A351"/>
<path d="M40.0494 80.2455C40.0297 80.2457 40.0104 80.2409 39.9932 80.2314C39.9761 80.2219 39.9617 80.2081 39.9514 80.1914C39.9377 80.1651 39.9344 80.1347 39.942 80.1061C39.9496 80.0774 39.9677 80.0527 39.9926 80.0367L43.6271 77.9386C43.6529 77.9258 43.6826 77.9233 43.7102 77.9316C43.7378 77.9399 43.7612 77.9584 43.7756 77.9833C43.79 78.0083 43.7945 78.0378 43.7879 78.0659C43.7814 78.0939 43.7644 78.1185 43.7405 78.1345L40.1009 80.2326C40.085 80.241 40.0673 80.2454 40.0494 80.2455Z" fill="#E0E0E0"/>
<path d="M40.0495 80.8485C40.0243 80.8496 39.9995 80.8421 39.9791 80.8273C39.9588 80.8124 39.9441 80.7911 39.9375 80.7668C39.9309 80.7425 39.9327 80.7166 39.9428 80.6935C39.9529 80.6704 39.9705 80.6514 39.9928 80.6397L43.6272 78.5415C43.6532 78.5265 43.684 78.5225 43.713 78.5302C43.742 78.5379 43.7668 78.5568 43.7818 78.5828C43.796 78.6085 43.7996 78.6388 43.7919 78.6671C43.7842 78.6955 43.7658 78.7198 43.7406 78.7348L40.101 80.833C40.0853 80.842 40.0676 80.8473 40.0495 80.8485Z" fill="#E0E0E0"/>
<path d="M37.707 59.5191L63.2896 44.7495L63.2871 60.0063L37.707 74.7759V59.5191Z" fill="#455A64"/>
<path d="M37.7079 59.5193L36.4165 58.7744V74.0312L37.7079 74.7761V59.5193Z" fill="#263238"/>
<path d="M36.416 58.774L61.9961 44.0044L63.29 44.7493L37.7074 59.5189L36.416 58.774Z" fill="#37474F"/>
<path d="M36.4165 58.7741L39.5869 56.8847L42.7677 55.0108C44.8891 53.7607 47.0233 52.5338 49.1498 51.2939L55.568 47.6157C57.71 46.4017 59.8468 45.1799 62.012 43.9839L63.3008 44.7572L61.9965 44.0329H62.012C59.901 45.301 57.7744 46.5383 55.6531 47.7884L49.2658 51.4924C47.129 52.7142 44.9999 53.9489 42.8553 55.1603L39.6437 56.9801L36.4165 58.7741Z" fill="#263238"/>
<path d="M54.9632 53.4824L54.0637 52.9669C54.0205 52.9447 53.972 52.9351 53.9237 52.9392C53.8754 52.9433 53.8292 52.9609 53.7904 52.9901C53.6806 53.0613 53.5892 53.1575 53.5238 53.2709C53.4584 53.3842 53.4208 53.5115 53.4141 53.6422C53.406 53.6916 53.4124 53.7422 53.4325 53.788C53.4526 53.8337 53.4856 53.8727 53.5275 53.9L54.4297 54.4155C54.556 54.4877 54.5895 54.5496 54.5921 54.5624C54.5946 54.5753 54.5457 54.6759 54.3575 54.7841L50.1534 57.2045C49.891 57.3408 49.601 57.4156 49.3053 57.4232C49.0097 57.4308 48.7162 57.371 48.4471 57.2483L47.5475 56.7328C47.5059 56.7143 47.4601 56.7072 47.4148 56.7122C47.3695 56.7172 47.3264 56.734 47.2897 56.7611C47.1794 56.8324 47.0877 56.929 47.0222 57.0429C46.9568 57.1568 46.9195 57.2846 46.9134 57.4158C46.908 57.4616 46.9149 57.508 46.9335 57.5501C46.9521 57.5923 46.9817 57.6287 47.0191 57.6556L47.9161 58.1711C48.3234 58.3882 48.7795 58.4974 49.241 58.4881C49.7475 58.4954 50.2473 58.372 50.6922 58.1298L54.8859 55.7095C55.1051 55.6042 55.2922 55.4424 55.4281 55.2408C55.564 55.0392 55.6438 54.8051 55.6592 54.5624C55.6507 54.3366 55.5816 54.1171 55.4591 53.9271C55.3367 53.7371 55.1654 53.5835 54.9632 53.4824Z" fill="#263238"/>
<path d="M39.4318 59.5964L44.3034 56.7842C44.4632 56.6914 44.5947 56.7662 44.5947 56.9518V59.4288C44.5909 59.5318 44.5624 59.6323 44.5118 59.722C44.4611 59.8117 44.3896 59.888 44.3034 59.9444L39.4318 62.7565C39.2719 62.8493 39.1431 62.7746 39.1431 62.589V60.1119C39.1464 60.0091 39.1743 59.9087 39.2246 59.8189C39.2748 59.7292 39.3459 59.6529 39.4318 59.5964Z" fill="#FAFAFA"/>
<path d="M39.4507 62.3776V60.099C39.4565 60.0524 39.4716 60.0074 39.4951 59.9667C39.5185 59.926 39.5499 59.8904 39.5873 59.8619L44.2862 57.1477V59.4289C44.2804 59.4755 44.2653 59.5205 44.2418 59.5612C44.2184 59.6019 44.187 59.6376 44.1496 59.666L39.4507 62.3776ZM44.227 57.2457L39.6105 59.9109C39.5517 59.9575 39.513 60.0248 39.5022 60.099V62.2823L44.1161 59.617C44.1755 59.5705 44.2151 59.5033 44.227 59.4289V57.2457Z" fill="#42A351"/>
<path d="M40.0496 60.6248C40.0298 60.6245 40.0104 60.6191 39.9933 60.6092C39.9761 60.5993 39.9618 60.5851 39.9517 60.5681C39.9381 60.5422 39.9349 60.5122 39.9425 60.484C39.9502 60.4558 39.9682 60.4315 39.9929 60.416L43.6273 58.3153C43.6402 58.3066 43.6548 58.3008 43.67 58.298C43.6853 58.2952 43.7009 58.2956 43.716 58.2991C43.7311 58.3026 43.7454 58.3092 43.7578 58.3184C43.7703 58.3276 43.7807 58.3393 43.7885 58.3527C43.7963 58.3662 43.8012 58.381 43.803 58.3964C43.8048 58.4118 43.8034 58.4274 43.7989 58.4423C43.7945 58.4571 43.787 58.4709 43.777 58.4828C43.767 58.4946 43.7546 58.5043 43.7408 58.5112L40.1012 60.6093C40.0854 60.6184 40.0678 60.6237 40.0496 60.6248Z" fill="#E0E0E0"/>
<path d="M40.0496 61.2152C40.0298 61.2149 40.0104 61.2095 39.9933 61.1996C39.9761 61.1896 39.9618 61.1755 39.9517 61.1585C39.9381 61.1326 39.9349 61.1025 39.9425 61.0743C39.9502 61.0461 39.9682 61.0219 39.9929 61.0064L43.6273 58.9082C43.6533 58.8932 43.6842 58.8892 43.7132 58.8969C43.7422 58.9046 43.7669 58.9235 43.782 58.9495C43.7962 58.9752 43.7998 59.0055 43.7921 59.0338C43.7844 59.0622 43.766 59.0865 43.7407 59.1015L40.1012 61.2152C40.0842 61.2189 40.0666 61.2189 40.0496 61.2152Z" fill="#E0E0E0"/>
<path d="M36.7058 52.9977L46.7043 47.2291C46.8641 47.1363 46.993 47.2136 46.993 47.3966V50.9228C46.9897 51.0255 46.9617 51.126 46.9115 51.2157C46.8613 51.3054 46.7902 51.3818 46.7043 51.4383L36.7058 57.1941C36.5434 57.2868 36.4146 57.2121 36.4146 57.0265V53.5004C36.4197 53.3995 36.4489 53.3013 36.4995 53.2139C36.5502 53.1265 36.6209 53.0524 36.7058 52.9977Z" fill="#FAFAFA"/>
<path d="M36.7212 56.8334V53.5006C36.727 53.454 36.7421 53.409 36.7656 53.3683C36.7891 53.3276 36.8204 53.2919 36.8578 53.2635L46.6862 47.5928V50.9204C46.6803 50.9671 46.6652 51.0121 46.6418 51.0528C46.6183 51.0935 46.587 51.1291 46.5496 51.1576L36.7212 56.8334ZM46.6295 47.6985L36.8862 53.3176C36.8283 53.365 36.7898 53.432 36.7779 53.5058V56.7381L46.5212 51.1163C46.58 51.0697 46.6187 51.0024 46.6295 50.9282V47.6985Z" fill="#42A351"/>
<path opacity="0.15" d="M45.4296 30.0702C43.7155 31.0626 43.7155 32.6684 45.4296 33.6582C47.1437 34.648 49.9275 34.648 51.6442 33.6582C53.3609 32.6684 53.3583 31.0626 51.6442 30.0702C49.9301 29.0778 47.1463 29.0804 45.4296 30.0702Z" fill="black"/>
<path d="M51.3698 32.1243C52.8854 30.5778 53.7747 26.7114 52.2977 25.4922H44.7789C43.3019 26.7165 44.1912 30.5752 45.7042 32.1218L45.7455 32.1656L45.797 32.2171C45.8409 32.2584 45.8872 32.2996 45.9362 32.3383L45.9723 32.3666C46.0085 32.397 46.0464 32.4254 46.0857 32.4517C46.1482 32.498 46.2137 32.5402 46.2816 32.578C47.5292 33.2971 49.5474 33.2971 50.795 32.578C50.8634 32.5396 50.9297 32.4974 50.9935 32.4517L51.0991 32.3718L51.143 32.3357L51.2744 32.2197L51.3363 32.1604L51.3698 32.1243Z" fill="#EBEBEB"/>
<path d="M45.4296 24.9975C43.7155 25.9898 43.7155 27.5957 45.4296 28.5855C47.1437 29.5753 49.9275 29.5753 51.6442 28.5855C53.3609 27.5957 53.3583 25.9898 51.6442 24.9975C49.9301 24.0051 47.1463 24.0077 45.4296 24.9975Z" fill="#FAFAFA"/>
<path d="M46.6477 25.701C45.6038 26.3042 45.6038 27.2811 46.6477 27.8817C47.2336 28.179 47.8813 28.3339 48.5384 28.3339C49.1954 28.3339 49.8431 28.179 50.429 27.8817C51.4729 27.2811 51.4729 26.3042 50.429 25.701C49.8431 25.4037 49.1954 25.2488 48.5384 25.2488C47.8813 25.2488 47.2336 25.4037 46.6477 25.701Z" fill="#EBEBEB"/>
<path d="M50.4288 26.7371C49.8429 26.4399 49.1951 26.2849 48.5381 26.2849C47.8811 26.2849 47.2333 26.4399 46.6474 26.7371C46.3969 26.8736 46.1844 27.0703 46.0288 27.3094C46.1865 27.5486 46.4007 27.7451 46.6526 27.8816C47.2385 28.1789 47.8862 28.3338 48.5433 28.3338C49.2003 28.3338 49.848 28.1789 50.4339 27.8816C50.6858 27.7451 50.9001 27.5486 51.0577 27.3094C50.8993 27.069 50.683 26.8722 50.4288 26.7371Z" fill="#E0E0E0"/>
<path d="M48.2612 27.6395C47.8372 27.5982 47.4266 27.468 47.0562 27.2575C46.6858 27.047 46.3639 26.7608 46.1115 26.4177C45.8927 26.1222 45.693 25.8132 45.5135 25.4923C44.882 24.3762 44.766 22.8786 45.0933 22.6956C45.4207 22.5126 46.7481 24.0025 46.7481 24.0025C46.6263 23.3753 46.5787 22.7359 46.6064 22.0976C46.6631 21.1027 46.9054 20.1979 47.1915 20.0175C47.4776 19.8371 48.1117 21.0898 48.3849 21.9971C48.6581 22.9044 48.8231 23.6545 48.8231 23.6545C48.9323 22.9453 49.096 22.2455 49.3129 21.5615C49.6428 20.6181 49.9444 20.4041 50.1763 20.4995C50.4083 20.5949 50.563 21.0331 50.6326 22.2884C50.6567 22.8904 50.6378 23.4934 50.5759 24.0927C50.5759 24.0927 51.045 23.5772 51.5631 23.0771C52.1353 22.5307 52.3802 22.4533 52.5426 22.5616C52.705 22.6699 52.7514 23.5205 51.8672 25.1186C51.5981 25.605 51.2885 26.068 50.9419 26.5027C50.6316 26.8954 50.2295 27.2056 49.771 27.4061C49.3125 27.6066 48.8117 27.6912 48.3127 27.6523L48.2612 27.6395Z" fill="#42A351"/>
<path opacity="0.15" d="M48.2612 27.6395C47.8372 27.5982 47.4266 27.468 47.0562 27.2575C46.6858 27.047 46.3639 26.7608 46.1115 26.4177C45.8927 26.1222 45.693 25.8132 45.5135 25.4923C44.882 24.3762 44.766 22.8786 45.0933 22.6956C45.4207 22.5126 46.7481 24.0025 46.7481 24.0025C46.6263 23.3753 46.5787 22.7359 46.6064 22.0976C46.6631 21.1027 46.9054 20.1979 47.1915 20.0175C47.4776 19.8371 48.1117 21.0898 48.3849 21.9971C48.6581 22.9044 48.8231 23.6545 48.8231 23.6545C48.9323 22.9453 49.096 22.2455 49.3129 21.5615C49.6428 20.6181 49.9444 20.4041 50.1763 20.4995C50.4083 20.5949 50.563 21.0331 50.6326 22.2884C50.6567 22.8904 50.6378 23.4934 50.5759 24.0927C50.5759 24.0927 51.045 23.5772 51.5631 23.0771C52.1353 22.5307 52.3802 22.4533 52.5426 22.5616C52.705 22.6699 52.7514 23.5205 51.8672 25.1186C51.5981 25.605 51.2885 26.068 50.9419 26.5027C50.6316 26.8954 50.2295 27.2056 49.771 27.4061C49.3125 27.6066 48.8117 27.6912 48.3127 27.6523L48.2612 27.6395Z" fill="black"/>
<path opacity="0.15" d="M46.8016 20.8372C46.6998 21.2504 46.6376 21.6725 46.6161 22.0976C46.5883 22.7359 46.6359 23.3753 46.7578 24.0024L47.4177 24.6881C47.4177 24.6881 46.7449 22.4971 46.8016 20.8372Z" fill="black"/>
<path opacity="0.15" d="M52.2156 22.5642C51.9745 22.7037 51.7548 22.8773 51.5635 23.0797C51.048 23.5798 50.5763 24.0953 50.5763 24.0953C50.5495 24.413 50.4995 24.7283 50.4268 25.0387C51.3934 24.4716 52.2156 22.5642 52.2156 22.5642Z" fill="black"/>
<path opacity="0.15" d="M49.1887 22.9302C49.2923 22.1437 49.4905 21.3726 49.779 20.6335C49.5626 20.9084 49.4015 21.2227 49.3047 21.5589C49.0879 22.2429 48.9241 22.9427 48.8149 23.6519L48.9902 24.5051C48.9902 24.5051 49.0598 23.7524 49.1887 22.9302Z" fill="black"/>
<path opacity="0.15" d="M52.1198 40.8267C52.1763 40.8089 52.2256 40.7736 52.2606 40.7258C52.2956 40.6781 52.3145 40.6204 52.3145 40.5612C52.3145 40.502 52.2956 40.4444 52.2606 40.3966C52.2256 40.3489 52.1763 40.3136 52.1198 40.2957L32.2337 29.042C32.0884 28.9696 31.9282 28.9319 31.7659 28.9319C31.6035 28.9319 31.4434 28.9696 31.298 29.042L13.2549 39.257L34.0844 51.0366L52.1198 40.8267Z" fill="black"/>
<path d="M50.4481 40.9243C50.4959 40.9033 50.5372 40.8701 50.568 40.828C50.5987 40.7859 50.6179 40.7364 50.6234 40.6846V40.3134L32.8174 30.2453C32.685 30.1805 32.5395 30.1467 32.3921 30.1467C32.2447 30.1467 32.0992 30.1805 31.9668 30.2453L15.5811 39.5247L34.0675 50.1985L50.4481 40.9243Z" fill="#42A351"/>
<path d="M50.4482 40.5635C50.6827 40.4294 50.6827 40.2155 50.4482 40.0814L32.8174 29.8845C32.685 29.8196 32.5396 29.7859 32.3921 29.7859C32.2447 29.7859 32.0992 29.8196 31.9668 29.8845L15.5811 39.1638L34.0676 49.8376L50.4482 40.5635Z" fill="#42A351"/>
<path opacity="0.5" d="M50.4482 40.5635C50.6827 40.4294 50.6827 40.2155 50.4482 40.0814L32.8174 29.8845C32.685 29.8196 32.5396 29.7859 32.3921 29.7859C32.2447 29.7859 32.0992 29.8196 31.9668 29.8845L15.5811 39.1638L34.0676 49.8376L50.4482 40.5635Z" fill="black"/>
<path d="M19.3527 36.728L31.4854 29.8638C31.617 29.7977 31.7622 29.7632 31.9094 29.7632C32.0567 29.7632 32.2019 29.7977 32.3335 29.8638L48.5723 39.2669L50.1498 38.3647V40.1974L50.1189 40.2155C50.173 40.3263 50.1189 40.4526 49.9745 40.5402L36.0787 48.4019L17.5845 37.7384V35.7356L19.3527 36.728Z" fill="#EBEBEB"/>
<path d="M49.9668 38.5502C50.0157 38.5317 50.0578 38.4987 50.0875 38.4556C50.1172 38.4126 50.1331 38.3615 50.1331 38.3092C50.1331 38.2569 50.1172 38.2058 50.0875 38.1628C50.0578 38.1198 50.0157 38.0868 49.9668 38.0682L32.3335 27.8713C32.2015 27.8064 32.0565 27.7727 31.9094 27.7727C31.7624 27.7727 31.6174 27.8064 31.4854 27.8713L17.5845 35.7355L36.071 46.4093L49.9668 38.5502Z" fill="#FAFAFA"/>
<path d="M36.071 46.4095V48.4123L17.5845 37.7385V35.7383L36.071 46.4095Z" fill="#E6E6E6"/>
<path d="M35.8457 45.6283C35.9714 45.6924 36.1157 45.7097 36.253 45.6773C36.2801 45.672 36.3062 45.6625 36.3303 45.6489C36.4592 45.5819 36.4437 45.4556 36.2968 45.3731C36.2279 45.3376 36.1525 45.3165 36.0751 45.3113C35.9868 45.3014 35.8975 45.3166 35.8174 45.3551C35.8075 45.359 35.7986 45.3651 35.7916 45.3731C35.6885 45.4453 35.722 45.551 35.8457 45.6283Z" fill="#263238"/>
<path d="M33.7041 47.1956C33.6934 47.4441 33.77 47.6885 33.9206 47.8864C33.9942 47.9763 34.0871 48.0485 34.1924 48.0976C34.2977 48.1467 34.4128 48.1714 34.5289 48.1699C34.7366 48.1648 34.9392 48.1053 35.1166 47.9972C35.153 47.9786 35.1882 47.9579 35.2223 47.9354L34.9826 47.8013C34.4052 48.1184 33.9516 47.8477 33.9516 47.1956C33.973 46.8366 34.0793 46.4877 34.2617 46.1776C34.444 45.8676 34.6973 45.6052 35.0006 45.4119C35.1137 45.3286 35.2489 45.2805 35.3892 45.2736C35.5295 45.2667 35.6687 45.3014 35.7894 45.3733C35.8952 45.4481 35.9718 45.5575 36.0059 45.6826C36.0904 45.7044 36.1791 45.7044 36.2637 45.6826C36.2342 45.5482 36.1732 45.4228 36.0858 45.3166C36.012 45.2279 35.9193 45.1569 35.8145 45.1087C35.7097 45.0606 35.5954 45.0365 35.4801 45.0382C35.2709 45.0438 35.0667 45.1033 34.8872 45.2109C34.5446 45.4218 34.2581 45.7124 34.0521 46.058C33.8461 46.4036 33.7267 46.7939 33.7041 47.1956Z" fill="#455A64"/>
<path d="M34.3125 45.3034L50.6235 37.501V37.7587C50.6196 37.8314 50.5984 37.902 50.5616 37.9648C50.5249 38.0276 50.4736 38.0807 50.4122 38.1196L34.3125 45.6771V45.3034Z" fill="#42A351"/>
<path d="M50.4482 37.728C50.6827 37.594 50.6827 37.38 50.4482 37.246L32.8174 27.049C32.685 26.9842 32.5395 26.9504 32.3921 26.9504C32.2447 26.9504 32.0992 26.9842 31.9668 27.049L15.5811 34.7638L34.0676 45.4376L50.4482 37.728Z" fill="#42A351"/>
<path opacity="0.4" d="M50.4482 37.728C50.6827 37.594 50.6827 37.38 50.4482 37.246L32.8174 27.049C32.685 26.9842 32.5395 26.9504 32.3921 26.9504C32.2447 26.9504 32.0992 26.9842 31.9668 27.049L15.5811 34.7638L34.0676 45.4376L50.4482 37.728Z" fill="white"/>
<path d="M34.0676 50.1959L15.5811 39.5221V34.7561L34.0676 45.4402V50.1959Z" fill="#42A351"/>
<path opacity="0.2" d="M34.0676 50.1959L15.5811 39.5221V34.7561L34.0676 45.4402V50.1959Z" fill="white"/>
<path d="M30.3364 47.1385C30.4531 47.1404 30.5686 47.1159 30.6744 47.0668C30.7802 47.0177 30.8735 46.9453 30.9473 46.855C31.0957 46.6561 31.1713 46.4122 31.1613 46.1642C31.1404 45.7623 31.0229 45.3713 30.8187 45.0244C30.6146 44.6776 30.3298 44.3851 29.9885 44.1717C29.8089 44.0645 29.6048 44.005 29.3956 43.999C28.9007 43.999 28.5708 44.3908 28.5708 44.9759C28.5914 45.3776 28.7089 45.7683 28.9131 46.1148C29.1173 46.4612 29.4022 46.7532 29.7436 46.9658C29.9219 47.0739 30.1254 47.1334 30.3339 47.1385H30.3364Z" fill="#455A64"/>
<path d="M30.9181 46.1643C30.9181 46.8216 30.449 47.0871 29.8665 46.7597C29.5627 46.5669 29.3091 46.3046 29.1267 45.9945C28.9443 45.6843 28.8382 45.3352 28.8174 44.976C28.8174 44.3187 29.2865 44.0533 29.8665 44.3806C30.1708 44.5731 30.4248 44.8353 30.6077 45.1454C30.7906 45.4556 30.897 45.8049 30.9181 46.1643Z" fill="#F5F5F5"/>
<path d="M27.106 43.7723V44.1332C27.106 44.8549 26.5905 45.1462 25.9513 44.7853L18.1953 40.1714C17.8615 39.9596 17.5828 39.6715 17.382 39.331C17.1813 38.9904 17.0642 38.6071 17.0405 38.2124V37.8516C17.0405 37.1299 17.556 36.8386 18.1953 37.1969L25.9642 41.8133C26.2961 42.026 26.5728 42.3145 26.7713 42.6551C26.9698 42.9957 27.0846 43.3787 27.106 43.7723Z" fill="#F5F5F5"/>
<path d="M34.3185 50.0544V45.3193L34.0659 45.4405V50.1961L34.3185 50.0544Z" fill="#42A351"/>
<path d="M42.5449 36.4706L32.683 41.069C32.4047 41.2005 32.3943 41.4299 32.6598 41.5846L34.276 42.5228C34.4287 42.6005 34.5963 42.6445 34.7674 42.6521C34.9386 42.6597 35.1094 42.6305 35.2684 42.5666L45.1276 37.9682C45.4086 37.8367 45.4189 37.6073 45.1508 37.4527L43.5347 36.5144C43.3824 36.4368 43.2153 36.3928 43.0445 36.3852C42.8738 36.3776 42.7034 36.4068 42.5449 36.4706Z" fill="#FAFAFA"/>
<path d="M43.8516 37.9111C43.5965 37.8743 43.3482 37.8005 43.1144 37.692C42.958 37.5486 42.7737 37.4389 42.5731 37.3698C42.5035 37.3415 42.5113 37.4781 42.5448 37.5064C42.7045 37.6343 42.8773 37.7449 43.0603 37.8364C43.0964 37.9369 43.0912 38.0632 42.9572 38.058C42.8623 38.039 42.7737 37.9964 42.6994 37.9343C42.6711 37.9163 42.653 37.9833 42.6736 38.0013L42.7407 38.1044C42.5624 38.0762 42.3935 38.0055 42.2483 37.8982L42.171 37.8415C42.1401 37.8209 42.1195 37.8956 42.1401 37.9137L42.1762 37.942C42.2017 37.9641 42.2283 37.9847 42.2561 38.0039C42.3544 38.0764 42.4413 38.1633 42.5138 38.2617L42.568 38.3313C42.6118 38.4241 42.6092 38.4576 42.5551 38.4292C42.5267 38.4576 42.2741 38.3003 42.1994 38.2591C41.9123 38.1032 41.642 37.9184 41.3926 37.7075C41.3384 37.6611 41.3101 37.7874 41.3513 37.8209C41.5289 37.9658 41.6897 38.1301 41.8308 38.3106C41.9236 38.4266 41.9983 38.6225 41.7612 38.5684C41.6513 38.5339 41.5471 38.4835 41.4519 38.4189C41.4106 38.3931 41.3977 38.4833 41.408 38.504C41.4459 38.5917 41.4635 38.6869 41.4596 38.7823C41.3206 38.748 41.1939 38.6757 41.0936 38.5736C41.0369 38.5143 41.0008 38.6071 41.0162 38.656C41.0626 38.8184 41.1503 39.1716 40.8693 38.9705C40.8054 38.9254 40.7482 38.8716 40.6992 38.8107C40.6986 38.7357 40.6783 38.6621 40.6403 38.5974C40.6023 38.5327 40.5479 38.4792 40.4827 38.4421C40.4157 38.3983 40.4002 38.5168 40.4131 38.5555C40.451 38.6528 40.4985 38.746 40.5549 38.8339C40.5078 39.0237 40.4076 39.1963 40.2662 39.3314C40.1585 39.4371 40.0339 39.5242 39.8976 39.5891C39.761 39.6613 39.4826 39.7902 39.5805 39.5041C39.6044 39.4356 39.6401 39.3719 39.6862 39.3159C39.7801 39.2499 39.8665 39.1738 39.944 39.0891C39.9929 39.0401 39.944 38.8906 39.8589 38.9344C39.7731 38.9828 39.6957 39.0445 39.6295 39.1174C39.431 39.2437 39.1836 39.3185 39.1578 38.9653C39.1578 38.9653 39.1578 38.9447 39.1578 38.9344C39.4112 38.8557 39.6321 38.6964 39.7867 38.4808C39.7978 38.4663 39.8038 38.4487 39.8038 38.4305C39.8038 38.4123 39.7978 38.3946 39.7867 38.3802C39.4568 38.1508 39.0805 38.5658 39.0444 38.9086C38.9644 38.9327 38.8825 38.95 38.7995 38.9602C38.7995 38.9602 38.7815 38.9885 38.7995 38.9885C38.886 38.9895 38.9724 38.9817 39.0573 38.9653C39.056 38.9834 39.056 39.0015 39.0573 39.0195C39.0658 39.1053 39.1001 39.1865 39.1558 39.2523C39.2116 39.3182 39.2859 39.3655 39.3692 39.3881C39.4059 39.3932 39.4432 39.3932 39.48 39.3881C39.4481 39.4702 39.4324 39.5577 39.4336 39.6458C39.4336 39.9603 39.712 39.8752 39.9208 39.7799C40.2631 39.6059 40.5358 39.3204 40.694 38.9705C40.7358 39.0334 40.7914 39.0859 40.8567 39.1239C40.9219 39.1619 40.995 39.1844 41.0704 39.1896C41.2405 39.1741 41.2276 38.9525 41.1889 38.772C41.2908 38.8449 41.4066 38.8958 41.5292 38.9215C41.5627 38.9215 41.5859 38.8957 41.5859 38.8648C41.5893 38.7629 41.5763 38.661 41.5472 38.5632C41.7431 38.6663 42.0808 38.821 42.0628 38.5065C42.0469 38.4019 41.9992 38.3047 41.9261 38.2282C41.9751 38.2617 42.0215 38.2952 42.0705 38.3235C42.1942 38.3983 42.5113 38.6457 42.6711 38.5968C42.8773 38.5323 42.751 38.339 42.5783 38.156C42.6697 38.1909 42.7648 38.2151 42.8618 38.2282C42.8979 38.2282 42.9056 38.1663 42.8953 38.1431C42.8892 38.1269 42.8814 38.1113 42.8721 38.0967C43.0371 38.1714 43.2304 38.1921 43.2613 37.9601C43.264 37.9439 43.264 37.9273 43.2613 37.9111C43.4695 38.0001 43.6876 38.0642 43.9109 38.1019C43.9702 38.1251 43.9418 37.924 43.8516 37.9111ZM39.6579 38.473C39.5276 38.6421 39.3564 38.7752 39.1604 38.8597C39.1929 38.7516 39.2583 38.6563 39.3474 38.587C39.4366 38.5177 39.5451 38.4779 39.6579 38.473Z" fill="#455A64"/>
<path d="M39.3302 40.1928C39.1638 40.0777 38.9918 39.971 38.8147 39.8731C38.6666 39.6615 38.4646 39.4933 38.2296 39.386C38.1626 39.355 38.1677 39.4968 38.1961 39.5277C38.2244 39.5587 38.3249 39.6566 38.3945 39.7159C38.4243 39.7436 38.4572 39.7678 38.4925 39.7881C38.5286 39.8113 38.5569 39.8422 38.593 39.868C38.6291 39.8938 38.6678 39.9298 38.7039 39.9608C38.7227 39.9753 38.7393 39.9927 38.7528 40.0123C38.7778 40.0477 38.797 40.0869 38.8095 40.1283C38.8176 40.159 38.8187 40.1911 38.813 40.2223C38.8072 40.2535 38.7947 40.2831 38.7762 40.3089C38.7578 40.3347 38.7339 40.3562 38.7063 40.3717C38.6786 40.3873 38.6479 40.3966 38.6162 40.399C38.5293 40.406 38.4418 40.3964 38.3585 40.3706C38.2882 40.3538 38.2272 40.3104 38.1883 40.2495C38.1703 40.2185 38.1342 40.2314 38.1239 40.2624C38.1136 40.2933 38.1007 40.3526 38.1033 40.35C38.0285 40.4119 37.9332 40.2907 37.8893 40.2495C37.8455 40.2082 37.8172 40.3268 37.8301 40.3577V40.4402C37.7775 40.4208 37.728 40.3939 37.6831 40.3603C37.641 40.3066 37.5925 40.2581 37.5388 40.216C37.4743 40.167 37.4615 40.3036 37.4898 40.3397C37.5208 40.3796 37.5553 40.4167 37.5929 40.4505C37.7244 40.6361 37.6548 40.8604 37.3867 40.8191C37.3068 40.8052 37.23 40.7773 37.1599 40.7366C37.1599 40.7366 37.1599 40.7134 37.1599 40.7031C37.1414 40.5427 37.0757 40.3914 36.9711 40.2684C36.8664 40.1454 36.7276 40.0562 36.5722 40.0123C36.5516 40.0123 36.5387 40.0123 36.5284 40.033C36.4124 40.2134 36.5928 40.3938 36.7062 40.5227C36.8112 40.6429 36.9317 40.7486 37.0645 40.8372C37.0548 40.8718 37.0356 40.9031 37.009 40.9274C36.9825 40.9517 36.9497 40.9681 36.9144 40.9748C36.879 40.9815 36.8425 40.9782 36.8089 40.9653C36.7753 40.9524 36.746 40.9303 36.7243 40.9016C36.7207 40.8989 36.7166 40.8971 36.7122 40.8963C36.7079 40.8955 36.7034 40.8957 36.6991 40.897C36.6948 40.8982 36.6909 40.9005 36.6877 40.9035C36.6844 40.9065 36.682 40.9103 36.6804 40.9145C36.6804 40.9145 36.6598 41.0331 36.6598 41.0356C36.5825 41.1413 36.3866 40.9351 36.3196 40.8758C36.2526 40.8165 36.2474 40.948 36.2783 40.9815L36.3273 41.2135C36.2411 41.1714 36.1654 41.1107 36.1056 41.0356L36.0928 41.0176C36.0767 40.998 36.0621 40.9774 36.0489 40.9557L36.0361 40.9403C35.969 40.8604 35.9329 41.0099 35.9639 41.0614C35.9699 41.0715 35.9768 41.0809 35.9845 41.0898C36.0269 41.145 36.0534 41.2107 36.0611 41.2799C36.0689 41.3491 36.0575 41.4191 36.0283 41.4823C35.9991 41.5455 35.9532 41.5995 35.8955 41.6384C35.8378 41.6774 35.7705 41.6998 35.701 41.7032C35.592 41.6981 35.4861 41.6653 35.3932 41.6081C35.3004 41.5508 35.2235 41.4709 35.17 41.3759C35.0411 41.2083 34.6957 40.6619 35.1184 40.6026C35.3607 40.5691 35.6082 40.8449 35.7422 40.9944C35.7422 40.9944 35.7654 40.9764 35.7602 40.966C35.6236 40.7392 35.2164 40.2778 34.9225 40.5536C34.6287 40.8294 34.9225 41.2728 35.1055 41.5022C35.3195 41.7806 35.6675 42.0177 36.0025 41.7599C36.0716 41.705 36.1254 41.6333 36.1588 41.5516C36.1922 41.4699 36.2041 41.381 36.1933 41.2934C36.2539 41.3362 36.3209 41.3692 36.3918 41.3913C36.4201 41.3913 36.4407 41.3707 36.4485 41.3475C36.4665 41.2704 36.4665 41.1901 36.4485 41.113C36.5284 41.1645 36.6134 41.2058 36.6701 41.1774C36.7268 41.149 36.7191 41.0691 36.7165 41.0047C36.7501 41.0302 36.7894 41.0472 36.831 41.054C36.8726 41.0608 36.9152 41.0574 36.9552 41.0439C36.9951 41.0304 37.0311 41.0073 37.0601 40.9767C37.089 40.946 37.11 40.9087 37.1212 40.8681C37.1871 40.903 37.2573 40.929 37.33 40.9454C37.3756 40.963 37.4246 40.97 37.4733 40.966C37.522 40.962 37.5691 40.947 37.6113 40.9222C37.6534 40.8975 37.6894 40.8635 37.7165 40.8229C37.7437 40.7823 37.7614 40.736 37.7682 40.6877C37.7759 40.6433 37.7759 40.598 37.7682 40.5536C37.7988 40.5692 37.8307 40.5821 37.8636 40.5923C37.8893 40.5923 37.91 40.5742 37.9177 40.551C37.9251 40.5205 37.9303 40.4895 37.9332 40.4583C37.995 40.5124 38.0698 40.5614 38.1316 40.5253C38.1537 40.507 38.1692 40.4819 38.1757 40.454C38.1822 40.4261 38.1794 40.3968 38.1677 40.3706C38.2121 40.4132 38.2674 40.4427 38.3275 40.4557C38.3903 40.4747 38.4553 40.486 38.5208 40.4892C38.5808 40.4918 38.6406 40.4812 38.6961 40.4583C38.7992 40.4144 38.9075 40.3783 38.9178 40.2469C38.9242 40.1973 38.9242 40.147 38.9178 40.0974C39.0359 40.1817 39.1717 40.2381 39.3147 40.2624C39.356 40.2856 39.356 40.2108 39.3302 40.1928ZM36.7036 40.3371L36.6392 40.2598C36.5902 40.1696 36.6031 40.1464 36.6753 40.1928C36.7792 40.2367 36.8685 40.309 36.9331 40.4015C37.0017 40.4857 37.0478 40.586 37.0671 40.6928C36.9303 40.5923 36.8087 40.4725 36.7062 40.3371H36.7036Z" fill="#455A64"/>
<path d="M37.7832 40.2788C37.7832 40.2788 37.8004 40.2684 37.7832 40.2788V40.2788Z" fill="#455A64"/>
</g>
</g>
<defs>
<clipPath id="clip0_266_2359">
<rect width="120" height="120" fill="white" transform="translate(0.5)"/>
</clipPath>
<clipPath id="clip1_266_2359">
<rect width="100" height="100" fill="white" transform="translate(0.5 20)"/>
</clipPath>
</defs>
</svg>
