<svg width="120" height="120" viewBox="0 0 120 120" fill="none" xmlns="http://www.w3.org/2000/svg">
<g clip-path="url(#clip0_266_2297)">
<path opacity="0.2" d="M20.625 18.75C20.625 8.39466 29.0197 0 39.375 0H101.25C111.605 0 120 8.39466 120 18.75V80.625C120 90.9803 111.605 99.375 101.25 99.375H39.375C29.0197 99.375 20.625 90.9803 20.625 80.625V18.75Z" fill="#FFA800"/>
<path d="M37.8515 59.6708C37.6971 59.001 37.3203 58.4033 36.7824 57.9753C36.2446 57.5474 35.5775 57.3144 34.8902 57.3145H12.7911C11.9852 57.3145 11.2123 57.6346 10.6424 58.2044C10.0726 58.7743 9.75244 59.5472 9.75244 60.3531V109.474C9.75244 110.28 10.0726 111.053 10.6424 111.623C11.2123 112.192 11.9852 112.513 12.7911 112.513H82.9558C83.7617 112.513 84.5346 112.192 85.1045 111.623C85.6743 111.053 85.9944 110.28 85.9944 109.474V68.2121C85.9944 67.4062 85.6743 66.6333 85.1045 66.0635C84.5346 65.4936 83.7617 65.1735 82.9558 65.1735H44.7658C43.1607 65.1737 41.603 64.6297 40.3472 63.6302C39.0913 62.6307 38.2115 61.2349 37.8515 59.6708Z" fill="#FFA800"/>
<path opacity="0.6" d="M37.8515 59.6708C37.6971 59.001 37.3203 58.4033 36.7824 57.9753C36.2446 57.5474 35.5775 57.3144 34.8902 57.3145H12.7911C11.9852 57.3145 11.2123 57.6346 10.6424 58.2044C10.0726 58.7743 9.75244 59.5472 9.75244 60.3531V109.474C9.75244 110.28 10.0726 111.053 10.6424 111.623C11.2123 112.192 11.9852 112.513 12.7911 112.513H82.9558C83.7617 112.513 84.5346 112.192 85.1045 111.623C85.6743 111.053 85.9944 110.28 85.9944 109.474V68.2121C85.9944 67.4062 85.6743 66.6333 85.1045 66.0635C84.5346 65.4936 83.7617 65.1735 82.9558 65.1735H44.7658C43.1607 65.1737 41.603 64.6297 40.3472 63.6302C39.0913 62.6307 38.2115 61.2349 37.8515 59.6708Z" fill="black"/>
<path opacity="0.22" d="M30.0508 44.3728L32.0204 50.7512C32.2718 51.563 32.8351 52.2418 33.5867 52.6385C34.3382 53.0353 35.2165 53.1175 36.0286 52.8672L42.4042 50.8976L30.0508 44.3728Z" fill="#FFA800"/>
<path d="M30.0507 44.3728L7.26092 51.4141C6.85861 51.5377 6.48461 51.7394 6.16033 52.0077C5.83605 52.276 5.56785 52.6055 5.37106 52.9776C5.17427 53.3496 5.05276 53.7568 5.01348 54.1758C4.97421 54.5948 5.01793 55.0175 5.14216 55.4196L18.153 97.5405C18.2772 97.9427 18.4794 98.3164 18.7481 98.6404C19.0167 98.9645 19.3466 99.2324 19.7188 99.4289C20.091 99.6254 20.4983 99.7466 20.9174 99.7857C21.3365 99.8247 21.7591 99.7808 22.1613 99.6565L51.3294 90.6456C51.7314 90.5217 52.1051 90.3198 52.4291 90.0514C52.7531 89.783 53.021 89.4534 53.2175 89.0814C53.414 88.7094 53.5353 88.3023 53.5744 87.8834C53.6135 87.4646 53.5696 87.0421 53.4454 86.6401L42.3958 50.8976L30.0507 44.3728Z" fill="#FFA800"/>
<path opacity="0.5" d="M30.0507 44.3728L7.26092 51.4141C6.85861 51.5377 6.48461 51.7394 6.16033 52.0077C5.83605 52.276 5.56785 52.6055 5.37106 52.9776C5.17427 53.3496 5.05276 53.7568 5.01348 54.1758C4.97421 54.5948 5.01793 55.0175 5.14216 55.4196L18.153 97.5405C18.2772 97.9427 18.4794 98.3164 18.7481 98.6404C19.0167 98.9645 19.3466 99.2324 19.7188 99.4289C20.091 99.6254 20.4983 99.7466 20.9174 99.7857C21.3365 99.8247 21.7591 99.7808 22.1613 99.6565L51.3294 90.6456C51.7314 90.5217 52.1051 90.3198 52.4291 90.0514C52.7531 89.783 53.021 89.4534 53.2175 89.0814C53.414 88.7094 53.5353 88.3023 53.5744 87.8834C53.6135 87.4646 53.5696 87.0421 53.4454 86.6401L42.3958 50.8976L30.0507 44.3728Z" fill="white"/>
<path opacity="0.28" d="M42.3128 88.8057L23.3517 94.662C22.9971 94.7709 22.6139 94.735 22.2857 94.5621C21.9575 94.3892 21.7111 94.0934 21.6004 93.7393C21.4924 93.3847 21.5292 93.0018 21.7025 92.6742C21.8759 92.3466 22.1719 92.1009 22.5258 91.9907L41.4869 86.1317C41.8418 86.0229 42.2254 86.0592 42.5537 86.2326C42.8819 86.4061 43.1281 86.7025 43.2382 87.0571C43.3462 87.4117 43.3094 87.7946 43.1361 88.1222C42.9627 88.4498 42.6667 88.6955 42.3128 88.8057Z" fill="#FFA800"/>
<path opacity="0.28" d="M21.9071 54.436L11.8797 57.5327C11.5251 57.6408 11.1421 57.6046 10.8141 57.4318C10.4861 57.259 10.2396 56.9636 10.1283 56.61C10.0203 56.2551 10.0569 55.8718 10.2303 55.5437C10.4036 55.2157 10.6996 54.9694 11.0537 54.8587L21.0812 51.762C21.4358 51.6523 21.8194 51.6879 22.1478 51.8609C22.4762 52.0339 22.7225 52.3302 22.8325 52.6846C22.9406 53.0396 22.9039 53.4229 22.7306 53.7509C22.5572 54.079 22.2613 54.3252 21.9071 54.436Z" fill="#5E4A09"/>
<path opacity="0.28" d="M30.0896 57.7205L13.5153 62.8392C13.1614 62.9455 12.7799 62.9079 12.4536 62.7346C12.1273 62.5614 11.8824 62.2664 11.7722 61.9138C11.6634 61.5595 11.6994 61.1766 11.8723 60.8489C12.0452 60.5211 12.341 60.2753 12.6948 60.1652L29.2692 55.0465C29.6238 54.9376 30.0071 54.9735 30.3353 55.1464C30.6634 55.3193 30.9098 55.6151 31.0205 55.9691C31.1276 56.3248 31.0898 56.7084 30.9155 57.0364C30.7411 57.3644 30.4443 57.6102 30.0896 57.7205Z" fill="#5E4A09"/>
<path opacity="0.28" d="M39.3435 60.6736L15.156 68.132C14.8017 68.2408 14.4188 68.2049 14.0911 68.0319C13.7633 67.859 13.5175 67.5632 13.4074 67.2094C13.2992 66.8548 13.3355 66.4718 13.5083 66.1438C13.6811 65.8158 13.9764 65.5693 14.33 65.458L38.5175 57.9996C38.8717 57.8915 39.2543 57.9278 39.5819 58.1007C39.9094 58.2735 40.1554 58.5688 40.2661 58.9222C40.375 59.2768 40.3391 59.6601 40.1662 59.9883C39.9933 60.3165 39.6975 60.5628 39.3435 60.6736Z" fill="#5E4A09"/>
<path opacity="0.28" d="M40.9816 65.9774L26.921 70.3226C26.5664 70.4306 26.1835 70.3939 25.8559 70.2205C25.5283 70.0471 25.2826 69.7511 25.1724 69.3972C25.0643 69.043 25.1007 68.6604 25.2735 68.3329C25.4463 68.0053 25.7416 67.7594 26.095 67.6486L40.1556 63.3034C40.5106 63.1961 40.8935 63.2331 41.2214 63.4064C41.5493 63.5796 41.7956 63.8751 41.907 64.2288C42.0149 64.5834 41.9782 64.9663 41.8048 65.2939C41.6314 65.6215 41.3355 65.8672 40.9816 65.9774Z" fill="#FFA800"/>
<path opacity="0.28" d="M20.4736 72.3142L16.7968 73.4496C16.4423 73.5585 16.059 73.5226 15.7308 73.3497C15.4026 73.1768 15.1562 72.881 15.0455 72.5269C14.9367 72.172 14.973 71.7884 15.1464 71.4601C15.3199 71.1319 15.6163 70.8857 15.9709 70.7756L19.6476 69.6403C20.0022 69.5321 20.3852 69.5684 20.7132 69.7412C21.0412 69.914 21.2876 70.2093 21.399 70.5629C21.5063 70.9179 21.4693 71.3008 21.296 71.6287C21.1228 71.9565 20.8273 72.2029 20.4736 72.3142Z" fill="#5E4A09"/>
<path opacity="0.28" d="M42.6224 71.2839L18.4349 78.7562C18.0803 78.8642 17.6974 78.8274 17.3698 78.6541C17.0421 78.4807 16.7964 78.1847 16.6863 77.8308C16.5774 77.4766 16.6134 77.0937 16.7864 76.7659C16.9593 76.4382 17.2551 76.1923 17.6089 76.0822L41.7964 68.6099C42.1507 68.5018 42.5333 68.5382 42.8608 68.711C43.1883 68.8838 43.4343 69.1791 43.545 69.5326C43.6539 69.8871 43.618 70.2704 43.4451 70.5986C43.2722 70.9268 42.9764 71.1732 42.6224 71.2839Z" fill="#5E4A09"/>
<path opacity="0.28" d="M34.9263 79.4717L20.0729 84.0601C19.7187 84.1682 19.3361 84.1318 19.0086 83.959C18.681 83.7862 18.4351 83.4909 18.3244 83.1375C18.2162 82.7829 18.2525 82.3999 18.4253 82.0719C18.598 81.7439 18.8934 81.4974 19.247 81.3861L34.1004 76.7977C34.4553 76.6897 34.8386 76.7264 35.1667 76.8997C35.4947 77.073 35.741 77.369 35.8517 77.7231C35.9605 78.0777 35.9241 78.461 35.7506 78.7888C35.5771 79.1166 35.2807 79.3622 34.9263 79.4717Z" fill="#FFA800"/>
<path opacity="0.28" d="M44.2601 76.5905L40.2961 77.8142C39.9411 77.9223 39.5578 77.8856 39.2298 77.7123C38.9017 77.5389 38.6555 77.2429 38.5447 76.8888C38.4368 76.5342 38.4735 76.1513 38.6469 75.8237C38.8203 75.4961 39.1162 75.2504 39.4701 75.1402L43.4342 73.9165C43.7884 73.8077 44.1713 73.8437 44.499 74.0166C44.8268 74.1895 45.0726 74.4853 45.1827 74.8391C45.2917 75.1937 45.2557 75.577 45.0828 75.9052C44.9099 76.2334 44.6141 76.4798 44.2601 76.5905Z" fill="#FFA800"/>
<path opacity="0.28" d="M45.8987 81.8999L21.7167 89.3583C21.3617 89.4671 20.9781 89.4308 20.6499 89.2574C20.3216 89.0839 20.0755 88.7875 19.9653 88.4329C19.8566 88.0783 19.893 87.6951 20.0665 87.3673C20.24 87.0395 20.5364 86.7939 20.8907 86.6843L45.0755 79.2121C45.4304 79.1048 45.8134 79.1418 46.1412 79.3151C46.4691 79.4883 46.7154 79.7838 46.8268 80.1375C46.8823 80.3141 46.9023 80.5 46.8856 80.6844C46.8689 80.8688 46.8159 81.0481 46.7297 81.2119C46.6434 81.3758 46.5255 81.5209 46.3829 81.639C46.2403 81.757 46.0757 81.8457 45.8987 81.8999Z" fill="#FFA800"/>
<path d="M46.418 28.533L53.6499 44.6488C53.8377 45.0695 53.8512 45.5474 53.6877 45.9781C53.5241 46.4087 53.1967 46.7571 52.777 46.9471L22.0979 60.7176C21.6773 60.9061 21.1991 60.9201 20.7682 60.7564C20.3373 60.5928 19.989 60.2649 19.7996 59.8447L12.5649 43.7289C12.3755 43.308 12.3611 42.8292 12.5248 42.3976C12.6885 41.9661 13.0169 41.6173 13.4378 41.4279L44.1169 27.6573C44.5383 27.4697 45.0169 27.4564 45.4481 27.6205C45.8793 27.7846 46.228 28.1127 46.418 28.533Z" fill="#FFA800"/>
<path opacity="0.3" d="M46.418 28.533L53.6499 44.6488C53.8377 45.0695 53.8512 45.5474 53.6877 45.9781C53.5241 46.4087 53.1967 46.7571 52.777 46.9471L22.0979 60.7176C21.6773 60.9061 21.1991 60.9201 20.7682 60.7564C20.3373 60.5928 19.989 60.2649 19.7996 59.8447L12.5649 43.7289C12.3755 43.308 12.3611 42.8292 12.5248 42.3976C12.6885 41.9661 13.0169 41.6173 13.4378 41.4279L44.1169 27.6573C44.5383 27.4697 45.0169 27.4564 45.4481 27.6205C45.8793 27.7846 46.228 28.1127 46.418 28.533Z" fill="black"/>
<path d="M41.5825 27.7367L40.6021 28.1765L40.7151 28.4286L41.6956 27.9888L41.5825 27.7367Z" fill="#FFA800"/>
<path d="M39.2287 28.7912L36.1714 30.1626L36.2844 30.4146L39.3417 29.0432L39.2287 28.7912Z" fill="#FFA800"/>
<path d="M12.5372 45.3532L12.2852 45.4663L13.1225 47.3311L13.3745 47.218L12.5372 45.3532Z" fill="#FFA800"/>
<path opacity="0.6" d="M45.3904 27.5995L37.4789 43.0965C36.7448 44.5328 35.5426 45.6757 34.0709 46.3362C32.5992 46.9967 30.9462 47.1353 29.3851 46.729L12.5483 42.3396C12.7211 41.9356 13.0382 41.6106 13.4378 41.428L44.117 27.6575C44.5188 27.4778 44.9739 27.457 45.3904 27.5995Z" fill="#FFA800"/>
<path d="M56.2659 47.4333L32.4596 48.9029C32.039 48.9279 31.6275 49.0356 31.2486 49.2199C30.8696 49.4041 30.5308 49.6612 30.2514 49.9766C29.972 50.2919 29.7575 50.6592 29.6202 51.0576C29.4829 51.4559 29.4255 51.8774 29.4513 52.2979L32.1668 96.2973C32.1921 96.7182 32.3002 97.1299 32.4849 97.5088C32.6697 97.8878 32.9274 98.2266 33.2433 98.5058C33.5592 98.785 33.927 98.9991 34.3258 99.1359C34.7246 99.2727 35.1465 99.3294 35.5673 99.3028L66.0364 97.4216C66.4566 97.3963 66.8675 97.2883 67.2458 97.1039C67.6241 96.9194 67.9623 96.6621 68.241 96.3468C68.5197 96.0314 68.7334 95.6641 68.8699 95.266C69.0064 94.8678 69.063 94.4467 69.0364 94.0267L66.7436 56.6874L56.2659 47.4333Z" fill="#FFA800"/>
<path d="M56.2659 47.4333L32.4596 48.9029C32.039 48.9279 31.6275 49.0356 31.2486 49.2199C30.8696 49.4041 30.5308 49.6612 30.2514 49.9766C29.972 50.2919 29.7575 50.6592 29.6202 51.0576C29.4829 51.4559 29.4255 51.8774 29.4513 52.2979L32.1668 96.2973C32.1921 96.7182 32.3002 97.1299 32.4849 97.5088C32.6697 97.8878 32.9274 98.2266 33.2433 98.5058C33.5592 98.785 33.927 98.9991 34.3258 99.1359C34.7246 99.2727 35.1465 99.3294 35.5673 99.3028L66.0364 97.4216C66.4566 97.3963 66.8675 97.2883 67.2458 97.1039C67.6241 96.9194 67.9623 96.6621 68.241 96.3468C68.5197 96.0314 68.7334 95.6641 68.8699 95.266C69.0064 94.8678 69.063 94.4467 69.0364 94.0267L66.7436 56.6874L56.2659 47.4333Z" fill="white"/>
<path opacity="0.22" d="M57.7051 93.5018L37.896 94.7256C37.526 94.7467 37.1626 94.6206 36.8852 94.3748C36.6077 94.1289 36.4389 93.7833 36.4154 93.4134C36.3942 93.0435 36.5198 92.6802 36.765 92.4024C37.0102 92.1246 37.3551 91.9549 37.7248 91.93L57.5339 90.709C57.904 90.6871 58.2677 90.8124 58.5456 91.0578C58.8236 91.3031 58.9931 91.6484 59.0173 92.0184C59.0392 92.3889 58.9135 92.753 58.6675 93.0311C58.4216 93.3091 58.0756 93.4783 57.7051 93.5018Z" fill="#FFA800"/>
<path opacity="0.22" d="M45.981 55.2925L35.5033 55.9334C35.1334 55.9546 34.7701 55.8289 34.4923 55.5837C34.2145 55.3386 34.0447 54.9936 34.0199 54.624C33.9987 54.2536 34.1247 53.8899 34.3705 53.6121C34.6162 53.3342 34.9619 53.1647 35.332 53.1406L45.8098 52.4942C46.1796 52.4722 46.543 52.5977 46.8205 52.8431C47.098 53.0885 47.267 53.4338 47.2904 53.8035C47.3139 54.1745 47.1892 54.5397 46.9437 54.8188C46.6982 55.098 46.352 55.2683 45.981 55.2925Z" fill="#FFA800"/>
<path opacity="0.22" d="M53.1581 60.4138L35.8462 61.4801C35.476 61.5028 35.1118 61.3776 34.8337 61.1322C34.5556 60.8867 34.3863 60.5409 34.3628 60.1707C34.3409 59.8002 34.4666 59.4361 34.7125 59.1581C34.9585 58.88 35.3045 58.7108 35.6749 58.6873L52.9841 57.621C53.3543 57.5983 53.7185 57.7235 53.9966 57.9689C54.2747 58.2144 54.444 58.5602 54.4675 58.9304C54.4894 59.3005 54.3641 59.6642 54.1187 59.9421C53.8734 60.2201 53.5281 60.3896 53.1581 60.4138Z" fill="#FFA800"/>
<path opacity="0.22" d="M61.4534 65.4663L36.1887 67.0243C35.8174 67.047 35.4522 66.9217 35.1732 66.6757C34.8941 66.4298 34.7239 66.0833 34.6997 65.7121C34.6778 65.3423 34.8033 64.9789 35.0487 64.7014C35.2941 64.4239 35.6394 64.255 36.0091 64.2315L61.2766 62.6708C61.6467 62.6496 62.0101 62.7757 62.2875 63.0215C62.5649 63.2674 62.7338 63.613 62.7573 63.9829C62.7793 64.3521 62.6546 64.715 62.4105 64.9928C62.1663 65.2706 61.8224 65.4407 61.4534 65.4663Z" fill="#FFA800"/>
<path opacity="0.22" d="M61.7962 71.0078L47.1086 71.9139C46.7385 71.9358 46.3748 71.8105 46.0969 71.5651C45.8189 71.3198 45.6493 70.9744 45.6252 70.6045C45.6025 70.2342 45.7276 69.8701 45.9731 69.592C46.2186 69.3139 46.5644 69.1445 46.9346 69.1211L61.6222 68.215C61.9925 68.1923 62.3566 68.3175 62.6347 68.5629C62.9128 68.8084 63.0822 69.1542 63.1056 69.5244C63.1276 69.8945 63.0022 70.2582 62.7569 70.5361C62.5115 70.8141 62.1662 70.9837 61.7962 71.0078Z" fill="#FFA800"/>
<path opacity="0.22" d="M40.371 72.3281L36.5285 72.5656C36.1587 72.5876 35.7953 72.4621 35.5178 72.2167C35.2403 71.9713 35.0713 71.626 35.0479 71.2563C35.0259 70.8862 35.1513 70.5224 35.3966 70.2445C35.642 69.9666 35.9873 69.797 36.3572 69.7728L40.1997 69.5353C40.5701 69.5141 40.9338 69.6401 41.2116 69.8859C41.4895 70.1316 41.659 70.4772 41.6831 70.8474C41.7043 71.2175 41.5782 71.5809 41.3324 71.8583C41.0865 72.1357 40.7409 72.3046 40.371 72.3281Z" fill="#FFA800"/>
<path opacity="0.22" d="M62.1385 76.5492L36.871 78.1072C36.5009 78.1291 36.1372 78.0037 35.8592 77.7584C35.5813 77.5131 35.4117 77.1677 35.3876 76.7978C35.3664 76.4274 35.4924 76.0637 35.7381 75.7859C35.9839 75.508 36.3295 75.3385 36.6997 75.3144L61.9645 73.7564C62.335 73.7344 62.6992 73.8602 62.9772 74.1061C63.2552 74.352 63.4245 74.6981 63.4479 75.0685C63.4699 75.4383 63.3444 75.8017 63.099 76.0792C62.8536 76.3567 62.5082 76.5257 62.1385 76.5492Z" fill="#FFA800"/>
<path opacity="0.22" d="M52.7296 82.6925L37.2132 83.6511C36.8429 83.6723 36.4792 83.5462 36.2013 83.3005C35.9235 83.0547 35.754 82.7091 35.7298 82.3389C35.7087 81.9689 35.8348 81.6055 36.0806 81.3281C36.3264 81.0507 36.672 80.8818 37.042 80.8583L52.5583 79.8998C52.9284 79.8786 53.2918 80.0047 53.5692 80.2505C53.8466 80.4964 54.0155 80.842 54.039 81.2119C54.0616 81.5819 53.9364 81.9457 53.6909 82.2233C53.4453 82.501 53.0996 82.6698 52.7296 82.6925Z" fill="#FFA800"/>
<path opacity="0.22" d="M62.4784 82.0933L58.3348 82.3474C57.965 82.3693 57.6016 82.2439 57.3241 81.9985C57.0466 81.7531 56.8776 81.4077 56.8542 81.038C56.8315 80.6678 56.9566 80.3036 57.2021 80.0255C57.4476 79.7474 57.7934 79.5781 58.1636 79.5546L62.3072 79.3005C62.6774 79.2778 63.0415 79.4029 63.3196 79.6484C63.5977 79.8939 63.7671 80.2396 63.7906 80.6098C63.8118 80.9802 63.6857 81.3439 63.44 81.6218C63.1942 81.8996 62.8486 82.0691 62.4784 82.0933Z" fill="#FFA800"/>
<path opacity="0.22" d="M62.8205 87.6346L37.5557 89.1926C37.1856 89.2145 36.8219 89.0892 36.544 88.8438C36.266 88.5985 36.0965 88.2531 36.0723 87.8832C36.0503 87.5131 36.1757 87.1494 36.421 86.8715C36.6664 86.5935 37.0117 86.424 37.3817 86.3998L62.6492 84.8418C63.019 84.8199 63.3824 84.9453 63.6599 85.1907C63.9374 85.4361 64.1064 85.7815 64.1298 86.1512C64.1525 86.5214 64.0274 86.8856 63.7819 87.1637C63.5365 87.4418 63.1907 87.6111 62.8205 87.6346Z" fill="#FFA800"/>
<path d="M56.2656 47.4333L56.6772 54.0962C56.7029 54.5163 56.8111 54.9273 56.9957 55.3055C57.1802 55.6838 57.4374 56.022 57.7527 56.3009C58.068 56.5797 58.4351 56.7937 58.8331 56.9306C59.231 57.0676 59.6521 57.1248 60.0722 57.099L66.7434 56.6874L56.2656 47.4333Z" fill="#FFA800"/>
<path d="M48.47 64.0548C48.4659 63.7355 48.3977 63.4203 48.2697 63.1278C48.1416 62.8353 47.9562 62.5714 47.7245 62.3517C47.4927 62.1321 47.2193 61.9611 46.9203 61.8489C46.6214 61.7367 46.3029 61.6856 45.9839 61.6985H23.8571C22.1804 61.6985 20.5423 63.0604 20.2274 64.7371L11.4954 109.474C11.1695 111.151 12.2634 112.513 13.9402 112.513H84.1049C85.7816 112.513 87.4059 111.154 87.7346 109.474L94.9362 72.5961C95.2622 70.9166 94.1682 69.5575 92.4915 69.5575H54.3125C50.9976 69.5575 48.5833 67.2758 48.47 64.0548Z" fill="#FFA800"/>
</g>
<defs>
<clipPath id="clip0_266_2297">
<rect width="120" height="120" fill="white"/>
</clipPath>
</defs>
</svg>
