<svg width="120" height="120" viewBox="0 0 120 120" fill="none" xmlns="http://www.w3.org/2000/svg">
<path opacity="0.1" d="M20.0063 18.75C20.0063 8.39468 28.4533 0 38.8731 0H101.133C111.553 0 120 8.39466 120 18.75V81.2437C120 91.5991 111.553 99.9938 101.133 99.9938H38.8731C28.4533 99.9938 20.0063 91.5991 20.0063 81.2438V18.75Z" fill="#494ECC"/>
<g clip-path="url(#clip0_266_1952)">
<path d="M70.1407 36.1258C68.8019 35.7794 63.0906 33.8654 56.3751 37.6368C54.784 38.5301 51.576 40.3946 47.6019 42.7235C47.6019 42.7235 42.9795 47.5344 37.1126 50.601C26.0129 56.4042 18.5078 59.8716 18.5078 59.8716C18.7182 60.0405 18.9579 60.1692 19.215 60.2511C22.5149 61.5828 30.3382 68.7862 35.7149 66.8652C41.9778 64.6283 70.1407 36.1258 70.1407 36.1258Z" fill="#494ECC"/>
<path opacity="0.5" d="M23.1465 57.8185C23.1465 57.8185 36.3205 52.0436 38.1732 50.8886C39.6138 50.0098 40.9758 49.0082 42.2439 47.895C42.8639 47.301 42.7154 49.2881 39.4696 51.0984C35.1207 53.538 23.1465 57.8185 23.1465 57.8185Z" fill="white"/>
<path d="M43.0031 43.9892C43.0031 44.5596 43.055 45.3469 43.1068 46.3793C43.1775 47.7629 42.9795 48.4819 42.3337 49.5473C42.0367 50.0352 41.3908 50.7636 40.2123 51.4919C33.6924 55.499 18.5078 59.8715 18.5078 59.8715L19.2008 60.251L37.3295 58.2286L45.2212 53.0429L45.405 44.5007L44.1817 43.8501L43.0031 43.9892Z" fill="#37474F"/>
<path d="M45.4071 44.5007V44.9344C45.2468 45.3681 44.9711 45.9644 44.5916 46.1931C44.3889 46.3154 44.1565 46.3798 43.9198 46.3793C43.4861 46.3793 43.1066 46.1577 43.0854 45.8018C43.0854 45.7075 43.0854 45.6109 43.0689 45.5189C43.0288 44.8424 43.0146 44.3946 43.0146 43.9892L44.1932 43.8501L45.4071 44.5007Z" fill="#494ECC"/>
<path opacity="0.3" d="M45.4071 44.5007V44.9344C45.2468 45.3681 44.9711 45.9644 44.5916 46.1931C44.3889 46.3154 44.1565 46.3798 43.9198 46.3793C43.4861 46.3793 43.1066 46.1577 43.0854 45.8018C43.0854 45.7075 43.0854 45.6109 43.0689 45.5189C43.0288 44.8424 43.0146 44.3946 43.0146 43.9892L44.1932 43.8501L45.4071 44.5007Z" fill="black"/>
<path d="M72.9641 38.7965C71.6559 35.6992 69.254 35.7039 65.2917 36.2673C64.8321 36.3309 54.7247 38.4452 49.0676 40.6114C44.7941 42.2473 43.5354 43.4871 43.196 43.6757C42.404 44.133 43.7145 44.8873 44.5819 44.4771C44.5819 45.1466 44.6008 45.7217 44.5819 46.2308C44.4759 49.2951 43.9715 49.7665 42.503 51.4165C41.8972 52.0977 40.0869 53.0123 39.0969 53.5686C37.2489 54.6057 37.3408 53.7925 32.4357 55.69C30.3331 56.5032 20.2328 60.2911 19.1509 60.2817L46.0339 77.1187L54.5196 83.4711L93.5607 52.2981L72.9641 38.7965Z" fill="#494ECC"/>
<path d="M44.6318 44.4561L47.7786 42.3394L73.7141 56.4939L69.5797 58.8793L69.5844 74.8725L44.6318 60.461V44.4561Z" fill="#494ECC"/>
<path opacity="0.25" d="M44.6318 44.4561L47.7786 42.3394L74.4448 55.5581L81.0518 56.4279L79.3429 61.6985L69.5844 74.8725L44.6318 60.461V44.4561Z" fill="black"/>
<path opacity="0.5" d="M51.8893 39.9233C49.8127 40.5621 48.4126 40.9581 48.9335 41.2386C49.4544 41.5191 62.7887 37.8773 65.3933 37.4059C67.9979 36.9344 70.0133 36.7223 66.7793 35.9916C63.8918 35.3481 62.0415 35.5555 60.3231 36.1542C58.6048 36.7529 55.3567 38.5279 55.3567 38.5279C55.3567 38.5279 63.6915 36.4748 64.005 36.4347C64.3185 36.3947 65.1058 36.4347 63.147 36.9887C61.1882 37.5426 53.9777 39.2916 51.8893 39.9233Z" fill="white"/>
<path opacity="0.3" d="M37.8267 68.904C37.8267 68.904 38.2439 60.317 38.5621 53.8538C36.4808 54.9239 36.9357 53.9433 32.4855 55.6617C30.654 56.3688 22.7482 59.3364 20.0304 60.0813L19.2007 60.251L34.9722 70.125L37.8267 68.904Z" fill="black"/>
<path d="M52.2009 67.7255L49.1036 67.6642L44.3894 64.9653C43.9495 64.7448 43.4683 64.6185 42.9768 64.5945C42.4853 64.5706 41.9942 64.6495 41.5349 64.8262L35.8283 67.4049L31.9131 67.3272V69.6136C31.9131 69.8705 32.0946 70.1345 32.467 70.349L42.7205 76.2701C43.1357 76.4843 43.6024 76.5781 44.0681 76.541C44.5337 76.504 44.9798 76.3375 45.3558 76.0603L51.72 70.8888C51.8599 70.7884 51.975 70.6574 52.0566 70.5059C52.1383 70.3544 52.1844 70.1863 52.1915 70.0143L52.2009 67.7255Z" fill="#37474F"/>
<path d="M32.4671 68.0626L42.7207 73.9837C43.136 74.1973 43.6026 74.2909 44.0681 74.2538C44.5337 74.2168 44.9797 74.0506 45.3559 73.7739L51.7202 68.6024C52.4085 68.0461 52.3425 67.2353 51.574 66.7945L44.3871 62.6789C43.9472 62.4584 43.4661 62.3321 42.9746 62.3081C42.4831 62.2842 41.9919 62.3631 41.5327 62.5399L32.5355 66.6012C31.7317 66.9642 31.6987 67.6195 32.4671 68.0626Z" fill="#455A64"/>
<path d="M52.2034 67.7278V70.0071C52.2034 70.0071 52.2034 70.0071 52.1916 70.0071C52.1851 70.1796 52.1392 70.3482 52.0575 70.5002C51.9758 70.6522 51.8604 70.7834 51.7201 70.884L45.3559 76.0532C44.9949 76.3266 44.5629 76.4903 44.1113 76.5246V74.2405C44.5631 74.2075 44.9956 74.0437 45.3559 73.7691L51.7201 68.5976C51.861 68.4984 51.9777 68.3686 52.0613 68.218C52.145 68.0674 52.1936 67.8998 52.2034 67.7278Z" fill="#263238"/>
<path d="M53.1911 67.0492C53.2063 67.1512 53.194 67.2555 53.1555 67.3512C53.1169 67.4469 53.0536 67.5306 52.9719 67.5937L50.3602 69.0999C50.4458 69.0407 50.5125 68.958 50.5522 68.8619C50.5919 68.7657 50.603 68.6601 50.5841 68.5577L50.0184 55.7915C49.9894 55.5005 49.8956 55.2196 49.7438 54.9696C49.5921 54.7196 49.3863 54.5067 49.1415 54.3466L42.9871 50.7944C42.8926 50.7307 42.7833 50.6925 42.6698 50.6834C42.5562 50.6743 42.4423 50.6947 42.3389 50.7425L44.9317 49.2481C45.0363 49.1956 45.153 49.1719 45.2698 49.1793C45.3866 49.1868 45.4993 49.2252 45.5964 49.2905L51.7462 52.8427C51.9912 53.002 52.1973 53.2143 52.3491 53.464C52.5009 53.7138 52.5945 53.9945 52.623 54.2853L53.1911 67.0492Z" fill="#263238"/>
<path d="M42.9891 50.7989L49.1412 54.3511C49.3854 54.5107 49.5908 54.7229 49.7425 54.972C49.8942 55.2212 49.9884 55.5011 50.0181 55.7913L50.5838 68.5528C50.6073 69.0855 50.2538 69.3 49.7918 69.0242L41.0327 63.9682C40.7968 63.816 40.6075 63.6017 40.4857 63.3488C40.3638 63.0959 40.3141 62.8144 40.342 62.5351L42.0132 51.2586C42.0185 51.1478 42.0538 51.0405 42.1154 50.9483C42.177 50.8561 42.2626 50.7825 42.3629 50.7352C42.4632 50.6879 42.5745 50.6689 42.6848 50.6801C42.7952 50.6914 42.9003 50.7324 42.9891 50.7989Z" fill="#37474F"/>
<path d="M52.3519 53.472L49.759 54.9759C49.6102 54.7221 49.4024 54.5078 49.1533 54.3512L42.9988 50.799C42.9043 50.7354 42.795 50.6972 42.6815 50.6881C42.5679 50.679 42.454 50.6993 42.3506 50.7472L44.9434 49.2527C45.048 49.2002 45.1647 49.1765 45.2815 49.184C45.3983 49.1914 45.5111 49.2298 45.6081 49.2952L51.7579 52.8474C52.0032 53.0048 52.207 53.2191 52.3519 53.472Z" fill="#455A64"/>
<path d="M51.2771 51.6169V48.4395C51.2771 46.1554 49.8181 43.4589 48.0196 42.4194C47.1946 41.948 46.4427 41.9032 45.8675 42.2143L43.8828 43.3693L44.7644 45.0547V47.8596C44.7801 48.1485 44.8637 48.4296 45.0082 48.6802C45.1528 48.9309 45.3543 49.1439 45.5964 49.3022L47.5811 50.4478L49.0732 53.3022L51.0367 52.1614C51.1217 52.1003 51.1888 52.0176 51.2311 51.9219C51.2733 51.8262 51.2892 51.7209 51.2771 51.6169Z" fill="#263238"/>
<path d="M48.0196 46.9451L50.5747 45.4695C49.9783 44.166 49.0567 43.0181 48.0196 42.4194C47.1946 41.948 46.4427 41.9032 45.8675 42.2143L43.8828 43.3693L44.7644 45.0547V45.6062L48.0196 46.9451Z" fill="#455A64"/>
<path d="M49.3231 52.7531V49.5781C49.3231 47.2917 47.8641 44.5975 46.0656 43.558C44.2671 42.5185 42.8057 43.5297 42.8057 45.8161V48.9912C42.8215 49.2806 42.9053 49.5623 43.0503 49.8133C43.1952 50.0643 43.3973 50.2777 43.6401 50.4361L48.4887 53.234C48.9507 53.5004 49.3231 53.2859 49.3231 52.7531Z" fill="#37474F"/>
<path d="M43.1735 53.5027C42.4182 56.3182 42.0557 59.2245 42.0963 62.1393C42.1165 62.4375 42.1963 62.7287 42.3312 62.9956C42.466 63.2624 42.6531 63.4994 42.8813 63.6926C44.4015 64.8205 46.0467 65.7696 47.7841 66.5212C47.8834 66.5787 47.9965 66.6079 48.1112 66.6058C48.2259 66.6037 48.3379 66.5702 48.435 66.5091C48.5321 66.4479 48.6106 66.3613 48.662 66.2588C48.7135 66.1562 48.7359 66.0416 48.7269 65.9272C48.8825 62.4693 48.9344 59.2447 48.7576 56.5623C48.6856 55.9586 48.3853 55.4054 47.9184 55.016C46.8029 54.2013 45.6034 53.5082 44.3403 52.9488C44.2287 52.8955 44.1065 52.8678 43.9828 52.8677C43.8591 52.8676 43.7369 52.895 43.6251 52.9481C43.5133 53.0011 43.4148 53.0785 43.3367 53.1744C43.2586 53.2704 43.2028 53.3825 43.1735 53.5027Z" fill="#494ECC"/>
<path opacity="0.15" d="M48.651 66.2169C48.69 66.1233 48.7123 66.0236 48.717 65.9223C48.8726 62.4644 48.9244 59.2398 48.7476 56.5574C48.7159 56.2594 48.6246 55.9708 48.4789 55.7089C48.1371 55.2233 48.0075 59.3082 48.0193 61.7997C48.0311 64.2912 48.0523 66.7497 48.4601 66.4668C48.4768 66.4555 48.4926 66.4429 48.5072 66.4291C48.5615 66.3629 48.6096 66.2919 48.651 66.2169Z" fill="black"/>
<g opacity="0.15">
<path opacity="0.15" d="M42.6641 61.9199C42.6641 61.9199 42.7395 61.9647 42.8621 62.0472C42.9846 62.1297 43.1661 62.2429 43.3783 62.3819C43.8026 62.6601 44.3706 63.0183 44.9552 63.3507C45.5398 63.6831 46.1338 63.9942 46.584 64.2205C46.8197 64.3336 46.9988 64.435 47.1355 64.4963C47.2723 64.5575 47.343 64.6047 47.343 64.6047C47.343 64.6047 47.2581 64.5905 47.1073 64.5552C46.9564 64.5198 46.7513 64.4727 46.5085 64.3902C46.2658 64.3077 45.9829 64.2063 45.6883 64.0814C45.5421 64.0131 45.3889 63.9494 45.238 63.8693C45.0872 63.7891 44.9387 63.709 44.7878 63.6336C44.4932 63.4568 44.2033 63.2753 43.9416 63.0843C43.7052 62.9124 43.4778 62.7283 43.2604 62.5328C43.0671 62.3631 42.921 62.2051 42.8149 62.0991C42.7088 61.993 42.6641 61.9199 42.6641 61.9199Z" fill="black"/>
<path opacity="0.15" d="M42.6641 60.3171C42.6641 60.3171 42.7395 60.3619 42.8621 60.4444C42.9846 60.5269 43.1661 60.6401 43.3783 60.7791C43.8026 61.0573 44.3706 61.4132 44.9552 61.7456C45.5398 62.0779 46.1338 62.3891 46.584 62.6177C46.8197 62.7285 46.9988 62.8298 47.1355 62.8935C47.2723 62.9571 47.343 63.0019 47.343 63.0019L47.1073 62.9524C46.9611 62.9147 46.7513 62.8676 46.5085 62.7874C46.2298 62.6983 45.956 62.5944 45.6883 62.4763C45.5421 62.4079 45.3889 62.3443 45.238 62.2641C45.0872 62.184 44.9387 62.1062 44.7878 62.0284C44.4932 61.854 44.2033 61.6701 43.9416 61.4816C43.68 61.293 43.449 61.1021 43.2604 60.93C43.0718 60.7579 42.921 60.6024 42.8149 60.4963C42.7088 60.3902 42.6641 60.3171 42.6641 60.3171Z" fill="black"/>
<path opacity="0.15" d="M43.001 58.9829C43.001 58.9829 43.0693 59.023 43.1848 59.0984C43.3003 59.1738 43.4677 59.2752 43.6563 59.4025C44.0499 59.6571 44.5755 59.98 45.1177 60.2723C45.6598 60.5645 46.2185 60.8309 46.6404 61.036L47.1495 61.2882L47.3405 61.3872C47.3405 61.3872 47.2627 61.3754 47.1283 61.3471C46.994 61.3188 46.8007 61.274 46.5744 61.208C46.3148 61.1338 46.0591 61.0464 45.8083 60.9464C45.6716 60.8875 45.5278 60.8356 45.3887 60.7649C45.2497 60.6942 45.1059 60.6258 44.9645 60.5528C44.823 60.4797 44.6887 60.3972 44.5567 60.317C44.4247 60.2369 44.2998 60.145 44.1772 60.0625C43.9571 59.904 43.7462 59.7332 43.5455 59.551C43.3687 59.3931 43.2343 59.2469 43.14 59.1479C43.0458 59.0489 43.001 58.9829 43.001 58.9829Z" fill="black"/>
<path opacity="0.15" d="M43.1357 57.4792L43.3149 57.5877C43.4233 57.6655 43.5883 57.7597 43.7863 57.8823C44.1658 58.118 44.6726 58.4386 45.2006 58.712C45.7286 58.9855 46.2707 59.24 46.6785 59.4357L47.1711 59.6714C47.2914 59.7303 47.3574 59.768 47.3574 59.768L47.1523 59.7303C47.0226 59.6997 46.8341 59.6619 46.6149 59.6007C46.3957 59.5394 46.1434 59.4592 45.8724 59.365C45.7404 59.3107 45.5989 59.2612 45.4646 59.1952C45.3302 59.1292 45.1888 59.0656 45.0521 58.9972C44.9154 58.9289 44.7834 58.8464 44.6561 58.7615C44.5288 58.6767 44.4039 58.5965 44.286 58.5258C44.073 58.3738 43.8691 58.2093 43.6755 58.0332C43.5058 57.88 43.3762 57.7362 43.2866 57.6419C43.197 57.5476 43.1357 57.4792 43.1357 57.4792Z" fill="black"/>
<path opacity="0.15" d="M43.3711 56.0437L43.5408 56.1451L43.9769 56.4208C44.4081 56.6991 44.8534 56.9548 45.311 57.1869C45.8084 57.4391 46.3269 57.6583 46.7253 57.8422C47.1236 58.026 47.3641 58.1628 47.3641 58.1628C47.1259 58.1256 46.8899 58.076 46.6569 58.0143C46.1454 57.8861 45.6485 57.7052 45.1743 57.4745C45.0447 57.4061 44.9174 57.3378 44.7948 57.2647C44.6722 57.1916 44.5591 57.1091 44.4459 57.029C44.2452 56.8841 44.0539 56.7267 43.8732 56.5576C43.6932 56.399 43.5254 56.2273 43.3711 56.0437Z" fill="black"/>
<path opacity="0.15" d="M43.8994 54.6624C43.8994 54.6624 44.1186 54.7873 44.4321 54.9853C44.7456 55.1833 45.1605 55.4284 45.5918 55.6523C46.0232 55.8763 46.464 56.0861 46.7963 56.2534C47.1287 56.4208 47.3455 56.5481 47.3455 56.5481C47.1378 56.5219 46.9322 56.4809 46.7303 56.4255C46.2848 56.3103 45.8532 56.1467 45.4433 55.9376C45.3325 55.8739 45.2218 55.8126 45.1157 55.749C45.0096 55.6853 44.9106 55.6123 44.814 55.5439C44.6388 55.4183 44.4733 55.2796 44.319 55.1291C44.1661 54.9857 44.0258 54.8296 43.8994 54.6624Z" fill="black"/>
</g>
<path d="M40.5429 65.1115C38.9259 65.3991 37.3255 66.2264 35.7391 67.4168C35.6419 67.4813 35.5621 67.5689 35.5069 67.6717C35.4517 67.7745 35.4229 67.8894 35.4229 68.0061C35.4229 68.1228 35.4517 68.2376 35.5069 68.3405C35.5621 68.4433 35.6419 68.5309 35.7391 68.5954C37.659 70.0011 39.7305 71.1871 41.9148 72.1311C42.4811 72.3471 43.1099 72.3301 43.6638 72.0839C45.0197 71.3984 46.2661 70.515 47.3621 69.4628C47.4498 69.3772 47.5172 69.2731 47.5595 69.1582C47.6018 69.0432 47.6179 68.9202 47.6066 68.7983C47.5953 68.6763 47.5569 68.5584 47.4942 68.4531C47.4315 68.3479 47.3461 68.258 47.2443 68.1899C45.737 67.0709 44.1129 66.1185 42.4004 65.3496C41.8101 65.1191 41.1722 65.0373 40.5429 65.1115Z" fill="#494ECC"/>
<g opacity="0.2">
<path opacity="0.2" d="M36.6089 68.0129C36.6089 68.0129 36.7102 68.0389 36.8823 68.0931C37.0544 68.1473 37.3066 68.2251 37.5895 68.3288C38.3046 68.6001 38.998 68.9256 39.6637 69.3023C40.3268 69.6784 40.9576 70.1088 41.5494 70.5893C41.819 70.8075 42.0771 71.0396 42.3226 71.2846L41.441 70.7378C40.9154 70.4101 40.2129 69.9835 39.4964 69.5804C38.7798 69.1774 38.0538 68.7861 37.5046 68.4961L36.8422 68.1426C36.6985 68.0648 36.6089 68.0129 36.6089 68.0129Z" fill="black"/>
<path opacity="0.2" d="M38.1504 67.1243L38.4238 67.2044C38.5959 67.261 38.8481 67.3388 39.131 67.4401C39.8461 67.7106 40.5395 68.0352 41.2052 68.4113C41.8678 68.7882 42.4985 69.2186 43.0909 69.6983C43.3605 69.9207 43.6185 70.1567 43.8641 70.4054L42.9825 69.8585C42.4569 69.5285 41.7544 69.1043 41.0379 68.7012C40.3213 68.2981 39.5953 67.9068 39.0461 67.6169L38.3837 67.2633C38.24 67.1785 38.1504 67.1243 38.1504 67.1243Z" fill="black"/>
<path opacity="0.2" d="M39.4751 66.3726C39.4751 66.3726 39.5741 66.3985 39.7485 66.4527C39.923 66.5069 40.1728 66.5847 40.4557 66.6884C41.1706 66.9593 41.864 67.2839 42.5299 67.6596C43.1927 68.0361 43.8234 68.4666 44.4156 68.9465C44.6855 69.1686 44.9436 69.4047 45.1888 69.6537C45.1888 69.6537 44.8352 69.4368 44.3072 69.1068C43.7792 68.7768 43.0768 68.3549 42.3626 67.9495C41.6484 67.5441 40.92 67.1575 40.3708 66.8676L39.7085 66.514L39.4751 66.3726Z" fill="black"/>
<path opacity="0.2" d="M40.918 65.7549C40.918 65.7549 41.0123 65.7785 41.1725 65.828C41.3328 65.8775 41.5615 65.9458 41.8278 66.0472C42.4859 66.2916 43.1236 66.5879 43.7347 66.9334C44.3464 67.276 44.9276 67.6703 45.4719 68.112C45.7188 68.3147 45.9549 68.5303 46.1791 68.7579C46.1791 68.7579 46.0966 68.7107 45.9434 68.6211C45.7902 68.5316 45.5969 68.4114 45.3541 68.2629C44.8827 67.9635 44.225 67.5746 43.5674 67.2045C42.9097 66.8344 42.245 66.4762 41.743 66.2075L41.1372 65.8775C41.0005 65.8044 40.918 65.7549 40.918 65.7549Z" fill="black"/>
</g>
<path d="M66.3393 76.0157L63.2421 75.9544L58.5278 73.2555C58.0877 73.0353 57.6065 72.9094 57.115 72.8859C56.6235 72.8623 56.1324 72.9417 55.6733 73.1188L49.9714 75.6951L46.0586 75.6173V77.9037C46.0586 78.1607 46.2401 78.4247 46.6125 78.6392L56.866 84.5603C57.2812 84.7744 57.7479 84.8683 58.2136 84.8312C58.6792 84.7941 59.1253 84.6276 59.5013 84.3505L65.8656 79.1813C66.0052 79.0802 66.1201 78.9487 66.2017 78.7969C66.2834 78.6451 66.3296 78.4767 66.337 78.3045L66.3393 76.0157Z" fill="#37474F"/>
<path d="M46.6051 76.3528L56.8586 82.2739C57.2738 82.4881 57.7405 82.5819 58.2062 82.5448C58.6718 82.5078 59.1179 82.3413 59.4939 82.0641L65.8581 76.8949C66.5464 76.3363 66.4804 75.5254 65.712 75.0847L58.5275 70.9691C58.0874 70.7489 57.6062 70.623 57.1147 70.5995C56.6231 70.576 56.1321 70.6553 55.673 70.8324L46.6711 74.8843C45.8697 75.2544 45.8367 75.9097 46.6051 76.3528Z" fill="#455A64"/>
<path d="M66.3415 76.0181V78.2998C66.335 78.4722 66.2891 78.6409 66.2074 78.7928C66.1257 78.9448 66.0103 79.0761 65.87 79.1766L59.5058 84.3458C59.1448 84.6192 58.7128 84.7829 58.2612 84.8172V82.5332C58.7128 82.4988 59.1448 82.3352 59.5058 82.0617L65.87 76.8761C66.0073 76.7769 66.1207 76.6485 66.2022 76.5001C66.2838 76.3517 66.3313 76.1871 66.3415 76.0181Z" fill="#263238"/>
<path d="M67.3294 75.3414C67.3454 75.4431 67.3335 75.5473 67.2949 75.6428C67.2563 75.7383 67.1924 75.8215 67.1101 75.8835L64.4985 77.3897C64.5858 77.3317 64.6545 77.2496 64.6963 77.1534C64.7381 77.0573 64.7513 76.9511 64.7342 76.8476L64.1661 64.0885C64.1371 63.7974 64.0433 63.5166 63.8915 63.2666C63.7398 63.0165 63.534 62.8036 63.2892 62.6435L57.1254 59.0913C57.0314 59.0274 56.9223 58.9892 56.809 58.9805C56.6957 58.9718 56.5821 58.993 56.4795 59.0418L59.0723 57.5474C59.1769 57.4949 59.2936 57.4712 59.4104 57.4786C59.5272 57.4861 59.64 57.5245 59.737 57.5899L65.8868 61.142C66.1321 61.301 66.3383 61.5133 66.4901 61.7631C66.642 62.0129 66.7355 62.2937 66.7636 62.5846L67.3294 75.3414Z" fill="#263238"/>
<path d="M57.1277 59.0916L63.2799 62.6437C63.5243 62.8036 63.7299 63.0161 63.8817 63.2657C64.0334 63.5153 64.1274 63.7957 64.1567 64.0863L64.7224 76.8478C64.746 77.3805 64.3924 77.595 63.9328 77.3192L55.1737 72.2632C54.9372 72.1115 54.7473 71.8973 54.625 71.6444C54.5027 71.3915 54.4528 71.1096 54.4807 70.8301L56.1519 59.563C56.1551 59.4512 56.1889 59.3425 56.2497 59.2486C56.3105 59.1548 56.3959 59.0794 56.4966 59.0308C56.5973 58.9821 56.7094 58.9621 56.8207 58.9728C56.932 58.9835 57.0382 59.0246 57.1277 59.0916Z" fill="#37474F"/>
<path d="M66.4926 61.762L63.8785 63.2682C63.7303 63.0132 63.5224 62.7981 63.2727 62.6412L57.1254 59.0913C57.0314 59.0274 56.9223 58.9892 56.809 58.9805C56.6957 58.9718 56.5821 58.993 56.4795 59.0418L59.0723 57.5474C59.1769 57.4949 59.2936 57.4712 59.4104 57.4786C59.5272 57.4861 59.64 57.5245 59.737 57.5899L65.8868 61.142C66.1352 61.2975 66.3429 61.5101 66.4926 61.762Z" fill="#455A64"/>
<path d="M65.4176 59.907V56.7343C65.4176 54.4502 63.9585 51.7536 62.1577 50.7165C61.3327 50.2451 60.5808 50.1979 60.0056 50.5091L58.0186 51.6641L58.9001 53.3518V56.145C58.9158 56.4341 58.9995 56.7155 59.1445 56.9662C59.2895 57.2169 59.4917 57.4298 59.7345 57.5875L61.7169 58.7331L63.209 61.5876L65.1724 60.4467C65.2573 60.3864 65.3248 60.3047 65.3678 60.2099C65.4109 60.1151 65.4281 60.0106 65.4176 59.907Z" fill="#263238"/>
<path d="M62.1577 55.2352L64.7128 53.7596C64.1164 52.4585 63.1948 51.3082 62.1577 50.7119C61.3327 50.2404 60.5808 50.1933 60.0056 50.5044L58.0186 51.6594L58.9001 53.3471V53.8963L62.1577 55.2352Z" fill="#455A64"/>
<path d="M63.4609 61.0432V57.8681C63.4609 55.5817 62.0018 52.8875 60.2034 51.848C58.4049 50.8085 56.9458 51.8197 56.9458 54.1062V57.2812C56.9612 57.5705 57.0446 57.8521 57.1891 58.1031C57.3337 58.3542 57.5354 58.5676 57.7779 58.7261L62.6288 61.5264C63.0885 61.7904 63.4609 61.5759 63.4609 61.0432Z" fill="#37474F"/>
<path d="M57.3137 61.7927C56.5563 64.6086 56.193 67.5159 56.2341 70.4316C56.2544 70.7295 56.3344 71.0203 56.4692 71.2867C56.604 71.5532 56.791 71.7898 57.019 71.9826C58.5393 73.1105 60.1844 74.0596 61.9218 74.8111C62.0211 74.8677 62.1338 74.8962 62.2479 74.8938C62.3621 74.8913 62.4735 74.858 62.5702 74.7973C62.6669 74.7366 62.7454 74.6508 62.7972 74.5491C62.8491 74.4473 62.8724 74.3334 62.8647 74.2195C63.0179 70.7592 63.0721 67.5347 62.893 64.8523C62.821 64.2486 62.5207 63.6954 62.0538 63.306C60.9386 62.4908 59.739 61.7977 58.4757 61.2388C58.3643 61.1864 58.2426 61.1594 58.1194 61.1597C57.9963 61.16 57.8747 61.1876 57.7635 61.2406C57.6524 61.2936 57.5544 61.3706 57.4766 61.4661C57.3988 61.5616 57.3431 61.6731 57.3137 61.7927Z" fill="#494ECC"/>
<path opacity="0.15" d="M62.7892 74.5072C62.8298 74.4148 62.853 74.3157 62.8575 74.2149C63.0108 70.7547 63.065 67.5301 62.8858 64.8477C62.8564 64.5492 62.7648 64.2602 62.6171 63.9991C62.2753 63.5136 62.1457 67.6008 62.1575 70.0923C62.1693 72.5838 62.1928 75.0423 62.6006 74.7571L62.6477 74.7193C62.7004 74.6524 62.7476 74.5815 62.7892 74.5072Z" fill="black"/>
<g opacity="0.15">
<path opacity="0.15" d="M56.8066 70.2195L57.0046 70.3468C57.1272 70.4316 57.3063 70.5424 57.5185 70.6815C57.9451 70.9596 58.5132 71.3179 59.0954 71.6503C59.6776 71.9826 60.274 72.2938 60.7265 72.52C60.9623 72.6332 61.1414 72.7345 61.2758 72.7958C61.4101 72.8571 61.4832 72.9043 61.4832 72.9043C61.4832 72.9043 61.4007 72.8901 61.2475 72.8548C61.0943 72.8194 60.8915 72.7723 60.6488 72.6898C60.37 72.6015 60.0962 72.4984 59.8285 72.381C59.6823 72.3126 59.5291 72.249 59.3806 72.1688C59.2321 72.0887 59.0789 72.0109 58.9281 71.9331C58.6334 71.7587 58.3435 71.5748 58.0842 71.3839C57.847 71.2119 57.6189 71.0278 57.4006 70.8323C57.2074 70.6626 57.0612 70.5047 56.9575 70.3986C56.8538 70.2926 56.8066 70.2195 56.8066 70.2195Z" fill="black"/>
<path opacity="0.15" d="M56.8066 68.6072L57.0046 68.7345C57.1272 68.8193 57.3063 68.9301 57.5185 69.0692C57.9451 69.3473 58.5132 69.7032 59.0954 70.0356C59.6776 70.368 60.274 70.6791 60.7265 70.9077C60.9623 71.0209 61.1414 71.1222 61.2758 71.1835C61.4101 71.2448 61.4832 71.2919 61.4832 71.2919L61.2475 71.2425C61.1013 71.2047 60.8915 71.1576 60.6488 71.0775C60.37 70.9883 60.0962 70.8845 59.8285 70.7663C59.6823 70.698 59.5291 70.6367 59.3806 70.5565C59.2321 70.4764 59.0789 70.3962 58.9281 70.3208C58.6334 70.1464 58.3435 69.9625 58.0842 69.774C57.8249 69.5854 57.5916 69.3945 57.4006 69.2224C57.2097 69.0503 57.0612 68.8947 56.9575 68.7887C56.8538 68.6826 56.8066 68.6072 56.8066 68.6072Z" fill="black"/>
<path opacity="0.15" d="M57.1392 67.2729C57.1392 67.2729 57.2075 67.313 57.323 67.3884C57.4385 67.4639 57.6059 67.5676 57.7944 67.6949C58.1857 67.9471 58.7114 68.27 59.2535 68.5623C59.7956 68.8546 60.3543 69.1209 60.7762 69.326L61.2854 69.5782L61.4763 69.6772C61.4763 69.6772 61.3985 69.6772 61.2641 69.6371C61.1298 69.5971 60.9365 69.5664 60.7102 69.4981C60.4506 69.4238 60.1949 69.3365 59.9441 69.2364C59.8074 69.1775 59.6636 69.1257 59.5246 69.0549C59.3855 68.9842 59.2417 68.9159 59.1003 68.8452C58.9589 68.7744 58.8245 68.6872 58.6925 68.6094C58.5605 68.5317 58.4356 68.4374 58.313 68.3549C58.0924 68.1971 57.8815 68.0263 57.6813 67.8434C57.5069 67.6854 57.3702 67.5393 57.2759 67.4403C57.1816 67.3413 57.1392 67.2729 57.1392 67.2729Z" fill="black"/>
<path opacity="0.15" d="M57.2783 65.7693C57.2783 65.7693 57.3443 65.807 57.4575 65.8801C57.5706 65.9531 57.7309 66.0498 57.9289 66.1724C58.3084 66.4081 58.8152 66.7286 59.3432 67.0021C59.8712 67.2755 60.4109 67.5301 60.8211 67.7257L61.3137 67.9614C61.4316 68.0203 61.4976 68.0581 61.4976 68.0581L61.2925 68.0203C61.1629 67.9897 60.9743 67.9543 60.7551 67.8907C60.5359 67.8271 60.2837 67.7493 60.0126 67.655C59.8806 67.6008 59.7415 67.5513 59.6048 67.4853C59.4681 67.4193 59.329 67.3556 59.1923 67.2873C59.0556 67.2189 58.9236 67.1364 58.7963 67.0516C58.669 66.9667 58.5441 66.8866 58.4262 66.8159C58.214 66.6629 58.0109 66.4977 57.8181 66.3209C57.6484 66.1676 57.5187 66.0239 57.4268 65.9296C57.3349 65.8353 57.2783 65.7693 57.2783 65.7693Z" fill="black"/>
<path opacity="0.15" d="M57.5137 64.3337L57.6834 64.4351C57.7871 64.5035 57.938 64.5977 58.1195 64.7109C58.5497 64.99 58.9943 65.2465 59.4512 65.4793C59.9486 65.7292 60.4672 65.9507 60.8537 66.1322C61.2403 66.3137 61.4925 66.4528 61.4925 66.4528C61.2543 66.4158 61.0183 66.3662 60.7854 66.3043C60.2731 66.1761 59.7754 65.9952 59.3004 65.7645C59.1731 65.6962 59.0434 65.6278 58.9209 65.5547C58.7983 65.4817 58.6852 65.3992 58.572 65.319C58.3707 65.1749 58.1794 65.0174 57.9992 64.8476C57.8245 64.689 57.6622 64.5172 57.5137 64.3337Z" fill="black"/>
<path opacity="0.15" d="M58.0371 62.9524C58.0371 62.9524 58.2587 63.0773 58.5698 63.2753C58.881 63.4733 59.2982 63.7208 59.7295 63.9424C60.1609 64.164 60.6017 64.3761 60.934 64.5435C61.2664 64.7108 61.4832 64.8405 61.4832 64.8405C61.2764 64.8125 61.0717 64.7707 60.8704 64.7155C60.4241 64.6004 59.9917 64.4368 59.581 64.2276C59.4702 64.1663 59.3595 64.105 59.2534 64.039C59.1473 63.973 59.0483 63.9023 58.9517 63.834C58.7764 63.7084 58.6109 63.5698 58.4567 63.4191C58.3046 63.2749 58.1643 63.1189 58.0371 62.9524Z" fill="black"/>
</g>
<path d="M54.6855 73.4016C53.0685 73.6916 51.4704 74.5165 49.8817 75.7069C49.7844 75.7714 49.7047 75.859 49.6495 75.9618C49.5943 76.0646 49.5654 76.1795 49.5654 76.2962C49.5654 76.4129 49.5943 76.5278 49.6495 76.6306C49.7047 76.7334 49.7844 76.821 49.8817 76.8855C51.8013 78.2917 53.8729 79.4777 56.0574 80.4212C56.6226 80.6378 57.2506 80.6217 57.804 80.3764C59.1577 79.6849 60.4016 78.7968 61.4953 77.7411C61.5833 77.6557 61.6511 77.5517 61.6937 77.4367C61.7362 77.3217 61.7525 77.1986 61.7412 77.0765C61.7298 76.9543 61.6913 76.8363 61.6283 76.731C61.5654 76.6258 61.4797 76.536 61.3774 76.4683C59.8702 75.3492 58.2461 74.3968 56.5335 73.6279C55.9449 73.4041 55.3107 73.3264 54.6855 73.4016Z" fill="#494ECC"/>
<g opacity="0.2">
<path opacity="0.2" d="M50.7466 76.2986C50.7466 76.2986 50.8479 76.3245 51.0224 76.3787C51.1968 76.4329 51.4443 76.5107 51.7295 76.6144C52.4441 76.8844 53.1368 77.2091 53.8014 77.5856C54.4645 77.9616 55.0953 78.3921 55.6871 78.8726C55.9571 79.0913 56.2159 79.3233 56.4626 79.5679L55.5811 79.0211C55.0554 78.6934 54.3506 78.2668 53.6341 77.8637C52.9175 77.4607 52.1915 77.0717 51.6447 76.7818L50.9823 76.4259C50.8362 76.3552 50.7466 76.2986 50.7466 76.2986Z" fill="black"/>
<path opacity="0.2" d="M52.2881 75.4146L52.5639 75.4971C52.7359 75.5513 52.9858 75.6291 53.271 75.7328C53.9862 76.0032 54.6796 76.3278 55.3453 76.7039C56.0079 77.0808 56.6385 77.5112 57.231 77.9909C57.5005 78.2133 57.7586 78.4494 58.0041 78.698L57.1226 78.1512C56.5969 77.8235 55.8945 77.3969 55.1779 76.9938C54.4614 76.5908 53.7354 76.1995 53.1885 75.9095L52.5238 75.556C52.3777 75.4688 52.2881 75.4146 52.2881 75.4146Z" fill="black"/>
<path opacity="0.2" d="M53.6128 74.6628L53.8862 74.743C54.0606 74.7996 54.3105 74.8773 54.5934 74.9787C55.3085 75.2491 56.0019 75.5738 56.6676 75.9498C57.3302 76.3267 57.9609 76.7572 58.5533 77.2368C58.8229 77.4593 59.0809 77.6953 59.3265 77.944L58.4567 77.3971C57.9311 77.0671 57.2286 76.6428 56.5121 76.2374C55.7955 75.832 55.0695 75.4454 54.5203 75.1555L53.8579 74.8019C53.7024 74.7171 53.6128 74.6628 53.6128 74.6628Z" fill="black"/>
<path opacity="0.2" d="M55.0552 74.0452C55.0552 74.0452 55.1495 74.0687 55.3097 74.1182C55.47 74.1677 55.6987 74.2361 55.9674 74.3374C56.6245 74.5824 57.2614 74.8787 57.8719 75.2237C58.4836 75.5663 59.0648 75.9606 59.6092 76.4023C59.856 76.605 60.0921 76.8206 60.3163 77.0481C60.3163 77.0481 60.2338 77.001 60.0924 76.9138L59.5054 76.5531C59.0199 76.2538 58.374 75.8672 57.7164 75.4948C57.0587 75.1224 56.3964 74.7664 55.8943 74.4977L55.2885 74.1677C55.1377 74.0947 55.0552 74.0452 55.0552 74.0452Z" fill="black"/>
</g>
<path d="M97.6627 67.1502L87.0815 61.0405L92.9602 57.6462L98.681 61.2597L97.6627 67.1502Z" fill="#494ECC"/>
<path opacity="0.35" d="M97.6627 67.1502L87.0815 61.0405L92.9602 57.6462L98.681 61.2597L97.6627 67.1502Z" fill="black"/>
<path d="M93.2009 65.6913L94.7213 62.6742L91.1054 60.5811C89.9551 59.9211 88.423 59.9941 86.7424 60.9653C83.1713 63.0278 80.2768 68.3454 80.2744 72.8452C80.2744 75.2023 81.0688 76.8523 82.3393 77.616L82.3911 77.6467L86.0989 79.7869L87.7017 76.6048C90.7495 74.2925 93.0831 69.7126 93.2009 65.6913Z" fill="#37474F"/>
<path d="M93.2009 65.6913L94.7213 62.6742L91.1054 60.5811C89.9551 59.9211 88.423 59.9941 86.7424 60.9653C83.1713 63.0278 80.2768 68.3454 80.2744 72.8452C80.2744 75.2023 81.0688 76.8523 82.3393 77.616L82.3911 77.6467L86.0989 79.7869L87.7017 76.6048C90.7495 74.2925 93.0831 69.7126 93.2009 65.6913Z" fill="#263238"/>
<path d="M96.9699 67.5557C96.9699 71.4355 94.8178 75.9235 91.9351 78.3985C91.9338 78.4023 91.9338 78.4065 91.9351 78.4103C91.495 78.7906 91.0216 79.1306 90.5208 79.4262C86.9497 81.4887 84.0528 79.5134 84.0552 75.0137C84.0552 71.617 85.7052 67.7466 88.0623 65.1703C88.0697 65.1643 88.0761 65.1572 88.0812 65.1491C88.786 64.3621 89.6062 63.6865 90.5137 63.1455C94.0753 61.083 96.9699 63.0583 96.9699 67.5557Z" fill="#37474F"/>
<path d="M90.5135 65.8608C92.7858 64.5479 94.629 65.9151 94.629 68.9133C94.629 71.9116 92.7763 75.4072 90.5135 76.7201C88.2507 78.0331 86.3979 76.6659 86.3979 73.6559C86.3979 70.6458 88.2318 67.1714 90.5135 65.8608Z" fill="#455A64"/>
<path d="M92.3565 70.4455C92.2127 71.9376 91.2628 73.5263 90.2351 73.993C90.0612 74.0923 89.8615 74.1371 89.6619 74.1215C89.4622 74.106 89.2719 74.0308 89.1155 73.9058C88.7525 73.6017 88.5615 72.9629 88.644 72.1332C88.7878 70.6411 89.733 69.0524 90.7654 68.5975C90.997 68.4783 91.2622 68.4417 91.5174 68.4938C92.1114 68.6258 92.4626 69.3589 92.3565 70.4455Z" fill="#FAFAFA"/>
<path d="M91.9894 70.2571C91.8432 71.7491 90.8957 73.3378 89.868 73.7928C89.637 73.9111 89.3728 73.9476 89.1184 73.8965C88.7554 73.5924 88.5645 72.9536 88.647 72.1239C88.7907 70.6319 89.736 69.0432 90.7684 68.5882C90.9999 68.469 91.2652 68.4324 91.5203 68.4845C91.8809 68.7909 92.0695 69.4203 91.9894 70.2571Z" fill="#E0E0E0"/>
<path d="M96.9694 67.5557C96.9694 71.4356 94.8174 75.9235 91.9346 78.3985C93.6412 76.5387 95.409 73.4273 96.036 70.4621C96.5829 67.8692 96.3778 64.1449 94.1503 63.2045C91.9228 62.264 88.9882 64.2463 88.0571 65.1491C88.7692 64.3602 89.5974 63.6846 90.5133 63.1455C94.0749 61.083 96.9694 63.0583 96.9694 67.5557Z" fill="#455A64"/>
<path d="M98.7256 52.4914C97.415 49.3941 91.9488 46.1766 89.6153 47.3457C88.8893 47.7064 86.8244 48.958 84.2222 50.4571C84.2222 50.4571 75.6634 55.6428 74.8738 56.0907C74.8738 56.0907 78.9634 56.0223 79.8921 56.357C80.8208 56.6918 80.637 57.4036 80.5757 57.6676L80.1043 59.1856C79.0388 64.3713 70.9798 66.4927 69.2615 68.409C68.6557 69.0903 68.1583 69.333 67.1754 69.8988C66.1925 70.4645 60.0687 73.8847 59.1965 74.3891C57.6243 75.2966 55.0786 76.4539 55.0786 76.4539V91.6739L81.9687 76.2559C81.9688 75.8386 81.9909 75.4216 82.0347 75.0067C82.5062 70.0567 86.1409 64.3194 90.0301 62.0754C94.2494 59.6382 97.6719 61.9152 97.6719 67.1621L98.3555 66.7685C100.795 65.2929 100.034 55.5745 98.7256 52.4914Z" fill="#494ECC"/>
<path d="M83.8125 56.1449C82.1626 56.1449 82.0942 57.0053 81.5544 58.7071C81.1301 60.0459 80.4748 61.2339 81.2739 60.8285C82.073 60.4231 84.8214 57.4955 85.3329 56.9888C86.3889 55.9469 84.5668 56.1449 83.8125 56.1449Z" fill="black"/>
<path d="M91.8547 47.2089C90.9849 47.0156 90.1929 47.0274 89.6013 47.3244C88.8753 47.6874 86.8081 48.9414 84.2058 50.4406L80.7031 52.4583L62.0347 41.7027C62.0347 41.7027 69.2758 38.0067 71.845 37.0143C74.4143 36.022 91.1287 45.2832 91.8547 47.2089Z" fill="#494ECC"/>
<path opacity="0.5" d="M55.5786 77.425L69.9901 69.175C70.1367 69.2857 70.2534 69.4311 70.3295 69.5982C70.4057 69.7654 70.4389 69.9488 70.4262 70.132L55.5786 77.425Z" fill="white"/>
<path d="M67.8566 72.4562C67.8432 72.4634 67.8282 72.4671 67.813 72.4669C67.7978 72.4667 67.7829 72.4627 67.7697 72.4551C67.7565 72.4476 67.7454 72.4368 67.7375 72.4238C67.7296 72.4108 67.7252 72.396 67.7246 72.3808V71.9683C67.7246 71.6571 68.196 71.1339 68.7665 70.8039L69.615 70.3136C70.1902 69.9812 70.6569 69.9647 70.6569 70.2759V70.6129C70.6569 70.6823 70.6386 70.7504 70.6038 70.8105C70.5691 70.8705 70.5191 70.9202 70.4589 70.9547L67.8566 72.4562Z" fill="#37474F"/>
<path opacity="0.5" d="M78.0725 64.4114C77.3323 64.9654 73.1225 67.4757 72.5332 67.8505C72.8745 68.182 73.1273 68.5936 73.2686 69.0479C73.2686 69.0479 88.2317 60.4114 91.8899 57.1774C95.5482 53.9434 97.5471 50.931 94.7185 49.3635C93.8605 48.8921 93.0685 48.2462 92.0243 48.6328C91.9491 48.6576 91.8794 48.6968 91.8192 48.7483C91.7281 48.8539 91.6685 48.9829 91.6472 49.1207C90.8175 52.3382 88.1845 54.7472 86.0608 57.1774C83.9794 59.5628 80.6865 62.455 78.0725 64.4114Z" fill="white"/>
<path opacity="0.15" d="M50.5669 41.4882C50.5669 41.4882 68.2949 36.4958 69.5536 37.2454C70.8123 37.995 54.0719 45.3728 54.0719 45.3728L50.5669 41.4882Z" fill="black"/>
<path opacity="0.15" d="M57.2779 87.7894C56.6438 88.1264 56.5165 86.7664 56.1535 84.1193C55.7905 81.4722 55.8283 77.0361 55.8283 77.0361C55.3922 79.0208 55.5737 83.8294 55.8283 86.9101C56.0828 89.9909 56.6627 89.7033 57.2779 89.2461L71.5597 80.4775L57.2779 87.7894Z" fill="black"/>
<path opacity="0.15" d="M70.8857 68.5197C70.8857 68.5197 71.7107 69.4814 71.7107 71.584C71.7107 74.0967 71.7367 80.0697 71.7367 80.0697C71.7367 80.0697 72.2081 73.4249 72.4839 71.3483C72.7597 69.2717 71.7084 68.0884 71.7084 68.0884L70.8857 68.5197Z" fill="black"/>
<path opacity="0.15" d="M87.0815 63.7231C87.0815 63.7231 86.7138 61.9317 86.1976 61.2599C85.6814 60.5881 82.9424 60.2534 82.9424 60.2534C82.9424 60.2534 85.0897 60.9936 85.6837 61.6276C86.2777 62.2617 87.0815 63.7231 87.0815 63.7231Z" fill="black"/>
<path opacity="0.15" d="M95.0679 61.2597C95.0679 61.2597 97.7974 59.697 98.3844 58.6669C98.9713 57.6368 99.2188 54.2119 99.2188 54.2119C99.2188 54.2119 99.4545 58.1483 98.7638 59.0912C98.0732 60.034 95.0679 61.2597 95.0679 61.2597Z" fill="black"/>
<path d="M88.4983 53.2282C86.1836 51.0149 83.3551 49.412 80.6444 47.7361C77.9337 46.0602 75.2536 44.4361 72.5241 42.8592C70.2754 41.5534 68.0172 40.2664 65.6884 39.0878C65.0677 38.7657 64.4295 38.4784 63.7768 38.2275L63.5293 38.1402H63.4986C63.1757 38.0389 62.7703 37.921 62.3012 37.8008C59.8993 37.1762 55.8049 36.4148 52.208 36.6411C49.073 36.8391 33.2425 44.4078 31.4935 46.4303C30.6793 47.3493 29.9122 48.3091 29.1953 49.306C29.1953 49.306 31.3544 47.6395 32.4128 48.0237C33.2661 48.3348 39.3758 53.8482 43.4913 56.0379C48.4036 58.6308 55.1897 61.2 56.8774 61.9638C58.5651 62.7275 57.5162 64.7687 57.5162 64.7687C58.2964 63.5312 58.6783 62.8335 59.6376 62.0274C61.4008 60.5448 68.4839 56.8606 68.5947 56.804C69.5755 56.2966 70.6512 55.9987 71.7533 55.9295L79.1335 56.1652L87.5555 54.3714C88.0008 54.3552 88.4347 54.2263 88.8165 53.9967C88.9297 53.7091 88.7081 53.4333 88.4983 53.2282Z" fill="#494ECC"/>
<path opacity="0.5" d="M58.7963 62.6009C60.9609 60.8571 63.2555 59.2811 65.6602 57.8867C69.7993 55.4636 70.8813 55.0228 75.1594 55.0039C78.4217 54.9898 81.6934 55.0911 84.958 55.1218C85.1057 55.1351 85.2543 55.1099 85.3894 55.0487C85.4558 55.0156 85.5072 54.9584 85.533 54.8888C85.5588 54.8192 85.5572 54.7424 85.5285 54.6739C85.4697 54.5969 85.3866 54.5421 85.2927 54.5184C83.0393 53.7216 79.4942 53.4459 77.3586 52.3639C75.5248 51.4329 73.7357 50.4146 71.9372 49.394C67.025 46.5913 62.3956 43.9348 57.521 40.6867C52.9741 37.6602 52.3071 36.7197 50.4497 37.0402C45.2758 38.6619 33.0069 44.6561 31.4842 46.424L31.4653 46.4475L31.4842 47.3362C31.4842 47.3362 31.7505 47.5719 32.222 47.975C32.2838 47.9827 32.3446 47.9969 32.4035 48.0174C33.1766 48.3002 38.2657 52.8542 42.2846 55.3245C42.6853 55.5602 43.0883 55.7959 43.4914 56.0175C47.7342 58.252 53.3489 60.4677 55.9017 61.5261C57.6507 62.1979 58.7963 62.6009 58.7963 62.6009Z" fill="white"/>
<path opacity="0.15" d="M85.5448 54.2663C84.2398 54.1237 82.9431 53.9129 81.6602 53.6345C80.2082 53.3328 78.6879 53.0453 77.3514 52.3688C75.5175 51.4377 73.7285 50.4194 71.93 49.3988C67.0201 46.5962 62.3883 43.9397 57.5138 40.6915C52.9692 37.6673 52.2998 36.7245 50.4424 37.0451C51.0093 36.848 51.5956 36.7121 52.1914 36.6396C56.4931 36.3709 61.5044 37.5118 63.482 38.1388C64.2351 38.403 64.9671 38.7237 65.6718 39.0981C68.0006 40.2555 70.2588 41.5543 72.5075 42.8695C75.237 44.4567 77.9438 46.0823 80.6278 47.7464C83.3385 49.4224 86.167 51.0252 88.4817 53.2385C88.6915 53.4389 88.9131 53.71 88.8047 53.9858C88.1824 54.3912 87.3904 54.3983 86.6479 54.3605C86.2896 54.3323 85.9148 54.304 85.5448 54.2663Z" fill="black"/>
<path d="M80.6535 49.0475C74.9209 45.7475 70.8384 43.2136 66.3881 40.642C64.7664 39.6991 63.239 39.0108 61.0987 38.6761C59.9861 38.5017 58.1382 38.174 57.1387 38.1905C55.444 38.2542 56.4316 39.2182 59.8235 41.1747C63.2154 43.1311 72.4719 48.7646 74.4377 49.896C76.4036 51.0275 79.3877 52.5737 83.2722 53.196C87.1568 53.8183 90.0914 54.4972 80.6535 49.0475Z" fill="#455A64"/>
<path d="M81.0093 56.0765C79.892 55.3835 75.4017 55.3293 73.3345 55.235C71.3286 55.1431 69.9473 55.4519 68.599 56.1779C68.5071 56.225 68.4151 56.2745 68.3256 56.3287C67.2366 56.9746 61.4569 60.3854 59.7574 61.3353C58.0579 62.2852 57.801 63.4826 56.976 65.1986C56.151 66.9146 51.4674 76.5341 51.2128 77.8635C50.9582 79.1929 57.9848 75.5912 57.9848 75.5912L68.3209 69.6206C68.7239 69.3849 68.8347 69.3189 69.3226 69.0101C69.8106 68.7013 76.1465 64.8309 78.5602 62.8462C79.7647 61.8586 80.1041 61.1609 80.5661 59.4213C81.1201 57.3494 81.7093 56.5102 81.0093 56.0765ZM68.6061 68.5316C67.8164 69.0219 65.7775 70.0543 62.6967 71.8787C58.7485 74.2217 52.9194 76.9253 52.8793 76.9418C54.0979 73.9318 57.5488 66.6977 58.1852 65.1562C58.8216 63.6146 59.4463 62.5492 60.276 62.0919C62.1051 61.0689 67.7716 57.8844 68.8654 57.2339C68.9207 57.2008 68.9835 57.1824 69.0479 57.1804C69.1123 57.1784 69.1762 57.1928 69.2335 57.2222C69.2908 57.2517 69.3397 57.2953 69.3755 57.3489C69.4113 57.4025 69.4328 57.4643 69.4381 57.5285C69.4523 57.6676 69.4593 57.8349 69.4593 58.0353V66.9712C69.4852 67.2862 69.4182 67.6019 69.2665 67.8792C69.1149 68.1566 68.8852 68.3834 68.6061 68.5316ZM80.3776 56.9416C80.1819 57.7807 79.4206 61.2575 78.3834 62.099C77.5797 62.7519 73.0115 65.597 71.3285 66.7095C70.6638 67.1503 70.5271 66.561 70.5271 65.8398C70.5271 64.013 70.5271 60.1826 70.5271 58.0235C70.4871 56.8803 70.777 56.4277 71.7057 56.2675C72.863 56.0695 80.6133 55.8856 80.3776 56.9416Z" fill="#263238"/>
<path opacity="0.5" d="M68.6067 68.5316C67.817 69.0219 65.7781 70.0543 62.6973 71.8787C58.7491 74.2217 52.92 76.9253 52.8799 76.9418C54.0985 73.9318 57.5494 66.6977 58.1858 65.1562C58.8222 63.6146 59.4468 62.5492 60.2766 62.0919C62.1057 61.0689 67.7722 57.8844 68.8659 57.2338C68.9213 57.2008 68.9841 57.1824 69.0485 57.1804C69.1129 57.1783 69.1768 57.1927 69.2341 57.2222C69.2914 57.2517 69.3403 57.2953 69.3761 57.3489C69.4119 57.4024 69.4334 57.4643 69.4387 57.5285C69.4529 57.6676 69.4599 57.8349 69.4599 58.0353V66.9712C69.4858 67.2862 69.4187 67.6019 69.2671 67.8792C69.1154 68.1565 68.8858 68.3833 68.6067 68.5316Z" fill="black"/>
<path opacity="0.5" d="M80.378 56.9416C80.1823 57.7808 79.421 61.2575 78.3838 62.099C77.58 62.7519 73.0119 65.597 71.3289 66.7096C70.6642 67.1504 70.5275 66.5611 70.5275 65.8398C70.5275 64.013 70.5275 60.1827 70.5275 58.0235C70.4874 56.8803 70.7774 56.4278 71.7061 56.2675C72.8634 56.0695 80.6137 55.8856 80.378 56.9416Z" fill="black"/>
<path d="M49.9028 77.2812C47.2274 75.2918 41.3181 71.0231 35.1542 67.4261C27.4063 62.9051 19.2177 60.2557 19.2012 60.251C19.4227 61.0878 20.7451 62.4172 22.5247 63.8621C23.7834 64.8898 25.2048 65.9387 26.8453 67.0419C30.7252 69.7479 34.3999 71.6171 35.7317 72.4114C42.4 76.0272 49.1862 78.8393 50.3058 77.5075C50.3058 77.5075 49.9051 77.286 49.9028 77.2812Z" fill="#455A64"/>
<path d="M50.3059 77.5075C49.9877 77.3095 39.4419 70.8086 34.5697 67.8786C29.9309 65.0878 20.3657 60.7766 19.2036 60.251C24.7528 62.0885 30.098 64.4928 35.1543 67.4261C41.3182 71.0231 47.633 75.5157 50.3059 77.5075Z" fill="#37474F"/>
<path d="M20.8278 57.4084L20.5921 58.3984C20.0453 59.4237 18.836 60.7154 18.4023 60.6094C18.0134 60.5151 17.7753 59.9494 17.6551 59.2517C17.5967 58.9183 17.5629 58.5811 17.5538 58.2428C17.5161 57.1444 18.004 54.5869 19.5267 53.9057C19.6793 53.8399 19.8488 53.824 20.011 53.8604C20.1732 53.8968 20.3196 53.9837 20.4295 54.1084C20.6327 54.3123 20.7839 54.5621 20.8702 54.8368C21.1225 55.5958 20.8632 57.3683 20.8278 57.4084Z" fill="#494ECC"/>
<path opacity="0.3" d="M20.8278 57.4084C20.7477 57.8185 20.5921 58.3984 20.5921 58.3984C20.0453 59.4237 18.836 60.7154 18.4023 60.6094C18.0134 60.5151 17.7753 59.9494 17.6551 59.2517C17.5967 58.9183 17.5629 58.5811 17.5538 58.2428C17.5161 57.1444 18.004 54.5869 19.5267 53.9057C19.6793 53.8399 19.8488 53.824 20.011 53.8604C20.1732 53.8968 20.3196 53.9837 20.4295 54.1084C20.6327 54.3123 20.7839 54.5621 20.8702 54.8368C21.1225 55.5958 20.8632 57.3683 20.8278 57.4084Z" fill="black"/>
<path d="M20.5897 58.3984C20.0428 59.4237 18.8336 60.7154 18.3999 60.6094C18.011 60.5151 17.7729 59.9494 17.6527 59.2517C17.5943 58.9183 17.5604 58.5811 17.5513 58.2428C17.5136 57.1444 18.0015 54.5869 19.5242 53.9057C19.6769 53.8399 19.8464 53.824 20.0086 53.8604C20.1707 53.8968 20.3172 53.9837 20.427 54.1084L20.2196 54.5798C19.1542 55.0324 18.8666 56.6777 18.9656 57.927C19.0646 59.1762 19.9792 59.0442 20.5897 58.3984Z" fill="#494ECC"/>
<path opacity="0.35" d="M20.5897 58.3984C20.0428 59.4237 18.8336 60.7154 18.3999 60.6094C18.011 60.5151 17.7729 59.9494 17.6527 59.2517C17.5943 58.9183 17.5604 58.5811 17.5513 58.2428C17.5136 57.1444 18.0015 54.5869 19.5242 53.9057C19.6769 53.8399 19.8464 53.824 20.0086 53.8604C20.1707 53.8968 20.3172 53.9837 20.427 54.1084L20.2196 54.5798C19.1542 55.0324 18.8666 56.6777 18.9656 57.927C19.0646 59.1762 19.9792 59.0442 20.5897 58.3984Z" fill="black"/>
<path d="M20.8654 54.8273C20.4812 54.4195 19.5242 54.3983 18.7204 55.5038C17.9166 56.6093 17.6526 58.5068 17.6502 59.2422C17.5919 58.9089 17.558 58.5717 17.5489 58.2334C17.5112 57.1349 17.9991 54.5775 19.5218 53.8962C20.1582 53.6134 20.6839 54.264 20.8654 54.8273Z" fill="#37474F"/>
<path d="M55.067 91.6622L44.4858 85.5501L50.3645 82.1582L55.067 84.8831V91.6622Z" fill="#494ECC"/>
<path opacity="0.35" d="M55.067 91.6622L44.4858 85.5501L50.3645 82.1582L55.067 84.8831V91.6622Z" fill="black"/>
<path d="M50.7112 90.1418L52.2315 87.1246L48.6157 85.0315C47.4654 84.3715 45.9333 84.4446 44.2526 85.4157C40.6816 87.4782 37.7847 92.7959 37.7847 97.2956C37.7847 99.6528 38.579 101.303 39.8495 102.066L39.9014 102.097L43.6068 104.242L45.2096 101.06C48.2503 98.7358 50.5933 94.156 50.7112 90.1418Z" fill="#37474F"/>
<path d="M50.7112 90.1418L52.2315 87.1246L48.6157 85.0315C47.4654 84.3715 45.9333 84.4446 44.2526 85.4157C40.6816 87.4782 37.7847 92.7959 37.7847 97.2956C37.7847 99.6528 38.579 101.303 39.8495 102.066L39.9014 102.097L43.6068 104.242L45.2096 101.06C48.2503 98.7358 50.5933 94.156 50.7112 90.1418Z" fill="#263238"/>
<path d="M54.4802 91.9993C54.4802 95.8792 52.3282 100.367 49.4454 102.842C49.4427 102.843 49.4402 102.845 49.4381 102.847C49.4361 102.849 49.4345 102.851 49.4336 102.854C48.9935 103.234 48.5202 103.574 48.0193 103.87C44.4483 105.932 41.549 103.957 41.5537 99.4573C41.5537 96.0607 43.2037 92.1903 45.5608 89.6139C45.5683 89.608 45.5746 89.6008 45.5797 89.5927C46.2882 88.8012 47.1132 88.1224 48.0264 87.5797C51.5857 85.5267 54.4802 87.5019 54.4802 91.9993Z" fill="#37474F"/>
<path d="M48.0145 90.3044C50.2867 88.9915 52.13 90.3587 52.13 93.3569C52.13 96.3552 50.2867 99.8508 48.0145 101.164C45.7422 102.477 43.8989 101.11 43.8989 98.0995C43.8989 95.0894 45.7422 91.6197 48.0145 90.3044Z" fill="#455A64"/>
<path d="M49.8743 94.9034C49.7164 96.3954 48.757 97.9676 47.7317 98.439C47.5572 98.5377 47.357 98.5815 47.1573 98.5646C46.9576 98.5478 46.7676 98.4712 46.612 98.3448C46.2514 98.036 46.0675 97.4019 46.1548 96.5675C46.3103 95.0778 47.2697 93.5032 48.2974 93.0318C48.5297 92.9151 48.7947 92.8802 49.0493 92.9328C49.6433 93.0813 49.9874 93.8191 49.8743 94.9034Z" fill="#FAFAFA"/>
<path d="M49.4993 94.7123C49.3437 96.202 48.382 97.7765 47.3566 98.248C47.1238 98.3629 46.8594 98.3977 46.6047 98.347C46.2441 98.0382 46.0602 97.4041 46.1474 96.5697C46.303 95.08 47.2624 93.5054 48.2901 93.034C48.5224 92.9173 48.7873 92.8824 49.042 92.935C49.4097 93.2461 49.5936 93.8755 49.4993 94.7123Z" fill="#E0E0E0"/>
<path d="M54.4802 91.9993C54.4802 95.8792 52.3281 100.367 49.4453 102.842C51.1519 100.982 52.9198 97.871 53.5468 94.9057C54.0936 92.3128 53.8862 88.5886 51.661 87.6481C49.4359 86.7076 46.4989 88.6899 45.5679 89.5927C46.2764 88.8012 47.1014 88.1224 48.0146 87.5797C51.5856 85.5267 54.4802 87.5019 54.4802 91.9993Z" fill="#455A64"/>
<path d="M55.0884 76.4446C55.0884 76.4446 54.4731 76.3291 54.6169 75.794C54.6169 75.794 51.0129 77.444 50.2562 77.6939C48.6062 78.2384 42.3999 76.0321 35.7316 72.4115C34.3998 71.6172 30.7251 69.7503 26.8476 67.042C25.1976 65.9389 23.7833 64.8899 22.5223 63.8622C21.4531 63.0009 20.4731 62.0343 19.5971 60.9771C19.3849 60.7178 18.9441 60.0036 19.2034 59.4214C5.97992 68.8287 -1.27061 72.7227 0.282735 83.45C0.282735 83.45 0.334592 84.2373 0.619804 85.8236C1.05823 88.2444 2.34994 92.3599 5.67585 94.7076C8.74012 96.862 8.94047 97.02 13.0819 99.2545C17.2234 101.489 22.8027 103.118 28.2383 102.946C34.3668 102.748 39.7246 100.412 39.8919 98.9929C39.967 98.3579 40.0812 97.7281 40.2337 97.1072C40.6344 95.4967 41.2429 93.9453 42.044 92.4919C43.2673 90.2644 44.9008 88.3127 46.7229 87.0493C46.9586 86.8819 47.1943 86.7287 47.4465 86.5779C51.3829 84.3056 54.6264 86.1347 55.0436 90.6486C55.0742 90.9763 55.0884 91.3157 55.0884 91.6693V76.4446Z" fill="#494ECC"/>
<path d="M18.8922 99.9451C15.0783 99.0023 12.3087 97.4937 9.60273 95.8979C6.89674 94.3021 5.13597 92.8124 4.12947 91.5467C3.18662 90.3492 2.59734 88.7982 3.18662 89.0151C4.18604 89.8755 6.34517 91.7046 7.72174 92.5367C11.842 95.0352 16.2074 98.1301 22.9417 98.2456C23.3755 98.2277 23.8098 98.261 24.2358 98.3446C25.8881 98.8349 21.485 100.591 18.8922 99.9451Z" fill="#455A64"/>
<path d="M32.7639 96.8832C32.3891 96.8314 31.4534 97.0812 29.8647 97.5385C28.2759 97.9958 27.8894 98.0382 27.3001 98.4436C26.8027 98.7878 25.471 99.8721 24.8275 100.204C23.8092 100.73 24.8275 101.11 27.6796 101.112C30.5317 101.114 31.4934 100.261 32.1581 99.3865C32.8228 98.512 33.6125 97.0011 32.7639 96.8832Z" fill="#455A64"/>
<path d="M0.355469 84.1335C0.407326 84.5272 0.487468 85.0764 0.619467 85.8189C0.842335 87.0216 1.18748 88.1984 1.64953 89.331C1.78547 89.491 1.97012 89.6019 2.17517 89.6469C2.66074 89.6139 2.24589 88.7747 1.89703 87.5255C1.54818 86.2762 0.673681 85.0623 0.355469 84.1335Z" fill="#455A64"/>
<path opacity="0.85" d="M8.20002 80.6755C11.9784 83.4062 16.03 85.7373 20.2897 87.6314C20.9191 87.9166 21.2326 88.6732 20.8295 89.2295C20.2159 90.0558 19.4363 90.7447 18.5408 91.2519C17.9326 91.5819 16.8365 91.4876 16.1836 91.2331C12.5536 89.8534 9.52709 88.1248 7.10396 86.0474C6.57832 85.5972 5.96546 84.6803 5.94425 83.9896C5.90409 82.9127 6.05737 81.8374 6.39682 80.8146C6.6561 80.1687 7.64374 80.2654 8.20002 80.6755Z" fill="white"/>
<path d="M17.5107 90.71C17.1521 90.7101 16.796 90.6503 16.457 90.5332C12.9214 89.1896 9.94194 87.4878 7.59895 85.4772C7.14874 85.0906 6.71267 84.3552 6.70089 83.9639C6.66551 82.9975 6.79872 82.0324 7.09453 81.1118C7.21238 80.876 7.60838 81.1707 7.75452 81.2791C11.5764 84.0413 15.6736 86.4008 19.981 88.3199C20.0446 88.3479 20.1017 88.389 20.1484 88.4406C20.1951 88.4922 20.2304 88.5531 20.252 88.6192C20.2618 88.6481 20.2641 88.6791 20.2588 88.7092C20.2534 88.7393 20.2406 88.7675 20.2214 88.7913C19.6734 89.5281 18.9783 90.1429 18.1801 90.5968C17.9684 90.6846 17.7395 90.7233 17.5107 90.71Z" fill="#494ECC"/>
<path opacity="0.35" d="M17.5107 90.71C17.1521 90.7101 16.796 90.6503 16.457 90.5332C12.9214 89.1896 9.94194 87.4878 7.59895 85.4772C7.14874 85.0906 6.71267 84.3552 6.70089 83.9639C6.66551 82.9975 6.79872 82.0324 7.09453 81.1118C7.21238 80.876 7.60838 81.1707 7.75452 81.2791C11.5764 84.0413 15.6736 86.4008 19.981 88.3199C20.0446 88.3479 20.1017 88.389 20.1484 88.4406C20.1951 88.4922 20.2304 88.5531 20.252 88.6192C20.2618 88.6481 20.2641 88.6791 20.2588 88.7092C20.2534 88.7393 20.2406 88.7675 20.2214 88.7913C19.6734 89.5281 18.9783 90.1429 18.1801 90.5968C17.9684 90.6846 17.7395 90.7233 17.5107 90.71Z" fill="black"/>
<path d="M11.6794 88.6687L10.9487 88.4942C11.3433 86.9741 11.9261 85.5092 12.6836 84.1335L13.3341 84.506C12.6162 85.8215 12.0606 87.2193 11.6794 88.6687Z" fill="#494ECC"/>
<path opacity="0.85" d="M11.6794 88.6687L10.9487 88.4942C11.3433 86.9741 11.9261 85.5092 12.6836 84.1335L13.3341 84.506C12.6162 85.8215 12.0606 87.2193 11.6794 88.6687Z" fill="white"/>
<path d="M20.4688 88.9422C17.7614 87.8233 15.1354 86.5166 12.6101 85.0317C9.71323 83.2568 6.84225 81.1896 6.81396 81.1707L6.88704 81.0693C6.91532 81.0882 9.78159 83.1507 12.6761 84.9256C15.1914 86.4069 17.808 87.7089 20.5065 88.8219L20.4688 88.9422Z" fill="#494ECC"/>
<path d="M20.0946 89.2932C17.4272 88.1988 14.8411 86.9156 12.3562 85.4535C9.45925 83.6762 6.78862 81.7315 6.7627 81.7198L6.83577 81.6184C6.8617 81.6396 9.52761 83.5819 12.4222 85.3568C14.8988 86.8144 17.4762 88.0936 20.1347 89.1848L20.0946 89.2932Z" fill="#494ECC"/>
<path d="M19.7199 89.6468C17.0915 88.578 14.5452 87.3175 12.1016 85.8754C9.2047 84.0981 6.73207 82.2713 6.7085 82.2525L6.78392 82.1511C6.8075 82.17 9.27305 83.9944 12.1676 85.7693C14.6027 87.2064 17.1404 88.4622 19.7599 89.5266L19.7199 89.6468Z" fill="#494ECC"/>
<path d="M19.3472 89.9981C16.7557 88.9591 14.2482 87.7219 11.8468 86.2974C8.94991 84.5201 6.67763 82.8112 6.66113 82.7924L6.73656 82.6934C6.75778 82.7099 9.02533 84.4164 11.9222 86.189C14.3149 87.6102 16.8138 88.8443 19.3967 89.8802L19.3472 89.9981Z" fill="#494ECC"/>
<path d="M18.9727 90.3492C16.4208 89.3346 13.9531 88.12 11.5925 86.7168C8.69323 84.9419 6.62367 83.3509 6.6001 83.3344L6.67788 83.2354C6.69674 83.2495 8.76394 84.8382 11.6561 86.6108C14.0084 88.0094 16.4675 89.22 19.0104 90.2313L18.9727 90.3492Z" fill="#494ECC"/>
<path d="M18.5976 90.7029C16.0858 89.7127 13.658 88.5216 11.3376 87.1413C9.68405 86.1404 8.08593 85.0506 6.55029 83.8767L6.62808 83.78C8.16077 84.9494 9.75489 86.0361 11.4036 87.0352C13.7156 88.4118 16.1348 89.5997 18.6377 90.5874L18.5976 90.7029Z" fill="#494ECC"/>
<path d="M18.225 91.0541C15.7501 90.0896 13.3596 88.9212 11.0782 87.5609C9.48857 86.604 7.95691 85.5541 6.49121 84.4165L6.57135 84.3198C8.0323 85.4543 9.55926 86.5011 11.1442 87.4548C13.4163 88.8093 15.7965 89.9737 18.2604 90.9363L18.225 91.0541Z" fill="#494ECC"/>
<g opacity="0.85">
<path opacity="0.85" d="M20.4688 88.9422C17.7614 87.8233 15.1354 86.5166 12.6101 85.0317C9.71323 83.2568 6.84225 81.1896 6.81396 81.1707L6.88704 81.0693C6.91532 81.0882 9.78159 83.1507 12.6761 84.9256C15.1914 86.4069 17.808 87.7089 20.5065 88.8219L20.4688 88.9422Z" fill="white"/>
<path opacity="0.85" d="M20.0946 89.2935C17.4272 88.199 14.8411 86.9158 12.3562 85.4537C9.45925 83.6764 6.78862 81.7318 6.7627 81.72L6.83577 81.6187C6.8617 81.6399 9.52761 83.5821 12.4222 85.3571C14.8988 86.8146 17.4762 88.0939 20.1347 89.185L20.0946 89.2935Z" fill="white"/>
<path opacity="0.85" d="M19.7194 89.647C17.091 88.5783 14.5447 87.3177 12.1011 85.8756C9.20421 84.0984 6.73158 82.2716 6.70801 82.2527L6.78344 82.1514C6.80701 82.1702 9.27257 83.9946 12.1671 85.7696C14.6022 87.2066 17.1399 88.4625 19.7594 89.5268L19.7194 89.647Z" fill="white"/>
<path opacity="0.85" d="M19.3472 89.9981C16.7557 88.9591 14.2482 87.7219 11.8468 86.2974C8.94991 84.5201 6.67763 82.8112 6.66113 82.7924L6.73656 82.6934C6.75778 82.7099 9.02533 84.4164 11.9222 86.189C14.3149 87.6102 16.8138 88.8443 19.3967 89.8802L19.3472 89.9981Z" fill="white"/>
<path opacity="0.85" d="M18.9722 90.3494C16.4203 89.3348 13.9526 88.1203 11.592 86.7171C8.69274 84.9422 6.62318 83.3511 6.59961 83.3346L6.6774 83.2356C6.69625 83.2497 8.76345 84.8384 11.6557 86.611C14.0079 88.0096 16.467 89.2202 19.0099 90.2316L18.9722 90.3494Z" fill="white"/>
<path opacity="0.85" d="M18.5976 90.7029C16.0858 89.7127 13.658 88.5216 11.3376 87.1413C9.68405 86.1404 8.08593 85.0506 6.55029 83.8767L6.62808 83.78C8.16077 84.9494 9.75489 86.0361 11.4036 87.0352C13.7156 88.4118 16.1348 89.5997 18.6377 90.5874L18.5976 90.7029Z" fill="white"/>
<path opacity="0.85" d="M18.225 91.0541C15.7501 90.0896 13.3596 88.9212 11.0782 87.5609C9.48857 86.604 7.95691 85.5541 6.49121 84.4165L6.57135 84.3198C8.0323 85.4543 9.55926 86.5011 11.1442 87.4548C13.4163 88.8093 15.7965 89.9737 18.2604 90.9363L18.225 91.0541Z" fill="white"/>
</g>
<path opacity="0.5" d="M17.8338 62.2333C17.2398 62.1037 8.2898 68.7414 7.12773 69.8987C5.96567 71.0561 6.46774 71.0278 7.45066 72.963C8.65515 75.3201 7.25502 77.3755 8.10594 77.2058C8.52551 77.1233 10.3452 73.3731 13.0041 69.7243C15.7218 65.9953 18.8568 62.4525 17.8338 62.2333Z" fill="white"/>
<path opacity="0.85" d="M32.1583 91.2189C32.6651 90.6155 33.0163 89.8777 32.592 89.2319C32.1677 88.586 31.1636 88.2183 30.4541 88.0132C28.2488 87.3871 25.8855 87.6565 23.8777 88.7628C23.4123 89.0024 22.9977 89.3298 22.6567 89.7269C22.486 89.9257 22.3565 90.1564 22.2756 90.4057C22.1947 90.6549 22.164 90.9177 22.1853 91.1789C22.494 93.5973 26.0792 93.9131 27.9202 93.5926C29.1172 93.3801 30.2434 92.8757 31.1989 92.1241C31.5496 91.8569 31.8712 91.5535 32.1583 91.2189Z" fill="white"/>
<path opacity="0.85" d="M3.15655 80.8807C3.2976 80.948 3.44901 80.9911 3.6044 81.008C3.81212 81.0188 4.01978 80.9857 4.2139 80.911C4.40801 80.8363 4.58423 80.7216 4.73111 80.5743C5.02453 80.2801 5.26814 79.9402 5.45239 79.5678C6.37403 77.8919 8.57559 73.3638 5.45239 72.6213C4.45297 72.3856 3.36869 73.3285 2.8124 74.0875C2.00452 75.2045 1.62552 76.575 1.74463 77.9484C1.82477 78.863 2.19012 80.4187 3.15655 80.8807Z" fill="white"/>
<path opacity="0.15" d="M33.2495 91.073C36.0902 91.3051 38.7444 92.5805 40.7004 94.6535C38.42 93.0764 35.9056 91.8681 33.2495 91.073Z" fill="black"/>
<path opacity="0.15" d="M20.2971 63.1904C20.2971 63.1904 13.7749 69.0196 8.72119 78.4505L20.2971 63.1904Z" fill="black"/>
<path opacity="0.15" d="M21.9424 86.0805C21.9424 86.0805 32.1582 80.8006 47.1637 78.8347L21.9424 86.0805Z" fill="black"/>
<path opacity="0.15" d="M0.26416 81.9839C1.06087 84.2774 3.87764 87.7683 8.05683 90.2221C12.236 92.6758 17.6527 96.056 23.7977 96.2563C29.9428 96.4567 34.1785 91.8956 34.1785 91.8956C34.1785 91.8956 31.0153 96.9422 23.8072 97.1002C16.5991 97.2581 12.1441 94.0642 7.85412 91.4619C3.38736 88.7559 0.768586 84.9067 0.26416 81.9839Z" fill="black"/>
<path opacity="0.5" d="M39.3047 93.0481C40.7661 89.338 43.5358 86.4245 45.8481 85.6184C43.3425 85.8164 40.0213 88.388 38.7319 92.6898C38.7319 92.6922 39.1067 92.9161 39.3047 93.0481Z" fill="white"/>
<path opacity="0.5" d="M38.499 93.5903C38.1725 95.1063 38.1001 96.6659 38.2845 98.2056C38.2871 96.7251 38.5332 95.255 39.0129 93.8543L38.499 93.5903Z" fill="white"/>
<path opacity="0.5" d="M32.8298 87.7895C34.5434 88.631 34.7461 89.7624 36.0331 88.7323C37.3201 87.7023 46.6402 81.0316 48.8465 80.0864C51.3285 79.021 49.068 78.8795 43.4251 80.6332C37.7821 82.3869 27.9953 85.0411 27.5781 85.6186C27.1609 86.1961 29.5204 86.1631 32.8298 87.7895Z" fill="white"/>
<path d="M36.7122 50.9498C35.4012 49.978 34.1424 48.9378 32.9407 47.8337C32.4395 47.3764 31.9547 46.905 31.4864 46.4194C26.951 50.2818 22.8104 54.585 19.1256 59.2658C18.435 60.4609 21.3861 63.2399 25.7539 66.3183C34.8217 72.7085 50.004 80.3974 51.4324 77.9177L58.6829 62.125C50.0158 58.9735 42.5555 55.3058 36.7122 50.9498ZM50.598 77.3497C50.4695 77.3826 50.3369 77.3969 50.2044 77.3921C46.6687 77.3921 34.8547 71.4993 26.3384 65.498C20.8322 61.6158 20.1345 60.0366 20.0472 59.7184C23.2313 55.6897 26.7624 51.948 30.6001 48.5361C30.8311 48.3326 31.1292 48.222 31.437 48.2254C31.7448 48.2289 32.0403 48.3463 32.2666 48.555C33.4889 49.681 34.7698 50.7416 36.104 51.7324C41.3321 55.6429 47.8849 59.0914 56.0995 62.2287C56.2575 62.2896 56.4013 62.3822 56.5221 62.5007C56.643 62.6193 56.7382 62.7614 56.802 62.9182C56.8659 63.075 56.8969 63.2432 56.8932 63.4124C56.8896 63.5817 56.8513 63.7484 56.7808 63.9023L50.598 77.3497Z" fill="#37474F"/>
<path opacity="0.5" d="M50.5981 77.3614C50.4696 77.3943 50.337 77.4086 50.2045 77.4038C46.6688 77.4038 34.8549 71.511 26.3385 65.5097C20.8323 61.6275 20.1346 60.0483 20.0474 59.7301C23.2314 55.7014 26.7626 51.9597 30.6002 48.5478C30.8312 48.3444 31.1293 48.2337 31.4371 48.2371C31.7449 48.2406 32.0404 48.358 32.2667 48.5667C33.489 49.6927 34.7699 50.7533 36.1041 51.7441C41.3322 55.6428 47.8851 59.0913 56.0997 62.2286C56.2576 62.2895 56.4014 62.3821 56.5223 62.5007C56.6431 62.6192 56.7383 62.7613 56.8022 62.9181C56.866 63.0749 56.897 63.2431 56.8934 63.4123C56.8897 63.5816 56.8514 63.7483 56.7809 63.9022L50.5981 77.3614Z" fill="black"/>
<path opacity="0.2" d="M26.3381 65.5098C27.71 66.4762 29.1667 67.4403 30.6634 68.3784C33.7277 63.3907 38.284 56.7389 40.0401 54.4336C38.6557 53.5646 37.3467 52.6705 36.1131 51.7512C35.3235 51.1619 34.5716 50.5727 33.855 49.9622C29.3152 54.1814 25.1336 60.5127 23.4082 63.3106C24.1884 63.9446 25.1501 64.673 26.3381 65.5098Z" fill="white"/>
<path opacity="0.2" d="M42.8356 56.0979C42.2793 55.7836 41.7332 55.4693 41.1974 55.155C37.83 59.6362 34.7169 64.3028 31.8726 69.1328C32.476 69.5005 33.0818 69.8619 33.6899 70.2171C35.677 66.9525 39.1278 61.4486 42.8356 56.0979Z" fill="white"/>
<path opacity="0.3" d="M41.4172 73.9412C45.7284 75.9896 50.2069 77.4039 50.5676 76.4398C50.9282 75.4757 54.0703 69.1987 54.9683 66.7096C55.8664 64.2204 56.0762 63.947 55.4869 63.1904C54.8976 62.4337 51.6353 61.2245 46.3412 58.7283C41.0471 56.2321 36.1136 51.7512 36.1136 51.7512C41.3323 55.6428 47.8852 59.0913 56.0997 62.2287C56.2577 62.2895 56.4015 62.3821 56.5224 62.5007C56.6432 62.6193 56.7384 62.7613 56.8022 62.9181C56.8661 63.0749 56.8971 63.2431 56.8934 63.4124C56.8898 63.5816 56.8515 63.7483 56.781 63.9022L50.6053 77.3614C50.4768 77.3943 50.3442 77.4086 50.2116 77.4039C46.6759 77.4039 34.862 71.511 26.3457 65.5098C28.0876 66.7873 37.1201 71.8717 41.4172 73.9412Z" fill="white"/>
<path d="M58.711 76.6284C58.2207 78.9596 55.6467 79.457 53.7068 79.3933C52.6814 79.3651 51.8399 79.1765 51.5854 79.028C50.8405 78.5966 51.1847 77.7033 51.5854 77.1847C52.2642 76.3079 55.3026 74.5471 57.2095 74.4882C58.3197 74.4504 59.0527 74.9926 58.711 76.6284Z" fill="#494ECC"/>
<path opacity="0.3" d="M58.711 76.6284C58.2207 78.9596 55.6467 79.457 53.7068 79.3933C52.6814 79.3651 51.8399 79.1765 51.5854 79.028C50.8405 78.5966 51.1847 77.7033 51.5854 77.1847C52.2642 76.3079 55.3026 74.5471 57.2095 74.4882C58.3197 74.4504 59.0527 74.9926 58.711 76.6284Z" fill="black"/>
<path d="M58.711 76.6284C58.2207 78.9596 55.6467 79.457 53.7068 79.3933C52.6814 79.3651 51.8399 79.1765 51.5854 79.028C50.8405 78.5966 51.1847 77.7033 51.5854 77.1847C51.2106 77.8918 53.2 78.3373 54.9749 77.7009C56.7498 77.0645 58.0722 75.6903 57.2095 74.4882C58.3197 74.4504 59.0527 74.9926 58.711 76.6284Z" fill="#494ECC"/>
<path opacity="0.35" d="M58.711 76.6284C58.2207 78.9596 55.6467 79.457 53.7068 79.3933C52.6814 79.3651 51.8399 79.1765 51.5854 79.028C50.8405 78.5966 51.1847 77.7033 51.5854 77.1847C51.2106 77.8918 53.2 78.3373 54.9749 77.7009C56.7498 77.0645 58.0722 75.6903 57.2095 74.4882C58.3197 74.4504 59.0527 74.9926 58.711 76.6284Z" fill="black"/>
<path d="M58.7112 76.6284C58.2209 78.9596 55.6469 79.457 53.707 79.3933C55.6304 79.3391 57.1649 78.2289 57.7448 77.0197C58.3246 75.8105 57.8839 74.6414 57.2027 74.4882C58.3199 74.4504 59.053 74.9926 58.7112 76.6284Z" fill="#37474F"/>
</g>
<defs>
<clipPath id="clip0_266_1952">
<rect width="99.99" height="99.99" fill="white" transform="translate(0 20.01)"/>
</clipPath>
</defs>
</svg>
