<svg width="120" height="120" viewBox="0 0 120 120" fill="none" xmlns="http://www.w3.org/2000/svg">
<path opacity="0.2" d="M20 18.75C20 8.39465 28.3947 0 38.75 0H101.25C111.605 0 120 8.39466 120 18.75V81.25C120 91.6053 111.605 100 101.25 100H38.75C28.3946 100 20 91.6053 20 81.25V18.75Z" fill="#FF3D00"/>
<path d="M30.986 63.8382C27.1831 63.8382 23.8904 61.1969 23.0654 57.4846L21.2576 49.35C21.0237 48.2972 21.8248 47.2983 22.9035 47.2983H30.986L32.9571 55.0697L30.986 63.8382Z" fill="#61656D"/>
<path d="M30.986 86.3753C27.1831 86.3753 23.8904 83.734 23.0654 80.0217L21.2576 71.8872C21.0237 70.8343 21.8248 69.8354 22.9035 69.8354H30.986L32.9571 77.6068L30.986 86.3753Z" fill="#61656D"/>
<path d="M30.985 108.913C27.1822 108.913 23.8895 106.271 23.0644 102.559L21.2567 94.4245C21.0227 93.3717 21.8238 92.3728 22.9025 92.3728H30.985L32.9561 100.144L30.985 108.913Z" fill="#61656D"/>
<path d="M69.0207 63.8382C72.8235 63.8382 76.1162 61.1969 76.9412 57.4846L78.749 49.35C78.983 48.2972 78.1819 47.2983 77.1031 47.2983H69.0207L67.5938 54.5429L69.0207 63.8382Z" fill="#61656D"/>
<path d="M69.0202 86.3753C72.8231 86.3753 76.1157 83.734 76.9408 80.0217L78.7486 71.8872C78.9825 70.8343 78.1814 69.8354 77.1027 69.8354H69.0202L67.9502 77.3848L69.0202 86.3753Z" fill="#61656D"/>
<path d="M69.0203 108.913C72.8231 108.913 76.1158 106.271 76.9409 102.559L78.7487 94.4245C78.9826 93.3717 78.1815 92.3728 77.1028 92.3728H69.0203L67.6953 100.278L69.0203 108.913Z" fill="#61656D"/>
<path d="M81.0557 26.7547V30.0306C81.0557 30.9994 80.2697 31.7853 79.3009 31.7853H55.374C54.6043 31.7853 53.9796 32.4101 53.9796 33.1815V44.5338H46.0263V33.1815C46.0263 32.4101 45.4015 31.7853 44.6319 31.7853H20.7049C19.7361 31.7853 18.9502 30.9994 18.9502 30.0306V26.7547C18.9502 25.7859 19.7361 25 20.7049 25H79.3009C80.2697 25 81.0557 25.7859 81.0557 26.7547Z" fill="#61656D"/>
<path d="M64.9686 115H35.0372C32.7993 115 30.9854 113.186 30.9854 110.948V45.1934C30.9854 42.9555 32.7995 41.1416 35.0372 41.1416H64.9684C67.2063 41.1416 69.0202 42.9557 69.0202 45.1934V110.948C69.0204 113.186 67.2063 115 64.9686 115Z" fill="#4A4131"/>
<path d="M50.003 63.9391C54.5982 63.9391 58.3233 60.2139 58.3233 55.6187C58.3233 51.0235 54.5982 47.2983 50.003 47.2983C45.4078 47.2983 41.6826 51.0235 41.6826 55.6187C41.6826 60.2139 45.4078 63.9391 50.003 63.9391Z" fill="#DA3400"/>
<path d="M50.003 86.4237C54.5982 86.4237 58.3233 82.6985 58.3233 78.1033C58.3233 73.5081 54.5982 69.783 50.003 69.783C45.4078 69.783 41.6826 73.5081 41.6826 78.1033C41.6826 82.6985 45.4078 86.4237 50.003 86.4237Z" fill="#DA3400"/>
<path opacity="0.5" d="M50.003 86.4237C54.5982 86.4237 58.3233 82.6985 58.3233 78.1033C58.3233 73.5081 54.5982 69.783 50.003 69.783C45.4078 69.783 41.6826 73.5081 41.6826 78.1033C41.6826 82.6985 45.4078 86.4237 50.003 86.4237Z" fill="white"/>
<path d="M50.003 108.908C54.5982 108.908 58.3233 105.183 58.3233 100.588C58.3233 95.9927 54.5982 92.2676 50.003 92.2676C45.4078 92.2676 41.6826 95.9927 41.6826 100.588C41.6826 105.183 45.4078 108.908 50.003 108.908Z" fill="white"/>
</svg>
